<?xml version="1.0" encoding="utf-8"?>
<svg xmlns="http://www.w3.org/2000/svg" xmlns:xlink="http://www.w3.org/1999/xlink" width="800" height="600" viewBox="0 0 3200 2400">
<defs>
  <clipPath id="clip210">
    <rect x="0" y="0" width="3200" height="2400"/>
  </clipPath>
</defs>
<path clip-path="url(#clip210)" d="M0 2400 L3200 2400 L3200 0 L0 0  Z" fill="#ffffff" fill-rule="evenodd" fill-opacity="1"/>
<defs>
  <clipPath id="clip211">
    <rect x="640" y="0" width="2241" height="2241"/>
  </clipPath>
</defs>
<path clip-path="url(#clip210)" d="M447.724 1952.28 L3152.76 1952.28 L3152.76 47.2441 L447.724 47.2441  Z" fill="#ffffff" fill-rule="evenodd" fill-opacity="1"/>
<defs>
  <clipPath id="clip212">
    <rect x="447" y="47" width="2706" height="1906"/>
  </clipPath>
</defs>
<polyline clip-path="url(#clip210)" style="stroke:#000000; stroke-linecap:round; stroke-linejoin:round; stroke-width:4; stroke-opacity:1; fill:none" points="447.724,1952.28 3152.76,1952.28 "/>
<path clip-path="url(#clip210)" d="M1885.08 2082.27 Q1885.08 2095.89 1878.2 2122.24 Q1875.42 2133.66 1871.61 2144.05 Q1867.95 2154.3 1862.54 2164.25 Q1857.12 2174.21 1850.83 2181.38 Q1844.53 2188.41 1836.33 2192.8 Q1828.13 2197.19 1819.06 2197.19 Q1804.71 2197.19 1796.22 2188.7 Q1787.88 2180.06 1785.24 2165.28 Q1765.63 2197.19 1739.42 2197.19 Q1723.17 2197.19 1715.56 2185.63 Q1707.95 2173.91 1707.95 2154.3 Q1707.95 2137.76 1712.34 2120.63 Q1720.68 2088.13 1736.93 2065.44 Q1739.13 2062.8 1742.35 2062.8 Q1744.25 2062.8 1745.13 2063.39 Q1747.77 2065 1747.77 2067.64 Q1747.77 2069.54 1746.3 2071.44 Q1736.06 2085.64 1729.32 2097.79 Q1722.59 2109.94 1719.51 2122.24 Q1717.17 2132.78 1717.17 2141.71 Q1717.17 2156.79 1723.61 2166.16 Q1730.2 2175.52 1743.23 2175.52 Q1755.23 2175.52 1765.77 2168.06 Q1776.31 2160.45 1784.07 2147.71 Q1784.51 2133.8 1787.88 2120.63 Q1790.95 2106.57 1798.12 2106.57 Q1803.83 2106.57 1803.83 2114.33 Q1803.83 2116.97 1802.66 2122.24 Q1799.44 2136.15 1793.59 2148.59 Q1795.64 2160.74 1803.25 2168.21 Q1810.86 2175.52 1823.01 2175.52 Q1834.28 2175.52 1844.24 2167.33 Q1854.34 2159.13 1860.78 2147.13 Q1867.37 2134.97 1871.03 2120.63 Q1872.2 2115.8 1872.2 2109.65 Q1872.2 2093.25 1860.78 2083.15 Q1857.56 2079.93 1857.56 2075.69 Q1857.56 2070.71 1861.66 2066.17 Q1866.49 2061.34 1872.2 2061.34 Q1876.44 2061.34 1879.08 2063.98 Q1885.08 2069.25 1885.08 2082.27 Z" fill="#000000" fill-rule="nonzero" fill-opacity="1" /><polyline clip-path="url(#clip210)" style="stroke:#000000; stroke-linecap:round; stroke-linejoin:round; stroke-width:4; stroke-opacity:1; fill:none" points="447.724,1952.28 447.724,47.2441 "/>
<path clip-path="url(#clip210)" d="M95.2237 1142.05 Q98.0052 1142.05 99.3227 1143.22 Q100.494 1144.39 100.787 1145.71 Q100.933 1147.02 100.933 1150.1 Q100.933 1156.39 101.372 1159.76 Q101.811 1163.13 103.714 1165.18 Q105.471 1167.22 107.228 1167.96 Q108.984 1168.54 113.523 1169.57 L253.472 1204.7 Q274.991 1210.12 289.044 1229.73 Q302.952 1249.35 302.952 1270.87 Q302.952 1288.44 293.729 1299.56 Q284.36 1310.54 270.307 1310.54 Q263.133 1310.54 258.01 1308.2 Q252.886 1305.86 250.544 1302.34 Q248.202 1298.83 247.323 1295.9 Q246.299 1292.83 246.299 1290.34 Q246.299 1285.51 249.373 1281.41 Q252.447 1277.16 258.888 1277.16 Q266.061 1277.16 272.063 1282.73 Q278.065 1288.29 278.065 1296.63 Q278.065 1299.42 277.772 1300.29 Q284.946 1298.1 289.484 1292.39 Q293.875 1286.68 295.193 1281.7 Q296.364 1276.58 296.364 1271.75 Q296.364 1259.16 284.214 1246.42 Q272.063 1233.69 251.422 1228.56 L113.815 1194.16 Q109.131 1192.99 107.521 1192.99 Q104.446 1192.99 103.422 1194.89 Q102.25 1196.65 101.519 1202.21 Q100.933 1209.68 100.933 1219.63 Q100.933 1223.15 100.933 1224.61 Q100.787 1226.07 100.494 1227.54 Q100.201 1229 99.6155 1229.44 Q98.8835 1229.88 97.566 1229.88 Q94.7846 1229.88 93.4671 1228.71 Q92.0032 1227.54 91.8568 1226.51 Q91.564 1225.49 91.564 1223.58 L92.4423 1179.52 Q92.4423 1175.72 92.0032 1162.83 Q91.564 1149.95 91.564 1146.14 Q91.564 1142.05 95.2237 1142.05 Z" fill="#000000" fill-rule="nonzero" fill-opacity="1" /><path clip-path="url(#clip210)" d="M221.412 1103.82 Q170.761 1103.82 129.918 1084.94 Q112.791 1076.89 98.4443 1065.61 Q84.0981 1054.34 77.8033 1046.88 Q71.5085 1039.41 71.5085 1037.36 Q71.5085 1034.43 74.4363 1034.29 Q75.9002 1034.29 79.56 1038.24 Q128.747 1086.55 221.412 1086.4 Q314.37 1086.4 361.654 1039.41 Q366.778 1034.29 368.388 1034.29 Q371.316 1034.29 371.316 1037.36 Q371.316 1039.41 365.314 1046.58 Q359.312 1053.76 345.551 1064.88 Q331.79 1076.01 314.956 1084.06 Q274.113 1103.82 221.412 1103.82 Z" fill="#000000" fill-rule="nonzero" fill-opacity="1" /><path clip-path="url(#clip210)" d="M184.815 840.36 Q198.429 840.36 224.779 847.24 Q236.198 850.022 246.591 853.828 Q256.839 857.488 266.793 862.904 Q276.748 868.321 283.921 874.615 Q290.948 880.91 295.339 889.108 Q299.731 897.306 299.731 906.382 Q299.731 920.728 291.24 929.219 Q282.603 937.563 267.818 940.198 Q299.731 959.815 299.731 986.018 Q299.731 1002.27 288.166 1009.88 Q276.455 1017.49 256.839 1017.49 Q240.297 1017.49 223.169 1013.1 Q190.67 1004.76 167.98 988.507 Q165.345 986.311 165.345 983.091 Q165.345 981.187 165.93 980.309 Q167.541 977.674 170.176 977.674 Q172.079 977.674 173.982 979.138 Q188.182 989.385 200.332 996.119 Q212.482 1002.85 224.779 1005.93 Q235.319 1008.27 244.249 1008.27 Q259.327 1008.27 268.696 1001.83 Q278.065 995.241 278.065 982.212 Q278.065 970.208 270.599 959.668 Q262.987 949.128 250.251 941.369 Q236.344 940.93 223.169 937.563 Q209.115 934.489 209.115 927.316 Q209.115 921.607 216.874 921.607 Q219.509 921.607 224.779 922.778 Q238.686 925.998 251.129 931.854 Q263.28 929.805 270.746 922.192 Q278.065 914.58 278.065 902.43 Q278.065 891.157 269.867 881.203 Q261.669 871.102 249.665 864.661 Q237.515 858.073 223.169 854.414 Q218.338 853.242 212.19 853.242 Q195.794 853.242 185.693 864.661 Q182.472 867.881 178.227 867.881 Q173.25 867.881 168.712 863.782 Q163.881 858.952 163.881 853.242 Q163.881 848.997 166.516 846.362 Q171.786 840.36 184.815 840.36 Z" fill="#000000" fill-rule="nonzero" fill-opacity="1" /><path clip-path="url(#clip210)" d="M368.388 804.108 Q366.924 804.108 363.264 800.302 Q314.077 751.993 221.412 751.993 Q128.454 751.993 81.4631 798.399 Q76.0466 804.108 74.4363 804.108 Q71.5085 804.108 71.5085 801.181 Q71.5085 799.131 77.5105 791.958 Q83.5125 784.638 97.2732 773.659 Q111.034 762.533 127.869 754.336 Q168.712 734.573 221.412 734.573 Q272.063 734.573 312.906 753.457 Q330.034 761.509 344.38 772.781 Q358.726 784.053 365.021 791.519 Q371.316 798.985 371.316 801.181 Q371.316 804.108 368.388 804.108 Z" fill="#000000" fill-rule="nonzero" fill-opacity="1" /><polyline clip-path="url(#clip212)" style="stroke:#009af9; stroke-linecap:round; stroke-linejoin:round; stroke-width:32; stroke-opacity:1; fill:none" points="447.724,1952.28 460.02,1952.28 472.316,1952.28 484.611,1952.28 496.907,1952.28 509.202,1952.28 521.498,1952.28 533.794,1952.28 546.089,1952.28 558.385,1952.28 570.68,1952.28 582.976,1734.44 595.272,1644.99 607.567,1576.88 619.863,1519.91 632.158,1470.11 644.454,1425.45 656.75,1384.7 669.045,1347.09 681.341,1312.05 693.636,1279.19 705.932,1248.2 718.228,1218.84 730.523,1190.92 742.819,1164.3 755.114,1138.84 767.41,1114.44 779.706,1091 792.001,1068.45 804.297,1046.73 816.592,1025.78 828.888,1005.54 841.184,985.972 853.479,967.034 865.775,948.69 878.07,930.91 890.366,913.663 902.662,896.924 914.957,880.668 927.253,864.875 939.548,849.525 951.844,834.598 964.14,820.079 976.435,805.951 988.731,792.201 1001.03,778.815 1013.32,765.782 1025.62,753.088 1037.91,740.725 1050.21,728.681 1062.5,716.947 1074.8,705.515 1087.1,694.377 1099.39,683.524 1111.69,672.95 1123.98,662.647 1136.28,652.61 1148.57,642.831 1160.87,633.306 1173.16,624.028 1185.46,614.993 1197.76,606.196 1210.05,597.632 1222.35,589.297 1234.64,581.186 1246.94,573.296 1259.23,565.623 1271.53,558.163 1283.83,550.913 1296.12,543.869 1308.42,537.029 1320.71,530.39 1333.01,523.948 1345.3,517.702 1357.6,511.648 1369.89,505.784 1382.19,500.108 1394.49,494.618 1406.78,489.311 1419.08,484.186 1431.37,479.24 1443.67,474.473 1455.96,469.882 1468.26,465.465 1480.55,461.221 1492.85,457.149 1505.15,453.247 1517.44,449.513 1529.74,445.947 1542.03,442.548 1554.33,439.314 1566.62,436.244 1578.92,433.337 1591.21,430.592 1603.51,428.009 1615.81,425.586 1628.1,423.323 1640.4,421.219 1652.69,419.273 1664.99,417.486 1677.28,415.855 1689.58,414.382 1701.88,413.064 1714.17,411.903 1726.47,410.897 1738.76,410.047 1751.06,409.351 1763.35,408.81 1775.65,408.424 1787.94,408.192 1800.24,408.115 1812.54,408.192 1824.83,408.424 1837.13,408.81 1849.42,409.351 1861.72,410.047 1874.01,410.897 1886.31,411.903 1898.6,413.064 1910.9,414.382 1923.2,415.855 1935.49,417.486 1947.79,419.273 1960.08,421.219 1972.38,423.323 1984.67,425.586 1996.97,428.009 2009.27,430.592 2021.56,433.337 2033.86,436.244 2046.15,439.314 2058.45,442.548 2070.74,445.947 2083.04,449.513 2095.33,453.247 2107.63,457.149 2119.93,461.221 2132.22,465.465 2144.52,469.882 2156.81,474.473 2169.11,479.24 2181.4,484.186 2193.7,489.311 2205.99,494.618 2218.29,500.108 2230.59,505.784 2242.88,511.648 2255.18,517.702 2267.47,523.948 2279.77,530.39 2292.06,537.029 2304.36,543.869 2316.66,550.913 2328.95,558.163 2341.25,565.623 2353.54,573.296 2365.84,581.186 2378.13,589.297 2390.43,597.632 2402.72,606.196 2415.02,614.993 2427.32,624.028 2439.61,633.306 2451.91,642.831 2464.2,652.61 2476.5,662.647 2488.79,672.95 2501.09,683.524 2513.38,694.377 2525.68,705.515 2537.98,716.947 2550.27,728.681 2562.57,740.725 2574.86,753.088 2587.16,765.782 2599.45,778.815 2611.75,792.201 2624.05,805.951 2636.34,820.079 2648.64,834.598 2660.93,849.525 2673.23,864.875 2685.52,880.668 2697.82,896.924 2710.11,913.663 2722.41,930.91 2734.71,948.69 2747,967.034 2759.3,985.972 2771.59,1005.54 2783.89,1025.78 2796.18,1046.73 2808.48,1068.45 2820.77,1091 2833.07,1114.44 2845.37,1138.84 2857.66,1164.3 2869.96,1190.92 2882.25,1218.84 2894.55,1248.2 2906.84,1279.19 2919.14,1312.05 2931.44,1347.09 2943.73,1384.7 2956.03,1425.45 2968.32,1470.11 2980.62,1519.91 2992.91,1576.88 3005.21,1644.99 3017.5,1734.44 3029.8,1952.28 3042.1,1952.28 3054.39,1952.28 3066.69,1952.28 3078.98,1952.28 3091.28,1952.28 3103.57,1952.28 3115.87,1952.28 3128.16,1952.28 3140.46,1952.28 3152.76,1952.28 "/>
<polyline clip-path="url(#clip212)" style="stroke:#000000; stroke-linecap:round; stroke-linejoin:round; stroke-width:16; stroke-opacity:1; fill:none" points="447.724,3857.31 447.724,-1857.79 "/>
<polyline clip-path="url(#clip212)" style="stroke:#000000; stroke-linecap:round; stroke-linejoin:round; stroke-width:16; stroke-opacity:1; fill:none" points="-2257.31,1952.28 5857.79,1952.28 "/>
</svg>
