<?xml version="1.0" encoding="utf-8"?>
<svg xmlns="http://www.w3.org/2000/svg" xmlns:xlink="http://www.w3.org/1999/xlink" width="800" height="600" viewBox="0 0 3200 2400">
<defs>
  <clipPath id="clip410">
    <rect x="0" y="0" width="3200" height="2400"/>
  </clipPath>
</defs>
<path clip-path="url(#clip410)" d="M0 2400 L3200 2400 L3200 0 L0 0  Z" fill="#ffffff" fill-rule="evenodd" fill-opacity="1"/>
<defs>
  <clipPath id="clip411">
    <rect x="640" y="0" width="2241" height="2241"/>
  </clipPath>
</defs>
<path clip-path="url(#clip410)" d="M456.638 2289.88 L3152.76 2289.88 L3152.76 47.2441 L456.638 47.2441  Z" fill="#ffffff" fill-rule="evenodd" fill-opacity="1"/>
<defs>
  <clipPath id="clip412">
    <rect x="456" y="47" width="2697" height="2244"/>
  </clipPath>
</defs>
<polyline clip-path="url(#clip412)" style="stroke:#000000; stroke-linecap:round; stroke-linejoin:round; stroke-width:2; stroke-opacity:0.1; fill:none" points="646.505,2289.88 646.505,47.2441 "/>
<polyline clip-path="url(#clip412)" style="stroke:#000000; stroke-linecap:round; stroke-linejoin:round; stroke-width:2; stroke-opacity:0.1; fill:none" points="1026.24,2289.88 1026.24,47.2441 "/>
<polyline clip-path="url(#clip412)" style="stroke:#000000; stroke-linecap:round; stroke-linejoin:round; stroke-width:2; stroke-opacity:0.1; fill:none" points="1405.98,2289.88 1405.98,47.2441 "/>
<polyline clip-path="url(#clip412)" style="stroke:#000000; stroke-linecap:round; stroke-linejoin:round; stroke-width:2; stroke-opacity:0.1; fill:none" points="1785.71,2289.88 1785.71,47.2441 "/>
<polyline clip-path="url(#clip412)" style="stroke:#000000; stroke-linecap:round; stroke-linejoin:round; stroke-width:2; stroke-opacity:0.1; fill:none" points="2165.45,2289.88 2165.45,47.2441 "/>
<polyline clip-path="url(#clip412)" style="stroke:#000000; stroke-linecap:round; stroke-linejoin:round; stroke-width:2; stroke-opacity:0.1; fill:none" points="2545.18,2289.88 2545.18,47.2441 "/>
<polyline clip-path="url(#clip412)" style="stroke:#000000; stroke-linecap:round; stroke-linejoin:round; stroke-width:2; stroke-opacity:0.1; fill:none" points="2924.91,2289.88 2924.91,47.2441 "/>
<polyline clip-path="url(#clip412)" style="stroke:#000000; stroke-linecap:round; stroke-linejoin:round; stroke-width:2; stroke-opacity:0.1; fill:none" points="456.638,2289.88 3152.76,2289.88 "/>
<polyline clip-path="url(#clip412)" style="stroke:#000000; stroke-linecap:round; stroke-linejoin:round; stroke-width:2; stroke-opacity:0.1; fill:none" points="456.638,1729.22 3152.76,1729.22 "/>
<polyline clip-path="url(#clip412)" style="stroke:#000000; stroke-linecap:round; stroke-linejoin:round; stroke-width:2; stroke-opacity:0.1; fill:none" points="456.638,1168.56 3152.76,1168.56 "/>
<polyline clip-path="url(#clip412)" style="stroke:#000000; stroke-linecap:round; stroke-linejoin:round; stroke-width:2; stroke-opacity:0.1; fill:none" points="456.638,607.902 3152.76,607.902 "/>
<polyline clip-path="url(#clip412)" style="stroke:#000000; stroke-linecap:round; stroke-linejoin:round; stroke-width:2; stroke-opacity:0.1; fill:none" points="456.638,47.2441 3152.76,47.2441 "/>
<polyline clip-path="url(#clip410)" style="stroke:#000000; stroke-linecap:round; stroke-linejoin:round; stroke-width:4; stroke-opacity:1; fill:none" points="456.638,2289.88 456.638,47.2441 "/>
<polyline clip-path="url(#clip410)" style="stroke:#000000; stroke-linecap:round; stroke-linejoin:round; stroke-width:4; stroke-opacity:1; fill:none" points="456.638,2289.88 475.536,2289.88 "/>
<polyline clip-path="url(#clip410)" style="stroke:#000000; stroke-linecap:round; stroke-linejoin:round; stroke-width:4; stroke-opacity:1; fill:none" points="456.638,1729.22 475.536,1729.22 "/>
<polyline clip-path="url(#clip410)" style="stroke:#000000; stroke-linecap:round; stroke-linejoin:round; stroke-width:4; stroke-opacity:1; fill:none" points="456.638,1168.56 475.536,1168.56 "/>
<polyline clip-path="url(#clip410)" style="stroke:#000000; stroke-linecap:round; stroke-linejoin:round; stroke-width:4; stroke-opacity:1; fill:none" points="456.638,607.902 475.536,607.902 "/>
<polyline clip-path="url(#clip410)" style="stroke:#000000; stroke-linecap:round; stroke-linejoin:round; stroke-width:4; stroke-opacity:1; fill:none" points="456.638,47.2441 475.536,47.2441 "/>
<path clip-path="url(#clip410)" d="M271.532 2290.33 L301.208 2290.33 L301.208 2294.26 L271.532 2294.26 L271.532 2290.33 Z" fill="#000000" fill-rule="nonzero" fill-opacity="1" /><path clip-path="url(#clip410)" d="M321.301 2275.67 Q317.689 2275.67 315.861 2279.24 Q314.055 2282.78 314.055 2289.91 Q314.055 2297.02 315.861 2300.58 Q317.689 2304.12 321.301 2304.12 Q324.935 2304.12 326.74 2300.58 Q328.569 2297.02 328.569 2289.91 Q328.569 2282.78 326.74 2279.24 Q324.935 2275.67 321.301 2275.67 M321.301 2271.97 Q327.111 2271.97 330.166 2276.58 Q333.245 2281.16 333.245 2289.91 Q333.245 2298.64 330.166 2303.24 Q327.111 2307.83 321.301 2307.83 Q315.49 2307.83 312.412 2303.24 Q309.356 2298.64 309.356 2289.91 Q309.356 2281.16 312.412 2276.58 Q315.49 2271.97 321.301 2271.97 Z" fill="#000000" fill-rule="nonzero" fill-opacity="1" /><path clip-path="url(#clip410)" d="M341.462 2301.28 L346.347 2301.28 L346.347 2307.16 L341.462 2307.16 L341.462 2301.28 Z" fill="#000000" fill-rule="nonzero" fill-opacity="1" /><path clip-path="url(#clip410)" d="M356.578 2272.6 L374.935 2272.6 L374.935 2276.53 L360.861 2276.53 L360.861 2285 Q361.879 2284.66 362.898 2284.49 Q363.916 2284.31 364.935 2284.31 Q370.722 2284.31 374.101 2287.48 Q377.481 2290.65 377.481 2296.07 Q377.481 2301.65 374.009 2304.75 Q370.536 2307.83 364.217 2307.83 Q362.041 2307.83 359.773 2307.46 Q357.527 2307.09 355.12 2306.35 L355.12 2301.65 Q357.203 2302.78 359.425 2303.34 Q361.648 2303.89 364.124 2303.89 Q368.129 2303.89 370.467 2301.79 Q372.805 2299.68 372.805 2296.07 Q372.805 2292.46 370.467 2290.35 Q368.129 2288.24 364.124 2288.24 Q362.249 2288.24 360.374 2288.66 Q358.523 2289.08 356.578 2289.96 L356.578 2272.6 Z" fill="#000000" fill-rule="nonzero" fill-opacity="1" /><path clip-path="url(#clip410)" d="M396.694 2275.67 Q393.083 2275.67 391.254 2279.24 Q389.448 2282.78 389.448 2289.91 Q389.448 2297.02 391.254 2300.58 Q393.083 2304.12 396.694 2304.12 Q400.328 2304.12 402.133 2300.58 Q403.962 2297.02 403.962 2289.91 Q403.962 2282.78 402.133 2279.24 Q400.328 2275.67 396.694 2275.67 M396.694 2271.97 Q402.504 2271.97 405.559 2276.58 Q408.638 2281.16 408.638 2289.91 Q408.638 2298.64 405.559 2303.24 Q402.504 2307.83 396.694 2307.83 Q390.883 2307.83 387.805 2303.24 Q384.749 2298.64 384.749 2289.91 Q384.749 2281.16 387.805 2276.58 Q390.883 2271.97 396.694 2271.97 Z" fill="#000000" fill-rule="nonzero" fill-opacity="1" /><path clip-path="url(#clip410)" d="M272.528 1729.67 L302.203 1729.67 L302.203 1733.6 L272.528 1733.6 L272.528 1729.67 Z" fill="#000000" fill-rule="nonzero" fill-opacity="1" /><path clip-path="url(#clip410)" d="M322.296 1715.02 Q318.685 1715.02 316.856 1718.58 Q315.051 1722.12 315.051 1729.25 Q315.051 1736.36 316.856 1739.92 Q318.685 1743.47 322.296 1743.47 Q325.93 1743.47 327.736 1739.92 Q329.564 1736.36 329.564 1729.25 Q329.564 1722.12 327.736 1718.58 Q325.93 1715.02 322.296 1715.02 M322.296 1711.31 Q328.106 1711.31 331.162 1715.92 Q334.24 1720.5 334.24 1729.25 Q334.24 1737.98 331.162 1742.59 Q328.106 1747.17 322.296 1747.17 Q316.486 1747.17 313.407 1742.59 Q310.352 1737.98 310.352 1729.25 Q310.352 1720.5 313.407 1715.92 Q316.486 1711.31 322.296 1711.31 Z" fill="#000000" fill-rule="nonzero" fill-opacity="1" /><path clip-path="url(#clip410)" d="M342.458 1740.62 L347.342 1740.62 L347.342 1746.5 L342.458 1746.5 L342.458 1740.62 Z" fill="#000000" fill-rule="nonzero" fill-opacity="1" /><path clip-path="url(#clip410)" d="M361.555 1742.56 L377.874 1742.56 L377.874 1746.5 L355.93 1746.5 L355.93 1742.56 Q358.592 1739.81 363.175 1735.18 Q367.782 1730.53 368.962 1729.18 Q371.208 1726.66 372.087 1724.92 Q372.99 1723.16 372.99 1721.47 Q372.99 1718.72 371.046 1716.98 Q369.124 1715.25 366.023 1715.25 Q363.823 1715.25 361.37 1716.01 Q358.939 1716.78 356.161 1718.33 L356.161 1713.6 Q358.986 1712.47 361.439 1711.89 Q363.893 1711.31 365.93 1711.31 Q371.3 1711.31 374.495 1714 Q377.689 1716.68 377.689 1721.17 Q377.689 1723.3 376.879 1725.22 Q376.092 1727.12 373.985 1729.72 Q373.407 1730.39 370.305 1733.6 Q367.203 1736.8 361.555 1742.56 Z" fill="#000000" fill-rule="nonzero" fill-opacity="1" /><path clip-path="url(#clip410)" d="M387.735 1711.94 L406.092 1711.94 L406.092 1715.87 L392.018 1715.87 L392.018 1724.35 Q393.036 1724 394.055 1723.84 Q395.073 1723.65 396.092 1723.65 Q401.879 1723.65 405.258 1726.82 Q408.638 1729.99 408.638 1735.41 Q408.638 1740.99 405.166 1744.09 Q401.694 1747.17 395.374 1747.17 Q393.198 1747.17 390.93 1746.8 Q388.684 1746.43 386.277 1745.69 L386.277 1740.99 Q388.36 1742.12 390.583 1742.68 Q392.805 1743.23 395.282 1743.23 Q399.286 1743.23 401.624 1741.13 Q403.962 1739.02 403.962 1735.41 Q403.962 1731.8 401.624 1729.69 Q399.286 1727.59 395.282 1727.59 Q393.407 1727.59 391.532 1728 Q389.68 1728.42 387.735 1729.3 L387.735 1711.94 Z" fill="#000000" fill-rule="nonzero" fill-opacity="1" /><path clip-path="url(#clip410)" d="M321.301 1154.36 Q317.689 1154.36 315.861 1157.92 Q314.055 1161.47 314.055 1168.59 Q314.055 1175.7 315.861 1179.27 Q317.689 1182.81 321.301 1182.81 Q324.935 1182.81 326.74 1179.27 Q328.569 1175.7 328.569 1168.59 Q328.569 1161.47 326.74 1157.92 Q324.935 1154.36 321.301 1154.36 M321.301 1150.66 Q327.111 1150.66 330.166 1155.26 Q333.245 1159.84 333.245 1168.59 Q333.245 1177.32 330.166 1181.93 Q327.111 1186.51 321.301 1186.51 Q315.49 1186.51 312.412 1181.93 Q309.356 1177.32 309.356 1168.59 Q309.356 1159.84 312.412 1155.26 Q315.49 1150.66 321.301 1150.66 Z" fill="#000000" fill-rule="nonzero" fill-opacity="1" /><path clip-path="url(#clip410)" d="M341.462 1179.96 L346.347 1179.96 L346.347 1185.84 L341.462 1185.84 L341.462 1179.96 Z" fill="#000000" fill-rule="nonzero" fill-opacity="1" /><path clip-path="url(#clip410)" d="M366.532 1154.36 Q362.921 1154.36 361.092 1157.92 Q359.286 1161.47 359.286 1168.59 Q359.286 1175.7 361.092 1179.27 Q362.921 1182.81 366.532 1182.81 Q370.166 1182.81 371.972 1179.27 Q373.8 1175.7 373.8 1168.59 Q373.8 1161.47 371.972 1157.92 Q370.166 1154.36 366.532 1154.36 M366.532 1150.66 Q372.342 1150.66 375.397 1155.26 Q378.476 1159.84 378.476 1168.59 Q378.476 1177.32 375.397 1181.93 Q372.342 1186.51 366.532 1186.51 Q360.722 1186.51 357.643 1181.93 Q354.587 1177.32 354.587 1168.59 Q354.587 1159.84 357.643 1155.26 Q360.722 1150.66 366.532 1150.66 Z" fill="#000000" fill-rule="nonzero" fill-opacity="1" /><path clip-path="url(#clip410)" d="M396.694 1154.36 Q393.083 1154.36 391.254 1157.92 Q389.448 1161.47 389.448 1168.59 Q389.448 1175.7 391.254 1179.27 Q393.083 1182.81 396.694 1182.81 Q400.328 1182.81 402.133 1179.27 Q403.962 1175.7 403.962 1168.59 Q403.962 1161.47 402.133 1157.92 Q400.328 1154.36 396.694 1154.36 M396.694 1150.66 Q402.504 1150.66 405.559 1155.26 Q408.638 1159.84 408.638 1168.59 Q408.638 1177.32 405.559 1181.93 Q402.504 1186.51 396.694 1186.51 Q390.883 1186.51 387.805 1181.93 Q384.749 1177.32 384.749 1168.59 Q384.749 1159.84 387.805 1155.26 Q390.883 1150.66 396.694 1150.66 Z" fill="#000000" fill-rule="nonzero" fill-opacity="1" /><path clip-path="url(#clip410)" d="M322.296 593.701 Q318.685 593.701 316.856 597.266 Q315.051 600.807 315.051 607.937 Q315.051 615.043 316.856 618.608 Q318.685 622.15 322.296 622.15 Q325.93 622.15 327.736 618.608 Q329.564 615.043 329.564 607.937 Q329.564 600.807 327.736 597.266 Q325.93 593.701 322.296 593.701 M322.296 589.997 Q328.106 589.997 331.162 594.604 Q334.24 599.187 334.24 607.937 Q334.24 616.664 331.162 621.27 Q328.106 625.853 322.296 625.853 Q316.486 625.853 313.407 621.27 Q310.352 616.664 310.352 607.937 Q310.352 599.187 313.407 594.604 Q316.486 589.997 322.296 589.997 Z" fill="#000000" fill-rule="nonzero" fill-opacity="1" /><path clip-path="url(#clip410)" d="M342.458 619.302 L347.342 619.302 L347.342 625.182 L342.458 625.182 L342.458 619.302 Z" fill="#000000" fill-rule="nonzero" fill-opacity="1" /><path clip-path="url(#clip410)" d="M361.555 621.247 L377.874 621.247 L377.874 625.182 L355.93 625.182 L355.93 621.247 Q358.592 618.492 363.175 613.863 Q367.782 609.21 368.962 607.867 Q371.208 605.344 372.087 603.608 Q372.99 601.849 372.99 600.159 Q372.99 597.404 371.046 595.668 Q369.124 593.932 366.023 593.932 Q363.823 593.932 361.37 594.696 Q358.939 595.46 356.161 597.011 L356.161 592.289 Q358.986 591.154 361.439 590.576 Q363.893 589.997 365.93 589.997 Q371.3 589.997 374.495 592.682 Q377.689 595.367 377.689 599.858 Q377.689 601.988 376.879 603.909 Q376.092 605.807 373.985 608.4 Q373.407 609.071 370.305 612.289 Q367.203 615.483 361.555 621.247 Z" fill="#000000" fill-rule="nonzero" fill-opacity="1" /><path clip-path="url(#clip410)" d="M387.735 590.622 L406.092 590.622 L406.092 594.557 L392.018 594.557 L392.018 603.029 Q393.036 602.682 394.055 602.52 Q395.073 602.335 396.092 602.335 Q401.879 602.335 405.258 605.506 Q408.638 608.678 408.638 614.094 Q408.638 619.673 405.166 622.775 Q401.694 625.853 395.374 625.853 Q393.198 625.853 390.93 625.483 Q388.684 625.113 386.277 624.372 L386.277 619.673 Q388.36 620.807 390.583 621.363 Q392.805 621.918 395.282 621.918 Q399.286 621.918 401.624 619.812 Q403.962 617.705 403.962 614.094 Q403.962 610.483 401.624 608.377 Q399.286 606.27 395.282 606.27 Q393.407 606.27 391.532 606.687 Q389.68 607.103 387.735 607.983 L387.735 590.622 Z" fill="#000000" fill-rule="nonzero" fill-opacity="1" /><path clip-path="url(#clip410)" d="M321.301 33.0428 Q317.689 33.0428 315.861 36.6076 Q314.055 40.1492 314.055 47.2788 Q314.055 54.3853 315.861 57.9501 Q317.689 61.4917 321.301 61.4917 Q324.935 61.4917 326.74 57.9501 Q328.569 54.3853 328.569 47.2788 Q328.569 40.1492 326.74 36.6076 Q324.935 33.0428 321.301 33.0428 M321.301 29.3391 Q327.111 29.3391 330.166 33.9456 Q333.245 38.5289 333.245 47.2788 Q333.245 56.0056 330.166 60.6121 Q327.111 65.1954 321.301 65.1954 Q315.49 65.1954 312.412 60.6121 Q309.356 56.0056 309.356 47.2788 Q309.356 38.5289 312.412 33.9456 Q315.49 29.3391 321.301 29.3391 Z" fill="#000000" fill-rule="nonzero" fill-opacity="1" /><path clip-path="url(#clip410)" d="M341.462 58.6445 L346.347 58.6445 L346.347 64.5241 L341.462 64.5241 L341.462 58.6445 Z" fill="#000000" fill-rule="nonzero" fill-opacity="1" /><path clip-path="url(#clip410)" d="M356.578 29.9641 L374.935 29.9641 L374.935 33.8993 L360.861 33.8993 L360.861 42.3714 Q361.879 42.0242 362.898 41.8622 Q363.916 41.677 364.935 41.677 Q370.722 41.677 374.101 44.8483 Q377.481 48.0196 377.481 53.4362 Q377.481 59.0149 374.009 62.1167 Q370.536 65.1954 364.217 65.1954 Q362.041 65.1954 359.773 64.825 Q357.527 64.4547 355.12 63.7139 L355.12 59.0149 Q357.203 60.1491 359.425 60.7047 Q361.648 61.2602 364.124 61.2602 Q368.129 61.2602 370.467 59.1538 Q372.805 57.0473 372.805 53.4362 Q372.805 49.8251 370.467 47.7186 Q368.129 45.6122 364.124 45.6122 Q362.249 45.6122 360.374 46.0288 Q358.523 46.4455 356.578 47.3251 L356.578 29.9641 Z" fill="#000000" fill-rule="nonzero" fill-opacity="1" /><path clip-path="url(#clip410)" d="M396.694 33.0428 Q393.083 33.0428 391.254 36.6076 Q389.448 40.1492 389.448 47.2788 Q389.448 54.3853 391.254 57.9501 Q393.083 61.4917 396.694 61.4917 Q400.328 61.4917 402.133 57.9501 Q403.962 54.3853 403.962 47.2788 Q403.962 40.1492 402.133 36.6076 Q400.328 33.0428 396.694 33.0428 M396.694 29.3391 Q402.504 29.3391 405.559 33.9456 Q408.638 38.5289 408.638 47.2788 Q408.638 56.0056 405.559 60.6121 Q402.504 65.1954 396.694 65.1954 Q390.883 65.1954 387.805 60.6121 Q384.749 56.0056 384.749 47.2788 Q384.749 38.5289 387.805 33.9456 Q390.883 29.3391 396.694 29.3391 Z" fill="#000000" fill-rule="nonzero" fill-opacity="1" /><path clip-path="url(#clip410)" d="M64.9674 1775.64 L82.068 1775.64 Q77.2937 1785.63 74.95 1794.48 Q72.6062 1803.34 72.6062 1811.58 Q72.6062 1825.9 78.1618 1833.72 Q83.7173 1841.44 93.9603 1841.44 Q102.554 1841.44 106.981 1836.32 Q111.321 1831.11 114.012 1816.7 L116.182 1806.11 Q119.915 1786.5 129.377 1777.21 Q138.752 1767.83 154.55 1767.83 Q173.387 1767.83 183.109 1780.51 Q192.831 1793.09 192.831 1817.48 Q192.831 1826.69 190.748 1837.1 Q188.665 1847.43 184.585 1858.54 L166.529 1858.54 Q172.519 1847.87 175.557 1837.62 Q178.595 1827.38 178.595 1817.48 Q178.595 1802.47 172.693 1794.31 Q166.79 1786.15 155.852 1786.15 Q146.304 1786.15 140.922 1792.05 Q135.54 1797.87 132.849 1811.23 L130.766 1821.91 Q126.859 1841.53 118.526 1850.3 Q110.193 1859.06 95.3492 1859.06 Q78.1618 1859.06 68.266 1847 Q58.3702 1834.85 58.3702 1813.58 Q58.3702 1804.46 60.0195 1795 Q61.6688 1785.54 64.9674 1775.64 Z" fill="#000000" fill-rule="nonzero" fill-opacity="1" /><path clip-path="url(#clip410)" d="M93.0922 1741.18 L93.0922 1725.21 L190.314 1725.21 L190.314 1741.18 L93.0922 1741.18 M55.2452 1741.18 L55.2452 1725.21 L75.4708 1725.21 L75.4708 1741.18 L55.2452 1741.18 Z" fill="#000000" fill-rule="nonzero" fill-opacity="1" /><path clip-path="url(#clip410)" d="M65.4882 1675.99 L93.0922 1675.99 L93.0922 1643.09 L105.505 1643.09 L105.505 1675.99 L158.283 1675.99 Q170.175 1675.99 173.561 1672.78 Q176.946 1669.48 176.946 1659.5 L176.946 1643.09 L190.314 1643.09 L190.314 1659.5 Q190.314 1677.99 183.456 1685.02 Q176.512 1692.05 158.283 1692.05 L105.505 1692.05 L105.505 1703.77 L93.0922 1703.77 L93.0922 1692.05 L65.4882 1692.05 L65.4882 1675.99 Z" fill="#000000" fill-rule="nonzero" fill-opacity="1" /><path clip-path="url(#clip410)" d="M137.71 1538.93 L145.523 1538.93 L145.523 1612.36 Q162.015 1611.32 170.696 1602.47 Q179.29 1593.53 179.29 1577.64 Q179.29 1568.44 177.033 1559.85 Q174.776 1551.17 170.262 1542.66 L185.366 1542.66 Q189.012 1551.25 190.922 1560.28 Q192.831 1569.31 192.831 1578.6 Q192.831 1601.86 179.29 1615.49 Q165.748 1629.03 142.658 1629.03 Q118.787 1629.03 104.811 1616.18 Q90.7485 1603.25 90.7485 1581.37 Q90.7485 1561.76 103.422 1550.39 Q116.009 1538.93 137.71 1538.93 M133.023 1554.9 Q119.915 1555.07 112.103 1562.28 Q104.29 1569.4 104.29 1581.2 Q104.29 1594.57 111.842 1602.64 Q119.394 1610.63 133.109 1611.84 L133.023 1554.9 Z" fill="#000000" fill-rule="nonzero" fill-opacity="1" /><path clip-path="url(#clip410)" d="M60.714 1455.51 L60.714 1373.56 L75.4708 1373.56 L75.4708 1437.97 L113.839 1437.97 L113.839 1376.25 L128.596 1376.25 L128.596 1437.97 L175.557 1437.97 L175.557 1372 L190.314 1372 L190.314 1455.51 L60.714 1455.51 Z" fill="#000000" fill-rule="nonzero" fill-opacity="1" /><path clip-path="url(#clip410)" d="M131.634 1263.06 L190.314 1263.06 L190.314 1279.03 L132.155 1279.03 Q118.353 1279.03 111.495 1284.41 Q104.637 1289.8 104.637 1300.56 Q104.637 1313.49 112.884 1320.96 Q121.13 1328.42 135.366 1328.42 L190.314 1328.42 L190.314 1344.48 L93.0922 1344.48 L93.0922 1328.42 L108.196 1328.42 Q99.429 1322.7 95.0888 1314.97 Q90.7485 1307.16 90.7485 1297 Q90.7485 1280.25 101.165 1271.65 Q111.495 1263.06 131.634 1263.06 Z" fill="#000000" fill-rule="nonzero" fill-opacity="1" /><path clip-path="url(#clip410)" d="M137.71 1148.04 L145.523 1148.04 L145.523 1221.48 Q162.015 1220.44 170.696 1211.58 Q179.29 1202.64 179.29 1186.76 Q179.29 1177.56 177.033 1168.96 Q174.776 1160.28 170.262 1151.78 L185.366 1151.78 Q189.012 1160.37 190.922 1169.4 Q192.831 1178.43 192.831 1187.71 Q192.831 1210.98 179.29 1224.61 Q165.748 1238.15 142.658 1238.15 Q118.787 1238.15 104.811 1225.3 Q90.7485 1212.37 90.7485 1190.49 Q90.7485 1170.87 103.422 1159.5 Q116.009 1148.04 137.71 1148.04 M133.023 1164.02 Q119.915 1164.19 112.103 1171.39 Q104.29 1178.51 104.29 1190.32 Q104.29 1203.69 111.842 1211.76 Q119.394 1219.74 133.109 1220.96 L133.023 1164.02 Z" fill="#000000" fill-rule="nonzero" fill-opacity="1" /><path clip-path="url(#clip410)" d="M108.023 1065.49 Q106.46 1068.18 105.766 1071.39 Q104.985 1074.52 104.985 1078.34 Q104.985 1091.88 113.839 1099.17 Q122.606 1106.38 139.099 1106.38 L190.314 1106.38 L190.314 1122.44 L93.0922 1122.44 L93.0922 1106.38 L108.196 1106.38 Q99.3422 1101.34 95.0888 1093.27 Q90.7485 1085.2 90.7485 1073.65 Q90.7485 1072 91.0089 1070.01 Q91.1825 1068.01 91.6166 1065.58 L108.023 1065.49 Z" fill="#000000" fill-rule="nonzero" fill-opacity="1" /><path clip-path="url(#clip410)" d="M140.575 987.888 Q123.214 987.888 113.665 995.093 Q104.116 1002.21 104.116 1015.15 Q104.116 1027.99 113.665 1035.2 Q123.214 1042.32 140.575 1042.32 Q157.849 1042.32 167.397 1035.2 Q176.946 1027.99 176.946 1015.15 Q176.946 1002.21 167.397 995.093 Q157.849 987.888 140.575 987.888 M178.248 971.916 Q203.074 971.916 215.14 982.94 Q227.293 993.965 227.293 1016.71 Q227.293 1025.13 225.991 1032.59 Q224.776 1040.06 222.171 1047.09 L206.633 1047.09 Q210.453 1040.06 212.276 1033.2 Q214.099 1026.34 214.099 1019.22 Q214.099 1003.51 205.852 995.701 Q197.692 987.888 181.113 987.888 L173.213 987.888 Q181.807 992.836 186.061 1000.56 Q190.314 1008.29 190.314 1019.05 Q190.314 1036.93 176.686 1047.87 Q163.057 1058.81 140.575 1058.81 Q118.005 1058.81 104.377 1047.87 Q90.7485 1036.93 90.7485 1019.05 Q90.7485 1008.29 95.002 1000.56 Q99.2554 992.836 107.849 987.888 L93.0922 987.888 L93.0922 971.916 L178.248 971.916 Z" fill="#000000" fill-rule="nonzero" fill-opacity="1" /><path clip-path="url(#clip410)" d="M199.342 898.566 Q216.703 905.337 221.998 911.76 Q227.293 918.184 227.293 928.948 L227.293 941.708 L213.925 941.708 L213.925 932.333 Q213.925 925.736 210.8 922.09 Q207.675 918.444 196.043 914.017 L188.751 911.153 L93.0922 950.475 L93.0922 933.548 L169.134 903.167 L93.0922 872.785 L93.0922 855.858 L199.342 898.566 Z" fill="#000000" fill-rule="nonzero" fill-opacity="1" /><path clip-path="url(#clip410)" d="M145.343 794.053 Q114.952 794.053 90.4465 782.722 Q80.1699 777.891 71.5622 771.128 Q62.9544 764.365 59.1775 759.885 Q55.4007 755.405 55.4007 754.176 Q55.4007 752.419 57.1574 752.331 Q58.0357 752.331 60.2315 754.703 Q89.7438 783.688 145.343 783.6 Q201.118 783.6 229.488 755.405 Q232.562 752.331 233.528 752.331 Q235.285 752.331 235.285 754.176 Q235.285 755.405 231.684 759.709 Q228.083 764.013 219.826 770.689 Q211.57 777.364 201.469 782.195 Q176.963 794.053 145.343 794.053 Z" fill="#000000" fill-rule="nonzero" fill-opacity="1" /><path clip-path="url(#clip410)" d="M119.08 652.427 Q120.925 652.427 122.418 654.008 Q123.911 655.501 123.911 657.346 Q123.911 658.4 122.155 660.947 Q117.06 668.237 117.06 677.46 Q117.06 685.716 119.08 693.358 Q121.101 700.999 125.229 706.182 Q129.269 711.276 134.539 711.276 Q141.127 711.276 144.992 704.074 Q141.566 696.608 141.566 687.385 Q141.566 684.399 141.742 682.379 Q141.917 680.271 142.356 678.25 Q142.796 676.23 143.85 675.264 Q144.816 674.21 146.397 674.21 Q152.018 674.21 152.018 688.79 Q152.018 698.277 149.471 704.249 Q153.248 711.891 159.308 716.107 Q165.369 720.323 170.551 720.323 Q175.031 720.323 178.281 717.864 Q181.531 715.316 183.112 711.188 Q184.693 706.972 185.395 702.844 Q186.01 698.628 186.01 693.973 Q186.01 686.331 185.044 680.973 Q183.99 675.527 182.058 672.541 Q180.125 669.467 178.808 668.237 Q177.402 666.92 175.206 665.602 Q173.977 664.812 173.977 663.758 Q173.977 662.967 174.504 662.44 Q174.943 661.825 175.733 661.825 Q176.7 661.825 178.72 663.055 Q180.74 664.197 183.463 667.008 Q186.098 669.73 188.557 673.507 Q190.929 677.196 192.598 683.081 Q194.266 688.966 194.266 695.642 Q194.266 709.256 187.591 717.161 Q180.916 724.978 171.605 724.978 Q165.106 724.978 158.43 720.674 Q151.667 716.283 147.363 708.553 Q142.005 715.756 134.539 715.756 Q127.864 715.756 121.891 710.134 Q115.918 704.425 112.405 695.202 Q108.804 685.892 108.804 675.703 Q108.804 669.994 110.736 664.373 Q112.581 658.751 114.952 655.589 Q117.324 652.427 119.08 652.427 M146.573 678.865 Q145.519 682.73 145.519 687.385 Q145.519 693.709 147.1 698.364 Q148.066 694.588 148.066 688.79 Q148.066 683.96 147.802 682.554 Q147.539 681.061 146.573 678.865 Z" fill="#000000" fill-rule="nonzero" fill-opacity="1" /><path clip-path="url(#clip410)" d="M209.282 565.677 Q209.774 565.677 211.68 566.23 Q213.586 566.784 216.537 568.136 Q219.488 569.427 222.194 571.21 Q224.838 572.993 226.805 575.945 Q228.711 578.834 228.711 582.155 Q228.711 586.581 225.76 589.533 Q222.809 592.484 218.382 592.484 Q215.922 592.484 212.541 591.193 Q190.714 583.015 183.213 583.015 Q174.421 583.015 174.421 589.84 Q174.421 593.222 175.712 596.419 Q176.942 599.554 178.663 601.706 Q180.385 603.858 182.783 605.826 Q185.119 607.732 186.717 608.716 Q188.255 609.638 189.792 610.376 L196.063 611.974 Q197.785 612.343 204.486 614.126 L215.861 616.893 Q224.346 618.86 225.145 619.291 Q226.866 619.906 227.789 621.258 Q228.711 622.611 228.711 623.964 Q228.711 625.501 227.789 626.546 Q226.866 627.591 225.268 627.591 Q225.022 627.591 224.1 627.407 Q223.177 627.222 221.886 626.915 Q220.595 626.607 219.857 626.484 L190.775 619.168 Q185.488 617.815 183.828 617.508 Q182.106 617.139 180.2 617.139 Q174.421 617.139 174.421 621.074 Q174.421 624.271 178.233 626.361 Q182.045 628.452 189.423 630.235 Q191.452 630.788 191.882 631.157 Q192.313 631.465 192.313 632.387 Q192.251 633.924 191.021 633.924 Q190.714 633.924 188.685 633.432 Q186.656 632.94 183.766 632.018 Q180.815 631.034 178.848 630.112 Q177.372 629.313 176.696 628.882 Q175.958 628.39 174.544 627.222 Q173.068 625.993 172.392 624.394 Q171.654 622.734 171.654 620.705 Q171.654 616.155 174.605 612.835 Q177.495 609.515 182.598 609.084 Q171.654 600.907 171.654 589.471 Q171.654 582.708 175.22 578.834 Q178.786 574.961 185.119 574.961 Q186.595 574.961 188.501 575.268 Q190.345 575.514 192.681 576.129 Q195.018 576.682 196.801 577.174 Q198.584 577.666 201.474 578.65 Q204.302 579.634 205.532 580.064 Q206.761 580.494 209.651 581.54 Q212.479 582.523 212.787 582.646 Q218.505 584.921 221.763 584.921 Q223.915 584.921 224.899 584.245 Q225.883 583.507 225.883 581.909 Q225.883 577.605 221.64 574.408 Q217.336 571.149 210.327 569.058 Q208.79 568.567 208.421 568.321 Q208.052 568.013 208.052 567.152 Q208.052 565.677 209.282 565.677 Z" fill="#000000" fill-rule="nonzero" fill-opacity="1" /><path clip-path="url(#clip410)" d="M233.528 547.13 Q232.65 547.13 230.454 544.847 Q200.942 515.861 145.343 515.861 Q89.5682 515.861 61.3734 543.705 Q58.1235 547.13 57.1574 547.13 Q55.4007 547.13 55.4007 545.374 Q55.4007 544.144 59.0019 539.84 Q62.6031 535.448 70.8595 528.861 Q79.1159 522.185 89.2168 517.267 Q113.723 505.409 145.343 505.409 Q175.733 505.409 200.239 516.74 Q210.516 521.57 219.124 528.334 Q227.731 535.097 231.508 539.576 Q235.285 544.056 235.285 545.374 Q235.285 547.13 233.528 547.13 Z" fill="#000000" fill-rule="nonzero" fill-opacity="1" /><polyline clip-path="url(#clip412)" style="stroke:#009af9; stroke-linecap:round; stroke-linejoin:round; stroke-width:32; stroke-opacity:1; fill:none" points="456.638,1962.48 646.505,1917.44 836.373,1680.29 1026.24,1436.52 1216.11,1268.67 1405.98,1194 1595.84,1173.01 1785.71,1169.12 1975.58,1168.61 2165.45,1168.56 2355.31,1168.56 2545.18,1168.56 2735.05,1168.56 2924.91,1168.56 3114.78,1168.56 "/>
<circle clip-path="url(#clip412)" cx="456.638" cy="1962.48" r="28.8" fill="#009af9" fill-rule="evenodd" fill-opacity="1" stroke="#000000" stroke-opacity="1" stroke-width="4.8"/>
<circle clip-path="url(#clip412)" cx="646.505" cy="1917.44" r="28.8" fill="#009af9" fill-rule="evenodd" fill-opacity="1" stroke="#000000" stroke-opacity="1" stroke-width="4.8"/>
<circle clip-path="url(#clip412)" cx="836.373" cy="1680.29" r="28.8" fill="#009af9" fill-rule="evenodd" fill-opacity="1" stroke="#000000" stroke-opacity="1" stroke-width="4.8"/>
<circle clip-path="url(#clip412)" cx="1026.24" cy="1436.52" r="28.8" fill="#009af9" fill-rule="evenodd" fill-opacity="1" stroke="#000000" stroke-opacity="1" stroke-width="4.8"/>
<circle clip-path="url(#clip412)" cx="1216.11" cy="1268.67" r="28.8" fill="#009af9" fill-rule="evenodd" fill-opacity="1" stroke="#000000" stroke-opacity="1" stroke-width="4.8"/>
<circle clip-path="url(#clip412)" cx="1405.98" cy="1194" r="28.8" fill="#009af9" fill-rule="evenodd" fill-opacity="1" stroke="#000000" stroke-opacity="1" stroke-width="4.8"/>
<circle clip-path="url(#clip412)" cx="1595.84" cy="1173.01" r="28.8" fill="#009af9" fill-rule="evenodd" fill-opacity="1" stroke="#000000" stroke-opacity="1" stroke-width="4.8"/>
<circle clip-path="url(#clip412)" cx="1785.71" cy="1169.12" r="28.8" fill="#009af9" fill-rule="evenodd" fill-opacity="1" stroke="#000000" stroke-opacity="1" stroke-width="4.8"/>
<circle clip-path="url(#clip412)" cx="1975.58" cy="1168.61" r="28.8" fill="#009af9" fill-rule="evenodd" fill-opacity="1" stroke="#000000" stroke-opacity="1" stroke-width="4.8"/>
<circle clip-path="url(#clip412)" cx="2165.45" cy="1168.56" r="28.8" fill="#009af9" fill-rule="evenodd" fill-opacity="1" stroke="#000000" stroke-opacity="1" stroke-width="4.8"/>
<circle clip-path="url(#clip412)" cx="2355.31" cy="1168.56" r="28.8" fill="#009af9" fill-rule="evenodd" fill-opacity="1" stroke="#000000" stroke-opacity="1" stroke-width="4.8"/>
<circle clip-path="url(#clip412)" cx="2545.18" cy="1168.56" r="28.8" fill="#009af9" fill-rule="evenodd" fill-opacity="1" stroke="#000000" stroke-opacity="1" stroke-width="4.8"/>
<circle clip-path="url(#clip412)" cx="2735.05" cy="1168.56" r="28.8" fill="#009af9" fill-rule="evenodd" fill-opacity="1" stroke="#000000" stroke-opacity="1" stroke-width="4.8"/>
<circle clip-path="url(#clip412)" cx="2924.91" cy="1168.56" r="28.8" fill="#009af9" fill-rule="evenodd" fill-opacity="1" stroke="#000000" stroke-opacity="1" stroke-width="4.8"/>
<circle clip-path="url(#clip412)" cx="3114.78" cy="1168.56" r="28.8" fill="#009af9" fill-rule="evenodd" fill-opacity="1" stroke="#000000" stroke-opacity="1" stroke-width="4.8"/>
<polyline clip-path="url(#clip412)" style="stroke:#000000; stroke-linecap:round; stroke-linejoin:round; stroke-width:8; stroke-opacity:1; fill:none" stroke-dasharray="32, 20" points="-2239.48,1168.56 5848.87,1168.56 "/>
<polyline clip-path="url(#clip412)" style="stroke:#e26f46; stroke-linecap:round; stroke-linejoin:round; stroke-width:32; stroke-opacity:1; fill:none" points="456.638,147.986 646.505,240.006 836.373,520.489 1026.24,808.439 1216.11,1022 1405.98,1127.82 1595.84,1160.86 1785.71,1167.53 1975.58,1168.46 2165.45,1168.55 2355.31,1168.56 2545.18,1168.56 2735.05,1168.56 2924.91,1168.56 3114.78,1168.56 "/>
<path clip-path="url(#clip412)" d="M456.638 115.986 L424.638 147.986 L456.638 179.986 L488.638 147.986 L456.638 115.986 Z" fill="#e26f46" fill-rule="evenodd" fill-opacity="1" stroke="#000000" stroke-opacity="1" stroke-width="4.8"/>
<path clip-path="url(#clip412)" d="M646.505 208.006 L614.505 240.006 L646.505 272.006 L678.505 240.006 L646.505 208.006 Z" fill="#e26f46" fill-rule="evenodd" fill-opacity="1" stroke="#000000" stroke-opacity="1" stroke-width="4.8"/>
<path clip-path="url(#clip412)" d="M836.373 488.489 L804.373 520.489 L836.373 552.489 L868.373 520.489 L836.373 488.489 Z" fill="#e26f46" fill-rule="evenodd" fill-opacity="1" stroke="#000000" stroke-opacity="1" stroke-width="4.8"/>
<path clip-path="url(#clip412)" d="M1026.24 776.439 L994.24 808.439 L1026.24 840.439 L1058.24 808.439 L1026.24 776.439 Z" fill="#e26f46" fill-rule="evenodd" fill-opacity="1" stroke="#000000" stroke-opacity="1" stroke-width="4.8"/>
<path clip-path="url(#clip412)" d="M1216.11 990.001 L1184.11 1022 L1216.11 1054 L1248.11 1022 L1216.11 990.001 Z" fill="#e26f46" fill-rule="evenodd" fill-opacity="1" stroke="#000000" stroke-opacity="1" stroke-width="4.8"/>
<path clip-path="url(#clip412)" d="M1405.98 1095.82 L1373.98 1127.82 L1405.98 1159.82 L1437.98 1127.82 L1405.98 1095.82 Z" fill="#e26f46" fill-rule="evenodd" fill-opacity="1" stroke="#000000" stroke-opacity="1" stroke-width="4.8"/>
<path clip-path="url(#clip412)" d="M1595.84 1128.86 L1563.84 1160.86 L1595.84 1192.86 L1627.84 1160.86 L1595.84 1128.86 Z" fill="#e26f46" fill-rule="evenodd" fill-opacity="1" stroke="#000000" stroke-opacity="1" stroke-width="4.8"/>
<path clip-path="url(#clip412)" d="M1785.71 1135.53 L1753.71 1167.53 L1785.71 1199.53 L1817.71 1167.53 L1785.71 1135.53 Z" fill="#e26f46" fill-rule="evenodd" fill-opacity="1" stroke="#000000" stroke-opacity="1" stroke-width="4.8"/>
<path clip-path="url(#clip412)" d="M1975.58 1136.46 L1943.58 1168.46 L1975.58 1200.46 L2007.58 1168.46 L1975.58 1136.46 Z" fill="#e26f46" fill-rule="evenodd" fill-opacity="1" stroke="#000000" stroke-opacity="1" stroke-width="4.8"/>
<path clip-path="url(#clip412)" d="M2165.45 1136.55 L2133.45 1168.55 L2165.45 1200.55 L2197.45 1168.55 L2165.45 1136.55 Z" fill="#e26f46" fill-rule="evenodd" fill-opacity="1" stroke="#000000" stroke-opacity="1" stroke-width="4.8"/>
<path clip-path="url(#clip412)" d="M2355.31 1136.56 L2323.31 1168.56 L2355.31 1200.56 L2387.31 1168.56 L2355.31 1136.56 Z" fill="#e26f46" fill-rule="evenodd" fill-opacity="1" stroke="#000000" stroke-opacity="1" stroke-width="4.8"/>
<path clip-path="url(#clip412)" d="M2545.18 1136.56 L2513.18 1168.56 L2545.18 1200.56 L2577.18 1168.56 L2545.18 1136.56 Z" fill="#e26f46" fill-rule="evenodd" fill-opacity="1" stroke="#000000" stroke-opacity="1" stroke-width="4.8"/>
<path clip-path="url(#clip412)" d="M2735.05 1136.56 L2703.05 1168.56 L2735.05 1200.56 L2767.05 1168.56 L2735.05 1136.56 Z" fill="#e26f46" fill-rule="evenodd" fill-opacity="1" stroke="#000000" stroke-opacity="1" stroke-width="4.8"/>
<path clip-path="url(#clip412)" d="M2924.91 1136.56 L2892.91 1168.56 L2924.91 1200.56 L2956.91 1168.56 L2924.91 1136.56 Z" fill="#e26f46" fill-rule="evenodd" fill-opacity="1" stroke="#000000" stroke-opacity="1" stroke-width="4.8"/>
<path clip-path="url(#clip412)" d="M3114.78 1136.56 L3082.78 1168.56 L3114.78 1200.56 L3146.78 1168.56 L3114.78 1136.56 Z" fill="#e26f46" fill-rule="evenodd" fill-opacity="1" stroke="#000000" stroke-opacity="1" stroke-width="4.8"/>
<polyline clip-path="url(#clip412)" style="stroke:#000000; stroke-linecap:round; stroke-linejoin:round; stroke-width:16; stroke-opacity:1; fill:none" points="456.638,4532.51 456.638,-2195.39 "/>
<path clip-path="url(#clip410)" d="M2056.59 2215.12 L3062.89 2215.12 L3062.89 1826.32 L2056.59 1826.32  Z" fill="#ffffff" fill-rule="evenodd" fill-opacity="1"/>
<polyline clip-path="url(#clip410)" style="stroke:#000000; stroke-linecap:round; stroke-linejoin:round; stroke-width:4; stroke-opacity:1; fill:none" points="2056.59,2215.12 3062.89,2215.12 3062.89,1826.32 2056.59,1826.32 2056.59,2215.12 "/>
<polyline clip-path="url(#clip410)" style="stroke:#009af9; stroke-linecap:round; stroke-linejoin:round; stroke-width:50; stroke-opacity:1; fill:none" points="2086.54,1955.92 2266.29,1955.92 "/>
<circle clip-path="url(#clip410)" cx="2176.42" cy="1955.92" r="9.98562" fill="#009af9" fill-rule="evenodd" fill-opacity="1" stroke="#000000" stroke-opacity="1" stroke-width="9.03529"/>
<path clip-path="url(#clip410)" d="M2296.24 1912.72 L2345.9 1912.72 L2345.9 1922.56 L2307.93 1922.56 L2307.93 1948.02 L2342.19 1948.02 L2342.19 1957.86 L2307.93 1957.86 L2307.93 1999.12 L2296.24 1999.12 L2296.24 1912.72 Z" fill="#000000" fill-rule="nonzero" fill-opacity="1" /><path clip-path="url(#clip410)" d="M2355.33 1934.31 L2365.98 1934.31 L2365.98 1999.12 L2355.33 1999.12 L2355.33 1934.31 M2355.33 1909.08 L2365.98 1909.08 L2365.98 1922.56 L2355.33 1922.56 L2355.33 1909.08 Z" fill="#000000" fill-rule="nonzero" fill-opacity="1" /><path clip-path="url(#clip410)" d="M2388.26 1909.08 L2398.9 1909.08 L2398.9 1999.12 L2388.26 1999.12 L2388.26 1909.08 Z" fill="#000000" fill-rule="nonzero" fill-opacity="1" /><path clip-path="url(#clip410)" d="M2421.18 1909.08 L2431.83 1909.08 L2431.83 1999.12 L2421.18 1999.12 L2421.18 1909.08 Z" fill="#000000" fill-rule="nonzero" fill-opacity="1" /><path clip-path="url(#clip410)" d="M2509.55 1964.05 L2509.55 1969.26 L2460.59 1969.26 Q2461.29 1980.26 2467.19 1986.04 Q2473.15 1991.77 2483.74 1991.77 Q2489.88 1991.77 2495.6 1990.27 Q2501.39 1988.76 2507.06 1985.75 L2507.06 1995.82 Q2501.33 1998.25 2495.32 1999.53 Q2489.3 2000.8 2483.11 2000.8 Q2467.6 2000.8 2458.51 1991.77 Q2449.48 1982.74 2449.48 1967.35 Q2449.48 1951.44 2458.05 1942.12 Q2466.67 1932.74 2481.25 1932.74 Q2494.33 1932.74 2501.91 1941.19 Q2509.55 1949.58 2509.55 1964.05 M2498.9 1960.93 Q2498.79 1952.19 2493.98 1946.98 Q2489.24 1941.77 2481.37 1941.77 Q2472.46 1941.77 2467.07 1946.81 Q2461.75 1951.84 2460.94 1960.99 L2498.9 1960.93 Z" fill="#000000" fill-rule="nonzero" fill-opacity="1" /><path clip-path="url(#clip410)" d="M2569.68 1944.14 L2569.68 1909.08 L2580.33 1909.08 L2580.33 1999.12 L2569.68 1999.12 L2569.68 1989.4 Q2566.32 1995.19 2561.17 1998.02 Q2556.08 2000.8 2548.9 2000.8 Q2537.16 2000.8 2529.75 1991.42 Q2522.4 1982.05 2522.4 1966.77 Q2522.4 1951.49 2529.75 1942.12 Q2537.16 1932.74 2548.9 1932.74 Q2556.08 1932.74 2561.17 1935.58 Q2566.32 1938.36 2569.68 1944.14 M2533.39 1966.77 Q2533.39 1978.52 2538.2 1985.23 Q2543.06 1991.89 2551.51 1991.89 Q2559.96 1991.89 2564.82 1985.23 Q2569.68 1978.52 2569.68 1966.77 Q2569.68 1955.02 2564.82 1948.37 Q2559.96 1941.66 2551.51 1941.66 Q2543.06 1941.66 2538.2 1948.37 Q2533.39 1955.02 2533.39 1966.77 Z" fill="#000000" fill-rule="nonzero" fill-opacity="1" /><path clip-path="url(#clip410)" d="M2705.09 1919.38 L2705.09 1931.7 Q2699.19 1926.21 2692.48 1923.49 Q2685.82 1920.77 2678.3 1920.77 Q2663.49 1920.77 2655.62 1929.85 Q2647.75 1938.88 2647.75 1956.01 Q2647.75 1973.08 2655.62 1982.17 Q2663.49 1991.19 2678.3 1991.19 Q2685.82 1991.19 2692.48 1988.47 Q2699.19 1985.75 2705.09 1980.26 L2705.09 1992.47 Q2698.96 1996.63 2692.07 1998.72 Q2685.25 2000.8 2677.61 2000.8 Q2657.99 2000.8 2646.7 1988.82 Q2635.42 1976.78 2635.42 1956.01 Q2635.42 1935.18 2646.7 1923.2 Q2657.99 1911.16 2677.61 1911.16 Q2685.36 1911.16 2692.19 1913.24 Q2699.08 1915.27 2705.09 1919.38 Z" fill="#000000" fill-rule="nonzero" fill-opacity="1" /><path clip-path="url(#clip410)" d="M2776.56 1960 L2776.56 1999.12 L2765.92 1999.12 L2765.92 1960.35 Q2765.92 1951.15 2762.33 1946.58 Q2758.74 1942 2751.56 1942 Q2742.94 1942 2737.96 1947.5 Q2732.99 1953 2732.99 1962.49 L2732.99 1999.12 L2722.28 1999.12 L2722.28 1909.08 L2732.99 1909.08 L2732.99 1944.38 Q2736.81 1938.53 2741.96 1935.64 Q2747.17 1932.74 2753.94 1932.74 Q2765.11 1932.74 2770.83 1939.69 Q2776.56 1946.58 2776.56 1960 Z" fill="#000000" fill-rule="nonzero" fill-opacity="1" /><path clip-path="url(#clip410)" d="M2827.26 1966.54 Q2814.35 1966.54 2809.38 1969.49 Q2804.4 1972.44 2804.4 1979.56 Q2804.4 1985.23 2808.1 1988.59 Q2811.86 1991.89 2818.29 1991.89 Q2827.14 1991.89 2832.47 1985.64 Q2837.85 1979.33 2837.85 1968.91 L2837.85 1966.54 L2827.26 1966.54 M2848.5 1962.14 L2848.5 1999.12 L2837.85 1999.12 L2837.85 1989.28 Q2834.2 1995.19 2828.76 1998.02 Q2823.32 2000.8 2815.45 2000.8 Q2805.5 2000.8 2799.6 1995.24 Q2793.75 1989.63 2793.75 1980.26 Q2793.75 1969.32 2801.04 1963.76 Q2808.39 1958.21 2822.92 1958.21 L2837.85 1958.21 L2837.85 1957.17 Q2837.85 1949.82 2832.99 1945.82 Q2828.18 1941.77 2819.45 1941.77 Q2813.89 1941.77 2808.62 1943.1 Q2803.36 1944.43 2798.5 1947.1 L2798.5 1937.26 Q2804.34 1935 2809.84 1933.9 Q2815.34 1932.74 2820.55 1932.74 Q2834.61 1932.74 2841.55 1940.04 Q2848.5 1947.33 2848.5 1962.14 Z" fill="#000000" fill-rule="nonzero" fill-opacity="1" /><path clip-path="url(#clip410)" d="M2870.43 1934.31 L2881.08 1934.31 L2881.08 1999.12 L2870.43 1999.12 L2870.43 1934.31 M2870.43 1909.08 L2881.08 1909.08 L2881.08 1922.56 L2870.43 1922.56 L2870.43 1909.08 Z" fill="#000000" fill-rule="nonzero" fill-opacity="1" /><path clip-path="url(#clip410)" d="M2957.23 1960 L2957.23 1999.12 L2946.59 1999.12 L2946.59 1960.35 Q2946.59 1951.15 2943 1946.58 Q2939.41 1942 2932.23 1942 Q2923.61 1942 2918.64 1947.5 Q2913.66 1953 2913.66 1962.49 L2913.66 1999.12 L2902.95 1999.12 L2902.95 1934.31 L2913.66 1934.31 L2913.66 1944.38 Q2917.48 1938.53 2922.63 1935.64 Q2927.84 1932.74 2934.61 1932.74 Q2945.78 1932.74 2951.51 1939.69 Q2957.23 1946.58 2957.23 1960 Z" fill="#000000" fill-rule="nonzero" fill-opacity="1" /><polyline clip-path="url(#clip410)" style="stroke:#e26f46; stroke-linecap:round; stroke-linejoin:round; stroke-width:50; stroke-opacity:1; fill:none" points="2086.54,2085.52 2266.29,2085.52 "/>
<path clip-path="url(#clip410)" d="M2176.42 2074.43 L2165.32 2085.52 L2176.42 2096.62 L2187.51 2085.52 L2176.42 2074.43 Z" fill="#e26f46" fill-rule="evenodd" fill-opacity="1" stroke="#000000" stroke-opacity="1" stroke-width="9.03529"/>
<path clip-path="url(#clip410)" d="M2296.24 2042.32 L2350.87 2042.32 L2350.87 2052.16 L2307.93 2052.16 L2307.93 2077.74 L2349.08 2077.74 L2349.08 2087.58 L2307.93 2087.58 L2307.93 2118.88 L2351.91 2118.88 L2351.91 2128.72 L2296.24 2128.72 L2296.24 2042.32 Z" fill="#000000" fill-rule="nonzero" fill-opacity="1" /><path clip-path="url(#clip410)" d="M2421.13 2076.35 Q2425.12 2069.17 2430.67 2065.76 Q2436.23 2062.34 2443.75 2062.34 Q2453.88 2062.34 2459.38 2069.46 Q2464.88 2076.52 2464.88 2089.6 L2464.88 2128.72 L2454.17 2128.72 L2454.17 2089.95 Q2454.17 2080.63 2450.87 2076.12 Q2447.57 2071.6 2440.8 2071.6 Q2432.53 2071.6 2427.72 2077.1 Q2422.92 2082.6 2422.92 2092.09 L2422.92 2128.72 L2412.21 2128.72 L2412.21 2089.95 Q2412.21 2080.57 2408.92 2076.12 Q2405.62 2071.6 2398.73 2071.6 Q2390.57 2071.6 2385.77 2077.16 Q2380.96 2082.66 2380.96 2092.09 L2380.96 2128.72 L2370.26 2128.72 L2370.26 2063.91 L2380.96 2063.91 L2380.96 2073.98 Q2384.61 2068.02 2389.7 2065.18 Q2394.8 2062.34 2401.8 2062.34 Q2408.86 2062.34 2413.78 2065.93 Q2418.75 2069.52 2421.13 2076.35 Z" fill="#000000" fill-rule="nonzero" fill-opacity="1" /><path clip-path="url(#clip410)" d="M2496.42 2119 L2496.42 2153.37 L2485.71 2153.37 L2485.71 2063.91 L2496.42 2063.91 L2496.42 2073.74 Q2499.77 2067.96 2504.86 2065.18 Q2510.01 2062.34 2517.13 2062.34 Q2528.94 2062.34 2536.29 2071.72 Q2543.69 2081.09 2543.69 2096.37 Q2543.69 2111.65 2536.29 2121.02 Q2528.94 2130.4 2517.13 2130.4 Q2510.01 2130.4 2504.86 2127.62 Q2499.77 2124.79 2496.42 2119 M2532.64 2096.37 Q2532.64 2084.62 2527.78 2077.97 Q2522.98 2071.26 2514.53 2071.26 Q2506.08 2071.26 2501.22 2077.97 Q2496.42 2084.62 2496.42 2096.37 Q2496.42 2108.12 2501.22 2114.83 Q2506.08 2121.49 2514.53 2121.49 Q2522.98 2121.49 2527.78 2114.83 Q2532.64 2108.12 2532.64 2096.37 Z" fill="#000000" fill-rule="nonzero" fill-opacity="1" /><path clip-path="url(#clip410)" d="M2571.88 2045.5 L2571.88 2063.91 L2593.81 2063.91 L2593.81 2072.18 L2571.88 2072.18 L2571.88 2107.37 Q2571.88 2115.3 2574.02 2117.55 Q2576.22 2119.81 2582.87 2119.81 L2593.81 2119.81 L2593.81 2128.72 L2582.87 2128.72 Q2570.55 2128.72 2565.86 2124.15 Q2561.17 2119.52 2561.17 2107.37 L2561.17 2072.18 L2553.36 2072.18 L2553.36 2063.91 L2561.17 2063.91 L2561.17 2045.5 L2571.88 2045.5 Z" fill="#000000" fill-rule="nonzero" fill-opacity="1" /><path clip-path="url(#clip410)" d="M2634.78 2134.74 Q2630.27 2146.31 2625.99 2149.84 Q2621.7 2153.37 2614.53 2153.37 L2606.02 2153.37 L2606.02 2144.46 L2612.27 2144.46 Q2616.67 2144.46 2619.1 2142.38 Q2621.53 2140.3 2624.48 2132.54 L2626.39 2127.68 L2600.18 2063.91 L2611.46 2063.91 L2631.72 2114.6 L2651.97 2063.91 L2663.25 2063.91 L2634.78 2134.74 Z" fill="#000000" fill-rule="nonzero" fill-opacity="1" /><path clip-path="url(#clip410)" d="M2780.79 2048.98 L2780.79 2061.3 Q2774.89 2055.81 2768.17 2053.09 Q2761.52 2050.37 2753.99 2050.37 Q2739.18 2050.37 2731.31 2059.45 Q2723.44 2068.48 2723.44 2085.61 Q2723.44 2102.68 2731.31 2111.77 Q2739.18 2120.79 2753.99 2120.79 Q2761.52 2120.79 2768.17 2118.07 Q2774.89 2115.35 2780.79 2109.86 L2780.79 2122.07 Q2774.65 2126.23 2767.77 2128.32 Q2760.94 2130.4 2753.3 2130.4 Q2733.68 2130.4 2722.4 2118.42 Q2711.11 2106.38 2711.11 2085.61 Q2711.11 2064.78 2722.4 2052.8 Q2733.68 2040.76 2753.3 2040.76 Q2761.05 2040.76 2767.88 2042.84 Q2774.77 2044.87 2780.79 2048.98 Z" fill="#000000" fill-rule="nonzero" fill-opacity="1" /><path clip-path="url(#clip410)" d="M2852.26 2089.6 L2852.26 2128.72 L2841.61 2128.72 L2841.61 2089.95 Q2841.61 2080.75 2838.02 2076.18 Q2834.43 2071.6 2827.26 2071.6 Q2818.64 2071.6 2813.66 2077.1 Q2808.68 2082.6 2808.68 2092.09 L2808.68 2128.72 L2797.98 2128.72 L2797.98 2038.68 L2808.68 2038.68 L2808.68 2073.98 Q2812.5 2068.13 2817.65 2065.24 Q2822.86 2062.34 2829.63 2062.34 Q2840.8 2062.34 2846.53 2069.29 Q2852.26 2076.18 2852.26 2089.6 Z" fill="#000000" fill-rule="nonzero" fill-opacity="1" /><path clip-path="url(#clip410)" d="M2902.95 2096.14 Q2890.05 2096.14 2885.07 2099.09 Q2880.09 2102.04 2880.09 2109.16 Q2880.09 2114.83 2883.8 2118.19 Q2887.56 2121.49 2893.98 2121.49 Q2902.84 2121.49 2908.16 2115.24 Q2913.54 2108.93 2913.54 2098.51 L2913.54 2096.14 L2902.95 2096.14 M2924.19 2091.74 L2924.19 2128.72 L2913.54 2128.72 L2913.54 2118.88 Q2909.9 2124.79 2904.46 2127.62 Q2899.02 2130.4 2891.15 2130.4 Q2881.19 2130.4 2875.29 2124.84 Q2869.45 2119.23 2869.45 2109.86 Q2869.45 2098.92 2876.74 2093.36 Q2884.09 2087.81 2898.61 2087.81 L2913.54 2087.81 L2913.54 2086.77 Q2913.54 2079.42 2908.68 2075.42 Q2903.88 2071.37 2895.14 2071.37 Q2889.58 2071.37 2884.32 2072.7 Q2879.05 2074.03 2874.19 2076.7 L2874.19 2066.86 Q2880.04 2064.6 2885.53 2063.5 Q2891.03 2062.34 2896.24 2062.34 Q2910.3 2062.34 2917.25 2069.64 Q2924.19 2076.93 2924.19 2091.74 Z" fill="#000000" fill-rule="nonzero" fill-opacity="1" /><path clip-path="url(#clip410)" d="M2946.12 2063.91 L2956.77 2063.91 L2956.77 2128.72 L2946.12 2128.72 L2946.12 2063.91 M2946.12 2038.68 L2956.77 2038.68 L2956.77 2052.16 L2946.12 2052.16 L2946.12 2038.68 Z" fill="#000000" fill-rule="nonzero" fill-opacity="1" /><path clip-path="url(#clip410)" d="M3032.93 2089.6 L3032.93 2128.72 L3022.28 2128.72 L3022.28 2089.95 Q3022.28 2080.75 3018.69 2076.18 Q3015.1 2071.6 3007.93 2071.6 Q2999.31 2071.6 2994.33 2077.1 Q2989.35 2082.6 2989.35 2092.09 L2989.35 2128.72 L2978.65 2128.72 L2978.65 2063.91 L2989.35 2063.91 L2989.35 2073.98 Q2993.17 2068.13 2998.32 2065.24 Q3003.53 2062.34 3010.3 2062.34 Q3021.47 2062.34 3027.2 2069.29 Q3032.93 2076.18 3032.93 2089.6 Z" fill="#000000" fill-rule="nonzero" fill-opacity="1" /></svg>
