<?xml version="1.0" encoding="utf-8"?>
<svg xmlns="http://www.w3.org/2000/svg" xmlns:xlink="http://www.w3.org/1999/xlink" width="800" height="600" viewBox="0 0 3200 2400">
<defs>
  <clipPath id="clip720">
    <rect x="0" y="0" width="3200" height="2400"/>
  </clipPath>
</defs>
<path clip-path="url(#clip720)" d="M0 2400 L3200 2400 L3200 0 L0 0  Z" fill="#ffffff" fill-rule="evenodd" fill-opacity="1"/>
<defs>
  <clipPath id="clip721">
    <rect x="640" y="0" width="2241" height="2241"/>
  </clipPath>
</defs>
<path clip-path="url(#clip720)" d="M448.976 1951.03 L3152.76 1951.03 L3152.76 47.2441 L448.976 47.2441  Z" fill="#ffffff" fill-rule="evenodd" fill-opacity="1"/>
<defs>
  <clipPath id="clip722">
    <rect x="448" y="47" width="2705" height="1905"/>
  </clipPath>
</defs>
<polyline clip-path="url(#clip722)" style="stroke:#000000; stroke-linecap:round; stroke-linejoin:round; stroke-width:2; stroke-opacity:0.1; fill:none" points="781.853,1951.03 781.853,47.2441 "/>
<polyline clip-path="url(#clip722)" style="stroke:#000000; stroke-linecap:round; stroke-linejoin:round; stroke-width:2; stroke-opacity:0.1; fill:none" points="1121.52,1951.03 1121.52,47.2441 "/>
<polyline clip-path="url(#clip722)" style="stroke:#000000; stroke-linecap:round; stroke-linejoin:round; stroke-width:2; stroke-opacity:0.1; fill:none" points="1461.2,1951.03 1461.2,47.2441 "/>
<polyline clip-path="url(#clip722)" style="stroke:#000000; stroke-linecap:round; stroke-linejoin:round; stroke-width:2; stroke-opacity:0.1; fill:none" points="1800.87,1951.03 1800.87,47.2441 "/>
<polyline clip-path="url(#clip722)" style="stroke:#000000; stroke-linecap:round; stroke-linejoin:round; stroke-width:2; stroke-opacity:0.1; fill:none" points="2140.54,1951.03 2140.54,47.2441 "/>
<polyline clip-path="url(#clip722)" style="stroke:#000000; stroke-linecap:round; stroke-linejoin:round; stroke-width:2; stroke-opacity:0.1; fill:none" points="2480.21,1951.03 2480.21,47.2441 "/>
<polyline clip-path="url(#clip722)" style="stroke:#000000; stroke-linecap:round; stroke-linejoin:round; stroke-width:2; stroke-opacity:0.1; fill:none" points="2819.88,1951.03 2819.88,47.2441 "/>
<polyline clip-path="url(#clip722)" style="stroke:#000000; stroke-linecap:round; stroke-linejoin:round; stroke-width:2; stroke-opacity:0.1; fill:none" points="448.976,1808.36 3152.76,1808.36 "/>
<polyline clip-path="url(#clip722)" style="stroke:#000000; stroke-linecap:round; stroke-linejoin:round; stroke-width:2; stroke-opacity:0.1; fill:none" points="448.976,1451.66 3152.76,1451.66 "/>
<polyline clip-path="url(#clip722)" style="stroke:#000000; stroke-linecap:round; stroke-linejoin:round; stroke-width:2; stroke-opacity:0.1; fill:none" points="448.976,1094.97 3152.76,1094.97 "/>
<polyline clip-path="url(#clip722)" style="stroke:#000000; stroke-linecap:round; stroke-linejoin:round; stroke-width:2; stroke-opacity:0.1; fill:none" points="448.976,738.283 3152.76,738.283 "/>
<polyline clip-path="url(#clip722)" style="stroke:#000000; stroke-linecap:round; stroke-linejoin:round; stroke-width:2; stroke-opacity:0.1; fill:none" points="448.976,381.592 3152.76,381.592 "/>
<polyline clip-path="url(#clip720)" style="stroke:#000000; stroke-linecap:round; stroke-linejoin:round; stroke-width:4; stroke-opacity:1; fill:none" points="448.976,1951.03 3152.76,1951.03 "/>
<polyline clip-path="url(#clip720)" style="stroke:#000000; stroke-linecap:round; stroke-linejoin:round; stroke-width:4; stroke-opacity:1; fill:none" points="781.853,1951.03 781.853,1932.13 "/>
<polyline clip-path="url(#clip720)" style="stroke:#000000; stroke-linecap:round; stroke-linejoin:round; stroke-width:4; stroke-opacity:1; fill:none" points="1121.52,1951.03 1121.52,1932.13 "/>
<polyline clip-path="url(#clip720)" style="stroke:#000000; stroke-linecap:round; stroke-linejoin:round; stroke-width:4; stroke-opacity:1; fill:none" points="1461.2,1951.03 1461.2,1932.13 "/>
<polyline clip-path="url(#clip720)" style="stroke:#000000; stroke-linecap:round; stroke-linejoin:round; stroke-width:4; stroke-opacity:1; fill:none" points="1800.87,1951.03 1800.87,1932.13 "/>
<polyline clip-path="url(#clip720)" style="stroke:#000000; stroke-linecap:round; stroke-linejoin:round; stroke-width:4; stroke-opacity:1; fill:none" points="2140.54,1951.03 2140.54,1932.13 "/>
<polyline clip-path="url(#clip720)" style="stroke:#000000; stroke-linecap:round; stroke-linejoin:round; stroke-width:4; stroke-opacity:1; fill:none" points="2480.21,1951.03 2480.21,1932.13 "/>
<polyline clip-path="url(#clip720)" style="stroke:#000000; stroke-linecap:round; stroke-linejoin:round; stroke-width:4; stroke-opacity:1; fill:none" points="2819.88,1951.03 2819.88,1932.13 "/>
<path clip-path="url(#clip720)" d="M736.414 2003 L766.09 2003 L766.09 2006.94 L736.414 2006.94 L736.414 2003 Z" fill="#000000" fill-rule="nonzero" fill-opacity="1" /><path clip-path="url(#clip720)" d="M775.002 1985.27 L797.224 1985.27 L797.224 1987.26 L784.678 2019.83 L779.793 2019.83 L791.599 1989.21 L775.002 1989.21 L775.002 1985.27 Z" fill="#000000" fill-rule="nonzero" fill-opacity="1" /><path clip-path="url(#clip720)" d="M806.39 1985.27 L824.747 1985.27 L824.747 1989.21 L810.673 1989.21 L810.673 1997.68 Q811.691 1997.33 812.71 1997.17 Q813.728 1996.98 814.747 1996.98 Q820.534 1996.98 823.913 2000.16 Q827.293 2003.33 827.293 2008.74 Q827.293 2014.32 823.821 2017.42 Q820.349 2020.5 814.029 2020.5 Q811.853 2020.5 809.585 2020.13 Q807.339 2019.76 804.932 2019.02 L804.932 2014.32 Q807.015 2015.46 809.238 2016.01 Q811.46 2016.57 813.937 2016.57 Q817.941 2016.57 820.279 2014.46 Q822.617 2012.35 822.617 2008.74 Q822.617 2005.13 820.279 2003.03 Q817.941 2000.92 813.937 2000.92 Q812.062 2000.92 810.187 2001.34 Q808.335 2001.75 806.39 2002.63 L806.39 1985.27 Z" fill="#000000" fill-rule="nonzero" fill-opacity="1" /><path clip-path="url(#clip720)" d="M1075.59 2003 L1105.26 2003 L1105.26 2006.94 L1075.59 2006.94 L1075.59 2003 Z" fill="#000000" fill-rule="nonzero" fill-opacity="1" /><path clip-path="url(#clip720)" d="M1115.4 1985.27 L1133.76 1985.27 L1133.76 1989.21 L1119.68 1989.21 L1119.68 1997.68 Q1120.7 1997.33 1121.72 1997.17 Q1122.74 1996.98 1123.76 1996.98 Q1129.55 1996.98 1132.92 2000.16 Q1136.3 2003.33 1136.3 2008.74 Q1136.3 2014.32 1132.83 2017.42 Q1129.36 2020.5 1123.04 2020.5 Q1120.86 2020.5 1118.6 2020.13 Q1116.35 2019.76 1113.94 2019.02 L1113.94 2014.32 Q1116.03 2015.46 1118.25 2016.01 Q1120.47 2016.57 1122.95 2016.57 Q1126.95 2016.57 1129.29 2014.46 Q1131.63 2012.35 1131.63 2008.74 Q1131.63 2005.13 1129.29 2003.03 Q1126.95 2000.92 1122.95 2000.92 Q1121.07 2000.92 1119.2 2001.34 Q1117.35 2001.75 1115.4 2002.63 L1115.4 1985.27 Z" fill="#000000" fill-rule="nonzero" fill-opacity="1" /><path clip-path="url(#clip720)" d="M1155.52 1988.35 Q1151.91 1988.35 1150.08 1991.92 Q1148.27 1995.46 1148.27 2002.59 Q1148.27 2009.69 1150.08 2013.26 Q1151.91 2016.8 1155.52 2016.8 Q1159.15 2016.8 1160.96 2013.26 Q1162.79 2009.69 1162.79 2002.59 Q1162.79 1995.46 1160.96 1991.92 Q1159.15 1988.35 1155.52 1988.35 M1155.52 1984.65 Q1161.33 1984.65 1164.38 1989.25 Q1167.46 1993.84 1167.46 2002.59 Q1167.46 2011.31 1164.38 2015.92 Q1161.33 2020.5 1155.52 2020.5 Q1149.71 2020.5 1146.63 2015.92 Q1143.57 2011.31 1143.57 2002.59 Q1143.57 1993.84 1146.63 1989.25 Q1149.71 1984.65 1155.52 1984.65 Z" fill="#000000" fill-rule="nonzero" fill-opacity="1" /><path clip-path="url(#clip720)" d="M1415.76 2003 L1445.43 2003 L1445.43 2006.94 L1415.76 2006.94 L1415.76 2003 Z" fill="#000000" fill-rule="nonzero" fill-opacity="1" /><path clip-path="url(#clip720)" d="M1459.55 2015.9 L1475.87 2015.9 L1475.87 2019.83 L1453.93 2019.83 L1453.93 2015.9 Q1456.59 2013.14 1461.17 2008.51 Q1465.78 2003.86 1466.96 2002.52 Q1469.2 1999.99 1470.08 1998.26 Q1470.99 1996.5 1470.99 1994.81 Q1470.99 1992.05 1469.04 1990.32 Q1467.12 1988.58 1464.02 1988.58 Q1461.82 1988.58 1459.37 1989.35 Q1456.94 1990.11 1454.16 1991.66 L1454.16 1986.94 Q1456.98 1985.8 1459.44 1985.23 Q1461.89 1984.65 1463.93 1984.65 Q1469.3 1984.65 1472.49 1987.33 Q1475.69 1990.02 1475.69 1994.51 Q1475.69 1996.64 1474.88 1998.56 Q1474.09 2000.46 1471.98 2003.05 Q1471.4 2003.72 1468.3 2006.94 Q1465.2 2010.13 1459.55 2015.9 Z" fill="#000000" fill-rule="nonzero" fill-opacity="1" /><path clip-path="url(#clip720)" d="M1485.73 1985.27 L1504.09 1985.27 L1504.09 1989.21 L1490.01 1989.21 L1490.01 1997.68 Q1491.03 1997.33 1492.05 1997.17 Q1493.07 1996.98 1494.09 1996.98 Q1499.88 1996.98 1503.26 2000.16 Q1506.63 2003.33 1506.63 2008.74 Q1506.63 2014.32 1503.16 2017.42 Q1499.69 2020.5 1493.37 2020.5 Q1491.19 2020.5 1488.93 2020.13 Q1486.68 2019.76 1484.27 2019.02 L1484.27 2014.32 Q1486.36 2015.46 1488.58 2016.01 Q1490.8 2016.57 1493.28 2016.57 Q1497.28 2016.57 1499.62 2014.46 Q1501.96 2012.35 1501.96 2008.74 Q1501.96 2005.13 1499.62 2003.03 Q1497.28 2000.92 1493.28 2000.92 Q1491.4 2000.92 1489.53 2001.34 Q1487.68 2001.75 1485.73 2002.63 L1485.73 1985.27 Z" fill="#000000" fill-rule="nonzero" fill-opacity="1" /><path clip-path="url(#clip720)" d="M1800.87 1988.35 Q1797.25 1988.35 1795.43 1991.92 Q1793.62 1995.46 1793.62 2002.59 Q1793.62 2009.69 1795.43 2013.26 Q1797.25 2016.8 1800.87 2016.8 Q1804.5 2016.8 1806.31 2013.26 Q1808.13 2009.69 1808.13 2002.59 Q1808.13 1995.46 1806.31 1991.92 Q1804.5 1988.35 1800.87 1988.35 M1800.87 1984.65 Q1806.68 1984.65 1809.73 1989.25 Q1812.81 1993.84 1812.81 2002.59 Q1812.81 2011.31 1809.73 2015.92 Q1806.68 2020.5 1800.87 2020.5 Q1795.06 2020.5 1791.98 2015.92 Q1788.92 2011.31 1788.92 2002.59 Q1788.92 1993.84 1791.98 1989.25 Q1795.06 1984.65 1800.87 1984.65 Z" fill="#000000" fill-rule="nonzero" fill-opacity="1" /><path clip-path="url(#clip720)" d="M2119.81 2015.9 L2136.13 2015.9 L2136.13 2019.83 L2114.18 2019.83 L2114.18 2015.9 Q2116.84 2013.14 2121.43 2008.51 Q2126.03 2003.86 2127.22 2002.52 Q2129.46 1999.99 2130.34 1998.26 Q2131.24 1996.5 2131.24 1994.81 Q2131.24 1992.05 2129.3 1990.32 Q2127.38 1988.58 2124.28 1988.58 Q2122.08 1988.58 2119.62 1989.35 Q2117.19 1990.11 2114.41 1991.66 L2114.41 1986.94 Q2117.24 1985.8 2119.69 1985.23 Q2122.15 1984.65 2124.18 1984.65 Q2129.55 1984.65 2132.75 1987.33 Q2135.94 1990.02 2135.94 1994.51 Q2135.94 1996.64 2135.13 1998.56 Q2134.34 2000.46 2132.24 2003.05 Q2131.66 2003.72 2128.56 2006.94 Q2125.46 2010.13 2119.81 2015.9 Z" fill="#000000" fill-rule="nonzero" fill-opacity="1" /><path clip-path="url(#clip720)" d="M2145.99 1985.27 L2164.34 1985.27 L2164.34 1989.21 L2150.27 1989.21 L2150.27 1997.68 Q2151.29 1997.33 2152.31 1997.17 Q2153.33 1996.98 2154.34 1996.98 Q2160.13 1996.98 2163.51 2000.16 Q2166.89 2003.33 2166.89 2008.74 Q2166.89 2014.32 2163.42 2017.42 Q2159.95 2020.5 2153.63 2020.5 Q2151.45 2020.5 2149.18 2020.13 Q2146.94 2019.76 2144.53 2019.02 L2144.53 2014.32 Q2146.61 2015.46 2148.84 2016.01 Q2151.06 2016.57 2153.53 2016.57 Q2157.54 2016.57 2159.88 2014.46 Q2162.21 2012.35 2162.21 2008.74 Q2162.21 2005.13 2159.88 2003.03 Q2157.54 2000.92 2153.53 2000.92 Q2151.66 2000.92 2149.78 2001.34 Q2147.93 2001.75 2145.99 2002.63 L2145.99 1985.27 Z" fill="#000000" fill-rule="nonzero" fill-opacity="1" /><path clip-path="url(#clip720)" d="M2454.91 1985.27 L2473.26 1985.27 L2473.26 1989.21 L2459.19 1989.21 L2459.19 1997.68 Q2460.21 1997.33 2461.23 1997.17 Q2462.24 1996.98 2463.26 1996.98 Q2469.05 1996.98 2472.43 2000.16 Q2475.81 2003.33 2475.81 2008.74 Q2475.81 2014.32 2472.34 2017.42 Q2468.87 2020.5 2462.55 2020.5 Q2460.37 2020.5 2458.1 2020.13 Q2455.86 2019.76 2453.45 2019.02 L2453.45 2014.32 Q2455.53 2015.46 2457.75 2016.01 Q2459.98 2016.57 2462.45 2016.57 Q2466.46 2016.57 2468.8 2014.46 Q2471.13 2012.35 2471.13 2008.74 Q2471.13 2005.13 2468.8 2003.03 Q2466.46 2000.92 2462.45 2000.92 Q2460.58 2000.92 2458.7 2001.34 Q2456.85 2001.75 2454.91 2002.63 L2454.91 1985.27 Z" fill="#000000" fill-rule="nonzero" fill-opacity="1" /><path clip-path="url(#clip720)" d="M2495.02 1988.35 Q2491.41 1988.35 2489.58 1991.92 Q2487.78 1995.46 2487.78 2002.59 Q2487.78 2009.69 2489.58 2013.26 Q2491.41 2016.8 2495.02 2016.8 Q2498.66 2016.8 2500.46 2013.26 Q2502.29 2009.69 2502.29 2002.59 Q2502.29 1995.46 2500.46 1991.92 Q2498.66 1988.35 2495.02 1988.35 M2495.02 1984.65 Q2500.83 1984.65 2503.89 1989.25 Q2506.97 1993.84 2506.97 2002.59 Q2506.97 2011.31 2503.89 2015.92 Q2500.83 2020.5 2495.02 2020.5 Q2489.21 2020.5 2486.13 2015.92 Q2483.08 2011.31 2483.08 2002.59 Q2483.08 1993.84 2486.13 1989.25 Q2489.21 1984.65 2495.02 1984.65 Z" fill="#000000" fill-rule="nonzero" fill-opacity="1" /><path clip-path="url(#clip720)" d="M2793.73 1985.27 L2815.95 1985.27 L2815.95 1987.26 L2803.41 2019.83 L2798.52 2019.83 L2810.33 1989.21 L2793.73 1989.21 L2793.73 1985.27 Z" fill="#000000" fill-rule="nonzero" fill-opacity="1" /><path clip-path="url(#clip720)" d="M2825.12 1985.27 L2843.48 1985.27 L2843.48 1989.21 L2829.4 1989.21 L2829.4 1997.68 Q2830.42 1997.33 2831.44 1997.17 Q2832.46 1996.98 2833.48 1996.98 Q2839.26 1996.98 2842.64 2000.16 Q2846.02 2003.33 2846.02 2008.74 Q2846.02 2014.32 2842.55 2017.42 Q2839.08 2020.5 2832.76 2020.5 Q2830.58 2020.5 2828.32 2020.13 Q2826.07 2019.76 2823.66 2019.02 L2823.66 2014.32 Q2825.75 2015.46 2827.97 2016.01 Q2830.19 2016.57 2832.67 2016.57 Q2836.67 2016.57 2839.01 2014.46 Q2841.35 2012.35 2841.35 2008.74 Q2841.35 2005.13 2839.01 2003.03 Q2836.67 2000.92 2832.67 2000.92 Q2830.79 2000.92 2828.92 2001.34 Q2827.07 2001.75 2825.12 2002.63 L2825.12 1985.27 Z" fill="#000000" fill-rule="nonzero" fill-opacity="1" /><path clip-path="url(#clip720)" d="M1495.53 2248.77 L1495.53 2267.26 Q1486.67 2259.02 1476.61 2254.94 Q1466.62 2250.86 1455.34 2250.86 Q1433.12 2250.86 1421.31 2264.49 Q1409.51 2278.03 1409.51 2303.72 Q1409.51 2329.33 1421.31 2342.96 Q1433.12 2356.5 1455.34 2356.5 Q1466.62 2356.5 1476.61 2352.42 Q1486.67 2348.34 1495.53 2340.09 L1495.53 2358.41 Q1486.33 2364.66 1476 2367.78 Q1465.75 2370.91 1454.3 2370.91 Q1424.87 2370.91 1407.94 2352.94 Q1391.02 2334.89 1391.02 2303.72 Q1391.02 2272.47 1407.94 2254.5 Q1424.87 2236.45 1454.3 2236.45 Q1465.93 2236.45 1476.17 2239.57 Q1486.5 2242.61 1495.53 2248.77 Z" fill="#000000" fill-rule="nonzero" fill-opacity="1" /><path clip-path="url(#clip720)" d="M1602.73 2309.71 L1602.73 2368.39 L1586.76 2368.39 L1586.76 2310.23 Q1586.76 2296.43 1581.38 2289.57 Q1576 2282.72 1565.23 2282.72 Q1552.3 2282.72 1544.83 2290.96 Q1537.37 2299.21 1537.37 2313.44 L1537.37 2368.39 L1521.31 2368.39 L1521.31 2233.32 L1537.37 2233.32 L1537.37 2286.27 Q1543.1 2277.51 1550.82 2273.17 Q1558.64 2268.83 1568.79 2268.83 Q1585.55 2268.83 1594.14 2279.24 Q1602.73 2289.57 1602.73 2309.71 Z" fill="#000000" fill-rule="nonzero" fill-opacity="1" /><path clip-path="url(#clip720)" d="M1678.77 2319.52 Q1659.42 2319.52 1651.95 2323.95 Q1644.49 2328.37 1644.49 2339.05 Q1644.49 2347.56 1650.04 2352.59 Q1655.68 2357.54 1665.32 2357.54 Q1678.6 2357.54 1686.59 2348.17 Q1694.66 2338.7 1694.66 2323.08 L1694.66 2319.52 L1678.77 2319.52 M1710.63 2312.92 L1710.63 2368.39 L1694.66 2368.39 L1694.66 2353.63 Q1689.19 2362.49 1681.03 2366.74 Q1672.87 2370.91 1661.07 2370.91 Q1646.14 2370.91 1637.28 2362.58 Q1628.51 2354.16 1628.51 2340.09 Q1628.51 2323.69 1639.45 2315.35 Q1650.48 2307.02 1672.26 2307.02 L1694.66 2307.02 L1694.66 2305.46 Q1694.66 2294.43 1687.37 2288.44 Q1680.16 2282.37 1667.06 2282.37 Q1658.72 2282.37 1650.82 2284.36 Q1642.92 2286.36 1635.63 2290.35 L1635.63 2275.6 Q1644.4 2272.21 1652.65 2270.56 Q1660.89 2268.83 1668.71 2268.83 Q1689.8 2268.83 1700.22 2279.76 Q1710.63 2290.7 1710.63 2312.92 Z" fill="#000000" fill-rule="nonzero" fill-opacity="1" /><path clip-path="url(#clip720)" d="M1743.53 2271.17 L1759.5 2271.17 L1759.5 2368.39 L1743.53 2368.39 L1743.53 2271.17 M1743.53 2233.32 L1759.5 2233.32 L1759.5 2253.55 L1743.53 2253.55 L1743.53 2233.32 Z" fill="#000000" fill-rule="nonzero" fill-opacity="1" /><path clip-path="url(#clip720)" d="M1873.74 2309.71 L1873.74 2368.39 L1857.77 2368.39 L1857.77 2310.23 Q1857.77 2296.43 1852.38 2289.57 Q1847 2282.72 1836.24 2282.72 Q1823.31 2282.72 1815.84 2290.96 Q1808.37 2299.21 1808.37 2313.44 L1808.37 2368.39 L1792.32 2368.39 L1792.32 2271.17 L1808.37 2271.17 L1808.37 2286.27 Q1814.1 2277.51 1821.83 2273.17 Q1829.64 2268.83 1839.8 2268.83 Q1856.55 2268.83 1865.15 2279.24 Q1873.74 2289.57 1873.74 2309.71 Z" fill="#000000" fill-rule="nonzero" fill-opacity="1" /><path clip-path="url(#clip720)" d="M2040.49 2243.05 L2040.49 2260.15 Q2030.51 2255.37 2021.65 2253.03 Q2012.8 2250.68 2004.55 2250.68 Q1990.23 2250.68 1982.42 2256.24 Q1974.69 2261.8 1974.69 2272.04 Q1974.69 2280.63 1979.81 2285.06 Q1985.02 2289.4 1999.43 2292.09 L2010.02 2294.26 Q2029.64 2297.99 2038.93 2307.45 Q2048.3 2316.83 2048.3 2332.63 Q2048.3 2351.46 2035.63 2361.19 Q2023.04 2370.91 1998.65 2370.91 Q1989.45 2370.91 1979.03 2368.83 Q1968.7 2366.74 1957.59 2362.66 L1957.59 2344.61 Q1968.27 2350.6 1978.51 2353.63 Q1988.76 2356.67 1998.65 2356.67 Q2013.67 2356.67 2021.83 2350.77 Q2029.99 2344.87 2029.99 2333.93 Q2029.99 2324.38 2024.09 2319 Q2018.27 2313.62 2004.9 2310.93 L1994.22 2308.84 Q1974.61 2304.94 1965.84 2296.6 Q1957.07 2288.27 1957.07 2273.43 Q1957.07 2256.24 1969.14 2246.34 Q1981.29 2236.45 2002.56 2236.45 Q2011.67 2236.45 2021.13 2238.1 Q2030.6 2239.75 2040.49 2243.05 Z" fill="#000000" fill-rule="nonzero" fill-opacity="1" /><path clip-path="url(#clip720)" d="M2074.95 2271.17 L2090.93 2271.17 L2090.93 2368.39 L2074.95 2368.39 L2074.95 2271.17 M2074.95 2233.32 L2090.93 2233.32 L2090.93 2253.55 L2074.95 2253.55 L2074.95 2233.32 Z" fill="#000000" fill-rule="nonzero" fill-opacity="1" /><path clip-path="url(#clip720)" d="M2140.14 2243.57 L2140.14 2271.17 L2173.04 2271.17 L2173.04 2283.58 L2140.14 2283.58 L2140.14 2336.36 Q2140.14 2348.25 2143.36 2351.64 Q2146.65 2355.02 2156.64 2355.02 L2173.04 2355.02 L2173.04 2368.39 L2156.64 2368.39 Q2138.15 2368.39 2131.12 2361.53 Q2124.08 2354.59 2124.08 2336.36 L2124.08 2283.58 L2112.37 2283.58 L2112.37 2271.17 L2124.08 2271.17 L2124.08 2243.57 L2140.14 2243.57 Z" fill="#000000" fill-rule="nonzero" fill-opacity="1" /><path clip-path="url(#clip720)" d="M2277.21 2315.79 L2277.21 2323.6 L2203.77 2323.6 Q2204.81 2340.09 2213.67 2348.77 Q2222.61 2357.37 2238.49 2357.37 Q2247.7 2357.37 2256.29 2355.11 Q2264.97 2352.85 2273.48 2348.34 L2273.48 2363.44 Q2264.88 2367.09 2255.85 2369 Q2246.83 2370.91 2237.54 2370.91 Q2214.28 2370.91 2200.65 2357.37 Q2187.11 2343.83 2187.11 2320.74 Q2187.11 2296.86 2199.95 2282.89 Q2212.89 2268.83 2234.76 2268.83 Q2254.38 2268.83 2265.75 2281.5 Q2277.21 2294.09 2277.21 2315.79 M2261.24 2311.1 Q2261.06 2297.99 2253.86 2290.18 Q2246.74 2282.37 2234.93 2282.37 Q2221.57 2282.37 2213.49 2289.92 Q2205.51 2297.47 2204.29 2311.19 L2261.24 2311.1 Z" fill="#000000" fill-rule="nonzero" fill-opacity="1" /><polyline clip-path="url(#clip720)" style="stroke:#000000; stroke-linecap:round; stroke-linejoin:round; stroke-width:4; stroke-opacity:1; fill:none" points="448.976,1951.03 448.976,47.2441 "/>
<polyline clip-path="url(#clip720)" style="stroke:#000000; stroke-linecap:round; stroke-linejoin:round; stroke-width:4; stroke-opacity:1; fill:none" points="448.976,1808.36 467.874,1808.36 "/>
<polyline clip-path="url(#clip720)" style="stroke:#000000; stroke-linecap:round; stroke-linejoin:round; stroke-width:4; stroke-opacity:1; fill:none" points="448.976,1451.66 467.874,1451.66 "/>
<polyline clip-path="url(#clip720)" style="stroke:#000000; stroke-linecap:round; stroke-linejoin:round; stroke-width:4; stroke-opacity:1; fill:none" points="448.976,1094.97 467.874,1094.97 "/>
<polyline clip-path="url(#clip720)" style="stroke:#000000; stroke-linecap:round; stroke-linejoin:round; stroke-width:4; stroke-opacity:1; fill:none" points="448.976,738.283 467.874,738.283 "/>
<polyline clip-path="url(#clip720)" style="stroke:#000000; stroke-linecap:round; stroke-linejoin:round; stroke-width:4; stroke-opacity:1; fill:none" points="448.976,381.592 467.874,381.592 "/>
<path clip-path="url(#clip720)" d="M283.477 1794.15 Q279.866 1794.15 278.037 1797.72 Q276.231 1801.26 276.231 1808.39 Q276.231 1815.5 278.037 1819.06 Q279.866 1822.6 283.477 1822.6 Q287.111 1822.6 288.916 1819.06 Q290.745 1815.5 290.745 1808.39 Q290.745 1801.26 288.916 1797.72 Q287.111 1794.15 283.477 1794.15 M283.477 1790.45 Q289.287 1790.45 292.342 1795.06 Q295.421 1799.64 295.421 1808.39 Q295.421 1817.12 292.342 1821.72 Q289.287 1826.31 283.477 1826.31 Q277.667 1826.31 274.588 1821.72 Q271.532 1817.12 271.532 1808.39 Q271.532 1799.64 274.588 1795.06 Q277.667 1790.45 283.477 1790.45 Z" fill="#000000" fill-rule="nonzero" fill-opacity="1" /><path clip-path="url(#clip720)" d="M303.639 1819.76 L308.523 1819.76 L308.523 1825.64 L303.639 1825.64 L303.639 1819.76 Z" fill="#000000" fill-rule="nonzero" fill-opacity="1" /><path clip-path="url(#clip720)" d="M328.708 1794.15 Q325.097 1794.15 323.268 1797.72 Q321.463 1801.26 321.463 1808.39 Q321.463 1815.5 323.268 1819.06 Q325.097 1822.6 328.708 1822.6 Q332.342 1822.6 334.148 1819.06 Q335.976 1815.5 335.976 1808.39 Q335.976 1801.26 334.148 1797.72 Q332.342 1794.15 328.708 1794.15 M328.708 1790.45 Q334.518 1790.45 337.574 1795.06 Q340.652 1799.64 340.652 1808.39 Q340.652 1817.12 337.574 1821.72 Q334.518 1826.31 328.708 1826.31 Q322.898 1826.31 319.819 1821.72 Q316.764 1817.12 316.764 1808.39 Q316.764 1799.64 319.819 1795.06 Q322.898 1790.45 328.708 1790.45 Z" fill="#000000" fill-rule="nonzero" fill-opacity="1" /><path clip-path="url(#clip720)" d="M358.87 1794.15 Q355.259 1794.15 353.43 1797.72 Q351.624 1801.26 351.624 1808.39 Q351.624 1815.5 353.43 1819.06 Q355.259 1822.6 358.87 1822.6 Q362.504 1822.6 364.31 1819.06 Q366.138 1815.5 366.138 1808.39 Q366.138 1801.26 364.31 1797.72 Q362.504 1794.15 358.87 1794.15 M358.87 1790.45 Q364.68 1790.45 367.735 1795.06 Q370.814 1799.64 370.814 1808.39 Q370.814 1817.12 367.735 1821.72 Q364.68 1826.31 358.87 1826.31 Q353.06 1826.31 349.981 1821.72 Q346.925 1817.12 346.925 1808.39 Q346.925 1799.64 349.981 1795.06 Q353.06 1790.45 358.87 1790.45 Z" fill="#000000" fill-rule="nonzero" fill-opacity="1" /><path clip-path="url(#clip720)" d="M389.032 1794.15 Q385.421 1794.15 383.592 1797.72 Q381.786 1801.26 381.786 1808.39 Q381.786 1815.5 383.592 1819.06 Q385.421 1822.6 389.032 1822.6 Q392.666 1822.6 394.471 1819.06 Q396.3 1815.5 396.3 1808.39 Q396.3 1801.26 394.471 1797.72 Q392.666 1794.15 389.032 1794.15 M389.032 1790.45 Q394.842 1790.45 397.897 1795.06 Q400.976 1799.64 400.976 1808.39 Q400.976 1817.12 397.897 1821.72 Q394.842 1826.31 389.032 1826.31 Q383.221 1826.31 380.143 1821.72 Q377.087 1817.12 377.087 1808.39 Q377.087 1799.64 380.143 1795.06 Q383.221 1790.45 389.032 1790.45 Z" fill="#000000" fill-rule="nonzero" fill-opacity="1" /><path clip-path="url(#clip720)" d="M284.472 1437.46 Q280.861 1437.46 279.032 1441.03 Q277.227 1444.57 277.227 1451.7 Q277.227 1458.81 279.032 1462.37 Q280.861 1465.91 284.472 1465.91 Q288.106 1465.91 289.912 1462.37 Q291.741 1458.81 291.741 1451.7 Q291.741 1444.57 289.912 1441.03 Q288.106 1437.46 284.472 1437.46 M284.472 1433.76 Q290.282 1433.76 293.338 1438.37 Q296.416 1442.95 296.416 1451.7 Q296.416 1460.43 293.338 1465.03 Q290.282 1469.62 284.472 1469.62 Q278.662 1469.62 275.583 1465.03 Q272.528 1460.43 272.528 1451.7 Q272.528 1442.95 275.583 1438.37 Q278.662 1433.76 284.472 1433.76 Z" fill="#000000" fill-rule="nonzero" fill-opacity="1" /><path clip-path="url(#clip720)" d="M304.634 1463.07 L309.518 1463.07 L309.518 1468.94 L304.634 1468.94 L304.634 1463.07 Z" fill="#000000" fill-rule="nonzero" fill-opacity="1" /><path clip-path="url(#clip720)" d="M329.703 1437.46 Q326.092 1437.46 324.263 1441.03 Q322.458 1444.57 322.458 1451.7 Q322.458 1458.81 324.263 1462.37 Q326.092 1465.91 329.703 1465.91 Q333.338 1465.91 335.143 1462.37 Q336.972 1458.81 336.972 1451.7 Q336.972 1444.57 335.143 1441.03 Q333.338 1437.46 329.703 1437.46 M329.703 1433.76 Q335.513 1433.76 338.569 1438.37 Q341.648 1442.95 341.648 1451.7 Q341.648 1460.43 338.569 1465.03 Q335.513 1469.62 329.703 1469.62 Q323.893 1469.62 320.814 1465.03 Q317.759 1460.43 317.759 1451.7 Q317.759 1442.95 320.814 1438.37 Q323.893 1433.76 329.703 1433.76 Z" fill="#000000" fill-rule="nonzero" fill-opacity="1" /><path clip-path="url(#clip720)" d="M353.893 1465.01 L370.212 1465.01 L370.212 1468.94 L348.268 1468.94 L348.268 1465.01 Q350.93 1462.25 355.513 1457.63 Q360.12 1452.97 361.3 1451.63 Q363.546 1449.11 364.425 1447.37 Q365.328 1445.61 365.328 1443.92 Q365.328 1441.17 363.384 1439.43 Q361.462 1437.69 358.361 1437.69 Q356.161 1437.69 353.708 1438.46 Q351.277 1439.22 348.499 1440.77 L348.499 1436.05 Q351.324 1434.92 353.777 1434.34 Q356.231 1433.76 358.268 1433.76 Q363.638 1433.76 366.833 1436.44 Q370.027 1439.13 370.027 1443.62 Q370.027 1445.75 369.217 1447.67 Q368.43 1449.57 366.323 1452.16 Q365.745 1452.83 362.643 1456.05 Q359.541 1459.25 353.893 1465.01 Z" fill="#000000" fill-rule="nonzero" fill-opacity="1" /><path clip-path="url(#clip720)" d="M380.073 1434.38 L398.43 1434.38 L398.43 1438.32 L384.356 1438.32 L384.356 1446.79 Q385.374 1446.44 386.393 1446.28 Q387.411 1446.1 388.43 1446.1 Q394.217 1446.1 397.596 1449.27 Q400.976 1452.44 400.976 1457.86 Q400.976 1463.44 397.504 1466.54 Q394.032 1469.62 387.712 1469.62 Q385.536 1469.62 383.268 1469.25 Q381.022 1468.88 378.615 1468.13 L378.615 1463.44 Q380.698 1464.57 382.921 1465.13 Q385.143 1465.68 387.62 1465.68 Q391.624 1465.68 393.962 1463.57 Q396.3 1461.47 396.3 1457.86 Q396.3 1454.25 393.962 1452.14 Q391.624 1450.03 387.62 1450.03 Q385.745 1450.03 383.87 1450.45 Q382.018 1450.87 380.073 1451.75 L380.073 1434.38 Z" fill="#000000" fill-rule="nonzero" fill-opacity="1" /><path clip-path="url(#clip720)" d="M283.477 1080.77 Q279.866 1080.77 278.037 1084.34 Q276.231 1087.88 276.231 1095.01 Q276.231 1102.12 278.037 1105.68 Q279.866 1109.22 283.477 1109.22 Q287.111 1109.22 288.916 1105.68 Q290.745 1102.12 290.745 1095.01 Q290.745 1087.88 288.916 1084.34 Q287.111 1080.77 283.477 1080.77 M283.477 1077.07 Q289.287 1077.07 292.342 1081.68 Q295.421 1086.26 295.421 1095.01 Q295.421 1103.74 292.342 1108.34 Q289.287 1112.93 283.477 1112.93 Q277.667 1112.93 274.588 1108.34 Q271.532 1103.74 271.532 1095.01 Q271.532 1086.26 274.588 1081.68 Q277.667 1077.07 283.477 1077.07 Z" fill="#000000" fill-rule="nonzero" fill-opacity="1" /><path clip-path="url(#clip720)" d="M303.639 1106.37 L308.523 1106.37 L308.523 1112.25 L303.639 1112.25 L303.639 1106.37 Z" fill="#000000" fill-rule="nonzero" fill-opacity="1" /><path clip-path="url(#clip720)" d="M328.708 1080.77 Q325.097 1080.77 323.268 1084.34 Q321.463 1087.88 321.463 1095.01 Q321.463 1102.12 323.268 1105.68 Q325.097 1109.22 328.708 1109.22 Q332.342 1109.22 334.148 1105.68 Q335.976 1102.12 335.976 1095.01 Q335.976 1087.88 334.148 1084.34 Q332.342 1080.77 328.708 1080.77 M328.708 1077.07 Q334.518 1077.07 337.574 1081.68 Q340.652 1086.26 340.652 1095.01 Q340.652 1103.74 337.574 1108.34 Q334.518 1112.93 328.708 1112.93 Q322.898 1112.93 319.819 1108.34 Q316.764 1103.74 316.764 1095.01 Q316.764 1086.26 319.819 1081.68 Q322.898 1077.07 328.708 1077.07 Z" fill="#000000" fill-rule="nonzero" fill-opacity="1" /><path clip-path="url(#clip720)" d="M348.916 1077.69 L367.273 1077.69 L367.273 1081.63 L353.199 1081.63 L353.199 1090.1 Q354.217 1089.75 355.236 1089.59 Q356.254 1089.41 357.273 1089.41 Q363.06 1089.41 366.439 1092.58 Q369.819 1095.75 369.819 1101.17 Q369.819 1106.74 366.347 1109.85 Q362.874 1112.93 356.555 1112.93 Q354.379 1112.93 352.111 1112.55 Q349.865 1112.18 347.458 1111.44 L347.458 1106.74 Q349.541 1107.88 351.763 1108.43 Q353.986 1108.99 356.462 1108.99 Q360.467 1108.99 362.805 1106.88 Q365.143 1104.78 365.143 1101.17 Q365.143 1097.55 362.805 1095.45 Q360.467 1093.34 356.462 1093.34 Q354.587 1093.34 352.712 1093.76 Q350.861 1094.18 348.916 1095.05 L348.916 1077.69 Z" fill="#000000" fill-rule="nonzero" fill-opacity="1" /><path clip-path="url(#clip720)" d="M389.032 1080.77 Q385.421 1080.77 383.592 1084.34 Q381.786 1087.88 381.786 1095.01 Q381.786 1102.12 383.592 1105.68 Q385.421 1109.22 389.032 1109.22 Q392.666 1109.22 394.471 1105.68 Q396.3 1102.12 396.3 1095.01 Q396.3 1087.88 394.471 1084.34 Q392.666 1080.77 389.032 1080.77 M389.032 1077.07 Q394.842 1077.07 397.897 1081.68 Q400.976 1086.26 400.976 1095.01 Q400.976 1103.74 397.897 1108.34 Q394.842 1112.93 389.032 1112.93 Q383.221 1112.93 380.143 1108.34 Q377.087 1103.74 377.087 1095.01 Q377.087 1086.26 380.143 1081.68 Q383.221 1077.07 389.032 1077.07 Z" fill="#000000" fill-rule="nonzero" fill-opacity="1" /><path clip-path="url(#clip720)" d="M284.472 724.082 Q280.861 724.082 279.032 727.647 Q277.227 731.188 277.227 738.318 Q277.227 745.424 279.032 748.989 Q280.861 752.531 284.472 752.531 Q288.106 752.531 289.912 748.989 Q291.741 745.424 291.741 738.318 Q291.741 731.188 289.912 727.647 Q288.106 724.082 284.472 724.082 M284.472 720.378 Q290.282 720.378 293.338 724.985 Q296.416 729.568 296.416 738.318 Q296.416 747.045 293.338 751.651 Q290.282 756.235 284.472 756.235 Q278.662 756.235 275.583 751.651 Q272.528 747.045 272.528 738.318 Q272.528 729.568 275.583 724.985 Q278.662 720.378 284.472 720.378 Z" fill="#000000" fill-rule="nonzero" fill-opacity="1" /><path clip-path="url(#clip720)" d="M304.634 749.684 L309.518 749.684 L309.518 755.563 L304.634 755.563 L304.634 749.684 Z" fill="#000000" fill-rule="nonzero" fill-opacity="1" /><path clip-path="url(#clip720)" d="M329.703 724.082 Q326.092 724.082 324.263 727.647 Q322.458 731.188 322.458 738.318 Q322.458 745.424 324.263 748.989 Q326.092 752.531 329.703 752.531 Q333.338 752.531 335.143 748.989 Q336.972 745.424 336.972 738.318 Q336.972 731.188 335.143 727.647 Q333.338 724.082 329.703 724.082 M329.703 720.378 Q335.513 720.378 338.569 724.985 Q341.648 729.568 341.648 738.318 Q341.648 747.045 338.569 751.651 Q335.513 756.235 329.703 756.235 Q323.893 756.235 320.814 751.651 Q317.759 747.045 317.759 738.318 Q317.759 729.568 320.814 724.985 Q323.893 720.378 329.703 720.378 Z" fill="#000000" fill-rule="nonzero" fill-opacity="1" /><path clip-path="url(#clip720)" d="M348.685 721.003 L370.907 721.003 L370.907 722.994 L358.361 755.563 L353.476 755.563 L365.282 724.938 L348.685 724.938 L348.685 721.003 Z" fill="#000000" fill-rule="nonzero" fill-opacity="1" /><path clip-path="url(#clip720)" d="M380.073 721.003 L398.43 721.003 L398.43 724.938 L384.356 724.938 L384.356 733.411 Q385.374 733.063 386.393 732.901 Q387.411 732.716 388.43 732.716 Q394.217 732.716 397.596 735.887 Q400.976 739.059 400.976 744.475 Q400.976 750.054 397.504 753.156 Q394.032 756.235 387.712 756.235 Q385.536 756.235 383.268 755.864 Q381.022 755.494 378.615 754.753 L378.615 750.054 Q380.698 751.188 382.921 751.744 Q385.143 752.299 387.62 752.299 Q391.624 752.299 393.962 750.193 Q396.3 748.086 396.3 744.475 Q396.3 740.864 393.962 738.758 Q391.624 736.651 387.62 736.651 Q385.745 736.651 383.87 737.068 Q382.018 737.485 380.073 738.364 L380.073 721.003 Z" fill="#000000" fill-rule="nonzero" fill-opacity="1" /><path clip-path="url(#clip720)" d="M283.477 367.391 Q279.866 367.391 278.037 370.956 Q276.231 374.498 276.231 381.627 Q276.231 388.734 278.037 392.298 Q279.866 395.84 283.477 395.84 Q287.111 395.84 288.916 392.298 Q290.745 388.734 290.745 381.627 Q290.745 374.498 288.916 370.956 Q287.111 367.391 283.477 367.391 M283.477 363.687 Q289.287 363.687 292.342 368.294 Q295.421 372.877 295.421 381.627 Q295.421 390.354 292.342 394.96 Q289.287 399.544 283.477 399.544 Q277.667 399.544 274.588 394.96 Q271.532 390.354 271.532 381.627 Q271.532 372.877 274.588 368.294 Q277.667 363.687 283.477 363.687 Z" fill="#000000" fill-rule="nonzero" fill-opacity="1" /><path clip-path="url(#clip720)" d="M303.639 392.993 L308.523 392.993 L308.523 398.872 L303.639 398.872 L303.639 392.993 Z" fill="#000000" fill-rule="nonzero" fill-opacity="1" /><path clip-path="url(#clip720)" d="M319.518 394.937 L327.157 394.937 L327.157 368.572 L318.847 370.238 L318.847 365.979 L327.111 364.312 L331.787 364.312 L331.787 394.937 L339.425 394.937 L339.425 398.872 L319.518 398.872 L319.518 394.937 Z" fill="#000000" fill-rule="nonzero" fill-opacity="1" /><path clip-path="url(#clip720)" d="M358.87 367.391 Q355.259 367.391 353.43 370.956 Q351.624 374.498 351.624 381.627 Q351.624 388.734 353.43 392.298 Q355.259 395.84 358.87 395.84 Q362.504 395.84 364.31 392.298 Q366.138 388.734 366.138 381.627 Q366.138 374.498 364.31 370.956 Q362.504 367.391 358.87 367.391 M358.87 363.687 Q364.68 363.687 367.735 368.294 Q370.814 372.877 370.814 381.627 Q370.814 390.354 367.735 394.96 Q364.68 399.544 358.87 399.544 Q353.06 399.544 349.981 394.96 Q346.925 390.354 346.925 381.627 Q346.925 372.877 349.981 368.294 Q353.06 363.687 358.87 363.687 Z" fill="#000000" fill-rule="nonzero" fill-opacity="1" /><path clip-path="url(#clip720)" d="M389.032 367.391 Q385.421 367.391 383.592 370.956 Q381.786 374.498 381.786 381.627 Q381.786 388.734 383.592 392.298 Q385.421 395.84 389.032 395.84 Q392.666 395.84 394.471 392.298 Q396.3 388.734 396.3 381.627 Q396.3 374.498 394.471 370.956 Q392.666 367.391 389.032 367.391 M389.032 363.687 Q394.842 363.687 397.897 368.294 Q400.976 372.877 400.976 381.627 Q400.976 390.354 397.897 394.96 Q394.842 399.544 389.032 399.544 Q383.221 399.544 380.143 394.96 Q377.087 390.354 377.087 381.627 Q377.087 372.877 380.143 368.294 Q383.221 363.687 389.032 363.687 Z" fill="#000000" fill-rule="nonzero" fill-opacity="1" /><path clip-path="url(#clip720)" d="M59.3057 1290.63 L76.4063 1290.63 Q71.6321 1300.61 69.2883 1309.47 Q66.9446 1318.32 66.9446 1326.57 Q66.9446 1340.89 72.5001 1348.7 Q78.0556 1356.43 88.2986 1356.43 Q96.8923 1356.43 101.319 1351.31 Q105.66 1346.1 108.351 1331.69 L110.521 1321.1 Q114.253 1301.48 123.715 1292.19 Q133.09 1282.82 148.889 1282.82 Q167.725 1282.82 177.447 1295.49 Q187.17 1308.08 187.17 1332.47 Q187.17 1341.67 185.086 1352.09 Q183.003 1362.42 178.923 1373.53 L160.868 1373.53 Q166.857 1362.85 169.895 1352.61 Q172.934 1342.37 172.934 1332.47 Q172.934 1317.45 167.031 1309.29 Q161.128 1301.13 150.191 1301.13 Q140.642 1301.13 135.26 1307.04 Q129.878 1312.85 127.187 1326.22 L125.104 1336.9 Q121.198 1356.51 112.864 1365.28 Q104.531 1374.05 89.6875 1374.05 Q72.5001 1374.05 62.6043 1361.98 Q52.7085 1349.83 52.7085 1328.56 Q52.7085 1319.45 54.3578 1309.99 Q56.0071 1300.53 59.3057 1290.63 Z" fill="#000000" fill-rule="nonzero" fill-opacity="1" /><path clip-path="url(#clip720)" d="M87.4306 1256.17 L87.4306 1240.2 L184.652 1240.2 L184.652 1256.17 L87.4306 1256.17 M49.5836 1256.17 L49.5836 1240.2 L69.8091 1240.2 L69.8091 1256.17 L49.5836 1256.17 Z" fill="#000000" fill-rule="nonzero" fill-opacity="1" /><path clip-path="url(#clip720)" d="M59.8266 1190.98 L87.4306 1190.98 L87.4306 1158.08 L99.8437 1158.08 L99.8437 1190.98 L152.621 1190.98 Q164.514 1190.98 167.899 1187.77 Q171.284 1184.47 171.284 1174.48 L171.284 1158.08 L184.652 1158.08 L184.652 1174.48 Q184.652 1192.97 177.795 1200 Q170.85 1207.04 152.621 1207.04 L99.8437 1207.04 L99.8437 1218.75 L87.4306 1218.75 L87.4306 1207.04 L59.8266 1207.04 L59.8266 1190.98 Z" fill="#000000" fill-rule="nonzero" fill-opacity="1" /><path clip-path="url(#clip720)" d="M132.048 1053.91 L139.861 1053.91 L139.861 1127.35 Q156.354 1126.31 165.034 1117.45 Q173.628 1108.51 173.628 1092.63 Q173.628 1083.43 171.371 1074.83 Q169.114 1066.15 164.6 1057.64 L179.704 1057.64 Q183.35 1066.24 185.26 1075.27 Q187.17 1084.29 187.17 1093.58 Q187.17 1116.85 173.628 1130.47 Q160.086 1144.02 136.996 1144.02 Q113.125 1144.02 99.1493 1131.17 Q85.0868 1118.23 85.0868 1096.36 Q85.0868 1076.74 97.7604 1065.37 Q110.347 1053.91 132.048 1053.91 M127.361 1069.88 Q114.253 1070.06 106.441 1077.26 Q98.6284 1084.38 98.6284 1096.19 Q98.6284 1109.55 106.18 1117.63 Q113.733 1125.61 127.448 1126.83 L127.361 1069.88 Z" fill="#000000" fill-rule="nonzero" fill-opacity="1" /><path clip-path="url(#clip720)" d="M55.0523 970.492 L55.0523 896.014 L69.8091 896.014 L69.8091 952.958 L108.003 952.958 L108.003 901.569 L122.76 901.569 L122.76 952.958 L184.652 952.958 L184.652 970.492 L55.0523 970.492 Z" fill="#000000" fill-rule="nonzero" fill-opacity="1" /><path clip-path="url(#clip720)" d="M49.5836 868.93 L49.5836 852.958 L184.652 852.958 L184.652 868.93 L49.5836 868.93 Z" fill="#000000" fill-rule="nonzero" fill-opacity="1" /><path clip-path="url(#clip720)" d="M146.284 821.188 L87.4306 821.188 L87.4306 805.215 L145.677 805.215 Q159.479 805.215 166.423 799.833 Q173.281 794.452 173.281 783.688 Q173.281 770.754 165.034 763.289 Q156.788 755.736 142.552 755.736 L87.4306 755.736 L87.4306 739.764 L184.652 739.764 L184.652 755.736 L169.722 755.736 Q178.576 761.552 182.916 769.278 Q187.17 776.917 187.17 787.073 Q187.17 803.826 176.753 812.507 Q166.336 821.188 146.284 821.188 M85.0868 780.997 L85.0868 780.997 Z" fill="#000000" fill-rule="nonzero" fill-opacity="1" /><path clip-path="url(#clip720)" d="M87.4306 626.05 L134.739 661.206 L184.652 624.227 L184.652 643.063 L146.458 671.362 L184.652 699.66 L184.652 718.497 L133.785 680.737 L87.4306 715.285 L87.4306 696.449 L122.066 670.667 L87.4306 644.886 L87.4306 626.05 Z" fill="#000000" fill-rule="nonzero" fill-opacity="1" /><polyline clip-path="url(#clip722)" style="stroke:#009af9; stroke-linecap:round; stroke-linejoin:round; stroke-width:20; stroke-opacity:1; fill:none" points="448.976,1808.36 462.563,1808.36 476.15,1808.36 489.737,1808.36 503.323,1808.36 516.91,1808.36 530.497,1808.36 544.084,1808.36 557.671,1808.36 571.258,1808.36 584.844,1808.36 598.431,1808.36 612.018,1808.36 625.605,1808.36 639.192,1808.36 652.779,1808.36 666.365,1808.36 679.952,1808.36 693.539,1808.36 707.126,1808.36 720.713,1808.36 734.3,1808.36 747.886,1808.36 761.473,1808.36 775.06,1808.36 788.647,1808.36 802.234,1808.36 815.821,1808.36 829.407,1808.36 842.994,1808.36 856.581,1808.36 870.168,1808.36 883.755,1808.36 897.342,1808.36 910.928,1808.36 924.515,1808.36 938.102,1808.36 951.689,1808.36 965.276,1808.36 978.863,1808.36 992.449,1808.36 1006.04,1808.36 1019.62,1808.36 1033.21,1808.36 1046.8,1808.36 1060.38,1808.36 1073.97,1808.36 1087.56,1808.36 1101.14,1808.36 1114.73,1808.36 1128.32,1808.36 1141.9,1808.36 1155.49,1808.36 1169.08,1808.36 1182.67,1808.36 1196.25,1808.36 1209.84,1808.36 1223.43,1808.36 1237.01,1808.36 1250.6,1808.36 1264.19,1808.36 1277.77,1808.36 1291.36,1808.35 1304.95,1808.35 1318.53,1808.33 1332.12,1808.27 1345.71,1808.03 1359.29,1807.21 1372.88,1804.68 1386.47,1797.51 1400.05,1779.13 1413.64,1736.64 1427.23,1648.92 1440.81,1488.76 1454.4,1233.84 1467.99,887.856 1481.58,503.331 1495.16,186.079 1508.75,61.5117 1522.34,205.917 1535.92,581.465 1549.51,1030.67 1563.1,1356.9 1576.68,1449.55 1590.27,1357.65 1603.86,1239.6 1617.44,1223.93 1631.03,1308.4 1644.62,1393.44 1658.2,1405.03 1671.79,1366.26 1685.38,1346.93 1698.96,1370.5 1712.55,1394.78 1726.14,1386.57 1739.73,1376.86 1753.31,1387.5 1766.9,1387.74 1780.49,1385.61 1794.07,1387.15 1807.66,1387.03 1821.25,1386.74 1834.83,1386.21 1848.42,1389.63 1862.01,1385.41 1875.59,1381.87 1889.18,1389.78 1902.77,1397.36 1916.35,1390.76 1929.94,1374.84 1943.53,1367.48 1957.11,1381.03 1970.7,1409.05 1984.29,1429.09 1997.88,1420.05 2011.46,1379.67 2025.05,1327.82 2038.64,1294.4 2052.22,1302.04 2065.81,1355.34 2079.4,1441.59 2092.98,1539.61 2106.57,1629.9 2120.16,1700.8 2133.74,1749.44 2147.33,1778.97 2160.92,1794.99 2174.5,1802.8 2188.09,1806.24 2201.68,1807.62 2215.26,1808.12 2228.85,1808.28 2242.44,1808.34 2256.02,1808.35 2269.61,1808.35 2283.2,1808.36 2296.79,1808.36 2310.37,1808.36 2323.96,1808.36 2337.55,1808.36 2351.13,1808.36 2364.72,1808.36 2378.31,1808.36 2391.89,1808.36 2405.48,1808.36 2419.07,1808.36 2432.65,1808.36 2446.24,1808.36 2459.83,1808.36 2473.41,1808.36 2487,1808.36 2500.59,1808.36 2514.17,1808.36 2527.76,1808.36 2541.35,1808.36 2554.94,1808.36 2568.52,1808.36 2582.11,1808.36 2595.7,1808.36 2609.28,1808.36 2622.87,1808.36 2636.46,1808.36 2650.04,1808.36 2663.63,1808.36 2677.22,1808.36 2690.8,1808.36 2704.39,1808.36 2717.98,1808.36 2731.56,1808.36 2745.15,1808.36 2758.74,1808.36 2772.32,1808.36 2785.91,1808.36 2799.5,1808.36 2813.09,1808.36 2826.67,1808.36 2840.26,1808.36 2853.85,1808.36 2867.43,1808.36 2881.02,1808.36 2894.61,1808.36 2908.19,1808.36 2921.78,1808.36 2935.37,1808.36 2948.95,1808.36 2962.54,1808.36 2976.13,1808.36 2989.71,1808.36 3003.3,1808.36 3016.89,1808.36 3030.47,1808.36 3044.06,1808.36 3057.65,1808.36 3071.23,1808.36 3084.82,1808.36 3098.41,1808.36 3112,1808.36 3125.58,1808.36 3139.17,1808.36 3152.76,1808.36 "/>
<polyline clip-path="url(#clip722)" style="stroke:#000000; stroke-linecap:round; stroke-linejoin:round; stroke-width:8; stroke-opacity:1; fill:none" stroke-dasharray="32, 20" points="1800.87,3854.82 1800.87,-1856.54 "/>
<polyline clip-path="url(#clip722)" style="stroke:#000000; stroke-linecap:round; stroke-linejoin:round; stroke-width:16; stroke-opacity:1; fill:none" points="-2254.8,1951.03 5856.54,1951.03 "/>
<polyline clip-path="url(#clip722)" style="stroke:#000000; stroke-linecap:round; stroke-linejoin:round; stroke-width:16; stroke-opacity:1; fill:none" points="448.976,3854.82 448.976,-1856.54 "/>
</svg>
