<?xml version="1.0" encoding="utf-8"?>
<svg xmlns="http://www.w3.org/2000/svg" xmlns:xlink="http://www.w3.org/1999/xlink" width="800" height="600" viewBox="0 0 3200 2400">
<defs>
  <clipPath id="clip510">
    <rect x="0" y="0" width="3200" height="2400"/>
  </clipPath>
</defs>
<path clip-path="url(#clip510)" d="M0 2400 L3200 2400 L3200 0 L0 0  Z" fill="#ffffff" fill-rule="evenodd" fill-opacity="1"/>
<defs>
  <clipPath id="clip511">
    <rect x="640" y="0" width="2241" height="2241"/>
  </clipPath>
</defs>
<path clip-path="url(#clip510)" d="M460.005 1903.79 L3152.76 1903.79 L3152.76 47.2441 L460.005 47.2441  Z" fill="#ffffff" fill-rule="evenodd" fill-opacity="1"/>
<defs>
  <clipPath id="clip512">
    <rect x="460" y="47" width="2694" height="1858"/>
  </clipPath>
</defs>
<polyline clip-path="url(#clip512)" style="stroke:#000000; stroke-linecap:round; stroke-linejoin:round; stroke-width:2; stroke-opacity:0.1; fill:none" points="649.635,1903.79 649.635,47.2441 "/>
<polyline clip-path="url(#clip512)" style="stroke:#000000; stroke-linecap:round; stroke-linejoin:round; stroke-width:2; stroke-opacity:0.1; fill:none" points="1028.9,1903.79 1028.9,47.2441 "/>
<polyline clip-path="url(#clip512)" style="stroke:#000000; stroke-linecap:round; stroke-linejoin:round; stroke-width:2; stroke-opacity:0.1; fill:none" points="1408.16,1903.79 1408.16,47.2441 "/>
<polyline clip-path="url(#clip512)" style="stroke:#000000; stroke-linecap:round; stroke-linejoin:round; stroke-width:2; stroke-opacity:0.1; fill:none" points="1787.42,1903.79 1787.42,47.2441 "/>
<polyline clip-path="url(#clip512)" style="stroke:#000000; stroke-linecap:round; stroke-linejoin:round; stroke-width:2; stroke-opacity:0.1; fill:none" points="2166.68,1903.79 2166.68,47.2441 "/>
<polyline clip-path="url(#clip512)" style="stroke:#000000; stroke-linecap:round; stroke-linejoin:round; stroke-width:2; stroke-opacity:0.1; fill:none" points="2545.94,1903.79 2545.94,47.2441 "/>
<polyline clip-path="url(#clip512)" style="stroke:#000000; stroke-linecap:round; stroke-linejoin:round; stroke-width:2; stroke-opacity:0.1; fill:none" points="2925.2,1903.79 2925.2,47.2441 "/>
<polyline clip-path="url(#clip512)" style="stroke:#000000; stroke-linecap:round; stroke-linejoin:round; stroke-width:2; stroke-opacity:0.1; fill:none" points="460.005,1903.79 3152.76,1903.79 "/>
<polyline clip-path="url(#clip512)" style="stroke:#000000; stroke-linecap:round; stroke-linejoin:round; stroke-width:2; stroke-opacity:0.1; fill:none" points="460.005,1373.35 3152.76,1373.35 "/>
<polyline clip-path="url(#clip512)" style="stroke:#000000; stroke-linecap:round; stroke-linejoin:round; stroke-width:2; stroke-opacity:0.1; fill:none" points="460.005,842.906 3152.76,842.906 "/>
<polyline clip-path="url(#clip512)" style="stroke:#000000; stroke-linecap:round; stroke-linejoin:round; stroke-width:2; stroke-opacity:0.1; fill:none" points="460.005,312.465 3152.76,312.465 "/>
<polyline clip-path="url(#clip510)" style="stroke:#000000; stroke-linecap:round; stroke-linejoin:round; stroke-width:4; stroke-opacity:1; fill:none" points="460.005,1903.79 3152.76,1903.79 "/>
<polyline clip-path="url(#clip510)" style="stroke:#000000; stroke-linecap:round; stroke-linejoin:round; stroke-width:4; stroke-opacity:1; fill:none" points="649.635,1903.79 649.635,1884.89 "/>
<polyline clip-path="url(#clip510)" style="stroke:#000000; stroke-linecap:round; stroke-linejoin:round; stroke-width:4; stroke-opacity:1; fill:none" points="1028.9,1903.79 1028.9,1884.89 "/>
<polyline clip-path="url(#clip510)" style="stroke:#000000; stroke-linecap:round; stroke-linejoin:round; stroke-width:4; stroke-opacity:1; fill:none" points="1408.16,1903.79 1408.16,1884.89 "/>
<polyline clip-path="url(#clip510)" style="stroke:#000000; stroke-linecap:round; stroke-linejoin:round; stroke-width:4; stroke-opacity:1; fill:none" points="1787.42,1903.79 1787.42,1884.89 "/>
<polyline clip-path="url(#clip510)" style="stroke:#000000; stroke-linecap:round; stroke-linejoin:round; stroke-width:4; stroke-opacity:1; fill:none" points="2166.68,1903.79 2166.68,1884.89 "/>
<polyline clip-path="url(#clip510)" style="stroke:#000000; stroke-linecap:round; stroke-linejoin:round; stroke-width:4; stroke-opacity:1; fill:none" points="2545.94,1903.79 2545.94,1884.89 "/>
<polyline clip-path="url(#clip510)" style="stroke:#000000; stroke-linecap:round; stroke-linejoin:round; stroke-width:4; stroke-opacity:1; fill:none" points="2925.2,1903.79 2925.2,1884.89 "/>
<path clip-path="url(#clip510)" d="M644.288 1968.65 L660.607 1968.65 L660.607 1972.59 L638.663 1972.59 L638.663 1968.65 Q641.325 1965.9 645.908 1961.27 Q650.515 1956.62 651.695 1955.27 Q653.94 1952.75 654.82 1951.01 Q655.723 1949.25 655.723 1947.56 Q655.723 1944.81 653.778 1943.07 Q651.857 1941.34 648.755 1941.34 Q646.556 1941.34 644.103 1942.1 Q641.672 1942.87 638.894 1944.42 L638.894 1939.69 Q641.718 1938.56 644.172 1937.98 Q646.626 1937.4 648.663 1937.4 Q654.033 1937.4 657.227 1940.09 Q660.422 1942.77 660.422 1947.26 Q660.422 1949.39 659.612 1951.31 Q658.825 1953.21 656.718 1955.81 Q656.14 1956.48 653.038 1959.69 Q649.936 1962.89 644.288 1968.65 Z" fill="#000000" fill-rule="nonzero" fill-opacity="1" /><path clip-path="url(#clip510)" d="M1031.9 1942.1 L1020.1 1960.55 L1031.9 1960.55 L1031.9 1942.1 M1030.68 1938.03 L1036.56 1938.03 L1036.56 1960.55 L1041.49 1960.55 L1041.49 1964.44 L1036.56 1964.44 L1036.56 1972.59 L1031.9 1972.59 L1031.9 1964.44 L1016.3 1964.44 L1016.3 1959.93 L1030.68 1938.03 Z" fill="#000000" fill-rule="nonzero" fill-opacity="1" /><path clip-path="url(#clip510)" d="M1408.56 1953.44 Q1405.41 1953.44 1403.56 1955.6 Q1401.73 1957.75 1401.73 1961.5 Q1401.73 1965.23 1403.56 1967.4 Q1405.41 1969.56 1408.56 1969.56 Q1411.71 1969.56 1413.54 1967.4 Q1415.39 1965.23 1415.39 1961.5 Q1415.39 1957.75 1413.54 1955.6 Q1411.71 1953.44 1408.56 1953.44 M1417.84 1938.79 L1417.84 1943.05 Q1416.08 1942.22 1414.28 1941.78 Q1412.5 1941.34 1410.74 1941.34 Q1406.11 1941.34 1403.65 1944.46 Q1401.22 1947.59 1400.88 1953.91 Q1402.24 1951.89 1404.3 1950.83 Q1406.36 1949.74 1408.84 1949.74 Q1414.05 1949.74 1417.06 1952.91 Q1420.09 1956.06 1420.09 1961.5 Q1420.09 1966.82 1416.94 1970.04 Q1413.79 1973.26 1408.56 1973.26 Q1402.57 1973.26 1399.39 1968.68 Q1396.22 1964.07 1396.22 1955.34 Q1396.22 1947.15 1400.11 1942.29 Q1404 1937.4 1410.55 1937.4 Q1412.31 1937.4 1414.09 1937.75 Q1415.9 1938.1 1417.84 1938.79 Z" fill="#000000" fill-rule="nonzero" fill-opacity="1" /><path clip-path="url(#clip510)" d="M1787.42 1956.18 Q1784.08 1956.18 1782.16 1957.96 Q1780.26 1959.74 1780.26 1962.87 Q1780.26 1965.99 1782.16 1967.77 Q1784.08 1969.56 1787.42 1969.56 Q1790.75 1969.56 1792.67 1967.77 Q1794.59 1965.97 1794.59 1962.87 Q1794.59 1959.74 1792.67 1957.96 Q1790.77 1956.18 1787.42 1956.18 M1782.74 1954.19 Q1779.73 1953.44 1778.04 1951.38 Q1776.38 1949.32 1776.38 1946.36 Q1776.38 1942.22 1779.32 1939.81 Q1782.28 1937.4 1787.42 1937.4 Q1792.58 1937.4 1795.52 1939.81 Q1798.46 1942.22 1798.46 1946.36 Q1798.46 1949.32 1796.77 1951.38 Q1795.1 1953.44 1792.12 1954.19 Q1795.5 1954.97 1797.37 1957.26 Q1799.27 1959.56 1799.27 1962.87 Q1799.27 1967.89 1796.19 1970.57 Q1793.13 1973.26 1787.42 1973.26 Q1781.7 1973.26 1778.62 1970.57 Q1775.57 1967.89 1775.57 1962.87 Q1775.57 1959.56 1777.46 1957.26 Q1779.36 1954.97 1782.74 1954.19 M1781.03 1946.8 Q1781.03 1949.49 1782.69 1950.99 Q1784.38 1952.5 1787.42 1952.5 Q1790.43 1952.5 1792.12 1950.99 Q1793.83 1949.49 1793.83 1946.8 Q1793.83 1944.12 1792.12 1942.61 Q1790.43 1941.11 1787.42 1941.11 Q1784.38 1941.11 1782.69 1942.61 Q1781.03 1944.12 1781.03 1946.8 Z" fill="#000000" fill-rule="nonzero" fill-opacity="1" /><path clip-path="url(#clip510)" d="M2141.37 1968.65 L2149 1968.65 L2149 1942.29 L2140.69 1943.95 L2140.69 1939.69 L2148.96 1938.03 L2153.63 1938.03 L2153.63 1968.65 L2161.27 1968.65 L2161.27 1972.59 L2141.37 1972.59 L2141.37 1968.65 Z" fill="#000000" fill-rule="nonzero" fill-opacity="1" /><path clip-path="url(#clip510)" d="M2180.72 1941.11 Q2177.11 1941.11 2175.28 1944.67 Q2173.47 1948.21 2173.47 1955.34 Q2173.47 1962.45 2175.28 1966.01 Q2177.11 1969.56 2180.72 1969.56 Q2184.35 1969.56 2186.16 1966.01 Q2187.99 1962.45 2187.99 1955.34 Q2187.99 1948.21 2186.16 1944.67 Q2184.35 1941.11 2180.72 1941.11 M2180.72 1937.4 Q2186.53 1937.4 2189.58 1942.01 Q2192.66 1946.59 2192.66 1955.34 Q2192.66 1964.07 2189.58 1968.68 Q2186.53 1973.26 2180.72 1973.26 Q2174.91 1973.26 2171.83 1968.68 Q2168.77 1964.07 2168.77 1955.34 Q2168.77 1946.59 2171.83 1942.01 Q2174.91 1937.4 2180.72 1937.4 Z" fill="#000000" fill-rule="nonzero" fill-opacity="1" /><path clip-path="url(#clip510)" d="M2521.42 1968.65 L2529.06 1968.65 L2529.06 1942.29 L2520.75 1943.95 L2520.75 1939.69 L2529.02 1938.03 L2533.69 1938.03 L2533.69 1968.65 L2541.33 1968.65 L2541.33 1972.59 L2521.42 1972.59 L2521.42 1968.65 Z" fill="#000000" fill-rule="nonzero" fill-opacity="1" /><path clip-path="url(#clip510)" d="M2554.8 1968.65 L2571.12 1968.65 L2571.12 1972.59 L2549.18 1972.59 L2549.18 1968.65 Q2551.84 1965.9 2556.42 1961.27 Q2561.03 1956.62 2562.21 1955.27 Q2564.46 1952.75 2565.34 1951.01 Q2566.24 1949.25 2566.24 1947.56 Q2566.24 1944.81 2564.3 1943.07 Q2562.37 1941.34 2559.27 1941.34 Q2557.07 1941.34 2554.62 1942.1 Q2552.19 1942.87 2549.41 1944.42 L2549.41 1939.69 Q2552.23 1938.56 2554.69 1937.98 Q2557.14 1937.4 2559.18 1937.4 Q2564.55 1937.4 2567.74 1940.09 Q2570.94 1942.77 2570.94 1947.26 Q2570.94 1949.39 2570.13 1951.31 Q2569.34 1953.21 2567.23 1955.81 Q2566.66 1956.48 2563.55 1959.69 Q2560.45 1962.89 2554.8 1968.65 Z" fill="#000000" fill-rule="nonzero" fill-opacity="1" /><path clip-path="url(#clip510)" d="M2899.64 1968.65 L2907.28 1968.65 L2907.28 1942.29 L2898.97 1943.95 L2898.97 1939.69 L2907.24 1938.03 L2911.91 1938.03 L2911.91 1968.65 L2919.55 1968.65 L2919.55 1972.59 L2899.64 1972.59 L2899.64 1968.65 Z" fill="#000000" fill-rule="nonzero" fill-opacity="1" /><path clip-path="url(#clip510)" d="M2941.84 1942.1 L2930.04 1960.55 L2941.84 1960.55 L2941.84 1942.1 M2940.62 1938.03 L2946.5 1938.03 L2946.5 1960.55 L2951.43 1960.55 L2951.43 1964.44 L2946.5 1964.44 L2946.5 1972.59 L2941.84 1972.59 L2941.84 1964.44 L2926.24 1964.44 L2926.24 1959.93 L2940.62 1938.03 Z" fill="#000000" fill-rule="nonzero" fill-opacity="1" /><path clip-path="url(#clip510)" d="M1329.75 2242.32 Q1329.75 2243.02 1328.96 2245.74 Q1328.17 2248.46 1326.24 2252.68 Q1324.4 2256.9 1321.85 2260.76 Q1319.3 2264.54 1315.08 2267.35 Q1310.96 2270.07 1306.21 2270.07 Q1299.89 2270.07 1295.67 2265.86 Q1291.46 2261.64 1291.46 2255.32 Q1291.46 2251.8 1293.3 2246.97 Q1304.98 2215.79 1304.98 2205.07 Q1304.98 2192.51 1295.23 2192.51 Q1290.4 2192.51 1285.84 2194.36 Q1281.36 2196.11 1278.28 2198.57 Q1275.21 2201.03 1272.4 2204.46 Q1269.67 2207.8 1268.27 2210.08 Q1266.95 2212.28 1265.9 2214.47 L1263.61 2223.43 Q1263.09 2225.89 1260.54 2235.46 L1256.59 2251.71 Q1253.78 2263.84 1253.16 2264.98 Q1252.28 2267.44 1250.35 2268.75 Q1248.42 2270.07 1246.49 2270.07 Q1244.29 2270.07 1242.8 2268.75 Q1241.3 2267.44 1241.3 2265.15 Q1241.3 2264.8 1241.57 2263.48 Q1241.83 2262.17 1242.27 2260.32 Q1242.71 2258.48 1242.88 2257.42 L1253.34 2215.88 Q1255.27 2208.32 1255.71 2205.95 Q1256.24 2203.49 1256.24 2200.77 Q1256.24 2192.51 1250.61 2192.51 Q1246.05 2192.51 1243.06 2197.96 Q1240.07 2203.41 1237.53 2213.95 Q1236.74 2216.84 1236.21 2217.46 Q1235.77 2218.07 1234.45 2218.07 Q1232.26 2217.99 1232.26 2216.23 Q1232.26 2215.79 1232.96 2212.89 Q1233.66 2209.99 1234.98 2205.86 Q1236.39 2201.65 1237.7 2198.84 Q1238.84 2196.73 1239.46 2195.76 Q1240.16 2194.71 1241.83 2192.69 Q1243.59 2190.58 1245.87 2189.62 Q1248.24 2188.56 1251.14 2188.56 Q1257.64 2188.56 1262.38 2192.78 Q1267.13 2196.91 1267.74 2204.2 Q1279.42 2188.56 1295.76 2188.56 Q1305.42 2188.56 1310.96 2193.66 Q1316.49 2198.75 1316.49 2207.8 Q1316.49 2209.9 1316.05 2212.63 Q1315.7 2215.26 1314.82 2218.6 Q1314.03 2221.94 1313.33 2224.49 Q1312.63 2227.03 1311.22 2231.16 Q1309.81 2235.2 1309.2 2236.96 Q1308.58 2238.71 1307.09 2242.84 Q1305.69 2246.88 1305.51 2247.32 Q1302.26 2255.49 1302.26 2260.15 Q1302.26 2263.22 1303.23 2264.63 Q1304.28 2266.03 1306.56 2266.03 Q1312.71 2266.03 1317.28 2259.97 Q1321.94 2253.82 1324.92 2243.81 Q1325.62 2241.61 1325.98 2241.09 Q1326.42 2240.56 1327.64 2240.56 Q1329.75 2240.56 1329.75 2242.32 Z" fill="#000000" fill-rule="nonzero" fill-opacity="1" /><path clip-path="url(#clip510)" d="M1386.69 2269.1 Q1386.69 2270.82 1385.89 2271.25 Q1385.09 2271.62 1382.88 2271.62 L1371.08 2271.62 L1361.73 2308.75 Q1360.99 2312.01 1360.99 2314.78 Q1360.99 2317.85 1361.91 2319.21 Q1362.9 2320.56 1364.93 2320.56 Q1368.92 2320.56 1373.23 2316.93 Q1377.59 2313.3 1381.28 2304.45 Q1381.77 2303.28 1382.02 2303.04 Q1382.33 2302.73 1383.13 2302.73 Q1384.66 2302.73 1384.66 2303.96 Q1384.66 2304.39 1383.8 2306.36 Q1383 2308.32 1381.22 2311.21 Q1379.5 2314.1 1377.22 2316.81 Q1375.01 2319.51 1371.63 2321.48 Q1368.25 2323.39 1364.62 2323.39 Q1359.52 2323.39 1356.26 2320.13 Q1353.06 2316.87 1353.06 2311.77 Q1353.06 2310.11 1354.35 2304.82 Q1355.64 2299.47 1362.65 2271.62 L1351.52 2271.62 Q1349.99 2271.62 1349.37 2271.56 Q1348.82 2271.5 1348.39 2271.19 Q1348.02 2270.82 1348.02 2270.08 Q1348.02 2268.91 1348.51 2268.42 Q1349 2267.87 1349.62 2267.81 Q1350.29 2267.68 1351.83 2267.68 L1363.64 2267.68 L1368.56 2247.7 Q1369.05 2245.73 1370.28 2244.63 Q1371.57 2243.46 1372.31 2243.34 Q1373.04 2243.15 1373.6 2243.15 Q1375.26 2243.15 1376.24 2244.07 Q1377.22 2244.93 1377.22 2246.53 Q1377.22 2247.39 1372.06 2267.68 L1383.13 2267.68 Q1384.54 2267.68 1385.09 2267.74 Q1385.71 2267.81 1386.2 2268.11 Q1386.69 2268.42 1386.69 2269.1 Z" fill="#000000" fill-rule="nonzero" fill-opacity="1" /><path clip-path="url(#clip510)" d="M1455.12 2303.96 Q1455.12 2304.45 1454.57 2306.36 Q1454.01 2308.26 1452.66 2311.21 Q1451.37 2314.17 1449.59 2316.87 Q1447.81 2319.51 1444.85 2321.48 Q1441.96 2323.39 1438.64 2323.39 Q1434.22 2323.39 1431.27 2320.44 Q1428.31 2317.49 1428.31 2313.06 Q1428.31 2312.44 1428.38 2311.83 Q1428.44 2311.21 1428.5 2310.84 Q1428.56 2310.41 1428.75 2309.74 Q1428.99 2309 1429.05 2308.69 Q1429.18 2308.39 1429.48 2307.46 Q1429.85 2306.48 1429.97 2306.11 Q1437.78 2286.19 1437.78 2277.89 Q1437.78 2269.1 1430.96 2269.1 Q1424.87 2269.1 1418.85 2273.52 Q1416.08 2275.74 1413.44 2279.67 Q1410.79 2283.61 1410.3 2285.08 Q1409.75 2288.28 1408.95 2290.74 Q1408.58 2292.46 1406.8 2299.16 L1404.03 2310.54 L1401.63 2320.07 Q1401.14 2321.42 1399.79 2322.4 Q1398.43 2323.39 1396.96 2323.39 Q1395.73 2323.39 1394.5 2322.53 Q1393.33 2321.73 1393.33 2319.82 Q1393.33 2318.84 1393.82 2317.05 L1412.08 2244.5 L1412.45 2242.04 Q1412.45 2241.31 1412.14 2240.94 Q1411.9 2240.51 1410.42 2240.2 Q1409.01 2239.89 1406.18 2239.89 Q1405.01 2239.89 1404.46 2239.83 Q1403.97 2239.77 1403.54 2239.46 Q1403.11 2239.09 1403.11 2238.36 Q1403.11 2237.31 1403.54 2236.76 Q1404.03 2236.14 1404.4 2236.02 Q1404.77 2235.9 1405.5 2235.83 Q1406.55 2235.77 1410.05 2235.47 Q1413.56 2235.1 1416.57 2234.85 Q1419.58 2234.6 1420.88 2234.6 Q1421.61 2234.6 1421.98 2234.97 Q1422.41 2235.28 1422.47 2235.65 L1422.54 2235.96 L1412.7 2275.98 Q1420.51 2266.33 1431.33 2266.33 Q1438.34 2266.33 1442.09 2269.96 Q1445.84 2273.52 1445.84 2279.8 Q1445.84 2286.99 1438.15 2307.46 Q1435.88 2313.18 1435.88 2316.44 Q1435.88 2318.59 1436.55 2319.58 Q1437.29 2320.56 1438.89 2320.56 Q1441.35 2320.56 1443.5 2319.15 Q1445.71 2317.67 1447.25 2315.27 Q1448.79 2312.81 1449.83 2310.35 Q1450.94 2307.83 1451.74 2305 Q1452.23 2303.47 1452.48 2303.1 Q1452.79 2302.73 1453.65 2302.73 Q1455.12 2302.73 1455.12 2303.96 Z" fill="#000000" fill-rule="nonzero" fill-opacity="1" /><path clip-path="url(#clip510)" d="M1655.33 2148.43 L1655.33 2166.92 Q1646.48 2158.68 1636.41 2154.6 Q1626.43 2150.52 1615.14 2150.52 Q1592.92 2150.52 1581.12 2164.15 Q1569.31 2177.69 1569.31 2203.38 Q1569.31 2228.99 1581.12 2242.62 Q1592.92 2256.16 1615.14 2256.16 Q1626.43 2256.16 1636.41 2252.08 Q1646.48 2248 1655.33 2239.75 L1655.33 2258.07 Q1646.13 2264.32 1635.8 2267.44 Q1625.56 2270.57 1614.1 2270.57 Q1584.67 2270.57 1567.75 2252.6 Q1550.82 2234.54 1550.82 2203.38 Q1550.82 2172.13 1567.75 2154.16 Q1584.67 2136.11 1614.1 2136.11 Q1625.73 2136.11 1635.98 2139.23 Q1646.31 2142.27 1655.33 2148.43 Z" fill="#000000" fill-rule="nonzero" fill-opacity="1" /><path clip-path="url(#clip510)" d="M1762.54 2209.37 L1762.54 2268.05 L1746.57 2268.05 L1746.57 2209.89 Q1746.57 2196.09 1741.18 2189.23 Q1735.8 2182.37 1725.04 2182.37 Q1712.1 2182.37 1704.64 2190.62 Q1697.17 2198.87 1697.17 2213.1 L1697.17 2268.05 L1681.11 2268.05 L1681.11 2132.98 L1697.17 2132.98 L1697.17 2185.93 Q1702.9 2177.17 1710.63 2172.83 Q1718.44 2168.49 1728.6 2168.49 Q1745.35 2168.49 1753.94 2178.9 Q1762.54 2189.23 1762.54 2209.37 Z" fill="#000000" fill-rule="nonzero" fill-opacity="1" /><path clip-path="url(#clip510)" d="M1838.58 2219.18 Q1819.22 2219.18 1811.76 2223.61 Q1804.29 2228.03 1804.29 2238.71 Q1804.29 2247.22 1809.85 2252.25 Q1815.49 2257.2 1825.12 2257.2 Q1838.41 2257.2 1846.39 2247.83 Q1854.46 2238.36 1854.46 2222.74 L1854.46 2219.18 L1838.58 2219.18 M1870.44 2212.58 L1870.44 2268.05 L1854.46 2268.05 L1854.46 2253.29 Q1849 2262.15 1840.84 2266.4 Q1832.68 2270.57 1820.87 2270.57 Q1805.94 2270.57 1797.09 2262.24 Q1788.32 2253.82 1788.32 2239.75 Q1788.32 2223.35 1799.26 2215.01 Q1810.28 2206.68 1832.07 2206.68 L1854.46 2206.68 L1854.46 2205.12 Q1854.46 2194.09 1847.17 2188.1 Q1839.97 2182.03 1826.86 2182.03 Q1818.53 2182.03 1810.63 2184.02 Q1802.73 2186.02 1795.44 2190.01 L1795.44 2175.26 Q1804.2 2171.87 1812.45 2170.22 Q1820.7 2168.49 1828.51 2168.49 Q1849.6 2168.49 1860.02 2179.42 Q1870.44 2190.36 1870.44 2212.58 Z" fill="#000000" fill-rule="nonzero" fill-opacity="1" /><path clip-path="url(#clip510)" d="M1903.34 2170.83 L1919.31 2170.83 L1919.31 2268.05 L1903.34 2268.05 L1903.34 2170.83 M1903.34 2132.98 L1919.31 2132.98 L1919.31 2153.21 L1903.34 2153.21 L1903.34 2132.98 Z" fill="#000000" fill-rule="nonzero" fill-opacity="1" /><path clip-path="url(#clip510)" d="M2033.54 2209.37 L2033.54 2268.05 L2017.57 2268.05 L2017.57 2209.89 Q2017.57 2196.09 2012.19 2189.23 Q2006.81 2182.37 1996.04 2182.37 Q1983.11 2182.37 1975.64 2190.62 Q1968.18 2198.87 1968.18 2213.1 L1968.18 2268.05 L1952.12 2268.05 L1952.12 2170.83 L1968.18 2170.83 L1968.18 2185.93 Q1973.91 2177.17 1981.63 2172.83 Q1989.45 2168.49 1999.6 2168.49 Q2016.36 2168.49 2024.95 2178.9 Q2033.54 2189.23 2033.54 2209.37 Z" fill="#000000" fill-rule="nonzero" fill-opacity="1" /><path clip-path="url(#clip510)" d="M2200.3 2142.7 L2200.3 2159.81 Q2190.31 2155.03 2181.46 2152.69 Q2172.61 2150.34 2164.36 2150.34 Q2150.04 2150.34 2142.22 2155.9 Q2134.5 2161.45 2134.5 2171.7 Q2134.5 2180.29 2139.62 2184.72 Q2144.83 2189.06 2159.24 2191.75 L2169.83 2193.92 Q2189.45 2197.65 2198.73 2207.11 Q2208.11 2216.49 2208.11 2232.29 Q2208.11 2251.12 2195.43 2260.85 Q2182.85 2270.57 2158.46 2270.57 Q2149.25 2270.57 2138.84 2268.49 Q2128.51 2266.4 2117.4 2262.32 L2117.4 2244.27 Q2128.07 2250.26 2138.32 2253.29 Q2148.56 2256.33 2158.46 2256.33 Q2173.47 2256.33 2181.63 2250.43 Q2189.79 2244.53 2189.79 2233.59 Q2189.79 2224.04 2183.89 2218.66 Q2178.07 2213.28 2164.71 2210.59 L2154.03 2208.5 Q2134.41 2204.6 2125.64 2196.26 Q2116.88 2187.93 2116.88 2173.09 Q2116.88 2155.9 2128.94 2146 Q2141.09 2136.11 2162.36 2136.11 Q2171.48 2136.11 2180.94 2137.76 Q2190.4 2139.41 2200.3 2142.7 Z" fill="#000000" fill-rule="nonzero" fill-opacity="1" /><path clip-path="url(#clip510)" d="M2234.76 2170.83 L2250.73 2170.83 L2250.73 2268.05 L2234.76 2268.05 L2234.76 2170.83 M2234.76 2132.98 L2250.73 2132.98 L2250.73 2153.21 L2234.76 2153.21 L2234.76 2132.98 Z" fill="#000000" fill-rule="nonzero" fill-opacity="1" /><path clip-path="url(#clip510)" d="M2299.95 2143.23 L2299.95 2170.83 L2332.85 2170.83 L2332.85 2183.24 L2299.95 2183.24 L2299.95 2236.02 Q2299.95 2247.91 2303.16 2251.3 Q2306.46 2254.68 2316.44 2254.68 L2332.85 2254.68 L2332.85 2268.05 L2316.44 2268.05 Q2297.95 2268.05 2290.92 2261.19 Q2283.89 2254.25 2283.89 2236.02 L2283.89 2183.24 L2272.17 2183.24 L2272.17 2170.83 L2283.89 2170.83 L2283.89 2143.23 L2299.95 2143.23 Z" fill="#000000" fill-rule="nonzero" fill-opacity="1" /><path clip-path="url(#clip510)" d="M2437.01 2215.45 L2437.01 2223.26 L2363.58 2223.26 Q2364.62 2239.75 2373.47 2248.43 Q2382.41 2257.03 2398.3 2257.03 Q2407.5 2257.03 2416.09 2254.77 Q2424.77 2252.51 2433.28 2248 L2433.28 2263.1 Q2424.69 2266.75 2415.66 2268.66 Q2406.63 2270.57 2397.34 2270.57 Q2374.08 2270.57 2360.45 2257.03 Q2346.91 2243.49 2346.91 2220.4 Q2346.91 2196.52 2359.76 2182.55 Q2372.69 2168.49 2394.57 2168.49 Q2414.18 2168.49 2425.56 2181.16 Q2437.01 2193.75 2437.01 2215.45 M2421.04 2210.76 Q2420.87 2197.65 2413.66 2189.84 Q2406.54 2182.03 2394.74 2182.03 Q2381.37 2182.03 2373.3 2189.58 Q2365.31 2197.13 2364.1 2210.85 L2421.04 2210.76 Z" fill="#000000" fill-rule="nonzero" fill-opacity="1" /><polyline clip-path="url(#clip510)" style="stroke:#000000; stroke-linecap:round; stroke-linejoin:round; stroke-width:4; stroke-opacity:1; fill:none" points="460.005,1903.79 460.005,47.2441 "/>
<polyline clip-path="url(#clip510)" style="stroke:#000000; stroke-linecap:round; stroke-linejoin:round; stroke-width:4; stroke-opacity:1; fill:none" points="460.005,1903.79 478.902,1903.79 "/>
<polyline clip-path="url(#clip510)" style="stroke:#000000; stroke-linecap:round; stroke-linejoin:round; stroke-width:4; stroke-opacity:1; fill:none" points="460.005,1373.35 478.902,1373.35 "/>
<polyline clip-path="url(#clip510)" style="stroke:#000000; stroke-linecap:round; stroke-linejoin:round; stroke-width:4; stroke-opacity:1; fill:none" points="460.005,842.906 478.902,842.906 "/>
<polyline clip-path="url(#clip510)" style="stroke:#000000; stroke-linecap:round; stroke-linejoin:round; stroke-width:4; stroke-opacity:1; fill:none" points="460.005,312.465 478.902,312.465 "/>
<path clip-path="url(#clip510)" d="M356.426 1889.59 Q352.815 1889.59 350.986 1893.15 Q349.181 1896.69 349.181 1903.82 Q349.181 1910.93 350.986 1914.49 Q352.815 1918.04 356.426 1918.04 Q360.06 1918.04 361.866 1914.49 Q363.695 1910.93 363.695 1903.82 Q363.695 1896.69 361.866 1893.15 Q360.06 1889.59 356.426 1889.59 M356.426 1885.88 Q362.236 1885.88 365.292 1890.49 Q368.371 1895.07 368.371 1903.82 Q368.371 1912.55 365.292 1917.16 Q362.236 1921.74 356.426 1921.74 Q350.616 1921.74 347.537 1917.16 Q344.482 1912.55 344.482 1903.82 Q344.482 1895.07 347.537 1890.49 Q350.616 1885.88 356.426 1885.88 Z" fill="#000000" fill-rule="nonzero" fill-opacity="1" /><path clip-path="url(#clip510)" d="M376.588 1915.19 L381.472 1915.19 L381.472 1921.07 L376.588 1921.07 L376.588 1915.19 Z" fill="#000000" fill-rule="nonzero" fill-opacity="1" /><path clip-path="url(#clip510)" d="M395.685 1917.13 L412.005 1917.13 L412.005 1921.07 L390.06 1921.07 L390.06 1917.13 Q392.722 1914.38 397.306 1909.75 Q401.912 1905.1 403.093 1903.75 Q405.338 1901.23 406.218 1899.49 Q407.12 1897.73 407.12 1896.04 Q407.12 1893.29 405.176 1891.55 Q403.255 1889.82 400.153 1889.82 Q397.954 1889.82 395.5 1890.58 Q393.069 1891.35 390.292 1892.9 L390.292 1888.17 Q393.116 1887.04 395.569 1886.46 Q398.023 1885.88 400.06 1885.88 Q405.43 1885.88 408.625 1888.57 Q411.819 1891.25 411.819 1895.74 Q411.819 1897.87 411.009 1899.79 Q410.222 1901.69 408.116 1904.29 Q407.537 1904.96 404.435 1908.17 Q401.333 1911.37 395.685 1917.13 Z" fill="#000000" fill-rule="nonzero" fill-opacity="1" /><path clip-path="url(#clip510)" d="M355.477 1359.15 Q351.866 1359.15 350.037 1362.71 Q348.232 1366.25 348.232 1373.38 Q348.232 1380.49 350.037 1384.05 Q351.866 1387.59 355.477 1387.59 Q359.111 1387.59 360.917 1384.05 Q362.746 1380.49 362.746 1373.38 Q362.746 1366.25 360.917 1362.71 Q359.111 1359.15 355.477 1359.15 M355.477 1355.44 Q361.287 1355.44 364.343 1360.05 Q367.421 1364.63 367.421 1373.38 Q367.421 1382.11 364.343 1386.71 Q361.287 1391.3 355.477 1391.3 Q349.667 1391.3 346.588 1386.71 Q343.533 1382.11 343.533 1373.38 Q343.533 1364.63 346.588 1360.05 Q349.667 1355.44 355.477 1355.44 Z" fill="#000000" fill-rule="nonzero" fill-opacity="1" /><path clip-path="url(#clip510)" d="M375.639 1384.75 L380.523 1384.75 L380.523 1390.63 L375.639 1390.63 L375.639 1384.75 Z" fill="#000000" fill-rule="nonzero" fill-opacity="1" /><path clip-path="url(#clip510)" d="M404.875 1371.99 Q408.231 1372.71 410.106 1374.98 Q412.005 1377.25 412.005 1380.58 Q412.005 1385.7 408.486 1388.5 Q404.968 1391.3 398.486 1391.3 Q396.31 1391.3 393.995 1390.86 Q391.704 1390.44 389.25 1389.59 L389.25 1385.07 Q391.194 1386.21 393.509 1386.78 Q395.824 1387.36 398.347 1387.36 Q402.745 1387.36 405.037 1385.63 Q407.352 1383.89 407.352 1380.58 Q407.352 1377.52 405.199 1375.81 Q403.069 1374.08 399.25 1374.08 L395.222 1374.08 L395.222 1370.23 L399.435 1370.23 Q402.884 1370.23 404.713 1368.87 Q406.542 1367.48 406.542 1364.89 Q406.542 1362.22 404.643 1360.81 Q402.768 1359.38 399.25 1359.38 Q397.329 1359.38 395.13 1359.79 Q392.931 1360.21 390.292 1361.09 L390.292 1356.92 Q392.954 1356.18 395.269 1355.81 Q397.606 1355.44 399.667 1355.44 Q404.991 1355.44 408.093 1357.87 Q411.194 1360.28 411.194 1364.4 Q411.194 1367.27 409.551 1369.26 Q407.907 1371.23 404.875 1371.99 Z" fill="#000000" fill-rule="nonzero" fill-opacity="1" /><path clip-path="url(#clip510)" d="M354.343 828.704 Q350.732 828.704 348.903 832.269 Q347.097 835.811 347.097 842.94 Q347.097 850.047 348.903 853.612 Q350.732 857.153 354.343 857.153 Q357.977 857.153 359.783 853.612 Q361.611 850.047 361.611 842.94 Q361.611 835.811 359.783 832.269 Q357.977 828.704 354.343 828.704 M354.343 825.001 Q360.153 825.001 363.208 829.607 Q366.287 834.19 366.287 842.94 Q366.287 851.667 363.208 856.274 Q360.153 860.857 354.343 860.857 Q348.533 860.857 345.454 856.274 Q342.398 851.667 342.398 842.94 Q342.398 834.19 345.454 829.607 Q348.533 825.001 354.343 825.001 Z" fill="#000000" fill-rule="nonzero" fill-opacity="1" /><path clip-path="url(#clip510)" d="M374.505 854.306 L379.389 854.306 L379.389 860.186 L374.505 860.186 L374.505 854.306 Z" fill="#000000" fill-rule="nonzero" fill-opacity="1" /><path clip-path="url(#clip510)" d="M402.421 829.7 L390.616 848.149 L402.421 848.149 L402.421 829.7 M401.194 825.626 L407.074 825.626 L407.074 848.149 L412.005 848.149 L412.005 852.038 L407.074 852.038 L407.074 860.186 L402.421 860.186 L402.421 852.038 L386.819 852.038 L386.819 847.524 L401.194 825.626 Z" fill="#000000" fill-rule="nonzero" fill-opacity="1" /><path clip-path="url(#clip510)" d="M355.824 298.263 Q352.213 298.263 350.384 301.828 Q348.579 305.37 348.579 312.499 Q348.579 319.606 350.384 323.171 Q352.213 326.712 355.824 326.712 Q359.459 326.712 361.264 323.171 Q363.093 319.606 363.093 312.499 Q363.093 305.37 361.264 301.828 Q359.459 298.263 355.824 298.263 M355.824 294.56 Q361.634 294.56 364.69 299.166 Q367.769 303.749 367.769 312.499 Q367.769 321.226 364.69 325.833 Q361.634 330.416 355.824 330.416 Q350.014 330.416 346.935 325.833 Q343.88 321.226 343.88 312.499 Q343.88 303.749 346.935 299.166 Q350.014 294.56 355.824 294.56 Z" fill="#000000" fill-rule="nonzero" fill-opacity="1" /><path clip-path="url(#clip510)" d="M375.986 323.865 L380.87 323.865 L380.87 329.745 L375.986 329.745 L375.986 323.865 Z" fill="#000000" fill-rule="nonzero" fill-opacity="1" /><path clip-path="url(#clip510)" d="M391.102 295.185 L409.458 295.185 L409.458 299.12 L395.384 299.12 L395.384 307.592 Q396.403 307.245 397.421 307.083 Q398.44 306.898 399.458 306.898 Q405.245 306.898 408.625 310.069 Q412.005 313.24 412.005 318.657 Q412.005 324.235 408.532 327.337 Q405.06 330.416 398.741 330.416 Q396.565 330.416 394.296 330.046 Q392.051 329.675 389.644 328.934 L389.644 324.235 Q391.727 325.37 393.949 325.925 Q396.171 326.481 398.648 326.481 Q402.653 326.481 404.991 324.374 Q407.329 322.268 407.329 318.657 Q407.329 315.046 404.991 312.939 Q402.653 310.833 398.648 310.833 Q396.773 310.833 394.898 311.249 Q393.046 311.666 391.102 312.546 L391.102 295.185 Z" fill="#000000" fill-rule="nonzero" fill-opacity="1" /><path clip-path="url(#clip510)" d="M135.834 1634.36 L152.934 1634.36 Q148.16 1644.34 145.816 1653.19 Q143.472 1662.05 143.472 1670.29 Q143.472 1684.62 149.028 1692.43 Q154.583 1700.16 164.826 1700.16 Q173.42 1700.16 177.847 1695.03 Q182.187 1689.83 184.878 1675.42 L187.049 1664.83 Q190.781 1645.21 200.243 1635.92 Q209.618 1626.54 225.416 1626.54 Q244.253 1626.54 253.975 1639.22 Q263.697 1651.8 263.697 1676.2 Q263.697 1685.4 261.614 1695.82 Q259.531 1706.14 255.451 1717.26 L237.395 1717.26 Q243.385 1706.58 246.423 1696.34 Q249.461 1686.09 249.461 1676.2 Q249.461 1661.18 243.559 1653.02 Q237.656 1644.86 226.718 1644.86 Q217.17 1644.86 211.788 1650.76 Q206.406 1656.58 203.715 1669.95 L201.632 1680.62 Q197.726 1700.24 189.392 1709.01 Q181.059 1717.78 166.215 1717.78 Q149.028 1717.78 139.132 1705.71 Q129.236 1693.56 129.236 1672.29 Q129.236 1663.18 130.886 1653.71 Q132.535 1644.25 135.834 1634.36 Z" fill="#000000" fill-rule="nonzero" fill-opacity="1" /><path clip-path="url(#clip510)" d="M163.958 1599.9 L163.958 1583.92 L261.18 1583.92 L261.18 1599.9 L163.958 1599.9 M126.111 1599.9 L126.111 1583.92 L146.337 1583.92 L146.337 1599.9 L126.111 1599.9 Z" fill="#000000" fill-rule="nonzero" fill-opacity="1" /><path clip-path="url(#clip510)" d="M136.354 1534.7 L163.958 1534.7 L163.958 1501.81 L176.372 1501.81 L176.372 1534.7 L229.149 1534.7 Q241.041 1534.7 244.427 1531.49 Q247.812 1528.19 247.812 1518.21 L247.812 1501.81 L261.18 1501.81 L261.18 1518.21 Q261.18 1536.7 254.322 1543.73 Q247.378 1550.76 229.149 1550.76 L176.372 1550.76 L176.372 1562.48 L163.958 1562.48 L163.958 1550.76 L136.354 1550.76 L136.354 1534.7 Z" fill="#000000" fill-rule="nonzero" fill-opacity="1" /><path clip-path="url(#clip510)" d="M208.576 1397.64 L216.389 1397.64 L216.389 1471.08 Q232.882 1470.03 241.562 1461.18 Q250.156 1452.24 250.156 1436.35 Q250.156 1427.15 247.899 1418.56 Q245.642 1409.88 241.128 1401.37 L256.232 1401.37 Q259.878 1409.97 261.788 1418.99 Q263.697 1428.02 263.697 1437.31 Q263.697 1460.57 250.156 1474.2 Q236.614 1487.74 213.524 1487.74 Q189.653 1487.74 175.677 1474.9 Q161.615 1461.96 161.615 1440.09 Q161.615 1420.47 174.288 1409.1 Q186.875 1397.64 208.576 1397.64 M203.889 1413.61 Q190.781 1413.79 182.969 1420.99 Q175.156 1428.11 175.156 1439.91 Q175.156 1453.28 182.708 1461.35 Q190.26 1469.34 203.976 1470.56 L203.889 1413.61 Z" fill="#000000" fill-rule="nonzero" fill-opacity="1" /><path clip-path="url(#clip510)" d="M131.58 1314.22 L131.58 1296.69 L184.705 1296.69 L184.705 1232.97 L131.58 1232.97 L131.58 1215.44 L261.18 1215.44 L261.18 1232.97 L199.462 1232.97 L199.462 1296.69 L261.18 1296.69 L261.18 1314.22 L131.58 1314.22 Z" fill="#000000" fill-rule="nonzero" fill-opacity="1" /><path clip-path="url(#clip510)" d="M175.156 1143.56 Q175.156 1156.41 185.226 1163.87 Q195.208 1171.34 212.656 1171.34 Q230.104 1171.34 240.173 1163.96 Q250.156 1156.49 250.156 1143.56 Q250.156 1130.8 240.086 1123.34 Q230.017 1115.87 212.656 1115.87 Q195.382 1115.87 185.312 1123.34 Q175.156 1130.8 175.156 1143.56 M161.615 1143.56 Q161.615 1122.73 175.156 1110.84 Q188.698 1098.94 212.656 1098.94 Q236.527 1098.94 250.156 1110.84 Q263.697 1122.73 263.697 1143.56 Q263.697 1164.48 250.156 1176.37 Q236.527 1188.18 212.656 1188.18 Q188.698 1188.18 175.156 1176.37 Q161.615 1164.48 161.615 1143.56 Z" fill="#000000" fill-rule="nonzero" fill-opacity="1" /><path clip-path="url(#clip510)" d="M246.597 1057.02 L298.159 1057.02 L298.159 1073.08 L163.958 1073.08 L163.958 1057.02 L178.715 1057.02 Q170.035 1051.98 165.868 1044.34 Q161.615 1036.62 161.615 1025.94 Q161.615 1008.23 175.677 997.208 Q189.74 986.097 212.656 986.097 Q235.573 986.097 249.635 997.208 Q263.697 1008.23 263.697 1025.94 Q263.697 1036.62 259.531 1044.34 Q255.277 1051.98 246.597 1057.02 M212.656 1002.68 Q195.035 1002.68 185.052 1009.97 Q174.983 1017.17 174.983 1029.85 Q174.983 1042.52 185.052 1049.81 Q195.035 1057.02 212.656 1057.02 Q230.277 1057.02 240.347 1049.81 Q250.329 1042.52 250.329 1029.85 Q250.329 1017.17 240.347 1009.97 Q230.277 1002.68 212.656 1002.68 Z" fill="#000000" fill-rule="nonzero" fill-opacity="1" /><path clip-path="url(#clip510)" d="M246.597 944.17 L298.159 944.17 L298.159 960.229 L163.958 960.229 L163.958 944.17 L178.715 944.17 Q170.035 939.135 165.868 931.496 Q161.615 923.771 161.615 913.094 Q161.615 895.385 175.677 884.361 Q189.74 873.25 212.656 873.25 Q235.573 873.25 249.635 884.361 Q263.697 895.385 263.697 913.094 Q263.697 923.771 259.531 931.496 Q255.277 939.135 246.597 944.17 M212.656 889.83 Q195.035 889.83 185.052 897.121 Q174.983 904.326 174.983 917 Q174.983 929.673 185.052 936.965 Q195.035 944.17 212.656 944.17 Q230.277 944.17 240.347 936.965 Q250.329 929.673 250.329 917 Q250.329 904.326 240.347 897.121 Q230.277 889.83 212.656 889.83 Z" fill="#000000" fill-rule="nonzero" fill-opacity="1" /><path clip-path="url(#clip510)" d="M163.958 846.774 L163.958 830.802 L261.18 830.802 L261.18 846.774 L163.958 846.774 M126.111 846.774 L126.111 830.802 L146.337 830.802 L146.337 846.774 L126.111 846.774 Z" fill="#000000" fill-rule="nonzero" fill-opacity="1" /><path clip-path="url(#clip510)" d="M202.5 716.567 L261.18 716.567 L261.18 732.539 L203.021 732.539 Q189.219 732.539 182.361 737.921 Q175.503 743.303 175.503 754.067 Q175.503 767.001 183.75 774.466 Q191.996 781.931 206.232 781.931 L261.18 781.931 L261.18 797.99 L163.958 797.99 L163.958 781.931 L179.062 781.931 Q170.295 776.202 165.955 768.476 Q161.615 760.664 161.615 750.508 Q161.615 733.754 172.031 725.16 Q182.361 716.567 202.5 716.567 Z" fill="#000000" fill-rule="nonzero" fill-opacity="1" /><path clip-path="url(#clip510)" d="M211.441 620.734 Q194.08 620.734 184.531 627.939 Q174.983 635.057 174.983 647.991 Q174.983 660.838 184.531 668.043 Q194.08 675.161 211.441 675.161 Q228.715 675.161 238.264 668.043 Q247.812 660.838 247.812 647.991 Q247.812 635.057 238.264 627.939 Q228.715 620.734 211.441 620.734 M249.114 604.762 Q273.94 604.762 286.006 615.786 Q298.159 626.81 298.159 649.553 Q298.159 657.973 296.857 665.439 Q295.642 672.904 293.038 679.935 L277.499 679.935 Q281.319 672.904 283.142 666.046 Q284.965 659.189 284.965 652.071 Q284.965 636.359 276.718 628.546 Q268.559 620.734 251.979 620.734 L244.079 620.734 Q252.673 625.682 256.927 633.408 Q261.18 641.133 261.18 651.897 Q261.18 669.779 247.552 680.716 Q233.923 691.654 211.441 691.654 Q188.871 691.654 175.243 680.716 Q161.615 669.779 161.615 651.897 Q161.615 641.133 165.868 633.408 Q170.122 625.682 178.715 620.734 L163.958 620.734 L163.958 604.762 L249.114 604.762 Z" fill="#000000" fill-rule="nonzero" fill-opacity="1" /><path clip-path="url(#clip510)" d="M216.209 532.106 Q185.818 532.106 161.313 520.775 Q151.036 515.944 142.428 509.181 Q133.821 502.418 130.044 497.938 Q126.267 493.459 126.267 492.229 Q126.267 490.473 128.023 490.385 Q128.902 490.385 131.098 492.756 Q160.61 521.742 216.209 521.654 Q271.984 521.654 300.354 493.459 Q303.428 490.385 304.395 490.385 Q306.151 490.385 306.151 492.229 Q306.151 493.459 302.55 497.763 Q298.949 502.067 290.692 508.742 Q282.436 515.417 272.335 520.248 Q247.829 532.106 216.209 532.106 Z" fill="#000000" fill-rule="nonzero" fill-opacity="1" /><path clip-path="url(#clip510)" d="M185.643 407.784 Q188.102 407.784 188.717 408.926 Q189.244 410.068 189.244 413.23 L189.244 430.094 L242.296 443.445 Q246.951 444.499 250.903 444.499 Q255.295 444.499 257.228 443.181 Q259.16 441.776 259.16 438.877 Q259.16 433.168 253.978 427.02 Q248.795 420.783 236.147 415.513 Q234.479 414.811 234.127 414.459 Q233.688 414.02 233.688 412.878 Q233.688 410.682 235.445 410.682 Q236.06 410.682 238.87 411.912 Q241.681 413.054 245.809 415.601 Q249.937 418.06 253.802 421.31 Q257.667 424.472 260.477 429.303 Q263.2 434.134 263.2 439.316 Q263.2 446.607 258.545 451.262 Q253.89 455.829 246.6 455.829 Q244.228 455.829 236.674 453.985 Q229.033 452.14 189.244 442.127 L189.244 458.025 Q189.244 460.221 189.156 461.099 Q189.068 461.89 188.629 462.505 Q188.102 463.032 187.048 463.032 Q185.379 463.032 184.677 462.329 Q183.886 461.626 183.798 460.748 Q183.623 459.782 183.623 457.586 L183.623 440.722 L155.076 433.695 Q152.266 432.992 150.685 431.236 Q149.016 429.391 148.84 428.337 Q148.577 427.283 148.577 426.493 Q148.577 424.121 149.894 422.716 Q151.124 421.31 153.408 421.31 Q154.637 421.31 183.623 428.688 L183.623 412.878 Q183.623 410.858 183.71 410.068 Q183.798 409.189 184.237 408.487 Q184.677 407.784 185.643 407.784 Z" fill="#000000" fill-rule="nonzero" fill-opacity="1" /><path clip-path="url(#clip510)" d="M278.232 320.876 Q278.723 320.876 280.629 321.429 Q282.535 321.983 285.487 323.335 Q288.438 324.627 291.143 326.41 Q293.787 328.193 295.754 331.144 Q297.66 334.034 297.66 337.354 Q297.66 341.781 294.709 344.732 Q291.758 347.683 287.331 347.683 Q284.872 347.683 281.49 346.392 Q259.663 338.215 252.162 338.215 Q243.37 338.215 243.37 345.039 Q243.37 348.421 244.661 351.618 Q245.891 354.754 247.613 356.906 Q249.334 359.058 251.732 361.025 Q254.068 362.931 255.667 363.915 Q257.204 364.837 258.741 365.575 L265.013 367.173 Q266.734 367.542 273.436 369.325 L284.81 372.092 Q293.295 374.06 294.094 374.49 Q295.816 375.105 296.738 376.458 Q297.66 377.81 297.66 379.163 Q297.66 380.7 296.738 381.745 Q295.816 382.79 294.217 382.79 Q293.971 382.79 293.049 382.606 Q292.127 382.422 290.836 382.114 Q289.545 381.807 288.807 381.684 L259.725 374.367 Q254.437 373.014 252.777 372.707 Q251.056 372.338 249.15 372.338 Q243.37 372.338 243.37 376.273 Q243.37 379.47 247.182 381.561 Q250.994 383.651 258.372 385.434 Q260.401 385.988 260.832 386.356 Q261.262 386.664 261.262 387.586 Q261.201 389.123 259.971 389.123 Q259.663 389.123 257.634 388.631 Q255.605 388.14 252.716 387.217 Q249.765 386.234 247.797 385.311 Q246.321 384.512 245.645 384.082 Q244.907 383.59 243.493 382.422 Q242.018 381.192 241.341 379.593 Q240.603 377.933 240.603 375.904 Q240.603 371.354 243.555 368.034 Q246.444 364.714 251.548 364.284 Q240.603 356.106 240.603 344.67 Q240.603 337.907 244.169 334.034 Q247.736 330.16 254.068 330.16 Q255.544 330.16 257.45 330.468 Q259.295 330.714 261.631 331.328 Q263.967 331.882 265.75 332.374 Q267.533 332.865 270.423 333.849 Q273.251 334.833 274.481 335.263 Q275.711 335.694 278.6 336.739 Q281.429 337.723 281.736 337.846 Q287.454 340.121 290.713 340.121 Q292.865 340.121 293.848 339.444 Q294.832 338.706 294.832 337.108 Q294.832 332.804 290.59 329.607 Q286.286 326.348 279.277 324.258 Q277.74 323.766 277.371 323.52 Q277.002 323.212 277.002 322.352 Q277.002 320.876 278.232 320.876 Z" fill="#000000" fill-rule="nonzero" fill-opacity="1" /><path clip-path="url(#clip510)" d="M304.395 302.329 Q303.516 302.329 301.32 300.046 Q271.808 271.061 216.209 271.061 Q160.434 271.061 132.24 298.904 Q128.99 302.329 128.023 302.329 Q126.267 302.329 126.267 300.573 Q126.267 299.343 129.868 295.039 Q133.469 290.648 141.726 284.06 Q149.982 277.385 160.083 272.466 Q184.589 260.608 216.209 260.608 Q246.6 260.608 271.105 271.939 Q281.382 276.77 289.99 283.533 Q298.597 290.296 302.374 294.776 Q306.151 299.255 306.151 300.573 Q306.151 302.329 304.395 302.329 Z" fill="#000000" fill-rule="nonzero" fill-opacity="1" /><polyline clip-path="url(#clip512)" style="stroke:#009af9; stroke-linecap:round; stroke-linejoin:round; stroke-width:32; stroke-opacity:1; fill:none" points="460.005,1281.52 649.635,1068.61 839.265,768.294 1028.9,515.903 1218.53,375.212 1408.16,325.623 1597.79,314.407 1787.42,312.677 1977.05,312.482 2166.68,312.466 2356.31,312.465 2545.94,312.465 2735.57,312.465 2925.2,312.465 "/>
<circle clip-path="url(#clip512)" cx="460.005" cy="1281.52" r="28.8" fill="#009af9" fill-rule="evenodd" fill-opacity="1" stroke="#000000" stroke-opacity="1" stroke-width="4.8"/>
<circle clip-path="url(#clip512)" cx="649.635" cy="1068.61" r="28.8" fill="#009af9" fill-rule="evenodd" fill-opacity="1" stroke="#000000" stroke-opacity="1" stroke-width="4.8"/>
<circle clip-path="url(#clip512)" cx="839.265" cy="768.294" r="28.8" fill="#009af9" fill-rule="evenodd" fill-opacity="1" stroke="#000000" stroke-opacity="1" stroke-width="4.8"/>
<circle clip-path="url(#clip512)" cx="1028.9" cy="515.903" r="28.8" fill="#009af9" fill-rule="evenodd" fill-opacity="1" stroke="#000000" stroke-opacity="1" stroke-width="4.8"/>
<circle clip-path="url(#clip512)" cx="1218.53" cy="375.212" r="28.8" fill="#009af9" fill-rule="evenodd" fill-opacity="1" stroke="#000000" stroke-opacity="1" stroke-width="4.8"/>
<circle clip-path="url(#clip512)" cx="1408.16" cy="325.623" r="28.8" fill="#009af9" fill-rule="evenodd" fill-opacity="1" stroke="#000000" stroke-opacity="1" stroke-width="4.8"/>
<circle clip-path="url(#clip512)" cx="1597.79" cy="314.407" r="28.8" fill="#009af9" fill-rule="evenodd" fill-opacity="1" stroke="#000000" stroke-opacity="1" stroke-width="4.8"/>
<circle clip-path="url(#clip512)" cx="1787.42" cy="312.677" r="28.8" fill="#009af9" fill-rule="evenodd" fill-opacity="1" stroke="#000000" stroke-opacity="1" stroke-width="4.8"/>
<circle clip-path="url(#clip512)" cx="1977.05" cy="312.482" r="28.8" fill="#009af9" fill-rule="evenodd" fill-opacity="1" stroke="#000000" stroke-opacity="1" stroke-width="4.8"/>
<circle clip-path="url(#clip512)" cx="2166.68" cy="312.466" r="28.8" fill="#009af9" fill-rule="evenodd" fill-opacity="1" stroke="#000000" stroke-opacity="1" stroke-width="4.8"/>
<circle clip-path="url(#clip512)" cx="2356.31" cy="312.465" r="28.8" fill="#009af9" fill-rule="evenodd" fill-opacity="1" stroke="#000000" stroke-opacity="1" stroke-width="4.8"/>
<circle clip-path="url(#clip512)" cx="2545.94" cy="312.465" r="28.8" fill="#009af9" fill-rule="evenodd" fill-opacity="1" stroke="#000000" stroke-opacity="1" stroke-width="4.8"/>
<circle clip-path="url(#clip512)" cx="2735.57" cy="312.465" r="28.8" fill="#009af9" fill-rule="evenodd" fill-opacity="1" stroke="#000000" stroke-opacity="1" stroke-width="4.8"/>
<circle clip-path="url(#clip512)" cx="2925.2" cy="312.465" r="28.8" fill="#009af9" fill-rule="evenodd" fill-opacity="1" stroke="#000000" stroke-opacity="1" stroke-width="4.8"/>
<polyline clip-path="url(#clip512)" style="stroke:#000000; stroke-linecap:round; stroke-linejoin:round; stroke-width:8; stroke-opacity:1; fill:none" stroke-dasharray="32, 20" points="-2232.75,312.465 5845.51,312.465 "/>
<polyline clip-path="url(#clip512)" style="stroke:#e26f46; stroke-linecap:round; stroke-linejoin:round; stroke-width:32; stroke-opacity:1; fill:none" points="460.005,1524.24 649.635,1255.37 839.265,904.817 1028.9,597.388 1218.53,408.679 1408.16,334.412 1597.79,315.93 1787.42,312.863 1977.05,312.5 2166.68,312.467 2356.31,312.465 2545.94,312.465 2735.57,312.465 2925.2,312.465 "/>
<path clip-path="url(#clip512)" d="M460.005 1492.24 L428.005 1524.24 L460.005 1556.24 L492.005 1524.24 L460.005 1492.24 Z" fill="#e26f46" fill-rule="evenodd" fill-opacity="1" stroke="#000000" stroke-opacity="1" stroke-width="4.8"/>
<path clip-path="url(#clip512)" d="M649.635 1223.37 L617.635 1255.37 L649.635 1287.37 L681.635 1255.37 L649.635 1223.37 Z" fill="#e26f46" fill-rule="evenodd" fill-opacity="1" stroke="#000000" stroke-opacity="1" stroke-width="4.8"/>
<path clip-path="url(#clip512)" d="M839.265 872.817 L807.265 904.817 L839.265 936.817 L871.265 904.817 L839.265 872.817 Z" fill="#e26f46" fill-rule="evenodd" fill-opacity="1" stroke="#000000" stroke-opacity="1" stroke-width="4.8"/>
<path clip-path="url(#clip512)" d="M1028.9 565.388 L996.896 597.388 L1028.9 629.388 L1060.9 597.388 L1028.9 565.388 Z" fill="#e26f46" fill-rule="evenodd" fill-opacity="1" stroke="#000000" stroke-opacity="1" stroke-width="4.8"/>
<path clip-path="url(#clip512)" d="M1218.53 376.679 L1186.53 408.679 L1218.53 440.679 L1250.53 408.679 L1218.53 376.679 Z" fill="#e26f46" fill-rule="evenodd" fill-opacity="1" stroke="#000000" stroke-opacity="1" stroke-width="4.8"/>
<path clip-path="url(#clip512)" d="M1408.16 302.412 L1376.16 334.412 L1408.16 366.412 L1440.16 334.412 L1408.16 302.412 Z" fill="#e26f46" fill-rule="evenodd" fill-opacity="1" stroke="#000000" stroke-opacity="1" stroke-width="4.8"/>
<path clip-path="url(#clip512)" d="M1597.79 283.93 L1565.79 315.93 L1597.79 347.93 L1629.79 315.93 L1597.79 283.93 Z" fill="#e26f46" fill-rule="evenodd" fill-opacity="1" stroke="#000000" stroke-opacity="1" stroke-width="4.8"/>
<path clip-path="url(#clip512)" d="M1787.42 280.863 L1755.42 312.863 L1787.42 344.863 L1819.42 312.863 L1787.42 280.863 Z" fill="#e26f46" fill-rule="evenodd" fill-opacity="1" stroke="#000000" stroke-opacity="1" stroke-width="4.8"/>
<path clip-path="url(#clip512)" d="M1977.05 280.5 L1945.05 312.5 L1977.05 344.5 L2009.05 312.5 L1977.05 280.5 Z" fill="#e26f46" fill-rule="evenodd" fill-opacity="1" stroke="#000000" stroke-opacity="1" stroke-width="4.8"/>
<path clip-path="url(#clip512)" d="M2166.68 280.467 L2134.68 312.467 L2166.68 344.467 L2198.68 312.467 L2166.68 280.467 Z" fill="#e26f46" fill-rule="evenodd" fill-opacity="1" stroke="#000000" stroke-opacity="1" stroke-width="4.8"/>
<path clip-path="url(#clip512)" d="M2356.31 280.465 L2324.31 312.465 L2356.31 344.465 L2388.31 312.465 L2356.31 280.465 Z" fill="#e26f46" fill-rule="evenodd" fill-opacity="1" stroke="#000000" stroke-opacity="1" stroke-width="4.8"/>
<path clip-path="url(#clip512)" d="M2545.94 280.465 L2513.94 312.465 L2545.94 344.465 L2577.94 312.465 L2545.94 280.465 Z" fill="#e26f46" fill-rule="evenodd" fill-opacity="1" stroke="#000000" stroke-opacity="1" stroke-width="4.8"/>
<path clip-path="url(#clip512)" d="M2735.57 280.465 L2703.57 312.465 L2735.57 344.465 L2767.57 312.465 L2735.57 280.465 Z" fill="#e26f46" fill-rule="evenodd" fill-opacity="1" stroke="#000000" stroke-opacity="1" stroke-width="4.8"/>
<path clip-path="url(#clip512)" d="M2925.2 280.465 L2893.2 312.465 L2925.2 344.465 L2957.2 312.465 L2925.2 280.465 Z" fill="#e26f46" fill-rule="evenodd" fill-opacity="1" stroke="#000000" stroke-opacity="1" stroke-width="4.8"/>
<polyline clip-path="url(#clip512)" style="stroke:#000000; stroke-linecap:round; stroke-linejoin:round; stroke-width:16; stroke-opacity:1; fill:none" points="460.005,3760.33 460.005,-1809.3 "/>
<polyline clip-path="url(#clip512)" style="stroke:#000000; stroke-linecap:round; stroke-linejoin:round; stroke-width:16; stroke-opacity:1; fill:none" points="-2232.75,1903.79 5845.51,1903.79 "/>
</svg>
