<?xml version="1.0" encoding="utf-8"?>
<svg xmlns="http://www.w3.org/2000/svg" xmlns:xlink="http://www.w3.org/1999/xlink" width="800" height="600" viewBox="0 0 3200 2400">
<defs>
  <clipPath id="clip680">
    <rect x="0" y="0" width="3200" height="2400"/>
  </clipPath>
</defs>
<path clip-path="url(#clip680)" d="M0 2400 L3200 2400 L3200 0 L0 0  Z" fill="#ffffff" fill-rule="evenodd" fill-opacity="1"/>
<defs>
  <clipPath id="clip681">
    <rect x="640" y="0" width="2241" height="2241"/>
  </clipPath>
</defs>
<path clip-path="url(#clip680)" d="M418.814 1951.03 L3152.76 1951.03 L3152.76 47.2441 L418.814 47.2441  Z" fill="#ffffff" fill-rule="evenodd" fill-opacity="1"/>
<defs>
  <clipPath id="clip682">
    <rect x="418" y="47" width="2735" height="1905"/>
  </clipPath>
</defs>
<polyline clip-path="url(#clip682)" style="stroke:#000000; stroke-linecap:round; stroke-linejoin:round; stroke-width:2; stroke-opacity:0.1; fill:none" points="418.814,1951.03 418.814,47.2441 "/>
<polyline clip-path="url(#clip682)" style="stroke:#000000; stroke-linecap:round; stroke-linejoin:round; stroke-width:2; stroke-opacity:0.1; fill:none" points="1102.3,1951.03 1102.3,47.2441 "/>
<polyline clip-path="url(#clip682)" style="stroke:#000000; stroke-linecap:round; stroke-linejoin:round; stroke-width:2; stroke-opacity:0.1; fill:none" points="1785.79,1951.03 1785.79,47.2441 "/>
<polyline clip-path="url(#clip682)" style="stroke:#000000; stroke-linecap:round; stroke-linejoin:round; stroke-width:2; stroke-opacity:0.1; fill:none" points="2469.27,1951.03 2469.27,47.2441 "/>
<polyline clip-path="url(#clip682)" style="stroke:#000000; stroke-linecap:round; stroke-linejoin:round; stroke-width:2; stroke-opacity:0.1; fill:none" points="3152.76,1951.03 3152.76,47.2441 "/>
<polyline clip-path="url(#clip682)" style="stroke:#000000; stroke-linecap:round; stroke-linejoin:round; stroke-width:2; stroke-opacity:0.1; fill:none" points="418.814,1932.37 3152.76,1932.37 "/>
<polyline clip-path="url(#clip682)" style="stroke:#000000; stroke-linecap:round; stroke-linejoin:round; stroke-width:2; stroke-opacity:0.1; fill:none" points="418.814,1465.75 3152.76,1465.75 "/>
<polyline clip-path="url(#clip682)" style="stroke:#000000; stroke-linecap:round; stroke-linejoin:round; stroke-width:2; stroke-opacity:0.1; fill:none" points="418.814,999.138 3152.76,999.138 "/>
<polyline clip-path="url(#clip682)" style="stroke:#000000; stroke-linecap:round; stroke-linejoin:round; stroke-width:2; stroke-opacity:0.1; fill:none" points="418.814,532.523 3152.76,532.523 "/>
<polyline clip-path="url(#clip682)" style="stroke:#000000; stroke-linecap:round; stroke-linejoin:round; stroke-width:2; stroke-opacity:0.1; fill:none" points="418.814,65.9087 3152.76,65.9087 "/>
<polyline clip-path="url(#clip680)" style="stroke:#000000; stroke-linecap:round; stroke-linejoin:round; stroke-width:4; stroke-opacity:1; fill:none" points="418.814,1951.03 3152.76,1951.03 "/>
<polyline clip-path="url(#clip680)" style="stroke:#000000; stroke-linecap:round; stroke-linejoin:round; stroke-width:4; stroke-opacity:1; fill:none" points="418.814,1951.03 418.814,1932.13 "/>
<polyline clip-path="url(#clip680)" style="stroke:#000000; stroke-linecap:round; stroke-linejoin:round; stroke-width:4; stroke-opacity:1; fill:none" points="1102.3,1951.03 1102.3,1932.13 "/>
<polyline clip-path="url(#clip680)" style="stroke:#000000; stroke-linecap:round; stroke-linejoin:round; stroke-width:4; stroke-opacity:1; fill:none" points="1785.79,1951.03 1785.79,1932.13 "/>
<polyline clip-path="url(#clip680)" style="stroke:#000000; stroke-linecap:round; stroke-linejoin:round; stroke-width:4; stroke-opacity:1; fill:none" points="2469.27,1951.03 2469.27,1932.13 "/>
<polyline clip-path="url(#clip680)" style="stroke:#000000; stroke-linecap:round; stroke-linejoin:round; stroke-width:4; stroke-opacity:1; fill:none" points="3152.76,1951.03 3152.76,1932.13 "/>
<path clip-path="url(#clip680)" d="M357.796 2003 L387.472 2003 L387.472 2006.94 L357.796 2006.94 L357.796 2003 Z" fill="#000000" fill-rule="nonzero" fill-opacity="1" /><path clip-path="url(#clip680)" d="M398.374 2015.9 L406.013 2015.9 L406.013 1989.53 L397.703 1991.2 L397.703 1986.94 L405.967 1985.27 L410.643 1985.27 L410.643 2015.9 L418.282 2015.9 L418.282 2019.83 L398.374 2019.83 L398.374 2015.9 Z" fill="#000000" fill-rule="nonzero" fill-opacity="1" /><path clip-path="url(#clip680)" d="M437.726 1988.35 Q434.115 1988.35 432.286 1991.92 Q430.481 1995.46 430.481 2002.59 Q430.481 2009.69 432.286 2013.26 Q434.115 2016.8 437.726 2016.8 Q441.36 2016.8 443.166 2013.26 Q444.995 2009.69 444.995 2002.59 Q444.995 1995.46 443.166 1991.92 Q441.36 1988.35 437.726 1988.35 M437.726 1984.65 Q443.536 1984.65 446.592 1989.25 Q449.67 1993.84 449.67 2002.59 Q449.67 2011.31 446.592 2015.92 Q443.536 2020.5 437.726 2020.5 Q431.916 2020.5 428.837 2015.92 Q425.782 2011.31 425.782 2002.59 Q425.782 1993.84 428.837 1989.25 Q431.916 1984.65 437.726 1984.65 Z" fill="#000000" fill-rule="nonzero" fill-opacity="1" /><path clip-path="url(#clip680)" d="M467.888 1988.35 Q464.277 1988.35 462.448 1991.92 Q460.643 1995.46 460.643 2002.59 Q460.643 2009.69 462.448 2013.26 Q464.277 2016.8 467.888 2016.8 Q471.522 2016.8 473.328 2013.26 Q475.156 2009.69 475.156 2002.59 Q475.156 1995.46 473.328 1991.92 Q471.522 1988.35 467.888 1988.35 M467.888 1984.65 Q473.698 1984.65 476.754 1989.25 Q479.832 1993.84 479.832 2002.59 Q479.832 2011.31 476.754 2015.92 Q473.698 2020.5 467.888 2020.5 Q462.078 2020.5 458.999 2015.92 Q455.944 2011.31 455.944 2002.59 Q455.944 1993.84 458.999 1989.25 Q462.078 1984.65 467.888 1984.65 Z" fill="#000000" fill-rule="nonzero" fill-opacity="1" /><path clip-path="url(#clip680)" d="M1056.36 2003 L1086.04 2003 L1086.04 2006.94 L1056.36 2006.94 L1056.36 2003 Z" fill="#000000" fill-rule="nonzero" fill-opacity="1" /><path clip-path="url(#clip680)" d="M1096.18 1985.27 L1114.53 1985.27 L1114.53 1989.21 L1100.46 1989.21 L1100.46 1997.68 Q1101.48 1997.33 1102.5 1997.17 Q1103.51 1996.98 1104.53 1996.98 Q1110.32 1996.98 1113.7 2000.16 Q1117.08 2003.33 1117.08 2008.74 Q1117.08 2014.32 1113.61 2017.42 Q1110.14 2020.5 1103.82 2020.5 Q1101.64 2020.5 1099.37 2020.13 Q1097.13 2019.76 1094.72 2019.02 L1094.72 2014.32 Q1096.8 2015.46 1099.02 2016.01 Q1101.25 2016.57 1103.72 2016.57 Q1107.73 2016.57 1110.07 2014.46 Q1112.4 2012.35 1112.4 2008.74 Q1112.4 2005.13 1110.07 2003.03 Q1107.73 2000.92 1103.72 2000.92 Q1101.85 2000.92 1099.97 2001.34 Q1098.12 2001.75 1096.18 2002.63 L1096.18 1985.27 Z" fill="#000000" fill-rule="nonzero" fill-opacity="1" /><path clip-path="url(#clip680)" d="M1136.29 1988.35 Q1132.68 1988.35 1130.85 1991.92 Q1129.05 1995.46 1129.05 2002.59 Q1129.05 2009.69 1130.85 2013.26 Q1132.68 2016.8 1136.29 2016.8 Q1139.93 2016.8 1141.73 2013.26 Q1143.56 2009.69 1143.56 2002.59 Q1143.56 1995.46 1141.73 1991.92 Q1139.93 1988.35 1136.29 1988.35 M1136.29 1984.65 Q1142.1 1984.65 1145.16 1989.25 Q1148.24 1993.84 1148.24 2002.59 Q1148.24 2011.31 1145.16 2015.92 Q1142.1 2020.5 1136.29 2020.5 Q1130.48 2020.5 1127.4 2015.92 Q1124.35 2011.31 1124.35 2002.59 Q1124.35 1993.84 1127.4 1989.25 Q1130.48 1984.65 1136.29 1984.65 Z" fill="#000000" fill-rule="nonzero" fill-opacity="1" /><path clip-path="url(#clip680)" d="M1785.79 1988.35 Q1782.17 1988.35 1780.35 1991.92 Q1778.54 1995.46 1778.54 2002.59 Q1778.54 2009.69 1780.35 2013.26 Q1782.17 2016.8 1785.79 2016.8 Q1789.42 2016.8 1791.22 2013.26 Q1793.05 2009.69 1793.05 2002.59 Q1793.05 1995.46 1791.22 1991.92 Q1789.42 1988.35 1785.79 1988.35 M1785.79 1984.65 Q1791.6 1984.65 1794.65 1989.25 Q1797.73 1993.84 1797.73 2002.59 Q1797.73 2011.31 1794.65 2015.92 Q1791.6 2020.5 1785.79 2020.5 Q1779.97 2020.5 1776.9 2015.92 Q1773.84 2011.31 1773.84 2002.59 Q1773.84 1993.84 1776.9 1989.25 Q1779.97 1984.65 1785.79 1984.65 Z" fill="#000000" fill-rule="nonzero" fill-opacity="1" /><path clip-path="url(#clip680)" d="M2443.97 1985.27 L2462.33 1985.27 L2462.33 1989.21 L2448.25 1989.21 L2448.25 1997.68 Q2449.27 1997.33 2450.29 1997.17 Q2451.31 1996.98 2452.33 1996.98 Q2458.11 1996.98 2461.49 2000.16 Q2464.87 2003.33 2464.87 2008.74 Q2464.87 2014.32 2461.4 2017.42 Q2457.93 2020.5 2451.61 2020.5 Q2449.43 2020.5 2447.16 2020.13 Q2444.92 2019.76 2442.51 2019.02 L2442.51 2014.32 Q2444.59 2015.46 2446.82 2016.01 Q2449.04 2016.57 2451.52 2016.57 Q2455.52 2016.57 2457.86 2014.46 Q2460.2 2012.35 2460.2 2008.74 Q2460.2 2005.13 2457.86 2003.03 Q2455.52 2000.92 2451.52 2000.92 Q2449.64 2000.92 2447.77 2001.34 Q2445.91 2001.75 2443.97 2002.63 L2443.97 1985.27 Z" fill="#000000" fill-rule="nonzero" fill-opacity="1" /><path clip-path="url(#clip680)" d="M2484.09 1988.35 Q2480.47 1988.35 2478.65 1991.92 Q2476.84 1995.46 2476.84 2002.59 Q2476.84 2009.69 2478.65 2013.26 Q2480.47 2016.8 2484.09 2016.8 Q2487.72 2016.8 2489.52 2013.26 Q2491.35 2009.69 2491.35 2002.59 Q2491.35 1995.46 2489.52 1991.92 Q2487.72 1988.35 2484.09 1988.35 M2484.09 1984.65 Q2489.9 1984.65 2492.95 1989.25 Q2496.03 1993.84 2496.03 2002.59 Q2496.03 2011.31 2492.95 2015.92 Q2489.9 2020.5 2484.09 2020.5 Q2478.28 2020.5 2475.2 2015.92 Q2472.14 2011.31 2472.14 2002.59 Q2472.14 1993.84 2475.2 1989.25 Q2478.28 1984.65 2484.09 1984.65 Z" fill="#000000" fill-rule="nonzero" fill-opacity="1" /><path clip-path="url(#clip680)" d="M3112.36 2015.9 L3120 2015.9 L3120 1989.53 L3111.69 1991.2 L3111.69 1986.94 L3119.96 1985.27 L3124.63 1985.27 L3124.63 2015.9 L3132.27 2015.9 L3132.27 2019.83 L3112.36 2019.83 L3112.36 2015.9 Z" fill="#000000" fill-rule="nonzero" fill-opacity="1" /><path clip-path="url(#clip680)" d="M3151.71 1988.35 Q3148.1 1988.35 3146.27 1991.92 Q3144.47 1995.46 3144.47 2002.59 Q3144.47 2009.69 3146.27 2013.26 Q3148.1 2016.8 3151.71 2016.8 Q3155.35 2016.8 3157.15 2013.26 Q3158.98 2009.69 3158.98 2002.59 Q3158.98 1995.46 3157.15 1991.92 Q3155.35 1988.35 3151.71 1988.35 M3151.71 1984.65 Q3157.52 1984.65 3160.58 1989.25 Q3163.66 1993.84 3163.66 2002.59 Q3163.66 2011.31 3160.58 2015.92 Q3157.52 2020.5 3151.71 2020.5 Q3145.9 2020.5 3142.83 2015.92 Q3139.77 2011.31 3139.77 2002.59 Q3139.77 1993.84 3142.83 1989.25 Q3145.9 1984.65 3151.71 1984.65 Z" fill="#000000" fill-rule="nonzero" fill-opacity="1" /><path clip-path="url(#clip680)" d="M3181.88 1988.35 Q3178.27 1988.35 3176.44 1991.92 Q3174.63 1995.46 3174.63 2002.59 Q3174.63 2009.69 3176.44 2013.26 Q3178.27 2016.8 3181.88 2016.8 Q3185.51 2016.8 3187.32 2013.26 Q3189.14 2009.69 3189.14 2002.59 Q3189.14 1995.46 3187.32 1991.92 Q3185.51 1988.35 3181.88 1988.35 M3181.88 1984.65 Q3187.69 1984.65 3190.74 1989.25 Q3193.82 1993.84 3193.82 2002.59 Q3193.82 2011.31 3190.74 2015.92 Q3187.69 2020.5 3181.88 2020.5 Q3176.07 2020.5 3172.99 2015.92 Q3169.93 2011.31 3169.93 2002.59 Q3169.93 1993.84 3172.99 1989.25 Q3176.07 1984.65 3181.88 1984.65 Z" fill="#000000" fill-rule="nonzero" fill-opacity="1" /><path clip-path="url(#clip680)" d="M1480.45 2248.77 L1480.45 2267.26 Q1471.59 2259.02 1461.52 2254.94 Q1451.54 2250.86 1440.26 2250.86 Q1418.04 2250.86 1406.23 2264.49 Q1394.42 2278.03 1394.42 2303.72 Q1394.42 2329.33 1406.23 2342.96 Q1418.04 2356.5 1440.26 2356.5 Q1451.54 2356.5 1461.52 2352.42 Q1471.59 2348.34 1480.45 2340.09 L1480.45 2358.41 Q1471.25 2364.66 1460.92 2367.78 Q1450.67 2370.91 1439.22 2370.91 Q1409.79 2370.91 1392.86 2352.94 Q1375.93 2334.89 1375.93 2303.72 Q1375.93 2272.47 1392.86 2254.5 Q1409.79 2236.45 1439.22 2236.45 Q1450.85 2236.45 1461.09 2239.57 Q1471.42 2242.61 1480.45 2248.77 Z" fill="#000000" fill-rule="nonzero" fill-opacity="1" /><path clip-path="url(#clip680)" d="M1587.65 2309.71 L1587.65 2368.39 L1571.68 2368.39 L1571.68 2310.23 Q1571.68 2296.43 1566.3 2289.57 Q1560.92 2282.72 1550.15 2282.72 Q1537.22 2282.72 1529.75 2290.96 Q1522.29 2299.21 1522.29 2313.44 L1522.29 2368.39 L1506.23 2368.39 L1506.23 2233.32 L1522.29 2233.32 L1522.29 2286.27 Q1528.02 2277.51 1535.74 2273.17 Q1543.56 2268.83 1553.71 2268.83 Q1570.47 2268.83 1579.06 2279.24 Q1587.65 2289.57 1587.65 2309.71 Z" fill="#000000" fill-rule="nonzero" fill-opacity="1" /><path clip-path="url(#clip680)" d="M1663.69 2319.52 Q1644.34 2319.52 1636.87 2323.95 Q1629.41 2328.37 1629.41 2339.05 Q1629.41 2347.56 1634.96 2352.59 Q1640.6 2357.54 1650.24 2357.54 Q1663.52 2357.54 1671.51 2348.17 Q1679.58 2338.7 1679.58 2323.08 L1679.58 2319.52 L1663.69 2319.52 M1695.55 2312.92 L1695.55 2368.39 L1679.58 2368.39 L1679.58 2353.63 Q1674.11 2362.49 1665.95 2366.74 Q1657.79 2370.91 1645.99 2370.91 Q1631.05 2370.91 1622.2 2362.58 Q1613.43 2354.16 1613.43 2340.09 Q1613.43 2323.69 1624.37 2315.35 Q1635.4 2307.02 1657.18 2307.02 L1679.58 2307.02 L1679.58 2305.46 Q1679.58 2294.43 1672.29 2288.44 Q1665.08 2282.37 1651.97 2282.37 Q1643.64 2282.37 1635.74 2284.36 Q1627.84 2286.36 1620.55 2290.35 L1620.55 2275.6 Q1629.32 2272.21 1637.57 2270.56 Q1645.81 2268.83 1653.62 2268.83 Q1674.72 2268.83 1685.13 2279.76 Q1695.55 2290.7 1695.55 2312.92 Z" fill="#000000" fill-rule="nonzero" fill-opacity="1" /><path clip-path="url(#clip680)" d="M1728.45 2271.17 L1744.42 2271.17 L1744.42 2368.39 L1728.45 2368.39 L1728.45 2271.17 M1728.45 2233.32 L1744.42 2233.32 L1744.42 2253.55 L1728.45 2253.55 L1728.45 2233.32 Z" fill="#000000" fill-rule="nonzero" fill-opacity="1" /><path clip-path="url(#clip680)" d="M1858.66 2309.71 L1858.66 2368.39 L1842.69 2368.39 L1842.69 2310.23 Q1842.69 2296.43 1837.3 2289.57 Q1831.92 2282.72 1821.16 2282.72 Q1808.22 2282.72 1800.76 2290.96 Q1793.29 2299.21 1793.29 2313.44 L1793.29 2368.39 L1777.23 2368.39 L1777.23 2271.17 L1793.29 2271.17 L1793.29 2286.27 Q1799.02 2277.51 1806.75 2273.17 Q1814.56 2268.83 1824.72 2268.83 Q1841.47 2268.83 1850.06 2279.24 Q1858.66 2289.57 1858.66 2309.71 Z" fill="#000000" fill-rule="nonzero" fill-opacity="1" /><path clip-path="url(#clip680)" d="M2025.41 2243.05 L2025.41 2260.15 Q2015.43 2255.37 2006.57 2253.03 Q1997.72 2250.68 1989.47 2250.68 Q1975.15 2250.68 1967.34 2256.24 Q1959.61 2261.8 1959.61 2272.04 Q1959.61 2280.63 1964.73 2285.06 Q1969.94 2289.4 1984.35 2292.09 L1994.94 2294.26 Q2014.56 2297.99 2023.85 2307.45 Q2033.22 2316.83 2033.22 2332.63 Q2033.22 2351.46 2020.55 2361.19 Q2007.96 2370.91 1983.57 2370.91 Q1974.37 2370.91 1963.95 2368.83 Q1953.62 2366.74 1942.51 2362.66 L1942.51 2344.61 Q1953.19 2350.6 1963.43 2353.63 Q1973.67 2356.67 1983.57 2356.67 Q1998.59 2356.67 2006.75 2350.77 Q2014.91 2344.87 2014.91 2333.93 Q2014.91 2324.38 2009 2319 Q2003.19 2313.62 1989.82 2310.93 L1979.14 2308.84 Q1959.53 2304.94 1950.76 2296.6 Q1941.99 2288.27 1941.99 2273.43 Q1941.99 2256.24 1954.06 2246.34 Q1966.21 2236.45 1987.48 2236.45 Q1996.59 2236.45 2006.05 2238.1 Q2015.51 2239.75 2025.41 2243.05 Z" fill="#000000" fill-rule="nonzero" fill-opacity="1" /><path clip-path="url(#clip680)" d="M2059.87 2271.17 L2075.84 2271.17 L2075.84 2368.39 L2059.87 2368.39 L2059.87 2271.17 M2059.87 2233.32 L2075.84 2233.32 L2075.84 2253.55 L2059.87 2253.55 L2059.87 2233.32 Z" fill="#000000" fill-rule="nonzero" fill-opacity="1" /><path clip-path="url(#clip680)" d="M2125.06 2243.57 L2125.06 2271.17 L2157.96 2271.17 L2157.96 2283.58 L2125.06 2283.58 L2125.06 2336.36 Q2125.06 2348.25 2128.27 2351.64 Q2131.57 2355.02 2141.56 2355.02 L2157.96 2355.02 L2157.96 2368.39 L2141.56 2368.39 Q2123.07 2368.39 2116.03 2361.53 Q2109 2354.59 2109 2336.36 L2109 2283.58 L2097.29 2283.58 L2097.29 2271.17 L2109 2271.17 L2109 2243.57 L2125.06 2243.57 Z" fill="#000000" fill-rule="nonzero" fill-opacity="1" /><path clip-path="url(#clip680)" d="M2262.13 2315.79 L2262.13 2323.6 L2188.69 2323.6 Q2189.73 2340.09 2198.59 2348.77 Q2207.53 2357.37 2223.41 2357.37 Q2232.61 2357.37 2241.21 2355.11 Q2249.89 2352.85 2258.4 2348.34 L2258.4 2363.44 Q2249.8 2367.09 2240.77 2369 Q2231.75 2370.91 2222.46 2370.91 Q2199.19 2370.91 2185.57 2357.37 Q2172.02 2343.83 2172.02 2320.74 Q2172.02 2296.86 2184.87 2282.89 Q2197.81 2268.83 2219.68 2268.83 Q2239.3 2268.83 2250.67 2281.5 Q2262.13 2294.09 2262.13 2315.79 M2246.16 2311.1 Q2245.98 2297.99 2238.78 2290.18 Q2231.66 2282.37 2219.85 2282.37 Q2206.49 2282.37 2198.41 2289.92 Q2190.43 2297.47 2189.21 2311.19 L2246.16 2311.1 Z" fill="#000000" fill-rule="nonzero" fill-opacity="1" /><polyline clip-path="url(#clip680)" style="stroke:#000000; stroke-linecap:round; stroke-linejoin:round; stroke-width:4; stroke-opacity:1; fill:none" points="418.814,1951.03 418.814,47.2441 "/>
<polyline clip-path="url(#clip680)" style="stroke:#000000; stroke-linecap:round; stroke-linejoin:round; stroke-width:4; stroke-opacity:1; fill:none" points="418.814,1932.37 437.712,1932.37 "/>
<polyline clip-path="url(#clip680)" style="stroke:#000000; stroke-linecap:round; stroke-linejoin:round; stroke-width:4; stroke-opacity:1; fill:none" points="418.814,1465.75 437.712,1465.75 "/>
<polyline clip-path="url(#clip680)" style="stroke:#000000; stroke-linecap:round; stroke-linejoin:round; stroke-width:4; stroke-opacity:1; fill:none" points="418.814,999.138 437.712,999.138 "/>
<polyline clip-path="url(#clip680)" style="stroke:#000000; stroke-linecap:round; stroke-linejoin:round; stroke-width:4; stroke-opacity:1; fill:none" points="418.814,532.523 437.712,532.523 "/>
<polyline clip-path="url(#clip680)" style="stroke:#000000; stroke-linecap:round; stroke-linejoin:round; stroke-width:4; stroke-opacity:1; fill:none" points="418.814,65.9087 437.712,65.9087 "/>
<path clip-path="url(#clip680)" d="M283.477 1918.17 Q279.866 1918.17 278.037 1921.73 Q276.231 1925.27 276.231 1932.4 Q276.231 1939.51 278.037 1943.07 Q279.866 1946.61 283.477 1946.61 Q287.111 1946.61 288.916 1943.07 Q290.745 1939.51 290.745 1932.4 Q290.745 1925.27 288.916 1921.73 Q287.111 1918.17 283.477 1918.17 M283.477 1914.46 Q289.287 1914.46 292.342 1919.07 Q295.421 1923.65 295.421 1932.4 Q295.421 1941.13 292.342 1945.74 Q289.287 1950.32 283.477 1950.32 Q277.667 1950.32 274.588 1945.74 Q271.532 1941.13 271.532 1932.4 Q271.532 1923.65 274.588 1919.07 Q277.667 1914.46 283.477 1914.46 Z" fill="#000000" fill-rule="nonzero" fill-opacity="1" /><path clip-path="url(#clip680)" d="M303.639 1943.77 L308.523 1943.77 L308.523 1949.65 L303.639 1949.65 L303.639 1943.77 Z" fill="#000000" fill-rule="nonzero" fill-opacity="1" /><path clip-path="url(#clip680)" d="M328.708 1918.17 Q325.097 1918.17 323.268 1921.73 Q321.463 1925.27 321.463 1932.4 Q321.463 1939.51 323.268 1943.07 Q325.097 1946.61 328.708 1946.61 Q332.342 1946.61 334.148 1943.07 Q335.976 1939.51 335.976 1932.4 Q335.976 1925.27 334.148 1921.73 Q332.342 1918.17 328.708 1918.17 M328.708 1914.46 Q334.518 1914.46 337.574 1919.07 Q340.652 1923.65 340.652 1932.4 Q340.652 1941.13 337.574 1945.74 Q334.518 1950.32 328.708 1950.32 Q322.898 1950.32 319.819 1945.74 Q316.764 1941.13 316.764 1932.4 Q316.764 1923.65 319.819 1919.07 Q322.898 1914.46 328.708 1914.46 Z" fill="#000000" fill-rule="nonzero" fill-opacity="1" /><path clip-path="url(#clip680)" d="M358.87 1918.17 Q355.259 1918.17 353.43 1921.73 Q351.624 1925.27 351.624 1932.4 Q351.624 1939.51 353.43 1943.07 Q355.259 1946.61 358.87 1946.61 Q362.504 1946.61 364.31 1943.07 Q366.138 1939.51 366.138 1932.4 Q366.138 1925.27 364.31 1921.73 Q362.504 1918.17 358.87 1918.17 M358.87 1914.46 Q364.68 1914.46 367.735 1919.07 Q370.814 1923.65 370.814 1932.4 Q370.814 1941.13 367.735 1945.74 Q364.68 1950.32 358.87 1950.32 Q353.06 1950.32 349.981 1945.74 Q346.925 1941.13 346.925 1932.4 Q346.925 1923.65 349.981 1919.07 Q353.06 1914.46 358.87 1914.46 Z" fill="#000000" fill-rule="nonzero" fill-opacity="1" /><path clip-path="url(#clip680)" d="M284.472 1451.55 Q280.861 1451.55 279.032 1455.12 Q277.227 1458.66 277.227 1465.79 Q277.227 1472.89 279.032 1476.46 Q280.861 1480 284.472 1480 Q288.106 1480 289.912 1476.46 Q291.741 1472.89 291.741 1465.79 Q291.741 1458.66 289.912 1455.12 Q288.106 1451.55 284.472 1451.55 M284.472 1447.85 Q290.282 1447.85 293.338 1452.45 Q296.416 1457.04 296.416 1465.79 Q296.416 1474.51 293.338 1479.12 Q290.282 1483.7 284.472 1483.7 Q278.662 1483.7 275.583 1479.12 Q272.528 1474.51 272.528 1465.79 Q272.528 1457.04 275.583 1452.45 Q278.662 1447.85 284.472 1447.85 Z" fill="#000000" fill-rule="nonzero" fill-opacity="1" /><path clip-path="url(#clip680)" d="M304.634 1477.15 L309.518 1477.15 L309.518 1483.03 L304.634 1483.03 L304.634 1477.15 Z" fill="#000000" fill-rule="nonzero" fill-opacity="1" /><path clip-path="url(#clip680)" d="M323.731 1479.1 L340.05 1479.1 L340.05 1483.03 L318.106 1483.03 L318.106 1479.1 Q320.768 1476.34 325.351 1471.71 Q329.958 1467.06 331.138 1465.72 Q333.384 1463.19 334.263 1461.46 Q335.166 1459.7 335.166 1458.01 Q335.166 1455.25 333.222 1453.52 Q331.3 1451.78 328.199 1451.78 Q326 1451.78 323.546 1452.55 Q321.115 1453.31 318.338 1454.86 L318.338 1450.14 Q321.162 1449 323.615 1448.43 Q326.069 1447.85 328.106 1447.85 Q333.476 1447.85 336.671 1450.53 Q339.865 1453.22 339.865 1457.71 Q339.865 1459.84 339.055 1461.76 Q338.268 1463.66 336.162 1466.25 Q335.583 1466.92 332.481 1470.14 Q329.379 1473.33 323.731 1479.1 Z" fill="#000000" fill-rule="nonzero" fill-opacity="1" /><path clip-path="url(#clip680)" d="M349.911 1448.47 L368.268 1448.47 L368.268 1452.41 L354.194 1452.41 L354.194 1460.88 Q355.212 1460.53 356.231 1460.37 Q357.249 1460.19 358.268 1460.19 Q364.055 1460.19 367.435 1463.36 Q370.814 1466.53 370.814 1471.94 Q370.814 1477.52 367.342 1480.63 Q363.87 1483.7 357.55 1483.7 Q355.374 1483.7 353.106 1483.33 Q350.861 1482.96 348.453 1482.22 L348.453 1477.52 Q350.536 1478.66 352.759 1479.21 Q354.981 1479.77 357.458 1479.77 Q361.462 1479.77 363.8 1477.66 Q366.138 1475.56 366.138 1471.94 Q366.138 1468.33 363.8 1466.23 Q361.462 1464.12 357.458 1464.12 Q355.583 1464.12 353.708 1464.54 Q351.856 1464.95 349.911 1465.83 L349.911 1448.47 Z" fill="#000000" fill-rule="nonzero" fill-opacity="1" /><path clip-path="url(#clip680)" d="M283.477 984.937 Q279.866 984.937 278.037 988.501 Q276.231 992.043 276.231 999.173 Q276.231 1006.28 278.037 1009.84 Q279.866 1013.39 283.477 1013.39 Q287.111 1013.39 288.916 1009.84 Q290.745 1006.28 290.745 999.173 Q290.745 992.043 288.916 988.501 Q287.111 984.937 283.477 984.937 M283.477 981.233 Q289.287 981.233 292.342 985.839 Q295.421 990.423 295.421 999.173 Q295.421 1007.9 292.342 1012.51 Q289.287 1017.09 283.477 1017.09 Q277.667 1017.09 274.588 1012.51 Q271.532 1007.9 271.532 999.173 Q271.532 990.423 274.588 985.839 Q277.667 981.233 283.477 981.233 Z" fill="#000000" fill-rule="nonzero" fill-opacity="1" /><path clip-path="url(#clip680)" d="M303.639 1010.54 L308.523 1010.54 L308.523 1016.42 L303.639 1016.42 L303.639 1010.54 Z" fill="#000000" fill-rule="nonzero" fill-opacity="1" /><path clip-path="url(#clip680)" d="M318.754 981.858 L337.111 981.858 L337.111 985.793 L323.037 985.793 L323.037 994.265 Q324.055 993.918 325.074 993.756 Q326.092 993.571 327.111 993.571 Q332.898 993.571 336.277 996.742 Q339.657 999.913 339.657 1005.33 Q339.657 1010.91 336.185 1014.01 Q332.713 1017.09 326.393 1017.09 Q324.217 1017.09 321.949 1016.72 Q319.703 1016.35 317.296 1015.61 L317.296 1010.91 Q319.379 1012.04 321.601 1012.6 Q323.824 1013.15 326.301 1013.15 Q330.305 1013.15 332.643 1011.05 Q334.981 1008.94 334.981 1005.33 Q334.981 1001.72 332.643 999.612 Q330.305 997.506 326.301 997.506 Q324.426 997.506 322.551 997.923 Q320.699 998.339 318.754 999.219 L318.754 981.858 Z" fill="#000000" fill-rule="nonzero" fill-opacity="1" /><path clip-path="url(#clip680)" d="M358.87 984.937 Q355.259 984.937 353.43 988.501 Q351.624 992.043 351.624 999.173 Q351.624 1006.28 353.43 1009.84 Q355.259 1013.39 358.87 1013.39 Q362.504 1013.39 364.31 1009.84 Q366.138 1006.28 366.138 999.173 Q366.138 992.043 364.31 988.501 Q362.504 984.937 358.87 984.937 M358.87 981.233 Q364.68 981.233 367.735 985.839 Q370.814 990.423 370.814 999.173 Q370.814 1007.9 367.735 1012.51 Q364.68 1017.09 358.87 1017.09 Q353.06 1017.09 349.981 1012.51 Q346.925 1007.9 346.925 999.173 Q346.925 990.423 349.981 985.839 Q353.06 981.233 358.87 981.233 Z" fill="#000000" fill-rule="nonzero" fill-opacity="1" /><path clip-path="url(#clip680)" d="M284.472 518.322 Q280.861 518.322 279.032 521.887 Q277.227 525.428 277.227 532.558 Q277.227 539.664 279.032 543.229 Q280.861 546.771 284.472 546.771 Q288.106 546.771 289.912 543.229 Q291.741 539.664 291.741 532.558 Q291.741 525.428 289.912 521.887 Q288.106 518.322 284.472 518.322 M284.472 514.618 Q290.282 514.618 293.338 519.225 Q296.416 523.808 296.416 532.558 Q296.416 541.285 293.338 545.891 Q290.282 550.475 284.472 550.475 Q278.662 550.475 275.583 545.891 Q272.528 541.285 272.528 532.558 Q272.528 523.808 275.583 519.225 Q278.662 514.618 284.472 514.618 Z" fill="#000000" fill-rule="nonzero" fill-opacity="1" /><path clip-path="url(#clip680)" d="M304.634 543.924 L309.518 543.924 L309.518 549.803 L304.634 549.803 L304.634 543.924 Z" fill="#000000" fill-rule="nonzero" fill-opacity="1" /><path clip-path="url(#clip680)" d="M318.523 515.243 L340.745 515.243 L340.745 517.234 L328.199 549.803 L323.314 549.803 L335.12 519.178 L318.523 519.178 L318.523 515.243 Z" fill="#000000" fill-rule="nonzero" fill-opacity="1" /><path clip-path="url(#clip680)" d="M349.911 515.243 L368.268 515.243 L368.268 519.178 L354.194 519.178 L354.194 527.651 Q355.212 527.303 356.231 527.141 Q357.249 526.956 358.268 526.956 Q364.055 526.956 367.435 530.127 Q370.814 533.299 370.814 538.715 Q370.814 544.294 367.342 547.396 Q363.87 550.475 357.55 550.475 Q355.374 550.475 353.106 550.104 Q350.861 549.734 348.453 548.993 L348.453 544.294 Q350.536 545.428 352.759 545.984 Q354.981 546.539 357.458 546.539 Q361.462 546.539 363.8 544.433 Q366.138 542.327 366.138 538.715 Q366.138 535.104 363.8 532.998 Q361.462 530.891 357.458 530.891 Q355.583 530.891 353.708 531.308 Q351.856 531.725 349.911 532.604 L349.911 515.243 Z" fill="#000000" fill-rule="nonzero" fill-opacity="1" /><path clip-path="url(#clip680)" d="M274.287 79.2535 L281.926 79.2535 L281.926 52.8879 L273.616 54.5546 L273.616 50.2953 L281.879 48.6287 L286.555 48.6287 L286.555 79.2535 L294.194 79.2535 L294.194 83.1887 L274.287 83.1887 L274.287 79.2535 Z" fill="#000000" fill-rule="nonzero" fill-opacity="1" /><path clip-path="url(#clip680)" d="M303.639 77.3091 L308.523 77.3091 L308.523 83.1887 L303.639 83.1887 L303.639 77.3091 Z" fill="#000000" fill-rule="nonzero" fill-opacity="1" /><path clip-path="url(#clip680)" d="M328.708 51.7074 Q325.097 51.7074 323.268 55.2722 Q321.463 58.8138 321.463 65.9434 Q321.463 73.0498 323.268 76.6146 Q325.097 80.1563 328.708 80.1563 Q332.342 80.1563 334.148 76.6146 Q335.976 73.0498 335.976 65.9434 Q335.976 58.8138 334.148 55.2722 Q332.342 51.7074 328.708 51.7074 M328.708 48.0037 Q334.518 48.0037 337.574 52.6101 Q340.652 57.1934 340.652 65.9434 Q340.652 74.6702 337.574 79.2767 Q334.518 83.86 328.708 83.86 Q322.898 83.86 319.819 79.2767 Q316.764 74.6702 316.764 65.9434 Q316.764 57.1934 319.819 52.6101 Q322.898 48.0037 328.708 48.0037 Z" fill="#000000" fill-rule="nonzero" fill-opacity="1" /><path clip-path="url(#clip680)" d="M358.87 51.7074 Q355.259 51.7074 353.43 55.2722 Q351.624 58.8138 351.624 65.9434 Q351.624 73.0498 353.43 76.6146 Q355.259 80.1563 358.87 80.1563 Q362.504 80.1563 364.31 76.6146 Q366.138 73.0498 366.138 65.9434 Q366.138 58.8138 364.31 55.2722 Q362.504 51.7074 358.87 51.7074 M358.87 48.0037 Q364.68 48.0037 367.735 52.6101 Q370.814 57.1934 370.814 65.9434 Q370.814 74.6702 367.735 79.2767 Q364.68 83.86 358.87 83.86 Q353.06 83.86 349.981 79.2767 Q346.925 74.6702 346.925 65.9434 Q346.925 57.1934 349.981 52.6101 Q353.06 48.0037 358.87 48.0037 Z" fill="#000000" fill-rule="nonzero" fill-opacity="1" /><path clip-path="url(#clip680)" d="M59.3057 1606.43 L76.4063 1606.43 Q71.6321 1616.41 69.2883 1625.26 Q66.9446 1634.12 66.9446 1642.36 Q66.9446 1656.69 72.5001 1664.5 Q78.0556 1672.22 88.2986 1672.22 Q96.8923 1672.22 101.319 1667.1 Q105.66 1661.89 108.351 1647.49 L110.521 1636.89 Q114.253 1617.28 123.715 1607.99 Q133.09 1598.61 148.889 1598.61 Q167.725 1598.61 177.447 1611.29 Q187.17 1623.87 187.17 1648.27 Q187.17 1657.47 185.086 1667.88 Q183.003 1678.21 178.923 1689.33 L160.868 1689.33 Q166.857 1678.65 169.895 1668.41 Q172.934 1658.16 172.934 1648.27 Q172.934 1633.25 167.031 1625.09 Q161.128 1616.93 150.191 1616.93 Q140.642 1616.93 135.26 1622.83 Q129.878 1628.65 127.187 1642.02 L125.104 1652.69 Q121.198 1672.31 112.864 1681.08 Q104.531 1689.85 89.6875 1689.85 Q72.5001 1689.85 62.6043 1677.78 Q52.7085 1665.63 52.7085 1644.36 Q52.7085 1635.25 54.3578 1625.78 Q56.0071 1616.32 59.3057 1606.43 Z" fill="#000000" fill-rule="nonzero" fill-opacity="1" /><path clip-path="url(#clip680)" d="M87.4306 1571.96 L87.4306 1555.99 L184.652 1555.99 L184.652 1571.96 L87.4306 1571.96 M49.5836 1571.96 L49.5836 1555.99 L69.8091 1555.99 L69.8091 1571.96 L49.5836 1571.96 Z" fill="#000000" fill-rule="nonzero" fill-opacity="1" /><path clip-path="url(#clip680)" d="M59.8266 1506.77 L87.4306 1506.77 L87.4306 1473.87 L99.8437 1473.87 L99.8437 1506.77 L152.621 1506.77 Q164.514 1506.77 167.899 1503.56 Q171.284 1500.26 171.284 1490.28 L171.284 1473.87 L184.652 1473.87 L184.652 1490.28 Q184.652 1508.77 177.795 1515.8 Q170.85 1522.83 152.621 1522.83 L99.8437 1522.83 L99.8437 1534.55 L87.4306 1534.55 L87.4306 1522.83 L59.8266 1522.83 L59.8266 1506.77 Z" fill="#000000" fill-rule="nonzero" fill-opacity="1" /><path clip-path="url(#clip680)" d="M132.048 1369.71 L139.861 1369.71 L139.861 1443.15 Q156.354 1442.1 165.034 1433.25 Q173.628 1424.31 173.628 1408.42 Q173.628 1399.22 171.371 1390.63 Q169.114 1381.95 164.6 1373.44 L179.704 1373.44 Q183.35 1382.04 185.26 1391.06 Q187.17 1400.09 187.17 1409.38 Q187.17 1432.64 173.628 1446.27 Q160.086 1459.81 136.996 1459.81 Q113.125 1459.81 99.1493 1446.97 Q85.0868 1434.03 85.0868 1412.16 Q85.0868 1392.54 97.7604 1381.17 Q110.347 1369.71 132.048 1369.71 M127.361 1385.68 Q114.253 1385.85 106.441 1393.06 Q98.6284 1400.18 98.6284 1411.98 Q98.6284 1425.35 106.18 1433.42 Q113.733 1441.41 127.448 1442.63 L127.361 1385.68 Z" fill="#000000" fill-rule="nonzero" fill-opacity="1" /><path clip-path="url(#clip680)" d="M66.9446 1233.69 Q66.9446 1252.78 81.1806 1264.07 Q95.4167 1275.26 119.982 1275.26 Q144.462 1275.26 158.698 1264.07 Q172.934 1252.78 172.934 1233.69 Q172.934 1214.59 158.698 1203.48 Q144.462 1192.28 119.982 1192.28 Q95.4167 1192.28 81.1806 1203.48 Q66.9446 1214.59 66.9446 1233.69 M52.7085 1233.69 Q52.7085 1206.43 71.0244 1190.11 Q89.2535 1173.79 119.982 1173.79 Q150.625 1173.79 168.941 1190.11 Q187.17 1206.43 187.17 1233.69 Q187.17 1261.03 168.941 1277.44 Q150.711 1293.75 119.982 1293.75 Q89.2535 1293.75 71.0244 1277.44 Q52.7085 1261.03 52.7085 1233.69 Z" fill="#000000" fill-rule="nonzero" fill-opacity="1" /><path clip-path="url(#clip680)" d="M91.1632 1077.09 L106.094 1077.09 Q102.361 1083.86 100.538 1090.72 Q98.6284 1097.49 98.6284 1104.43 Q98.6284 1119.97 108.524 1128.56 Q118.333 1137.16 136.128 1137.16 Q153.923 1137.16 163.819 1128.56 Q173.628 1119.97 173.628 1104.43 Q173.628 1097.49 171.805 1090.72 Q169.895 1083.86 166.163 1077.09 L180.92 1077.09 Q184.045 1083.77 185.607 1090.98 Q187.17 1098.1 187.17 1106.17 Q187.17 1128.13 173.368 1141.06 Q159.566 1154 136.128 1154 Q112.344 1154 98.7152 1140.98 Q85.0868 1127.87 85.0868 1105.13 Q85.0868 1097.75 86.6493 1090.72 Q88.125 1083.69 91.1632 1077.09 Z" fill="#000000" fill-rule="nonzero" fill-opacity="1" /><path clip-path="url(#clip680)" d="M91.1632 979.346 L106.094 979.346 Q102.361 986.117 100.538 992.975 Q98.6284 999.746 98.6284 1006.69 Q98.6284 1022.23 108.524 1030.82 Q118.333 1039.42 136.128 1039.42 Q153.923 1039.42 163.819 1030.82 Q173.628 1022.23 173.628 1006.69 Q173.628 999.746 171.805 992.975 Q169.895 986.117 166.163 979.346 L180.92 979.346 Q184.045 986.03 185.607 993.235 Q187.17 1000.35 187.17 1008.43 Q187.17 1030.39 173.368 1043.32 Q159.566 1056.26 136.128 1056.26 Q112.344 1056.26 98.7152 1043.23 Q85.0868 1030.13 85.0868 1007.38 Q85.0868 1000.01 86.6493 992.975 Q88.125 985.944 91.1632 979.346 Z" fill="#000000" fill-rule="nonzero" fill-opacity="1" /><path clip-path="url(#clip680)" d="M146.284 953.218 L87.4306 953.218 L87.4306 937.246 L145.677 937.246 Q159.479 937.246 166.423 931.864 Q173.281 926.482 173.281 915.718 Q173.281 902.784 165.034 895.319 Q156.788 887.767 142.552 887.767 L87.4306 887.767 L87.4306 871.795 L184.652 871.795 L184.652 887.767 L169.722 887.767 Q178.576 893.583 182.916 901.309 Q187.17 908.947 187.17 919.104 Q187.17 935.857 176.753 944.538 Q166.336 953.218 146.284 953.218 M85.0868 913.027 L85.0868 913.027 Z" fill="#000000" fill-rule="nonzero" fill-opacity="1" /><path clip-path="url(#clip680)" d="M170.069 823.444 L221.631 823.444 L221.631 839.503 L87.4306 839.503 L87.4306 823.444 L102.187 823.444 Q93.5069 818.41 89.3403 810.771 Q85.0868 803.045 85.0868 792.368 Q85.0868 774.66 99.1493 763.636 Q113.212 752.525 136.128 752.525 Q159.045 752.525 173.107 763.636 Q187.17 774.66 187.17 792.368 Q187.17 803.045 183.003 810.771 Q178.75 818.41 170.069 823.444 M136.128 769.104 Q118.507 769.104 108.524 776.396 Q98.4548 783.601 98.4548 796.274 Q98.4548 808.948 108.524 816.24 Q118.507 823.444 136.128 823.444 Q153.75 823.444 163.819 816.24 Q173.802 808.948 173.802 796.274 Q173.802 783.601 163.819 776.396 Q153.75 769.104 136.128 769.104 Z" fill="#000000" fill-rule="nonzero" fill-opacity="1" /><path clip-path="url(#clip680)" d="M135.781 681.865 Q135.781 701.223 140.208 708.688 Q144.635 716.153 155.312 716.153 Q163.819 716.153 168.854 710.598 Q173.802 704.956 173.802 695.32 Q173.802 682.039 164.427 674.053 Q154.965 665.98 139.34 665.98 L135.781 665.98 L135.781 681.865 M129.184 650.008 L184.652 650.008 L184.652 665.98 L169.895 665.98 Q178.75 671.449 183.003 679.608 Q187.17 687.768 187.17 699.574 Q187.17 714.504 178.836 723.358 Q170.416 732.125 156.354 732.125 Q139.948 732.125 131.614 721.188 Q123.281 710.164 123.281 688.376 L123.281 665.98 L121.719 665.98 Q110.694 665.98 104.705 673.272 Q98.6284 680.476 98.6284 693.584 Q98.6284 701.917 100.625 709.817 Q102.621 717.716 106.615 725.007 L91.8576 725.007 Q88.4722 716.24 86.8229 707.994 Q85.0868 699.747 85.0868 691.935 Q85.0868 670.841 96.0243 660.424 Q106.962 650.008 129.184 650.008 Z" fill="#000000" fill-rule="nonzero" fill-opacity="1" /><path clip-path="url(#clip680)" d="M59.8266 601.31 L87.4306 601.31 L87.4306 568.411 L99.8437 568.411 L99.8437 601.31 L152.621 601.31 Q164.514 601.31 167.899 598.098 Q171.284 594.8 171.284 584.817 L171.284 568.411 L184.652 568.411 L184.652 584.817 Q184.652 603.307 177.795 610.338 Q170.85 617.369 152.621 617.369 L99.8437 617.369 L99.8437 629.088 L87.4306 629.088 L87.4306 617.369 L59.8266 617.369 L59.8266 601.31 Z" fill="#000000" fill-rule="nonzero" fill-opacity="1" /><path clip-path="url(#clip680)" d="M87.4306 547.404 L87.4306 531.432 L184.652 531.432 L184.652 547.404 L87.4306 547.404 M49.5836 547.404 L49.5836 531.432 L69.8091 531.432 L69.8091 547.404 L49.5836 547.404 Z" fill="#000000" fill-rule="nonzero" fill-opacity="1" /><path clip-path="url(#clip680)" d="M98.6284 460.339 Q98.6284 473.186 108.698 480.651 Q118.68 488.116 136.128 488.116 Q153.576 488.116 163.645 480.738 Q173.628 473.273 173.628 460.339 Q173.628 447.578 163.559 440.113 Q153.489 432.648 136.128 432.648 Q118.854 432.648 108.785 440.113 Q98.6284 447.578 98.6284 460.339 M85.0868 460.339 Q85.0868 439.506 98.6284 427.613 Q112.17 415.721 136.128 415.721 Q160 415.721 173.628 427.613 Q187.17 439.506 187.17 460.339 Q187.17 481.259 173.628 493.151 Q160 504.957 136.128 504.957 Q112.17 504.957 98.6284 493.151 Q85.0868 481.259 85.0868 460.339 Z" fill="#000000" fill-rule="nonzero" fill-opacity="1" /><path clip-path="url(#clip680)" d="M125.972 308.43 L184.652 308.43 L184.652 324.402 L126.493 324.402 Q112.691 324.402 105.833 329.784 Q98.9757 335.166 98.9757 345.93 Q98.9757 358.864 107.222 366.329 Q115.469 373.794 129.705 373.794 L184.652 373.794 L184.652 389.853 L87.4306 389.853 L87.4306 373.794 L102.535 373.794 Q93.7674 368.065 89.4271 360.339 Q85.0868 352.527 85.0868 342.371 Q85.0868 325.617 95.5035 317.024 Q105.833 308.43 125.972 308.43 Z" fill="#000000" fill-rule="nonzero" fill-opacity="1" /><polyline clip-path="url(#clip682)" style="stroke:#009af9; stroke-linecap:round; stroke-linejoin:round; stroke-width:20; stroke-opacity:1; fill:none" points="418.814,65.9087 432.484,65.9087 446.154,65.9087 459.823,65.9087 473.493,65.9087 487.163,65.9087 500.832,65.9087 514.502,65.9087 528.172,65.9087 541.842,65.9087 555.511,65.9087 569.181,65.9087 582.851,65.9087 596.52,65.9087 610.19,65.9087 623.86,65.9087 637.529,65.9087 651.199,65.9087 664.869,65.9087 678.539,65.9087 692.208,65.9087 705.878,65.9087 719.548,65.9087 733.217,65.9087 746.887,65.9087 760.557,65.9087 774.227,65.9087 787.896,65.9087 801.566,65.9087 815.236,65.9087 828.905,65.9087 842.575,65.9087 856.245,65.9087 869.915,65.9087 883.584,65.9087 897.254,65.9087 910.924,65.9087 924.593,65.9087 938.263,65.9087 951.933,65.9087 965.603,65.9087 979.272,65.9087 992.942,65.9087 1006.61,65.9087 1020.28,65.9087 1033.95,65.9087 1047.62,65.9087 1061.29,65.9087 1074.96,65.9087 1088.63,65.9087 1102.3,65.9087 1115.97,65.9087 1129.64,65.9087 1143.31,65.9087 1156.98,65.9087 1170.65,65.9087 1184.32,65.9087 1197.99,65.9087 1211.66,65.9087 1225.33,65.9087 1239,65.9087 1252.67,65.9087 1266.34,65.9087 1280.01,65.909 1293.68,65.91 1307.35,65.9144 1321.01,65.9313 1334.68,65.9907 1348.35,66.1839 1362.02,66.7576 1375.69,68.3073 1389.36,72.0923 1403.03,80.3918 1416.7,96.5836 1430.37,124.362 1444.04,165.562 1457.71,216.915 1471.38,267.675 1485.05,301.149 1498.72,301.823 1512.39,265.498 1526.06,205.502 1539.73,148.157 1553.4,117.504 1567.07,119.166 1580.74,137.182 1594.41,148.393 1608.08,142.335 1621.75,127.755 1635.42,119.867 1649.09,123.366 1662.76,130.337 1676.43,132.747 1690.1,132.721 1703.77,139.019 1717.44,153.647 1731.11,171.931 1744.78,202.548 1758.45,269.251 1772.12,419.04 1785.79,820.298 1799.45,1505.13 1813.12,1714.83 1826.79,1790.43 1840.46,1824.87 1854.13,1842.77 1867.8,1855.53 1881.47,1865.74 1895.14,1871.52 1908.81,1872.83 1922.48,1872.47 1936.15,1873.68 1949.82,1877.5 1963.49,1881.71 1977.16,1882.74 1990.83,1878.7 2004.5,1871.11 2018.17,1864.04 2031.84,1861.59 2045.51,1865.74 2059.18,1875.71 2072.85,1888.85 2086.52,1902.11 2100.19,1913.3 2113.86,1921.45 2127.53,1926.68 2141.2,1929.67 2154.87,1931.2 2168.54,1931.9 2182.21,1932.2 2195.88,1932.31 2209.55,1932.35 2223.22,1932.36 2236.89,1932.37 2250.56,1932.37 2264.22,1932.37 2277.89,1932.37 2291.56,1932.37 2305.23,1932.37 2318.9,1932.37 2332.57,1932.37 2346.24,1932.37 2359.91,1932.37 2373.58,1932.37 2387.25,1932.37 2400.92,1932.37 2414.59,1932.37 2428.26,1932.37 2441.93,1932.37 2455.6,1932.37 2469.27,1932.37 2482.94,1932.37 2496.61,1932.37 2510.28,1932.37 2523.95,1932.37 2537.62,1932.37 2551.29,1932.37 2564.96,1932.37 2578.63,1932.37 2592.3,1932.37 2605.97,1932.37 2619.64,1932.37 2633.31,1932.37 2646.98,1932.37 2660.65,1932.37 2674.32,1932.37 2687.99,1932.37 2701.66,1932.37 2715.33,1932.37 2728.99,1932.37 2742.66,1932.37 2756.33,1932.37 2770,1932.37 2783.67,1932.37 2797.34,1932.37 2811.01,1932.37 2824.68,1932.37 2838.35,1932.37 2852.02,1932.37 2865.69,1932.37 2879.36,1932.37 2893.03,1932.37 2906.7,1932.37 2920.37,1932.37 2934.04,1932.37 2947.71,1932.37 2961.38,1932.37 2975.05,1932.37 2988.72,1932.37 3002.39,1932.37 3016.06,1932.37 3029.73,1932.37 3043.4,1932.37 3057.07,1932.37 3070.74,1932.37 3084.41,1932.37 3098.08,1932.37 3111.75,1932.37 3125.42,1932.37 3139.09,1932.37 3152.76,1932.37 "/>
<polyline clip-path="url(#clip682)" style="stroke:#000000; stroke-linecap:round; stroke-linejoin:round; stroke-width:8; stroke-opacity:1; fill:none" stroke-dasharray="32, 20" points="1785.79,3854.82 1785.79,-1856.54 "/>
<polyline clip-path="url(#clip682)" style="stroke:#000000; stroke-linecap:round; stroke-linejoin:round; stroke-width:16; stroke-opacity:1; fill:none" points="-2315.13,1951.03 5886.7,1951.03 "/>
<polyline clip-path="url(#clip682)" style="stroke:#000000; stroke-linecap:round; stroke-linejoin:round; stroke-width:16; stroke-opacity:1; fill:none" points="418.814,3854.82 418.814,-1856.54 "/>
</svg>
