<?xml version="1.0" encoding="utf-8"?>
<svg xmlns="http://www.w3.org/2000/svg" xmlns:xlink="http://www.w3.org/1999/xlink" width="1400" height="600" viewBox="0 0 5600 2400">
<defs>
  <clipPath id="clip170">
    <rect x="0" y="0" width="5600" height="2400"/>
  </clipPath>
</defs>
<path clip-path="url(#clip170)" d="M0 2400 L5600 2400 L5600 0 L0 0  Z" fill="#ffffff" fill-rule="evenodd" fill-opacity="1"/>
<defs>
  <clipPath id="clip171">
    <rect x="1120" y="0" width="3921" height="2400"/>
  </clipPath>
</defs>
<path clip-path="url(#clip170)" d="M501.461 2077.77 L5552.76 2077.77 L5552.76 47.2441 L501.461 47.2441  Z" fill="#ffffff" fill-rule="evenodd" fill-opacity="1"/>
<defs>
  <clipPath id="clip172">
    <rect x="501" y="47" width="5052" height="2032"/>
  </clipPath>
</defs>
<polyline clip-path="url(#clip172)" style="stroke:#000000; stroke-linecap:round; stroke-linejoin:round; stroke-width:2; stroke-opacity:0.1; fill:none" points="501.461,2077.77 501.461,47.2441 "/>
<polyline clip-path="url(#clip172)" style="stroke:#000000; stroke-linecap:round; stroke-linejoin:round; stroke-width:2; stroke-opacity:0.1; fill:none" points="2185.23,2077.77 2185.23,47.2441 "/>
<polyline clip-path="url(#clip172)" style="stroke:#000000; stroke-linecap:round; stroke-linejoin:round; stroke-width:2; stroke-opacity:0.1; fill:none" points="3868.99,2077.77 3868.99,47.2441 "/>
<polyline clip-path="url(#clip172)" style="stroke:#000000; stroke-linecap:round; stroke-linejoin:round; stroke-width:2; stroke-opacity:0.1; fill:none" points="5552.76,2077.77 5552.76,47.2441 "/>
<polyline clip-path="url(#clip172)" style="stroke:#000000; stroke-linecap:round; stroke-linejoin:round; stroke-width:2; stroke-opacity:0.1; fill:none" points="501.461,2077.77 5552.76,2077.77 "/>
<polyline clip-path="url(#clip172)" style="stroke:#000000; stroke-linecap:round; stroke-linejoin:round; stroke-width:2; stroke-opacity:0.1; fill:none" points="501.461,1787.69 5552.76,1787.69 "/>
<polyline clip-path="url(#clip172)" style="stroke:#000000; stroke-linecap:round; stroke-linejoin:round; stroke-width:2; stroke-opacity:0.1; fill:none" points="501.461,1497.62 5552.76,1497.62 "/>
<polyline clip-path="url(#clip172)" style="stroke:#000000; stroke-linecap:round; stroke-linejoin:round; stroke-width:2; stroke-opacity:0.1; fill:none" points="501.461,1207.54 5552.76,1207.54 "/>
<polyline clip-path="url(#clip172)" style="stroke:#000000; stroke-linecap:round; stroke-linejoin:round; stroke-width:2; stroke-opacity:0.1; fill:none" points="501.461,917.468 5552.76,917.468 "/>
<polyline clip-path="url(#clip172)" style="stroke:#000000; stroke-linecap:round; stroke-linejoin:round; stroke-width:2; stroke-opacity:0.1; fill:none" points="501.461,627.394 5552.76,627.394 "/>
<polyline clip-path="url(#clip172)" style="stroke:#000000; stroke-linecap:round; stroke-linejoin:round; stroke-width:2; stroke-opacity:0.1; fill:none" points="501.461,337.319 5552.76,337.319 "/>
<polyline clip-path="url(#clip172)" style="stroke:#000000; stroke-linecap:round; stroke-linejoin:round; stroke-width:2; stroke-opacity:0.1; fill:none" points="501.461,47.2441 5552.76,47.2441 "/>
<polyline clip-path="url(#clip170)" style="stroke:#000000; stroke-linecap:round; stroke-linejoin:round; stroke-width:4; stroke-opacity:1; fill:none" points="501.461,2077.77 5552.76,2077.77 "/>
<polyline clip-path="url(#clip170)" style="stroke:#000000; stroke-linecap:round; stroke-linejoin:round; stroke-width:4; stroke-opacity:1; fill:none" points="501.461,2077.77 501.461,2058.87 "/>
<polyline clip-path="url(#clip170)" style="stroke:#000000; stroke-linecap:round; stroke-linejoin:round; stroke-width:4; stroke-opacity:1; fill:none" points="2185.23,2077.77 2185.23,2058.87 "/>
<polyline clip-path="url(#clip170)" style="stroke:#000000; stroke-linecap:round; stroke-linejoin:round; stroke-width:4; stroke-opacity:1; fill:none" points="3868.99,2077.77 3868.99,2058.87 "/>
<polyline clip-path="url(#clip170)" style="stroke:#000000; stroke-linecap:round; stroke-linejoin:round; stroke-width:4; stroke-opacity:1; fill:none" points="5552.76,2077.77 5552.76,2058.87 "/>
<path clip-path="url(#clip170)" d="M501.461 2134.29 Q497.849 2134.29 496.021 2137.85 Q494.215 2141.39 494.215 2148.52 Q494.215 2155.63 496.021 2159.19 Q497.849 2162.74 501.461 2162.74 Q505.095 2162.74 506.9 2159.19 Q508.729 2155.63 508.729 2148.52 Q508.729 2141.39 506.9 2137.85 Q505.095 2134.29 501.461 2134.29 M501.461 2130.58 Q507.271 2130.58 510.326 2135.19 Q513.405 2139.77 513.405 2148.52 Q513.405 2157.25 510.326 2161.86 Q507.271 2166.44 501.461 2166.44 Q495.65 2166.44 492.572 2161.86 Q489.516 2157.25 489.516 2148.52 Q489.516 2139.77 492.572 2135.19 Q495.65 2130.58 501.461 2130.58 Z" fill="#000000" fill-rule="nonzero" fill-opacity="1" /><path clip-path="url(#clip170)" d="M2159.91 2161.83 L2167.55 2161.83 L2167.55 2135.47 L2159.24 2137.13 L2159.24 2132.87 L2167.51 2131.21 L2172.18 2131.21 L2172.18 2161.83 L2179.82 2161.83 L2179.82 2165.77 L2159.91 2165.77 L2159.91 2161.83 Z" fill="#000000" fill-rule="nonzero" fill-opacity="1" /><path clip-path="url(#clip170)" d="M2199.26 2134.29 Q2195.65 2134.29 2193.83 2137.85 Q2192.02 2141.39 2192.02 2148.52 Q2192.02 2155.63 2193.83 2159.19 Q2195.65 2162.74 2199.26 2162.74 Q2202.9 2162.74 2204.7 2159.19 Q2206.53 2155.63 2206.53 2148.52 Q2206.53 2141.39 2204.7 2137.85 Q2202.9 2134.29 2199.26 2134.29 M2199.26 2130.58 Q2205.08 2130.58 2208.13 2135.19 Q2211.21 2139.77 2211.21 2148.52 Q2211.21 2157.25 2208.13 2161.86 Q2205.08 2166.44 2199.26 2166.44 Q2193.45 2166.44 2190.38 2161.86 Q2187.32 2157.25 2187.32 2148.52 Q2187.32 2139.77 2190.38 2135.19 Q2193.45 2130.58 2199.26 2130.58 Z" fill="#000000" fill-rule="nonzero" fill-opacity="1" /><path clip-path="url(#clip170)" d="M3847.76 2161.83 L3864.08 2161.83 L3864.08 2165.77 L3842.14 2165.77 L3842.14 2161.83 Q3844.8 2159.08 3849.38 2154.45 Q3853.99 2149.8 3855.17 2148.45 Q3857.42 2145.93 3858.3 2144.19 Q3859.2 2142.43 3859.2 2140.74 Q3859.2 2137.99 3857.25 2136.25 Q3855.33 2134.52 3852.23 2134.52 Q3850.03 2134.52 3847.58 2135.28 Q3845.15 2136.05 3842.37 2137.6 L3842.37 2132.87 Q3845.19 2131.74 3847.65 2131.16 Q3850.1 2130.58 3852.14 2130.58 Q3857.51 2130.58 3860.7 2133.27 Q3863.9 2135.95 3863.9 2140.44 Q3863.9 2142.57 3863.09 2144.49 Q3862.3 2146.39 3860.19 2148.99 Q3859.62 2149.66 3856.51 2152.87 Q3853.41 2156.07 3847.76 2161.83 Z" fill="#000000" fill-rule="nonzero" fill-opacity="1" /><path clip-path="url(#clip170)" d="M3883.9 2134.29 Q3880.29 2134.29 3878.46 2137.85 Q3876.65 2141.39 3876.65 2148.52 Q3876.65 2155.63 3878.46 2159.19 Q3880.29 2162.74 3883.9 2162.74 Q3887.53 2162.74 3889.34 2159.19 Q3891.17 2155.63 3891.17 2148.52 Q3891.17 2141.39 3889.34 2137.85 Q3887.53 2134.29 3883.9 2134.29 M3883.9 2130.58 Q3889.71 2130.58 3892.76 2135.19 Q3895.84 2139.77 3895.84 2148.52 Q3895.84 2157.25 3892.76 2161.86 Q3889.71 2166.44 3883.9 2166.44 Q3878.09 2166.44 3875.01 2161.86 Q3871.95 2157.25 3871.95 2148.52 Q3871.95 2139.77 3875.01 2135.19 Q3878.09 2130.58 3883.9 2130.58 Z" fill="#000000" fill-rule="nonzero" fill-opacity="1" /><path clip-path="url(#clip170)" d="M5541.6 2147.13 Q5544.96 2147.85 5546.83 2150.12 Q5548.73 2152.39 5548.73 2155.72 Q5548.73 2160.84 5545.21 2163.64 Q5541.69 2166.44 5535.21 2166.44 Q5533.03 2166.44 5530.72 2166 Q5528.43 2165.58 5525.97 2164.73 L5525.97 2160.21 Q5527.92 2161.35 5530.23 2161.92 Q5532.55 2162.5 5535.07 2162.5 Q5539.47 2162.5 5541.76 2160.77 Q5544.08 2159.03 5544.08 2155.72 Q5544.08 2152.67 5541.92 2150.95 Q5539.79 2149.22 5535.97 2149.22 L5531.95 2149.22 L5531.95 2145.37 L5536.16 2145.37 Q5539.61 2145.37 5541.44 2144.01 Q5543.27 2142.62 5543.27 2140.03 Q5543.27 2137.36 5541.37 2135.95 Q5539.49 2134.52 5535.97 2134.52 Q5534.05 2134.52 5531.85 2134.93 Q5529.65 2135.35 5527.02 2136.23 L5527.02 2132.06 Q5529.68 2131.32 5531.99 2130.95 Q5534.33 2130.58 5536.39 2130.58 Q5541.71 2130.58 5544.82 2133.01 Q5547.92 2135.42 5547.92 2139.54 Q5547.92 2142.41 5546.27 2144.4 Q5544.63 2146.37 5541.6 2147.13 Z" fill="#000000" fill-rule="nonzero" fill-opacity="1" /><path clip-path="url(#clip170)" d="M5567.59 2134.29 Q5563.98 2134.29 5562.15 2137.85 Q5560.35 2141.39 5560.35 2148.52 Q5560.35 2155.63 5562.15 2159.19 Q5563.98 2162.74 5567.59 2162.74 Q5571.23 2162.74 5573.03 2159.19 Q5574.86 2155.63 5574.86 2148.52 Q5574.86 2141.39 5573.03 2137.85 Q5571.23 2134.29 5567.59 2134.29 M5567.59 2130.58 Q5573.4 2130.58 5576.46 2135.19 Q5579.54 2139.77 5579.54 2148.52 Q5579.54 2157.25 5576.46 2161.86 Q5573.4 2166.44 5567.59 2166.44 Q5561.78 2166.44 5558.7 2161.86 Q5555.65 2157.25 5555.65 2148.52 Q5555.65 2139.77 5558.7 2135.19 Q5561.78 2130.58 5567.59 2130.58 Z" fill="#000000" fill-rule="nonzero" fill-opacity="1" /><path clip-path="url(#clip170)" d="M2798.47 2208.74 L2871.56 2208.74 L2871.56 2218.58 L2840.89 2218.58 L2840.89 2295.14 L2829.15 2295.14 L2829.15 2218.58 L2798.47 2218.58 L2798.47 2208.74 Z" fill="#000000" fill-rule="nonzero" fill-opacity="1" /><path clip-path="url(#clip170)" d="M2878.74 2230.33 L2889.39 2230.33 L2889.39 2295.14 L2878.74 2295.14 L2878.74 2230.33 M2878.74 2205.1 L2889.39 2205.1 L2889.39 2218.58 L2878.74 2218.58 L2878.74 2205.1 Z" fill="#000000" fill-rule="nonzero" fill-opacity="1" /><path clip-path="url(#clip170)" d="M2962.13 2242.77 Q2966.12 2235.59 2971.68 2232.18 Q2977.23 2228.77 2984.76 2228.77 Q2994.89 2228.77 3000.38 2235.88 Q3005.88 2242.94 3005.88 2256.02 L3005.88 2295.14 L2995.17 2295.14 L2995.17 2256.37 Q2995.17 2247.05 2991.88 2242.54 Q2988.58 2238.03 2981.81 2238.03 Q2973.53 2238.03 2968.73 2243.52 Q2963.92 2249.02 2963.92 2258.51 L2963.92 2295.14 L2953.22 2295.14 L2953.22 2256.37 Q2953.22 2246.99 2949.92 2242.54 Q2946.62 2238.03 2939.73 2238.03 Q2931.58 2238.03 2926.77 2243.58 Q2921.97 2249.08 2921.97 2258.51 L2921.97 2295.14 L2911.26 2295.14 L2911.26 2230.33 L2921.97 2230.33 L2921.97 2240.4 Q2925.61 2234.44 2930.71 2231.6 Q2935.8 2228.77 2942.8 2228.77 Q2949.86 2228.77 2954.78 2232.35 Q2959.76 2235.94 2962.13 2242.77 Z" fill="#000000" fill-rule="nonzero" fill-opacity="1" /><path clip-path="url(#clip170)" d="M3082.56 2260.07 L3082.56 2265.28 L3033.6 2265.28 Q3034.29 2276.28 3040.2 2282.06 Q3046.16 2287.79 3056.75 2287.79 Q3062.88 2287.79 3068.61 2286.29 Q3074.4 2284.78 3080.07 2281.77 L3080.07 2291.84 Q3074.34 2294.27 3068.32 2295.55 Q3062.3 2296.82 3056.11 2296.82 Q3040.6 2296.82 3031.52 2287.79 Q3022.49 2278.77 3022.49 2263.37 Q3022.49 2247.46 3031.05 2238.14 Q3039.68 2228.77 3054.26 2228.77 Q3067.34 2228.77 3074.92 2237.21 Q3082.56 2245.61 3082.56 2260.07 M3071.91 2256.95 Q3071.79 2248.21 3066.99 2243 Q3062.25 2237.79 3054.38 2237.79 Q3045.46 2237.79 3040.08 2242.83 Q3034.76 2247.86 3033.95 2257.01 L3071.91 2256.95 Z" fill="#000000" fill-rule="nonzero" fill-opacity="1" /><path clip-path="url(#clip170)" d="M3126.54 2265.16 Q3126.54 2244.9 3134.09 2228.56 Q3137.31 2221.71 3141.82 2215.98 Q3146.33 2210.24 3149.32 2207.72 Q3152.3 2205.2 3153.12 2205.2 Q3154.3 2205.2 3154.35 2206.37 Q3154.35 2206.96 3152.77 2208.42 Q3133.45 2228.1 3133.51 2265.16 Q3133.51 2302.35 3152.3 2321.26 Q3154.35 2323.31 3154.35 2323.95 Q3154.35 2325.12 3153.12 2325.12 Q3152.3 2325.12 3149.43 2322.72 Q3146.57 2320.32 3142.12 2314.82 Q3137.67 2309.31 3134.44 2302.58 Q3126.54 2286.24 3126.54 2265.16 Z" fill="#000000" fill-rule="nonzero" fill-opacity="1" /><path clip-path="url(#clip170)" d="M3200.3 2244.78 Q3200.3 2246.42 3199.54 2246.83 Q3198.78 2247.19 3196.67 2247.19 L3185.43 2247.19 L3176.53 2282.55 Q3175.83 2285.66 3175.83 2288.29 Q3175.83 2291.22 3176.7 2292.51 Q3177.64 2293.8 3179.57 2293.8 Q3183.38 2293.8 3187.48 2290.34 Q3191.64 2286.89 3195.15 2278.45 Q3195.62 2277.34 3195.85 2277.11 Q3196.14 2276.81 3196.91 2276.81 Q3198.37 2276.81 3198.37 2277.99 Q3198.37 2278.4 3197.55 2280.27 Q3196.79 2282.14 3195.09 2284.9 Q3193.45 2287.65 3191.28 2290.22 Q3189.18 2292.8 3185.96 2294.67 Q3182.74 2296.49 3179.28 2296.49 Q3174.42 2296.49 3171.32 2293.39 Q3168.27 2290.28 3168.27 2285.42 Q3168.27 2283.84 3169.5 2278.81 Q3170.73 2273.71 3177.41 2247.19 L3166.81 2247.19 Q3165.34 2247.19 3164.76 2247.13 Q3164.23 2247.07 3163.82 2246.78 Q3163.47 2246.42 3163.47 2245.72 Q3163.47 2244.61 3163.94 2244.14 Q3164.41 2243.61 3164.99 2243.55 Q3165.64 2243.44 3167.1 2243.44 L3178.34 2243.44 L3183.03 2224.41 Q3183.5 2222.53 3184.67 2221.48 Q3185.9 2220.37 3186.6 2220.25 Q3187.3 2220.07 3187.83 2220.07 Q3189.41 2220.07 3190.35 2220.95 Q3191.28 2221.77 3191.28 2223.29 Q3191.28 2224.11 3186.37 2243.44 L3196.91 2243.44 Q3198.25 2243.44 3198.78 2243.5 Q3199.37 2243.55 3199.83 2243.85 Q3200.3 2244.14 3200.3 2244.78 Z" fill="#000000" fill-rule="nonzero" fill-opacity="1" /><path clip-path="url(#clip170)" d="M3209.69 2323.95 Q3209.69 2323.37 3211.21 2321.9 Q3230.54 2302.23 3230.54 2265.16 Q3230.54 2227.98 3211.98 2209.18 Q3209.69 2207.02 3209.69 2206.37 Q3209.69 2205.2 3210.86 2205.2 Q3211.68 2205.2 3214.55 2207.6 Q3217.48 2210 3221.87 2215.51 Q3226.32 2221.01 3229.6 2227.74 Q3237.51 2244.08 3237.51 2265.16 Q3237.51 2285.42 3229.95 2301.76 Q3226.73 2308.61 3222.22 2314.35 Q3217.71 2320.09 3214.73 2322.61 Q3211.74 2325.12 3210.86 2325.12 Q3209.69 2325.12 3209.69 2323.95 Z" fill="#000000" fill-rule="nonzero" fill-opacity="1" /><polyline clip-path="url(#clip170)" style="stroke:#000000; stroke-linecap:round; stroke-linejoin:round; stroke-width:4; stroke-opacity:1; fill:none" points="501.461,2077.77 501.461,47.2441 "/>
<polyline clip-path="url(#clip170)" style="stroke:#000000; stroke-linecap:round; stroke-linejoin:round; stroke-width:4; stroke-opacity:1; fill:none" points="501.461,2077.77 520.358,2077.77 "/>
<polyline clip-path="url(#clip170)" style="stroke:#000000; stroke-linecap:round; stroke-linejoin:round; stroke-width:4; stroke-opacity:1; fill:none" points="501.461,1787.69 520.358,1787.69 "/>
<polyline clip-path="url(#clip170)" style="stroke:#000000; stroke-linecap:round; stroke-linejoin:round; stroke-width:4; stroke-opacity:1; fill:none" points="501.461,1497.62 520.358,1497.62 "/>
<polyline clip-path="url(#clip170)" style="stroke:#000000; stroke-linecap:round; stroke-linejoin:round; stroke-width:4; stroke-opacity:1; fill:none" points="501.461,1207.54 520.358,1207.54 "/>
<polyline clip-path="url(#clip170)" style="stroke:#000000; stroke-linecap:round; stroke-linejoin:round; stroke-width:4; stroke-opacity:1; fill:none" points="501.461,917.468 520.358,917.468 "/>
<polyline clip-path="url(#clip170)" style="stroke:#000000; stroke-linecap:round; stroke-linejoin:round; stroke-width:4; stroke-opacity:1; fill:none" points="501.461,627.394 520.358,627.394 "/>
<polyline clip-path="url(#clip170)" style="stroke:#000000; stroke-linecap:round; stroke-linejoin:round; stroke-width:4; stroke-opacity:1; fill:none" points="501.461,337.319 520.358,337.319 "/>
<polyline clip-path="url(#clip170)" style="stroke:#000000; stroke-linecap:round; stroke-linejoin:round; stroke-width:4; stroke-opacity:1; fill:none" points="501.461,47.2441 520.358,47.2441 "/>
<path clip-path="url(#clip170)" d="M269.799 2063.57 Q266.188 2063.57 264.36 2067.13 Q262.554 2070.67 262.554 2077.8 Q262.554 2084.91 264.36 2088.47 Q266.188 2092.02 269.799 2092.02 Q273.434 2092.02 275.239 2088.47 Q277.068 2084.91 277.068 2077.8 Q277.068 2070.67 275.239 2067.13 Q273.434 2063.57 269.799 2063.57 M269.799 2059.86 Q275.609 2059.86 278.665 2064.47 Q281.744 2069.05 281.744 2077.8 Q281.744 2086.53 278.665 2091.14 Q275.609 2095.72 269.799 2095.72 Q263.989 2095.72 260.91 2091.14 Q257.855 2086.53 257.855 2077.8 Q257.855 2069.05 260.91 2064.47 Q263.989 2059.86 269.799 2059.86 Z" fill="#000000" fill-rule="nonzero" fill-opacity="1" /><path clip-path="url(#clip170)" d="M289.961 2089.17 L294.845 2089.17 L294.845 2095.05 L289.961 2095.05 L289.961 2089.17 Z" fill="#000000" fill-rule="nonzero" fill-opacity="1" /><path clip-path="url(#clip170)" d="M315.031 2063.57 Q311.419 2063.57 309.591 2067.13 Q307.785 2070.67 307.785 2077.8 Q307.785 2084.91 309.591 2088.47 Q311.419 2092.02 315.031 2092.02 Q318.665 2092.02 320.47 2088.47 Q322.299 2084.91 322.299 2077.8 Q322.299 2070.67 320.47 2067.13 Q318.665 2063.57 315.031 2063.57 M315.031 2059.86 Q320.841 2059.86 323.896 2064.47 Q326.975 2069.05 326.975 2077.8 Q326.975 2086.53 323.896 2091.14 Q320.841 2095.72 315.031 2095.72 Q309.22 2095.72 306.142 2091.14 Q303.086 2086.53 303.086 2077.8 Q303.086 2069.05 306.142 2064.47 Q309.22 2059.86 315.031 2059.86 Z" fill="#000000" fill-rule="nonzero" fill-opacity="1" /><path clip-path="url(#clip170)" d="M345.192 2063.57 Q341.581 2063.57 339.753 2067.13 Q337.947 2070.67 337.947 2077.8 Q337.947 2084.91 339.753 2088.47 Q341.581 2092.02 345.192 2092.02 Q348.827 2092.02 350.632 2088.47 Q352.461 2084.91 352.461 2077.8 Q352.461 2070.67 350.632 2067.13 Q348.827 2063.57 345.192 2063.57 M345.192 2059.86 Q351.003 2059.86 354.058 2064.47 Q357.137 2069.05 357.137 2077.8 Q357.137 2086.53 354.058 2091.14 Q351.003 2095.72 345.192 2095.72 Q339.382 2095.72 336.304 2091.14 Q333.248 2086.53 333.248 2077.8 Q333.248 2069.05 336.304 2064.47 Q339.382 2059.86 345.192 2059.86 Z" fill="#000000" fill-rule="nonzero" fill-opacity="1" /><path clip-path="url(#clip170)" d="M375.354 2063.57 Q371.743 2063.57 369.915 2067.13 Q368.109 2070.67 368.109 2077.8 Q368.109 2084.91 369.915 2088.47 Q371.743 2092.02 375.354 2092.02 Q378.989 2092.02 380.794 2088.47 Q382.623 2084.91 382.623 2077.8 Q382.623 2070.67 380.794 2067.13 Q378.989 2063.57 375.354 2063.57 M375.354 2059.86 Q381.164 2059.86 384.22 2064.47 Q387.299 2069.05 387.299 2077.8 Q387.299 2086.53 384.22 2091.14 Q381.164 2095.72 375.354 2095.72 Q369.544 2095.72 366.465 2091.14 Q363.41 2086.53 363.41 2077.8 Q363.41 2069.05 366.465 2064.47 Q369.544 2059.86 375.354 2059.86 Z" fill="#000000" fill-rule="nonzero" fill-opacity="1" /><path clip-path="url(#clip170)" d="M405.516 2063.57 Q401.905 2063.57 400.076 2067.13 Q398.271 2070.67 398.271 2077.8 Q398.271 2084.91 400.076 2088.47 Q401.905 2092.02 405.516 2092.02 Q409.15 2092.02 410.956 2088.47 Q412.785 2084.91 412.785 2077.8 Q412.785 2070.67 410.956 2067.13 Q409.15 2063.57 405.516 2063.57 M405.516 2059.86 Q411.326 2059.86 414.382 2064.47 Q417.461 2069.05 417.461 2077.8 Q417.461 2086.53 414.382 2091.14 Q411.326 2095.72 405.516 2095.72 Q399.706 2095.72 396.627 2091.14 Q393.572 2086.53 393.572 2077.8 Q393.572 2069.05 396.627 2064.47 Q399.706 2059.86 405.516 2059.86 Z" fill="#000000" fill-rule="nonzero" fill-opacity="1" /><path clip-path="url(#clip170)" d="M271.026 1773.49 Q267.415 1773.49 265.586 1777.06 Q263.781 1780.6 263.781 1787.73 Q263.781 1794.83 265.586 1798.4 Q267.415 1801.94 271.026 1801.94 Q274.66 1801.94 276.466 1798.4 Q278.295 1794.83 278.295 1787.73 Q278.295 1780.6 276.466 1777.06 Q274.66 1773.49 271.026 1773.49 M271.026 1769.79 Q276.836 1769.79 279.892 1774.39 Q282.971 1778.98 282.971 1787.73 Q282.971 1796.45 279.892 1801.06 Q276.836 1805.64 271.026 1805.64 Q265.216 1805.64 262.137 1801.06 Q259.082 1796.45 259.082 1787.73 Q259.082 1778.98 262.137 1774.39 Q265.216 1769.79 271.026 1769.79 Z" fill="#000000" fill-rule="nonzero" fill-opacity="1" /><path clip-path="url(#clip170)" d="M291.188 1799.09 L296.072 1799.09 L296.072 1804.97 L291.188 1804.97 L291.188 1799.09 Z" fill="#000000" fill-rule="nonzero" fill-opacity="1" /><path clip-path="url(#clip170)" d="M316.257 1773.49 Q312.646 1773.49 310.818 1777.06 Q309.012 1780.6 309.012 1787.73 Q309.012 1794.83 310.818 1798.4 Q312.646 1801.94 316.257 1801.94 Q319.892 1801.94 321.697 1798.4 Q323.526 1794.83 323.526 1787.73 Q323.526 1780.6 321.697 1777.06 Q319.892 1773.49 316.257 1773.49 M316.257 1769.79 Q322.068 1769.79 325.123 1774.39 Q328.202 1778.98 328.202 1787.73 Q328.202 1796.45 325.123 1801.06 Q322.068 1805.64 316.257 1805.64 Q310.447 1805.64 307.369 1801.06 Q304.313 1796.45 304.313 1787.73 Q304.313 1778.98 307.369 1774.39 Q310.447 1769.79 316.257 1769.79 Z" fill="#000000" fill-rule="nonzero" fill-opacity="1" /><path clip-path="url(#clip170)" d="M346.419 1773.49 Q342.808 1773.49 340.98 1777.06 Q339.174 1780.6 339.174 1787.73 Q339.174 1794.83 340.98 1798.4 Q342.808 1801.94 346.419 1801.94 Q350.054 1801.94 351.859 1798.4 Q353.688 1794.83 353.688 1787.73 Q353.688 1780.6 351.859 1777.06 Q350.054 1773.49 346.419 1773.49 M346.419 1769.79 Q352.229 1769.79 355.285 1774.39 Q358.364 1778.98 358.364 1787.73 Q358.364 1796.45 355.285 1801.06 Q352.229 1805.64 346.419 1805.64 Q340.609 1805.64 337.53 1801.06 Q334.475 1796.45 334.475 1787.73 Q334.475 1778.98 337.53 1774.39 Q340.609 1769.79 346.419 1769.79 Z" fill="#000000" fill-rule="nonzero" fill-opacity="1" /><path clip-path="url(#clip170)" d="M376.581 1773.49 Q372.97 1773.49 371.141 1777.06 Q369.336 1780.6 369.336 1787.73 Q369.336 1794.83 371.141 1798.4 Q372.97 1801.94 376.581 1801.94 Q380.215 1801.94 382.021 1798.4 Q383.85 1794.83 383.85 1787.73 Q383.85 1780.6 382.021 1777.06 Q380.215 1773.49 376.581 1773.49 M376.581 1769.79 Q382.391 1769.79 385.447 1774.39 Q388.526 1778.98 388.526 1787.73 Q388.526 1796.45 385.447 1801.06 Q382.391 1805.64 376.581 1805.64 Q370.771 1805.64 367.692 1801.06 Q364.637 1796.45 364.637 1787.73 Q364.637 1778.98 367.692 1774.39 Q370.771 1769.79 376.581 1769.79 Z" fill="#000000" fill-rule="nonzero" fill-opacity="1" /><path clip-path="url(#clip170)" d="M397.553 1801.04 L405.192 1801.04 L405.192 1774.67 L396.882 1776.34 L396.882 1772.08 L405.146 1770.41 L409.822 1770.41 L409.822 1801.04 L417.461 1801.04 L417.461 1804.97 L397.553 1804.97 L397.553 1801.04 Z" fill="#000000" fill-rule="nonzero" fill-opacity="1" /><path clip-path="url(#clip170)" d="M271.397 1483.42 Q267.785 1483.42 265.957 1486.98 Q264.151 1490.52 264.151 1497.65 Q264.151 1504.76 265.957 1508.32 Q267.785 1511.87 271.397 1511.87 Q275.031 1511.87 276.836 1508.32 Q278.665 1504.76 278.665 1497.65 Q278.665 1490.52 276.836 1486.98 Q275.031 1483.42 271.397 1483.42 M271.397 1479.71 Q277.207 1479.71 280.262 1484.32 Q283.341 1488.9 283.341 1497.65 Q283.341 1506.38 280.262 1510.99 Q277.207 1515.57 271.397 1515.57 Q265.586 1515.57 262.508 1510.99 Q259.452 1506.38 259.452 1497.65 Q259.452 1488.9 262.508 1484.32 Q265.586 1479.71 271.397 1479.71 Z" fill="#000000" fill-rule="nonzero" fill-opacity="1" /><path clip-path="url(#clip170)" d="M291.558 1509.02 L296.443 1509.02 L296.443 1514.9 L291.558 1514.9 L291.558 1509.02 Z" fill="#000000" fill-rule="nonzero" fill-opacity="1" /><path clip-path="url(#clip170)" d="M316.628 1483.42 Q313.017 1483.42 311.188 1486.98 Q309.382 1490.52 309.382 1497.65 Q309.382 1504.76 311.188 1508.32 Q313.017 1511.87 316.628 1511.87 Q320.262 1511.87 322.068 1508.32 Q323.896 1504.76 323.896 1497.65 Q323.896 1490.52 322.068 1486.98 Q320.262 1483.42 316.628 1483.42 M316.628 1479.71 Q322.438 1479.71 325.493 1484.32 Q328.572 1488.9 328.572 1497.65 Q328.572 1506.38 325.493 1510.99 Q322.438 1515.57 316.628 1515.57 Q310.818 1515.57 307.739 1510.99 Q304.683 1506.38 304.683 1497.65 Q304.683 1488.9 307.739 1484.32 Q310.818 1479.71 316.628 1479.71 Z" fill="#000000" fill-rule="nonzero" fill-opacity="1" /><path clip-path="url(#clip170)" d="M346.79 1483.42 Q343.179 1483.42 341.35 1486.98 Q339.544 1490.52 339.544 1497.65 Q339.544 1504.76 341.35 1508.32 Q343.179 1511.87 346.79 1511.87 Q350.424 1511.87 352.229 1508.32 Q354.058 1504.76 354.058 1497.65 Q354.058 1490.52 352.229 1486.98 Q350.424 1483.42 346.79 1483.42 M346.79 1479.71 Q352.6 1479.71 355.655 1484.32 Q358.734 1488.9 358.734 1497.65 Q358.734 1506.38 355.655 1510.99 Q352.6 1515.57 346.79 1515.57 Q340.98 1515.57 337.901 1510.99 Q334.845 1506.38 334.845 1497.65 Q334.845 1488.9 337.901 1484.32 Q340.98 1479.71 346.79 1479.71 Z" fill="#000000" fill-rule="nonzero" fill-opacity="1" /><path clip-path="url(#clip170)" d="M376.952 1483.42 Q373.34 1483.42 371.512 1486.98 Q369.706 1490.52 369.706 1497.65 Q369.706 1504.76 371.512 1508.32 Q373.34 1511.87 376.952 1511.87 Q380.586 1511.87 382.391 1508.32 Q384.22 1504.76 384.22 1497.65 Q384.22 1490.52 382.391 1486.98 Q380.586 1483.42 376.952 1483.42 M376.952 1479.71 Q382.762 1479.71 385.817 1484.32 Q388.896 1488.9 388.896 1497.65 Q388.896 1506.38 385.817 1510.99 Q382.762 1515.57 376.952 1515.57 Q371.141 1515.57 368.063 1510.99 Q365.007 1506.38 365.007 1497.65 Q365.007 1488.9 368.063 1484.32 Q371.141 1479.71 376.952 1479.71 Z" fill="#000000" fill-rule="nonzero" fill-opacity="1" /><path clip-path="url(#clip170)" d="M401.141 1510.96 L417.461 1510.96 L417.461 1514.9 L395.516 1514.9 L395.516 1510.96 Q398.178 1508.21 402.762 1503.58 Q407.368 1498.93 408.549 1497.58 Q410.794 1495.06 411.674 1493.32 Q412.576 1491.56 412.576 1489.87 Q412.576 1487.12 410.632 1485.38 Q408.711 1483.65 405.609 1483.65 Q403.41 1483.65 400.956 1484.41 Q398.525 1485.18 395.748 1486.73 L395.748 1482 Q398.572 1480.87 401.025 1480.29 Q403.479 1479.71 405.516 1479.71 Q410.887 1479.71 414.081 1482.4 Q417.275 1485.08 417.275 1489.57 Q417.275 1491.7 416.465 1493.62 Q415.678 1495.52 413.572 1498.12 Q412.993 1498.79 409.891 1502 Q406.789 1505.2 401.141 1510.96 Z" fill="#000000" fill-rule="nonzero" fill-opacity="1" /><path clip-path="url(#clip170)" d="M270.447 1193.34 Q266.836 1193.34 265.008 1196.91 Q263.202 1200.45 263.202 1207.58 Q263.202 1214.68 265.008 1218.25 Q266.836 1221.79 270.447 1221.79 Q274.082 1221.79 275.887 1218.25 Q277.716 1214.68 277.716 1207.58 Q277.716 1200.45 275.887 1196.91 Q274.082 1193.34 270.447 1193.34 M270.447 1189.64 Q276.258 1189.64 279.313 1194.24 Q282.392 1198.83 282.392 1207.58 Q282.392 1216.3 279.313 1220.91 Q276.258 1225.49 270.447 1225.49 Q264.637 1225.49 261.559 1220.91 Q258.503 1216.3 258.503 1207.58 Q258.503 1198.83 261.559 1194.24 Q264.637 1189.64 270.447 1189.64 Z" fill="#000000" fill-rule="nonzero" fill-opacity="1" /><path clip-path="url(#clip170)" d="M290.609 1218.94 L295.494 1218.94 L295.494 1224.82 L290.609 1224.82 L290.609 1218.94 Z" fill="#000000" fill-rule="nonzero" fill-opacity="1" /><path clip-path="url(#clip170)" d="M315.679 1193.34 Q312.068 1193.34 310.239 1196.91 Q308.433 1200.45 308.433 1207.58 Q308.433 1214.68 310.239 1218.25 Q312.068 1221.79 315.679 1221.79 Q319.313 1221.79 321.119 1218.25 Q322.947 1214.68 322.947 1207.58 Q322.947 1200.45 321.119 1196.91 Q319.313 1193.34 315.679 1193.34 M315.679 1189.64 Q321.489 1189.64 324.544 1194.24 Q327.623 1198.83 327.623 1207.58 Q327.623 1216.3 324.544 1220.91 Q321.489 1225.49 315.679 1225.49 Q309.869 1225.49 306.79 1220.91 Q303.734 1216.3 303.734 1207.58 Q303.734 1198.83 306.79 1194.24 Q309.869 1189.64 315.679 1189.64 Z" fill="#000000" fill-rule="nonzero" fill-opacity="1" /><path clip-path="url(#clip170)" d="M345.841 1193.34 Q342.23 1193.34 340.401 1196.91 Q338.595 1200.45 338.595 1207.58 Q338.595 1214.68 340.401 1218.25 Q342.23 1221.79 345.841 1221.79 Q349.475 1221.79 351.28 1218.25 Q353.109 1214.68 353.109 1207.58 Q353.109 1200.45 351.28 1196.91 Q349.475 1193.34 345.841 1193.34 M345.841 1189.64 Q351.651 1189.64 354.706 1194.24 Q357.785 1198.83 357.785 1207.58 Q357.785 1216.3 354.706 1220.91 Q351.651 1225.49 345.841 1225.49 Q340.03 1225.49 336.952 1220.91 Q333.896 1216.3 333.896 1207.58 Q333.896 1198.83 336.952 1194.24 Q340.03 1189.64 345.841 1189.64 Z" fill="#000000" fill-rule="nonzero" fill-opacity="1" /><path clip-path="url(#clip170)" d="M376.002 1193.34 Q372.391 1193.34 370.563 1196.91 Q368.757 1200.45 368.757 1207.58 Q368.757 1214.68 370.563 1218.25 Q372.391 1221.79 376.002 1221.79 Q379.637 1221.79 381.442 1218.25 Q383.271 1214.68 383.271 1207.58 Q383.271 1200.45 381.442 1196.91 Q379.637 1193.34 376.002 1193.34 M376.002 1189.64 Q381.813 1189.64 384.868 1194.24 Q387.947 1198.83 387.947 1207.58 Q387.947 1216.3 384.868 1220.91 Q381.813 1225.49 376.002 1225.49 Q370.192 1225.49 367.114 1220.91 Q364.058 1216.3 364.058 1207.58 Q364.058 1198.83 367.114 1194.24 Q370.192 1189.64 376.002 1189.64 Z" fill="#000000" fill-rule="nonzero" fill-opacity="1" /><path clip-path="url(#clip170)" d="M410.331 1206.19 Q413.687 1206.91 415.562 1209.18 Q417.461 1211.44 417.461 1214.78 Q417.461 1219.89 413.942 1222.69 Q410.424 1225.49 403.942 1225.49 Q401.766 1225.49 399.451 1225.05 Q397.16 1224.64 394.706 1223.78 L394.706 1219.27 Q396.651 1220.4 398.965 1220.98 Q401.28 1221.56 403.803 1221.56 Q408.201 1221.56 410.493 1219.82 Q412.808 1218.09 412.808 1214.78 Q412.808 1211.72 410.655 1210.01 Q408.525 1208.27 404.706 1208.27 L400.678 1208.27 L400.678 1204.43 L404.891 1204.43 Q408.34 1204.43 410.169 1203.06 Q411.998 1201.68 411.998 1199.08 Q411.998 1196.42 410.1 1195.01 Q408.225 1193.57 404.706 1193.57 Q402.785 1193.57 400.586 1193.99 Q398.387 1194.41 395.748 1195.29 L395.748 1191.12 Q398.41 1190.38 400.725 1190.01 Q403.063 1189.64 405.123 1189.64 Q410.447 1189.64 413.549 1192.07 Q416.65 1194.48 416.65 1198.6 Q416.65 1201.47 415.007 1203.46 Q413.363 1205.43 410.331 1206.19 Z" fill="#000000" fill-rule="nonzero" fill-opacity="1" /><path clip-path="url(#clip170)" d="M269.313 903.267 Q265.702 903.267 263.873 906.832 Q262.068 910.374 262.068 917.503 Q262.068 924.61 263.873 928.174 Q265.702 931.716 269.313 931.716 Q272.947 931.716 274.753 928.174 Q276.582 924.61 276.582 917.503 Q276.582 910.374 274.753 906.832 Q272.947 903.267 269.313 903.267 M269.313 899.563 Q275.123 899.563 278.179 904.17 Q281.258 908.753 281.258 917.503 Q281.258 926.23 278.179 930.836 Q275.123 935.42 269.313 935.42 Q263.503 935.42 260.424 930.836 Q257.369 926.23 257.369 917.503 Q257.369 908.753 260.424 904.17 Q263.503 899.563 269.313 899.563 Z" fill="#000000" fill-rule="nonzero" fill-opacity="1" /><path clip-path="url(#clip170)" d="M289.475 928.869 L294.359 928.869 L294.359 934.748 L289.475 934.748 L289.475 928.869 Z" fill="#000000" fill-rule="nonzero" fill-opacity="1" /><path clip-path="url(#clip170)" d="M314.544 903.267 Q310.933 903.267 309.105 906.832 Q307.299 910.374 307.299 917.503 Q307.299 924.61 309.105 928.174 Q310.933 931.716 314.544 931.716 Q318.179 931.716 319.984 928.174 Q321.813 924.61 321.813 917.503 Q321.813 910.374 319.984 906.832 Q318.179 903.267 314.544 903.267 M314.544 899.563 Q320.355 899.563 323.41 904.17 Q326.489 908.753 326.489 917.503 Q326.489 926.23 323.41 930.836 Q320.355 935.42 314.544 935.42 Q308.734 935.42 305.656 930.836 Q302.6 926.23 302.6 917.503 Q302.6 908.753 305.656 904.17 Q308.734 899.563 314.544 899.563 Z" fill="#000000" fill-rule="nonzero" fill-opacity="1" /><path clip-path="url(#clip170)" d="M344.706 903.267 Q341.095 903.267 339.267 906.832 Q337.461 910.374 337.461 917.503 Q337.461 924.61 339.267 928.174 Q341.095 931.716 344.706 931.716 Q348.341 931.716 350.146 928.174 Q351.975 924.61 351.975 917.503 Q351.975 910.374 350.146 906.832 Q348.341 903.267 344.706 903.267 M344.706 899.563 Q350.516 899.563 353.572 904.17 Q356.651 908.753 356.651 917.503 Q356.651 926.23 353.572 930.836 Q350.516 935.42 344.706 935.42 Q338.896 935.42 335.818 930.836 Q332.762 926.23 332.762 917.503 Q332.762 908.753 335.818 904.17 Q338.896 899.563 344.706 899.563 Z" fill="#000000" fill-rule="nonzero" fill-opacity="1" /><path clip-path="url(#clip170)" d="M374.868 903.267 Q371.257 903.267 369.428 906.832 Q367.623 910.374 367.623 917.503 Q367.623 924.61 369.428 928.174 Q371.257 931.716 374.868 931.716 Q378.502 931.716 380.308 928.174 Q382.137 924.61 382.137 917.503 Q382.137 910.374 380.308 906.832 Q378.502 903.267 374.868 903.267 M374.868 899.563 Q380.678 899.563 383.734 904.17 Q386.813 908.753 386.813 917.503 Q386.813 926.23 383.734 930.836 Q380.678 935.42 374.868 935.42 Q369.058 935.42 365.979 930.836 Q362.924 926.23 362.924 917.503 Q362.924 908.753 365.979 904.17 Q369.058 899.563 374.868 899.563 Z" fill="#000000" fill-rule="nonzero" fill-opacity="1" /><path clip-path="url(#clip170)" d="M407.877 904.262 L396.072 922.711 L407.877 922.711 L407.877 904.262 M406.65 900.188 L412.53 900.188 L412.53 922.711 L417.461 922.711 L417.461 926.6 L412.53 926.6 L412.53 934.748 L407.877 934.748 L407.877 926.6 L392.276 926.6 L392.276 922.086 L406.65 900.188 Z" fill="#000000" fill-rule="nonzero" fill-opacity="1" /><path clip-path="url(#clip170)" d="M270.795 613.192 Q267.184 613.192 265.355 616.757 Q263.549 620.299 263.549 627.428 Q263.549 634.535 265.355 638.1 Q267.184 641.641 270.795 641.641 Q274.429 641.641 276.234 638.1 Q278.063 634.535 278.063 627.428 Q278.063 620.299 276.234 616.757 Q274.429 613.192 270.795 613.192 M270.795 609.489 Q276.605 609.489 279.66 614.095 Q282.739 618.678 282.739 627.428 Q282.739 636.155 279.66 640.762 Q276.605 645.345 270.795 645.345 Q264.985 645.345 261.906 640.762 Q258.85 636.155 258.85 627.428 Q258.85 618.678 261.906 614.095 Q264.985 609.489 270.795 609.489 Z" fill="#000000" fill-rule="nonzero" fill-opacity="1" /><path clip-path="url(#clip170)" d="M290.957 638.794 L295.841 638.794 L295.841 644.674 L290.957 644.674 L290.957 638.794 Z" fill="#000000" fill-rule="nonzero" fill-opacity="1" /><path clip-path="url(#clip170)" d="M316.026 613.192 Q312.415 613.192 310.586 616.757 Q308.781 620.299 308.781 627.428 Q308.781 634.535 310.586 638.1 Q312.415 641.641 316.026 641.641 Q319.66 641.641 321.466 638.1 Q323.294 634.535 323.294 627.428 Q323.294 620.299 321.466 616.757 Q319.66 613.192 316.026 613.192 M316.026 609.489 Q321.836 609.489 324.892 614.095 Q327.97 618.678 327.97 627.428 Q327.97 636.155 324.892 640.762 Q321.836 645.345 316.026 645.345 Q310.216 645.345 307.137 640.762 Q304.082 636.155 304.082 627.428 Q304.082 618.678 307.137 614.095 Q310.216 609.489 316.026 609.489 Z" fill="#000000" fill-rule="nonzero" fill-opacity="1" /><path clip-path="url(#clip170)" d="M346.188 613.192 Q342.577 613.192 340.748 616.757 Q338.942 620.299 338.942 627.428 Q338.942 634.535 340.748 638.1 Q342.577 641.641 346.188 641.641 Q349.822 641.641 351.628 638.1 Q353.456 634.535 353.456 627.428 Q353.456 620.299 351.628 616.757 Q349.822 613.192 346.188 613.192 M346.188 609.489 Q351.998 609.489 355.054 614.095 Q358.132 618.678 358.132 627.428 Q358.132 636.155 355.054 640.762 Q351.998 645.345 346.188 645.345 Q340.378 645.345 337.299 640.762 Q334.243 636.155 334.243 627.428 Q334.243 618.678 337.299 614.095 Q340.378 609.489 346.188 609.489 Z" fill="#000000" fill-rule="nonzero" fill-opacity="1" /><path clip-path="url(#clip170)" d="M376.35 613.192 Q372.739 613.192 370.91 616.757 Q369.104 620.299 369.104 627.428 Q369.104 634.535 370.91 638.1 Q372.739 641.641 376.35 641.641 Q379.984 641.641 381.789 638.1 Q383.618 634.535 383.618 627.428 Q383.618 620.299 381.789 616.757 Q379.984 613.192 376.35 613.192 M376.35 609.489 Q382.16 609.489 385.215 614.095 Q388.294 618.678 388.294 627.428 Q388.294 636.155 385.215 640.762 Q382.16 645.345 376.35 645.345 Q370.54 645.345 367.461 640.762 Q364.405 636.155 364.405 627.428 Q364.405 618.678 367.461 614.095 Q370.54 609.489 376.35 609.489 Z" fill="#000000" fill-rule="nonzero" fill-opacity="1" /><path clip-path="url(#clip170)" d="M396.558 610.114 L414.914 610.114 L414.914 614.049 L400.84 614.049 L400.84 622.521 Q401.859 622.174 402.877 622.012 Q403.896 621.827 404.914 621.827 Q410.701 621.827 414.081 624.998 Q417.461 628.169 417.461 633.586 Q417.461 639.164 413.988 642.266 Q410.516 645.345 404.197 645.345 Q402.021 645.345 399.752 644.975 Q397.507 644.604 395.1 643.863 L395.1 639.164 Q397.183 640.299 399.405 640.854 Q401.627 641.41 404.104 641.41 Q408.109 641.41 410.447 639.303 Q412.785 637.197 412.785 633.586 Q412.785 629.975 410.447 627.868 Q408.109 625.762 404.104 625.762 Q402.229 625.762 400.354 626.178 Q398.502 626.595 396.558 627.475 L396.558 610.114 Z" fill="#000000" fill-rule="nonzero" fill-opacity="1" /><path clip-path="url(#clip170)" d="M269.637 323.118 Q266.026 323.118 264.198 326.682 Q262.392 330.224 262.392 337.354 Q262.392 344.46 264.198 348.025 Q266.026 351.566 269.637 351.566 Q273.272 351.566 275.077 348.025 Q276.906 344.46 276.906 337.354 Q276.906 330.224 275.077 326.682 Q273.272 323.118 269.637 323.118 M269.637 319.414 Q275.447 319.414 278.503 324.02 Q281.582 328.604 281.582 337.354 Q281.582 346.08 278.503 350.687 Q275.447 355.27 269.637 355.27 Q263.827 355.27 260.748 350.687 Q257.693 346.08 257.693 337.354 Q257.693 328.604 260.748 324.02 Q263.827 319.414 269.637 319.414 Z" fill="#000000" fill-rule="nonzero" fill-opacity="1" /><path clip-path="url(#clip170)" d="M289.799 348.719 L294.683 348.719 L294.683 354.599 L289.799 354.599 L289.799 348.719 Z" fill="#000000" fill-rule="nonzero" fill-opacity="1" /><path clip-path="url(#clip170)" d="M314.869 323.118 Q311.257 323.118 309.429 326.682 Q307.623 330.224 307.623 337.354 Q307.623 344.46 309.429 348.025 Q311.257 351.566 314.869 351.566 Q318.503 351.566 320.308 348.025 Q322.137 344.46 322.137 337.354 Q322.137 330.224 320.308 326.682 Q318.503 323.118 314.869 323.118 M314.869 319.414 Q320.679 319.414 323.734 324.02 Q326.813 328.604 326.813 337.354 Q326.813 346.08 323.734 350.687 Q320.679 355.27 314.869 355.27 Q309.058 355.27 305.98 350.687 Q302.924 346.08 302.924 337.354 Q302.924 328.604 305.98 324.02 Q309.058 319.414 314.869 319.414 Z" fill="#000000" fill-rule="nonzero" fill-opacity="1" /><path clip-path="url(#clip170)" d="M345.03 323.118 Q341.419 323.118 339.591 326.682 Q337.785 330.224 337.785 337.354 Q337.785 344.46 339.591 348.025 Q341.419 351.566 345.03 351.566 Q348.665 351.566 350.47 348.025 Q352.299 344.46 352.299 337.354 Q352.299 330.224 350.47 326.682 Q348.665 323.118 345.03 323.118 M345.03 319.414 Q350.841 319.414 353.896 324.02 Q356.975 328.604 356.975 337.354 Q356.975 346.08 353.896 350.687 Q350.841 355.27 345.03 355.27 Q339.22 355.27 336.142 350.687 Q333.086 346.08 333.086 337.354 Q333.086 328.604 336.142 324.02 Q339.22 319.414 345.03 319.414 Z" fill="#000000" fill-rule="nonzero" fill-opacity="1" /><path clip-path="url(#clip170)" d="M375.192 323.118 Q371.581 323.118 369.753 326.682 Q367.947 330.224 367.947 337.354 Q367.947 344.46 369.753 348.025 Q371.581 351.566 375.192 351.566 Q378.827 351.566 380.632 348.025 Q382.461 344.46 382.461 337.354 Q382.461 330.224 380.632 326.682 Q378.827 323.118 375.192 323.118 M375.192 319.414 Q381.002 319.414 384.058 324.02 Q387.137 328.604 387.137 337.354 Q387.137 346.08 384.058 350.687 Q381.002 355.27 375.192 355.27 Q369.382 355.27 366.303 350.687 Q363.248 346.08 363.248 337.354 Q363.248 328.604 366.303 324.02 Q369.382 319.414 375.192 319.414 Z" fill="#000000" fill-rule="nonzero" fill-opacity="1" /><path clip-path="url(#clip170)" d="M405.933 335.455 Q402.785 335.455 400.933 337.608 Q399.104 339.761 399.104 343.511 Q399.104 347.238 400.933 349.414 Q402.785 351.566 405.933 351.566 Q409.081 351.566 410.91 349.414 Q412.762 347.238 412.762 343.511 Q412.762 339.761 410.91 337.608 Q409.081 335.455 405.933 335.455 M415.215 320.803 L415.215 325.062 Q413.456 324.229 411.65 323.789 Q409.868 323.349 408.109 323.349 Q403.479 323.349 401.025 326.474 Q398.595 329.599 398.248 335.918 Q399.613 333.905 401.674 332.84 Q403.734 331.752 406.211 331.752 Q411.419 331.752 414.428 334.923 Q417.461 338.071 417.461 343.511 Q417.461 348.835 414.312 352.053 Q411.164 355.27 405.933 355.27 Q399.938 355.27 396.766 350.687 Q393.595 346.08 393.595 337.354 Q393.595 329.159 397.484 324.298 Q401.373 319.414 407.924 319.414 Q409.683 319.414 411.465 319.761 Q413.271 320.108 415.215 320.803 Z" fill="#000000" fill-rule="nonzero" fill-opacity="1" /><path clip-path="url(#clip170)" d="M270.702 33.0428 Q267.091 33.0428 265.262 36.6076 Q263.457 40.1492 263.457 47.2788 Q263.457 54.3853 265.262 57.9501 Q267.091 61.4917 270.702 61.4917 Q274.336 61.4917 276.142 57.9501 Q277.971 54.3853 277.971 47.2788 Q277.971 40.1492 276.142 36.6076 Q274.336 33.0428 270.702 33.0428 M270.702 29.3391 Q276.512 29.3391 279.568 33.9456 Q282.646 38.5289 282.646 47.2788 Q282.646 56.0056 279.568 60.6121 Q276.512 65.1954 270.702 65.1954 Q264.892 65.1954 261.813 60.6121 Q258.758 56.0056 258.758 47.2788 Q258.758 38.5289 261.813 33.9456 Q264.892 29.3391 270.702 29.3391 Z" fill="#000000" fill-rule="nonzero" fill-opacity="1" /><path clip-path="url(#clip170)" d="M290.864 58.6445 L295.748 58.6445 L295.748 64.5241 L290.864 64.5241 L290.864 58.6445 Z" fill="#000000" fill-rule="nonzero" fill-opacity="1" /><path clip-path="url(#clip170)" d="M315.933 33.0428 Q312.322 33.0428 310.494 36.6076 Q308.688 40.1492 308.688 47.2788 Q308.688 54.3853 310.494 57.9501 Q312.322 61.4917 315.933 61.4917 Q319.568 61.4917 321.373 57.9501 Q323.202 54.3853 323.202 47.2788 Q323.202 40.1492 321.373 36.6076 Q319.568 33.0428 315.933 33.0428 M315.933 29.3391 Q321.744 29.3391 324.799 33.9456 Q327.878 38.5289 327.878 47.2788 Q327.878 56.0056 324.799 60.6121 Q321.744 65.1954 315.933 65.1954 Q310.123 65.1954 307.045 60.6121 Q303.989 56.0056 303.989 47.2788 Q303.989 38.5289 307.045 33.9456 Q310.123 29.3391 315.933 29.3391 Z" fill="#000000" fill-rule="nonzero" fill-opacity="1" /><path clip-path="url(#clip170)" d="M346.095 33.0428 Q342.484 33.0428 340.655 36.6076 Q338.85 40.1492 338.85 47.2788 Q338.85 54.3853 340.655 57.9501 Q342.484 61.4917 346.095 61.4917 Q349.729 61.4917 351.535 57.9501 Q353.364 54.3853 353.364 47.2788 Q353.364 40.1492 351.535 36.6076 Q349.729 33.0428 346.095 33.0428 M346.095 29.3391 Q351.905 29.3391 354.961 33.9456 Q358.04 38.5289 358.04 47.2788 Q358.04 56.0056 354.961 60.6121 Q351.905 65.1954 346.095 65.1954 Q340.285 65.1954 337.206 60.6121 Q334.151 56.0056 334.151 47.2788 Q334.151 38.5289 337.206 33.9456 Q340.285 29.3391 346.095 29.3391 Z" fill="#000000" fill-rule="nonzero" fill-opacity="1" /><path clip-path="url(#clip170)" d="M376.257 33.0428 Q372.646 33.0428 370.817 36.6076 Q369.012 40.1492 369.012 47.2788 Q369.012 54.3853 370.817 57.9501 Q372.646 61.4917 376.257 61.4917 Q379.891 61.4917 381.697 57.9501 Q383.526 54.3853 383.526 47.2788 Q383.526 40.1492 381.697 36.6076 Q379.891 33.0428 376.257 33.0428 M376.257 29.3391 Q382.067 29.3391 385.123 33.9456 Q388.201 38.5289 388.201 47.2788 Q388.201 56.0056 385.123 60.6121 Q382.067 65.1954 376.257 65.1954 Q370.447 65.1954 367.368 60.6121 Q364.313 56.0056 364.313 47.2788 Q364.313 38.5289 367.368 33.9456 Q370.447 29.3391 376.257 29.3391 Z" fill="#000000" fill-rule="nonzero" fill-opacity="1" /><path clip-path="url(#clip170)" d="M395.238 29.9641 L417.461 29.9641 L417.461 31.9548 L404.914 64.5241 L400.03 64.5241 L411.836 33.8993 L395.238 33.8993 L395.238 29.9641 Z" fill="#000000" fill-rule="nonzero" fill-opacity="1" /><path clip-path="url(#clip170)" d="M185.089 1749.95 L73.423 1749.95 Q68.9727 1749.95 68.9727 1747.55 Q68.9727 1745.15 72.5446 1745.15 L184.211 1745.15 Q188.661 1745.15 188.661 1747.55 Q188.661 1749.95 185.089 1749.95 Z" fill="#000000" fill-rule="nonzero" fill-opacity="1" /><path clip-path="url(#clip170)" d="M185.089 1717.73 L73.423 1717.73 Q68.9727 1717.73 68.9727 1715.33 Q68.9727 1712.93 72.5446 1712.93 L184.211 1712.93 Q188.661 1712.93 188.661 1715.33 Q188.661 1717.73 185.089 1717.73 Z" fill="#000000" fill-rule="nonzero" fill-opacity="1" /><path clip-path="url(#clip170)" d="M154.465 1648.08 Q157.451 1648.08 158.154 1648.73 Q158.798 1649.37 158.798 1652.3 L158.798 1663.89 Q158.798 1666.82 158.095 1667.52 Q157.392 1668.23 154.465 1668.23 L81.211 1668.23 Q78.3417 1668.23 77.639 1667.52 Q76.8778 1666.82 76.8778 1663.89 L76.8778 1652.3 Q76.8778 1649.37 77.5805 1648.73 Q78.2246 1648.08 81.211 1648.08 L154.465 1648.08 M153.996 1652.88 L81.6794 1652.88 L81.6794 1663.42 L153.996 1663.42 L153.996 1652.88 Z" fill="#000000" fill-rule="nonzero" fill-opacity="1" /><path clip-path="url(#clip170)" d="M152.708 1527.01 Q142.519 1518.05 128.817 1518.05 Q115.115 1518.05 104.926 1527.01 L128.817 1550.9 L152.708 1527.01 M101.588 1530.4 Q92.6294 1540.59 92.6294 1554.24 Q92.6294 1567.94 101.588 1578.13 L125.479 1554.24 L101.588 1530.4 M128.817 1557.63 L104.926 1581.46 Q115.173 1590.48 128.817 1590.48 Q142.461 1590.48 152.708 1581.46 L128.817 1557.63 M156.046 1530.4 L132.155 1554.24 L156.046 1578.13 Q165.005 1567.94 165.005 1554.24 Q165.005 1540.59 156.046 1530.4 M112.89 1516.53 Q120.444 1513.25 128.817 1513.25 Q137.191 1513.25 144.803 1516.53 Q152.357 1519.75 157.861 1525.25 Q163.307 1530.7 166.527 1538.31 Q169.806 1545.86 169.806 1554.24 Q169.806 1565.36 164.302 1574.85 Q158.856 1584.28 149.429 1589.78 Q139.943 1595.28 128.817 1595.28 Q117.691 1595.28 108.264 1589.78 Q98.7778 1584.28 93.3321 1574.85 Q87.8278 1565.36 87.8278 1554.24 Q87.8278 1545.86 91.1069 1538.31 Q94.3275 1530.7 99.8318 1525.25 Q105.278 1519.75 112.89 1516.53 Z" fill="#000000" fill-rule="nonzero" fill-opacity="1" /><path clip-path="url(#clip170)" d="M158.798 1469.62 L155.109 1469.62 Q154.992 1464 152.708 1461.42 Q150.424 1458.79 145.271 1457.15 L75.7067 1434.72 Q72.9545 1433.67 72.9545 1431.85 Q72.9545 1430.04 75.7067 1428.92 L150.19 1404.98 Q153.411 1403.92 154.289 1401.99 Q155.109 1400.06 155.109 1394.67 L155.109 1394.03 L158.798 1394.03 Q158.446 1403.04 158.446 1408.9 Q158.446 1417.39 158.798 1426.06 L155.109 1426.06 L155.109 1424.88 Q155.109 1416.1 151.361 1416.1 Q150.659 1416.1 146.911 1417.33 L90.4628 1435.54 L146.091 1453.4 Q148.492 1453.99 148.843 1453.99 Q151.127 1453.99 153.001 1451.88 Q154.816 1449.71 155.109 1444.91 L158.798 1444.91 Q158.446 1451.76 158.446 1458.55 Q158.446 1463 158.798 1469.62 Z" fill="#000000" fill-rule="nonzero" fill-opacity="1" /><path clip-path="url(#clip170)" d="M128.817 1377.61 Q108.557 1377.61 92.2195 1370.05 Q85.3684 1366.83 79.6299 1362.32 Q73.8914 1357.81 71.3735 1354.83 Q68.8556 1351.84 68.8556 1351.02 Q68.8556 1349.85 70.0267 1349.79 Q70.6123 1349.79 72.0762 1351.37 Q91.7511 1370.7 128.817 1370.64 Q166 1370.64 184.914 1351.84 Q186.963 1349.79 187.607 1349.79 Q188.779 1349.79 188.779 1351.02 Q188.779 1351.84 186.378 1354.71 Q183.977 1357.58 178.473 1362.03 Q172.968 1366.48 166.234 1369.7 Q149.897 1377.61 128.817 1377.61 Z" fill="#000000" fill-rule="nonzero" fill-opacity="1" /><path clip-path="url(#clip170)" d="M108.44 1303.84 Q110.079 1303.84 110.489 1304.6 Q110.84 1305.37 110.84 1307.47 L110.84 1318.72 L146.208 1327.62 Q149.312 1328.32 151.947 1328.32 Q154.875 1328.32 156.163 1327.44 Q157.451 1326.5 157.451 1324.57 Q157.451 1320.77 153.996 1316.67 Q150.541 1312.51 142.109 1309 Q140.997 1308.53 140.763 1308.29 Q140.47 1308 140.47 1307.24 Q140.47 1305.77 141.641 1305.77 Q142.051 1305.77 143.925 1306.59 Q145.798 1307.36 148.55 1309.05 Q151.303 1310.69 153.879 1312.86 Q156.456 1314.97 158.329 1318.19 Q160.145 1321.41 160.145 1324.86 Q160.145 1329.72 157.041 1332.83 Q153.938 1335.87 149.077 1335.87 Q147.496 1335.87 142.461 1334.64 Q137.366 1333.41 110.84 1326.74 L110.84 1337.34 Q110.84 1338.8 110.782 1339.39 Q110.723 1339.91 110.43 1340.32 Q110.079 1340.67 109.376 1340.67 Q108.264 1340.67 107.795 1340.21 Q107.268 1339.74 107.21 1339.15 Q107.093 1338.51 107.093 1337.04 L107.093 1325.8 L88.062 1321.12 Q86.1882 1320.65 85.1342 1319.48 Q84.0216 1318.25 83.9045 1317.54 Q83.7289 1316.84 83.7289 1316.32 Q83.7289 1314.73 84.6072 1313.8 Q85.427 1312.86 86.9495 1312.86 Q87.7692 1312.86 107.093 1317.78 L107.093 1307.24 Q107.093 1305.89 107.151 1305.37 Q107.21 1304.78 107.503 1304.31 Q107.795 1303.84 108.44 1303.84 Z" fill="#000000" fill-rule="nonzero" fill-opacity="1" /><path clip-path="url(#clip170)" d="M130.281 1261.79 Q130.281 1264.54 128.817 1264.54 Q127.353 1264.54 127.353 1261.67 Q127.353 1261.32 127.412 1260.74 Q127.47 1260.09 127.47 1259.98 L127.47 1226.19 L93.5663 1226.19 Q93.4492 1226.19 92.9222 1226.25 Q92.3366 1226.31 91.9853 1226.31 Q89.116 1226.31 89.116 1224.9 Q89.116 1223.44 91.9853 1223.44 L127.47 1223.44 L127.47 1189.59 Q127.47 1189.47 127.412 1188.89 Q127.353 1188.3 127.353 1187.95 Q127.353 1185.2 128.817 1185.2 Q130.281 1185.14 130.281 1188.07 Q130.281 1188.42 130.222 1188.95 Q130.164 1189.47 130.164 1189.59 L130.164 1223.44 L165.766 1223.44 Q168.518 1223.44 168.518 1224.9 Q168.518 1226.31 165.649 1226.31 Q165.298 1226.31 164.712 1226.25 Q164.185 1226.19 164.068 1226.19 L130.164 1226.19 L130.164 1259.98 Q130.164 1260.09 130.222 1260.79 Q130.281 1261.44 130.281 1261.79 Z" fill="#000000" fill-rule="nonzero" fill-opacity="1" /><path clip-path="url(#clip170)" d="M78.8102 1089.81 Q79.6885 1089.81 80.9767 1090.45 Q82.1479 1091.04 82.9091 1092.27 Q83.6118 1093.44 83.6118 1094.73 Q83.6118 1095.14 83.3775 1096.08 Q82.6749 1097.66 81.0938 1100.12 Q79.5128 1102.58 78.5174 1104.8 Q77.4634 1106.97 77.3462 1109.37 Q77.3462 1111.48 78.1075 1113.23 Q78.9858 1114.81 80.8596 1115.87 Q81.6208 1116.34 82.9091 1116.34 Q84.7243 1116.34 87.1251 1115.34 Q89.5259 1114.34 92.6294 1112.3 Q95.7329 1110.19 97.8409 1108.66 Q99.8904 1107.14 103.287 1104.51 Q103.579 1104.27 103.755 1104.16 Q103.872 1104.04 104.165 1103.86 Q104.399 1103.69 104.575 1103.51 Q111.543 1097.95 119.214 1096.54 Q121.907 1096.19 124.718 1096.19 Q130.34 1096.19 136.956 1097.89 Q142.988 1099.35 148.199 1102.46 Q153.352 1105.56 156.748 1110.25 Q160.145 1114.87 160.145 1119.91 Q160.145 1124.88 157.978 1128.98 Q155.753 1133.08 151.947 1135.54 Q146.911 1138.88 139.943 1138.88 Q136.019 1138.88 132.682 1137.94 Q127.353 1136.65 122.434 1133.61 Q117.516 1130.56 113.71 1126.17 Q108.088 1119.5 106.507 1112.24 Q100.066 1115.63 95.0888 1117.62 Q90.0529 1119.56 85.7783 1119.56 Q82.0307 1119.56 79.6299 1118.15 Q77.0535 1116.92 75.5896 1114.4 Q74.3013 1112.3 73.6572 1109.25 Q73.423 1107.38 73.423 1106.15 Q73.423 1101.99 75.7067 1092.33 Q76.2922 1089.81 78.8102 1089.81 M129.52 1104.45 Q125.948 1104.45 123.547 1105.03 Q117.691 1106.15 109.611 1110.6 L109.025 1110.95 Q110.665 1116.63 115.642 1121.25 Q121.732 1127.05 133.267 1129.98 Q139.709 1131.56 143.339 1131.56 Q147.262 1131.56 150.659 1130.1 Q153.821 1128.69 155.636 1126.06 Q157.451 1123.36 157.451 1119.79 Q157.451 1117.1 155.929 1114.75 Q154.348 1112.41 151.595 1110.71 Q148.843 1109.02 145.857 1107.85 Q142.812 1106.62 139.24 1105.68 Q134.438 1104.45 129.52 1104.45 Z" fill="#000000" fill-rule="nonzero" fill-opacity="1" /><path clip-path="url(#clip170)" d="M108.44 1046.93 Q110.079 1046.93 110.489 1047.69 Q110.84 1048.45 110.84 1050.56 L110.84 1061.8 L146.208 1070.7 Q149.312 1071.4 151.947 1071.4 Q154.875 1071.4 156.163 1070.53 Q157.451 1069.59 157.451 1067.66 Q157.451 1063.85 153.996 1059.75 Q150.541 1055.59 142.109 1052.08 Q140.997 1051.61 140.763 1051.38 Q140.47 1051.08 140.47 1050.32 Q140.47 1048.86 141.641 1048.86 Q142.051 1048.86 143.925 1049.68 Q145.798 1050.44 148.55 1052.14 Q151.303 1053.78 153.879 1055.94 Q156.456 1058.05 158.329 1061.27 Q160.145 1064.49 160.145 1067.95 Q160.145 1072.81 157.041 1075.91 Q153.938 1078.96 149.077 1078.96 Q147.496 1078.96 142.461 1077.73 Q137.366 1076.5 110.84 1069.82 L110.84 1080.42 Q110.84 1081.89 110.782 1082.47 Q110.723 1083 110.43 1083.41 Q110.079 1083.76 109.376 1083.76 Q108.264 1083.76 107.795 1083.29 Q107.268 1082.82 107.21 1082.24 Q107.093 1081.59 107.093 1080.13 L107.093 1068.89 L88.062 1064.2 Q86.1882 1063.73 85.1342 1062.56 Q84.0216 1061.33 83.9045 1060.63 Q83.7289 1059.93 83.7289 1059.4 Q83.7289 1057.82 84.6072 1056.88 Q85.427 1055.94 86.9495 1055.94 Q87.7692 1055.94 107.093 1060.86 L107.093 1050.32 Q107.093 1048.98 107.151 1048.45 Q107.21 1047.86 107.503 1047.4 Q107.795 1046.93 108.44 1046.93 Z" fill="#000000" fill-rule="nonzero" fill-opacity="1" /><path clip-path="url(#clip170)" d="M156.865 1039.2 Q154.933 1040.9 152.415 1040.9 Q149.897 1040.9 148.023 1039.26 Q146.091 1037.56 146.091 1034.52 Q146.091 1030.94 149.546 1028.89 Q152.942 1026.84 158.681 1026.84 Q164.888 1026.84 170.626 1029.36 Q176.423 1031.88 179.175 1034.34 Q181.927 1036.8 181.927 1037.79 Q181.927 1038.97 180.639 1038.97 Q180.171 1038.97 179.292 1038.15 Q170.041 1029.54 158.681 1029.48 Q156.865 1029.48 156.865 1029.71 L157.1 1030.01 Q158.798 1032.06 158.798 1034.52 Q158.798 1037.5 156.865 1039.2 Z" fill="#000000" fill-rule="nonzero" fill-opacity="1" /><path clip-path="url(#clip170)" d="M108.44 952.169 Q110.079 952.169 110.489 952.93 Q110.84 953.692 110.84 955.8 L110.84 967.042 L146.208 975.943 Q149.312 976.646 151.947 976.646 Q154.875 976.646 156.163 975.767 Q157.451 974.83 157.451 972.898 Q157.451 969.092 153.996 964.993 Q150.541 960.835 142.109 957.322 Q140.997 956.854 140.763 956.619 Q140.47 956.327 140.47 955.565 Q140.47 954.101 141.641 954.101 Q142.051 954.101 143.925 954.921 Q145.798 955.682 148.55 957.381 Q151.303 959.02 153.879 961.187 Q156.456 963.295 158.329 966.515 Q160.145 969.736 160.145 973.191 Q160.145 978.051 157.041 981.154 Q153.938 984.199 149.077 984.199 Q147.496 984.199 142.461 982.97 Q137.366 981.74 110.84 975.065 L110.84 985.663 Q110.84 987.127 110.782 987.713 Q110.723 988.24 110.43 988.65 Q110.079 989.001 109.376 989.001 Q108.264 989.001 107.795 988.532 Q107.268 988.064 107.21 987.478 Q107.093 986.834 107.093 985.37 L107.093 974.128 L88.062 969.443 Q86.1882 968.975 85.1342 967.804 Q84.0216 966.574 83.9045 965.871 Q83.7289 965.169 83.7289 964.642 Q83.7289 963.061 84.6072 962.124 Q85.427 961.187 86.9495 961.187 Q87.7692 961.187 107.093 966.105 L107.093 955.565 Q107.093 954.219 107.151 953.692 Q107.21 953.106 107.503 952.638 Q107.795 952.169 108.44 952.169 Z" fill="#000000" fill-rule="nonzero" fill-opacity="1" /><path clip-path="url(#clip170)" d="M187.607 942.78 Q187.022 942.78 185.558 941.257 Q165.883 921.934 128.817 921.934 Q91.6339 921.934 72.8374 940.496 Q70.6709 942.78 70.0267 942.78 Q68.8556 942.78 68.8556 941.609 Q68.8556 940.789 71.2564 937.92 Q73.6572 934.992 79.1615 930.6 Q84.6658 926.15 91.3997 922.871 Q107.737 914.966 128.817 914.966 Q149.077 914.966 165.415 922.519 Q172.266 925.74 178.004 930.249 Q183.743 934.758 186.261 937.744 Q188.779 940.73 188.779 941.609 Q188.779 942.78 187.607 942.78 Z" fill="#000000" fill-rule="nonzero" fill-opacity="1" /><path clip-path="url(#clip170)" d="M94.9716 811.12 Q101.53 811.12 107.561 815.98 Q113.592 820.782 117.282 828.628 Q120.912 836.416 120.912 844.79 L120.912 865.167 L150.893 872.604 Q151.068 872.662 151.83 872.838 Q152.532 873.014 152.942 873.014 Q154.406 873.014 154.757 871.198 Q155.109 869.325 155.109 865.167 Q155.109 862.474 155.577 862.064 Q155.87 861.829 156.397 861.829 Q157.217 861.829 157.802 862.064 Q158.329 862.298 158.505 862.766 Q158.681 863.176 158.739 863.469 Q158.798 863.762 158.798 864.23 Q158.798 865.46 158.681 868.095 Q158.564 870.671 158.564 872.018 L158.446 879.689 L158.798 894.914 Q158.798 896.729 157.334 896.729 Q156.221 896.729 155.753 896.26 Q155.226 895.792 155.167 895.265 Q155.109 894.738 155.109 893.391 Q155.109 890.463 154.933 888.707 Q154.757 886.95 154.523 885.837 Q154.23 884.666 153.411 884.081 Q152.591 883.437 151.888 883.144 Q151.127 882.851 149.429 882.441 L85.0171 866.397 Q83.0847 865.928 82.792 865.928 Q81.7965 865.928 81.4452 866.514 Q81.0353 867.041 80.8596 868.563 Q80.6254 871.491 80.6254 873.716 Q80.6254 875.18 80.5668 875.766 Q80.5083 876.293 80.2155 876.761 Q79.8642 877.171 79.1615 877.171 Q78.0489 877.171 77.5805 876.703 Q77.0535 876.176 76.9949 875.59 Q76.8778 875.005 76.8778 873.599 L76.8778 834.718 Q76.8778 823.534 82.2064 817.327 Q87.535 811.12 94.9716 811.12 M92.1024 822.246 Q80.6254 822.246 80.6254 838.583 L80.6254 850.06 Q80.6254 853.866 81.3281 854.803 Q81.9722 855.74 85.1928 856.559 L117.809 864.699 L117.809 847.776 Q117.809 836.416 111.426 829.331 Q108.498 826.11 102.408 824.178 Q96.3184 822.246 92.1024 822.246 Z" fill="#000000" fill-rule="nonzero" fill-opacity="1" /><path clip-path="url(#clip170)" d="M65.4356 773.947 Q65.4356 775.874 64.4108 775.874 Q63.3861 775.874 63.3861 773.865 Q63.3861 773.619 63.4271 773.209 Q63.4681 772.759 63.4681 772.677 L63.4681 749.026 L39.7353 749.026 Q39.6533 749.026 39.2844 749.067 Q38.8745 749.108 38.6286 749.108 Q36.6201 749.108 36.6201 748.124 Q36.6201 747.099 38.6286 747.099 L63.4681 747.099 L63.4681 723.407 Q63.4681 723.325 63.4271 722.916 Q63.3861 722.506 63.3861 722.26 Q63.3861 720.333 64.4108 720.333 Q65.4356 720.292 65.4356 722.342 Q65.4356 722.588 65.3946 722.957 Q65.3536 723.325 65.3536 723.407 L65.3536 747.099 L90.2751 747.099 Q92.2016 747.099 92.2016 748.124 Q92.2016 749.108 90.1931 749.108 Q89.9471 749.108 89.5372 749.067 Q89.1683 749.026 89.0864 749.026 L65.3536 749.026 L65.3536 772.677 Q65.3536 772.759 65.3946 773.25 Q65.4356 773.701 65.4356 773.947 Z" fill="#000000" fill-rule="nonzero" fill-opacity="1" /><path clip-path="url(#clip170)" d="M185.089 675.11 L73.423 675.11 Q68.9727 675.11 68.9727 672.709 Q68.9727 670.308 72.5446 670.308 L184.211 670.308 Q188.661 670.308 188.661 672.709 Q188.661 675.11 185.089 675.11 Z" fill="#000000" fill-rule="nonzero" fill-opacity="1" /><path clip-path="url(#clip170)" d="M185.089 642.888 L73.423 642.888 Q68.9727 642.888 68.9727 640.487 Q68.9727 638.086 72.5446 638.086 L184.211 638.086 Q188.661 638.086 188.661 640.487 Q188.661 642.888 185.089 642.888 Z" fill="#000000" fill-rule="nonzero" fill-opacity="1" /><path clip-path="url(#clip170)" d="M127.119 480.947 Q127.822 480.245 128.817 480.245 Q129.813 480.245 130.515 480.947 Q131.218 481.65 131.218 482.645 L131.218 557.714 Q131.218 558.71 130.515 559.413 Q129.813 560.115 128.817 560.115 Q127.822 560.115 127.119 559.413 Q126.416 558.71 126.416 557.714 L126.416 482.645 Q126.416 481.65 127.119 480.947 Z" fill="#000000" fill-rule="nonzero" fill-opacity="1" /><path clip-path="url(#clip170)" d="M90.3457 434.453 L86.5981 434.453 Q86.5981 420.048 78.9273 412.611 Q78.9273 410.562 79.3957 410.21 Q79.8642 409.859 82.0307 409.859 L149.312 409.859 Q152.884 409.859 153.996 408.102 Q155.109 406.346 155.109 398.675 L155.109 394.869 L158.798 394.869 Q158.446 399.085 158.446 414.309 Q158.446 429.534 158.798 433.691 L155.109 433.691 L155.109 429.885 Q155.109 422.331 154.055 420.516 Q152.942 418.701 149.312 418.701 L87.1837 418.701 Q90.3457 424.966 90.3457 434.453 Z" fill="#000000" fill-rule="nonzero" fill-opacity="1" /><polyline clip-path="url(#clip172)" style="stroke:#009af9; stroke-linecap:round; stroke-linejoin:round; stroke-width:32; stroke-opacity:1; fill:none" points="518.298,2077.77 535.136,2077.77 551.974,2077.77 568.811,2077.77 585.649,2077.77 602.486,2077.77 619.324,2077.77 636.162,2077.77 652.999,2077.77 669.837,2077.77 686.675,2077.77 703.512,2077.77 720.35,2077.77 737.188,2077.77 754.025,2077.77 770.863,2077.77 787.701,2077.77 804.538,2077.77 821.376,2077.77 838.214,2077.77 855.051,2077.77 871.889,2077.77 888.727,2077.77 905.564,2077.77 922.402,2077.77 939.24,2077.77 956.077,2077.77 972.915,2077.77 989.752,2077.77 1006.59,2077.77 1023.43,2077.77 1040.27,2077.77 1057.1,2077.77 1073.94,2077.77 1090.78,2077.77 1107.62,2077.77 1124.45,2077.77 1141.29,2077.77 1158.13,2077.77 1174.97,2077.77 1191.8,2077.77 1208.64,2077.77 1225.48,2077.77 1242.32,2077.77 1259.15,2077.77 1275.99,2077.77 1292.83,2077.77 1309.67,2077.77 1326.51,2077.77 1343.34,2077.77 1360.18,2077.77 1377.02,2077.77 1393.86,2077.77 1410.69,2077.77 1427.53,2077.77 1444.37,2077.77 1461.21,2077.77 1478.04,2077.77 1494.88,2077.77 1511.72,2077.77 1528.56,2077.77 1545.39,2077.77 1562.23,2077.77 1579.07,2077.77 1595.91,2077.77 1612.75,2077.77 1629.58,2077.77 1646.42,2077.77 1663.26,2077.77 1680.1,1947.88 1696.93,1739.37 1713.77,1553.88 1730.61,1390.44 1747.45,1247.95 1764.28,1125.26 1781.12,1021.13 1797.96,934.282 1814.8,863.375 1831.64,807.047 1848.47,763.918 1865.31,732.599 1882.15,711.707 1898.99,699.874 1915.82,695.761 1932.66,698.063 1949.5,705.524 1966.34,716.94 1983.17,731.172 2000.01,747.149 2016.85,763.875 2033.69,780.435 2050.52,796.002 2067.36,809.833 2084.2,821.28 2101.04,829.785 2117.88,834.887 2134.71,836.216 2151.55,833.495 2168.39,826.541 2185.23,815.256 2202.06,799.63 2218.9,779.734 2235.74,755.718 2252.58,727.802 2269.41,696.275 2286.25,661.485 2303.09,623.837 2319.93,583.784 2336.76,541.818 2353.6,498.467 2370.44,454.287 2387.28,409.853 2404.12,365.753 2420.95,322.58 2437.79,280.928 2454.63,241.382 2471.47,204.512 2488.3,170.871 2505.14,140.982 2521.98,115.341 2538.82,94.4037 2555.65,78.5887 2572.49,68.2687 2589.33,63.7693 2606.17,65.3654 2623,73.2794 2639.84,87.6793 2656.68,108.678 2673.52,136.332 2690.36,170.643 2707.19,211.555 2724.03,258.962 2740.87,312.701 2757.71,372.56 2774.54,438.281 2791.38,509.559 2808.22,586.046 2825.06,667.359 2841.89,753.079 2858.73,842.756 2875.57,935.915 2892.41,1032.06 2909.24,1130.68 2926.08,1231.25 2942.92,1333.24 2959.76,1436.11 2976.6,1539.33 2993.43,1642.37 3010.27,1744.73 3027.11,1845.9 3043.95,1945.4 3060.78,2042.78 3077.62,2077.77 3094.46,2077.77 3111.3,2077.77 3128.13,2077.77 3144.97,2077.77 3161.81,2077.77 3178.65,2077.77 3195.48,2077.77 3212.32,2077.77 3229.16,2077.77 3246,2077.77 3262.84,2077.77 3279.67,2077.77 3296.51,2077.77 3313.35,2077.77 3330.19,2077.77 3347.02,2077.77 3363.86,2077.77 3380.7,2077.77 3397.54,2077.77 3414.37,2077.77 3431.21,2077.77 3448.05,2077.77 3464.89,2077.77 3481.72,2077.77 3498.56,2077.77 3515.4,2077.77 3532.24,2077.77 3549.08,2077.77 3565.91,2077.77 3582.75,2077.77 3599.59,2077.77 3616.43,2077.77 3633.26,2077.77 3650.1,2077.77 3666.94,2077.77 3683.78,2077.77 3700.61,2077.77 3717.45,2077.77 3734.29,2077.77 3751.13,2077.77 3767.96,2077.77 3784.8,2077.77 3801.64,2077.77 3818.48,2077.77 3835.32,2077.77 3852.15,2077.77 3868.99,2077.77 3885.83,2077.77 3902.67,2077.77 3919.5,2077.77 3936.34,2077.77 3953.18,2077.77 3970.02,2077.77 3986.85,2077.77 4003.69,2077.77 4020.53,2077.77 4037.37,2077.77 4054.2,2077.77 4071.04,2077.77 4087.88,2077.77 4104.72,2077.77 4121.56,2077.77 4138.39,2077.77 4155.23,2077.77 4172.07,2077.77 4188.91,2077.77 4205.74,2077.77 4222.58,2077.77 4239.42,2077.77 4256.26,2077.77 4273.09,2077.77 4289.93,2077.77 4306.77,2077.77 4323.61,2077.77 4340.45,2077.77 4357.28,2077.77 4374.12,2077.77 4390.96,2077.77 4407.8,2077.77 4424.63,2077.77 4441.47,2077.77 4458.31,2077.77 4475.15,2077.77 4491.98,2077.77 4508.82,2077.77 4525.66,2077.77 4542.5,2077.77 4559.33,2077.77 4576.17,2077.77 4593.01,2077.77 4609.85,2077.77 4626.69,2077.77 4643.52,2077.77 4660.36,2077.77 4677.2,2077.77 4694.04,2077.77 4710.87,2077.77 4727.71,2077.77 4744.55,2077.77 4761.39,2077.77 4778.22,2077.77 4795.06,2077.77 4811.9,2077.77 4828.74,2077.77 4845.57,2077.77 4862.41,2077.77 4879.25,2077.77 4896.09,2077.77 4912.93,2077.77 4929.76,2077.77 4946.6,2077.77 4963.44,2077.77 4980.28,2077.77 4997.11,2077.77 5013.95,2077.77 5030.79,2077.77 5047.63,2077.77 5064.46,2077.77 5081.3,2077.77 5098.14,2077.77 5114.98,2077.77 5131.81,2077.77 5148.65,2077.77 5165.49,2077.77 5182.33,2077.77 5199.17,2077.77 5216,2077.77 5232.84,2077.77 5249.68,2077.77 5266.52,2077.77 5283.35,2077.77 5300.19,2077.77 5317.03,2077.77 5333.87,2077.77 5350.7,2077.77 5367.54,2077.77 5384.38,2077.77 5401.22,2077.77 5418.05,2077.77 5434.89,2077.77 5451.73,2077.77 5468.57,2077.77 5485.41,2077.77 5502.24,2077.77 5519.08,2077.77 5535.92,2077.77 "/>
<polyline clip-path="url(#clip172)" style="stroke:#000000; stroke-linecap:round; stroke-linejoin:round; stroke-width:16; stroke-opacity:1; fill:none" points="501.461,4108.29 501.461,-1983.28 "/>
<polyline clip-path="url(#clip172)" style="stroke:#000000; stroke-linecap:round; stroke-linejoin:round; stroke-width:16; stroke-opacity:1; fill:none" points="-4549.83,2077.77 10604.1,2077.77 "/>
</svg>
