<?xml version="1.0" encoding="utf-8"?>
<svg xmlns="http://www.w3.org/2000/svg" xmlns:xlink="http://www.w3.org/1999/xlink" width="600" height="600" viewBox="0 0 2400 2400">
<defs>
  <clipPath id="clip270">
    <rect x="0" y="0" width="2400" height="2400"/>
  </clipPath>
</defs>
<path clip-path="url(#clip270)" d="M0 2400 L2400 2400 L2400 0 L0 0  Z" fill="#ffffff" fill-rule="evenodd" fill-opacity="1"/>
<defs>
  <clipPath id="clip271">
    <rect x="480" y="240" width="1681" height="1681"/>
  </clipPath>
</defs>
<path clip-path="url(#clip270)" d="M384.152 2337.01 L2352.76 2337.01 L2352.76 47.2441 L384.152 47.2441  Z" fill="#ffffff" fill-rule="evenodd" fill-opacity="1"/>
<defs>
  <clipPath id="clip272">
    <rect x="384" y="47" width="1970" height="2291"/>
  </clipPath>
</defs>
<polyline clip-path="url(#clip272)" style="stroke:#000000; stroke-linecap:round; stroke-linejoin:round; stroke-width:2; stroke-opacity:0.1; fill:none" points="384.152,2272.2 2352.76,2272.2 "/>
<polyline clip-path="url(#clip272)" style="stroke:#000000; stroke-linecap:round; stroke-linejoin:round; stroke-width:2; stroke-opacity:0.1; fill:none" points="384.152,1875.78 2352.76,1875.78 "/>
<polyline clip-path="url(#clip272)" style="stroke:#000000; stroke-linecap:round; stroke-linejoin:round; stroke-width:2; stroke-opacity:0.1; fill:none" points="384.152,1479.36 2352.76,1479.36 "/>
<polyline clip-path="url(#clip272)" style="stroke:#000000; stroke-linecap:round; stroke-linejoin:round; stroke-width:2; stroke-opacity:0.1; fill:none" points="384.152,1082.93 2352.76,1082.93 "/>
<polyline clip-path="url(#clip272)" style="stroke:#000000; stroke-linecap:round; stroke-linejoin:round; stroke-width:2; stroke-opacity:0.1; fill:none" points="384.152,686.51 2352.76,686.51 "/>
<polyline clip-path="url(#clip272)" style="stroke:#000000; stroke-linecap:round; stroke-linejoin:round; stroke-width:2; stroke-opacity:0.1; fill:none" points="384.152,290.086 2352.76,290.086 "/>
<polyline clip-path="url(#clip272)" style="stroke:#000000; stroke-linecap:round; stroke-linejoin:round; stroke-width:2; stroke-opacity:0.1; fill:none" points="384.152,2272.2 2352.76,2272.2 "/>
<polyline clip-path="url(#clip272)" style="stroke:#000000; stroke-linecap:round; stroke-linejoin:round; stroke-width:2; stroke-opacity:0.1; fill:none" points="384.152,1875.78 2352.76,1875.78 "/>
<polyline clip-path="url(#clip272)" style="stroke:#000000; stroke-linecap:round; stroke-linejoin:round; stroke-width:2; stroke-opacity:0.1; fill:none" points="384.152,1479.36 2352.76,1479.36 "/>
<polyline clip-path="url(#clip272)" style="stroke:#000000; stroke-linecap:round; stroke-linejoin:round; stroke-width:2; stroke-opacity:0.1; fill:none" points="384.152,1082.93 2352.76,1082.93 "/>
<polyline clip-path="url(#clip272)" style="stroke:#000000; stroke-linecap:round; stroke-linejoin:round; stroke-width:2; stroke-opacity:0.1; fill:none" points="384.152,686.51 2352.76,686.51 "/>
<polyline clip-path="url(#clip272)" style="stroke:#000000; stroke-linecap:round; stroke-linejoin:round; stroke-width:2; stroke-opacity:0.1; fill:none" points="384.152,290.086 2352.76,290.086 "/>
<polyline clip-path="url(#clip270)" style="stroke:#000000; stroke-linecap:round; stroke-linejoin:round; stroke-width:4; stroke-opacity:1; fill:none" points="384.152,2337.01 2352.76,2337.01 "/>
<polyline clip-path="url(#clip270)" style="stroke:#000000; stroke-linecap:round; stroke-linejoin:round; stroke-width:4; stroke-opacity:1; fill:none" points="384.152,47.2441 2352.76,47.2441 "/>
<polyline clip-path="url(#clip270)" style="stroke:#000000; stroke-linecap:round; stroke-linejoin:round; stroke-width:4; stroke-opacity:1; fill:none" points="384.152,2337.01 384.152,47.2441 "/>
<polyline clip-path="url(#clip270)" style="stroke:#000000; stroke-linecap:round; stroke-linejoin:round; stroke-width:4; stroke-opacity:1; fill:none" points="2352.76,2337.01 2352.76,47.2441 "/>
<polyline clip-path="url(#clip270)" style="stroke:#000000; stroke-linecap:round; stroke-linejoin:round; stroke-width:4; stroke-opacity:1; fill:none" points="384.152,2272.2 403.049,2272.2 "/>
<polyline clip-path="url(#clip270)" style="stroke:#000000; stroke-linecap:round; stroke-linejoin:round; stroke-width:4; stroke-opacity:1; fill:none" points="384.152,1875.78 403.049,1875.78 "/>
<polyline clip-path="url(#clip270)" style="stroke:#000000; stroke-linecap:round; stroke-linejoin:round; stroke-width:4; stroke-opacity:1; fill:none" points="384.152,1479.36 403.049,1479.36 "/>
<polyline clip-path="url(#clip270)" style="stroke:#000000; stroke-linecap:round; stroke-linejoin:round; stroke-width:4; stroke-opacity:1; fill:none" points="384.152,1082.93 403.049,1082.93 "/>
<polyline clip-path="url(#clip270)" style="stroke:#000000; stroke-linecap:round; stroke-linejoin:round; stroke-width:4; stroke-opacity:1; fill:none" points="384.152,686.51 403.049,686.51 "/>
<polyline clip-path="url(#clip270)" style="stroke:#000000; stroke-linecap:round; stroke-linejoin:round; stroke-width:4; stroke-opacity:1; fill:none" points="384.152,290.086 403.049,290.086 "/>
<polyline clip-path="url(#clip270)" style="stroke:#000000; stroke-linecap:round; stroke-linejoin:round; stroke-width:4; stroke-opacity:1; fill:none" points="2352.76,2272.2 2333.86,2272.2 "/>
<polyline clip-path="url(#clip270)" style="stroke:#000000; stroke-linecap:round; stroke-linejoin:round; stroke-width:4; stroke-opacity:1; fill:none" points="2352.76,1875.78 2333.86,1875.78 "/>
<polyline clip-path="url(#clip270)" style="stroke:#000000; stroke-linecap:round; stroke-linejoin:round; stroke-width:4; stroke-opacity:1; fill:none" points="2352.76,1479.36 2333.86,1479.36 "/>
<polyline clip-path="url(#clip270)" style="stroke:#000000; stroke-linecap:round; stroke-linejoin:round; stroke-width:4; stroke-opacity:1; fill:none" points="2352.76,1082.93 2333.86,1082.93 "/>
<polyline clip-path="url(#clip270)" style="stroke:#000000; stroke-linecap:round; stroke-linejoin:round; stroke-width:4; stroke-opacity:1; fill:none" points="2352.76,686.51 2333.86,686.51 "/>
<polyline clip-path="url(#clip270)" style="stroke:#000000; stroke-linecap:round; stroke-linejoin:round; stroke-width:4; stroke-opacity:1; fill:none" points="2352.76,290.086 2333.86,290.086 "/>
<path clip-path="url(#clip270)" d="M230.652 2258 Q227.041 2258 225.212 2261.57 Q223.407 2265.11 223.407 2272.24 Q223.407 2279.34 225.212 2282.91 Q227.041 2286.45 230.652 2286.45 Q234.286 2286.45 236.092 2282.91 Q237.921 2279.34 237.921 2272.24 Q237.921 2265.11 236.092 2261.57 Q234.286 2258 230.652 2258 M230.652 2254.3 Q236.462 2254.3 239.518 2258.9 Q242.597 2263.49 242.597 2272.24 Q242.597 2280.96 239.518 2285.57 Q236.462 2290.15 230.652 2290.15 Q224.842 2290.15 221.763 2285.57 Q218.708 2280.96 218.708 2272.24 Q218.708 2263.49 221.763 2258.9 Q224.842 2254.3 230.652 2254.3 Z" fill="#000000" fill-rule="nonzero" fill-opacity="1" /><path clip-path="url(#clip270)" d="M250.814 2283.6 L255.698 2283.6 L255.698 2289.48 L250.814 2289.48 L250.814 2283.6 Z" fill="#000000" fill-rule="nonzero" fill-opacity="1" /><path clip-path="url(#clip270)" d="M275.883 2258 Q272.272 2258 270.444 2261.57 Q268.638 2265.11 268.638 2272.24 Q268.638 2279.34 270.444 2282.91 Q272.272 2286.45 275.883 2286.45 Q279.518 2286.45 281.323 2282.91 Q283.152 2279.34 283.152 2272.24 Q283.152 2265.11 281.323 2261.57 Q279.518 2258 275.883 2258 M275.883 2254.3 Q281.694 2254.3 284.749 2258.9 Q287.828 2263.49 287.828 2272.24 Q287.828 2280.96 284.749 2285.57 Q281.694 2290.15 275.883 2290.15 Q270.073 2290.15 266.995 2285.57 Q263.939 2280.96 263.939 2272.24 Q263.939 2263.49 266.995 2258.9 Q270.073 2254.3 275.883 2254.3 Z" fill="#000000" fill-rule="nonzero" fill-opacity="1" /><path clip-path="url(#clip270)" d="M306.045 2258 Q302.434 2258 300.606 2261.57 Q298.8 2265.11 298.8 2272.24 Q298.8 2279.34 300.606 2282.91 Q302.434 2286.45 306.045 2286.45 Q309.68 2286.45 311.485 2282.91 Q313.314 2279.34 313.314 2272.24 Q313.314 2265.11 311.485 2261.57 Q309.68 2258 306.045 2258 M306.045 2254.3 Q311.856 2254.3 314.911 2258.9 Q317.99 2263.49 317.99 2272.24 Q317.99 2280.96 314.911 2285.57 Q311.856 2290.15 306.045 2290.15 Q300.235 2290.15 297.157 2285.57 Q294.101 2280.96 294.101 2272.24 Q294.101 2263.49 297.157 2258.9 Q300.235 2254.3 306.045 2254.3 Z" fill="#000000" fill-rule="nonzero" fill-opacity="1" /><path clip-path="url(#clip270)" d="M336.207 2258 Q332.596 2258 330.767 2261.57 Q328.962 2265.11 328.962 2272.24 Q328.962 2279.34 330.767 2282.91 Q332.596 2286.45 336.207 2286.45 Q339.841 2286.45 341.647 2282.91 Q343.476 2279.34 343.476 2272.24 Q343.476 2265.11 341.647 2261.57 Q339.841 2258 336.207 2258 M336.207 2254.3 Q342.017 2254.3 345.073 2258.9 Q348.152 2263.49 348.152 2272.24 Q348.152 2280.96 345.073 2285.57 Q342.017 2290.15 336.207 2290.15 Q330.397 2290.15 327.318 2285.57 Q324.263 2280.96 324.263 2272.24 Q324.263 2263.49 327.318 2258.9 Q330.397 2254.3 336.207 2254.3 Z" fill="#000000" fill-rule="nonzero" fill-opacity="1" /><path clip-path="url(#clip270)" d="M231.648 1861.58 Q228.037 1861.58 226.208 1865.14 Q224.402 1868.68 224.402 1875.81 Q224.402 1882.92 226.208 1886.49 Q228.037 1890.03 231.648 1890.03 Q235.282 1890.03 237.087 1886.49 Q238.916 1882.92 238.916 1875.81 Q238.916 1868.68 237.087 1865.14 Q235.282 1861.58 231.648 1861.58 M231.648 1857.87 Q237.458 1857.87 240.513 1862.48 Q243.592 1867.06 243.592 1875.81 Q243.592 1884.54 240.513 1889.15 Q237.458 1893.73 231.648 1893.73 Q225.837 1893.73 222.759 1889.15 Q219.703 1884.54 219.703 1875.81 Q219.703 1867.06 222.759 1862.48 Q225.837 1857.87 231.648 1857.87 Z" fill="#000000" fill-rule="nonzero" fill-opacity="1" /><path clip-path="url(#clip270)" d="M251.81 1887.18 L256.694 1887.18 L256.694 1893.06 L251.81 1893.06 L251.81 1887.18 Z" fill="#000000" fill-rule="nonzero" fill-opacity="1" /><path clip-path="url(#clip270)" d="M276.879 1861.58 Q273.268 1861.58 271.439 1865.14 Q269.634 1868.68 269.634 1875.81 Q269.634 1882.92 271.439 1886.49 Q273.268 1890.03 276.879 1890.03 Q280.513 1890.03 282.319 1886.49 Q284.147 1882.92 284.147 1875.81 Q284.147 1868.68 282.319 1865.14 Q280.513 1861.58 276.879 1861.58 M276.879 1857.87 Q282.689 1857.87 285.745 1862.48 Q288.823 1867.06 288.823 1875.81 Q288.823 1884.54 285.745 1889.15 Q282.689 1893.73 276.879 1893.73 Q271.069 1893.73 267.99 1889.15 Q264.934 1884.54 264.934 1875.81 Q264.934 1867.06 267.99 1862.48 Q271.069 1857.87 276.879 1857.87 Z" fill="#000000" fill-rule="nonzero" fill-opacity="1" /><path clip-path="url(#clip270)" d="M307.041 1861.58 Q303.43 1861.58 301.601 1865.14 Q299.795 1868.68 299.795 1875.81 Q299.795 1882.92 301.601 1886.49 Q303.43 1890.03 307.041 1890.03 Q310.675 1890.03 312.481 1886.49 Q314.309 1882.92 314.309 1875.81 Q314.309 1868.68 312.481 1865.14 Q310.675 1861.58 307.041 1861.58 M307.041 1857.87 Q312.851 1857.87 315.906 1862.48 Q318.985 1867.06 318.985 1875.81 Q318.985 1884.54 315.906 1889.15 Q312.851 1893.73 307.041 1893.73 Q301.231 1893.73 298.152 1889.15 Q295.096 1884.54 295.096 1875.81 Q295.096 1867.06 298.152 1862.48 Q301.231 1857.87 307.041 1857.87 Z" fill="#000000" fill-rule="nonzero" fill-opacity="1" /><path clip-path="url(#clip270)" d="M327.249 1858.5 L345.605 1858.5 L345.605 1862.44 L331.531 1862.44 L331.531 1870.91 Q332.55 1870.56 333.568 1870.4 Q334.587 1870.21 335.605 1870.21 Q341.392 1870.21 344.772 1873.38 Q348.152 1876.56 348.152 1881.97 Q348.152 1887.55 344.679 1890.65 Q341.207 1893.73 334.888 1893.73 Q332.712 1893.73 330.443 1893.36 Q328.198 1892.99 325.791 1892.25 L325.791 1887.55 Q327.874 1888.68 330.096 1889.24 Q332.318 1889.8 334.795 1889.8 Q338.8 1889.8 341.138 1887.69 Q343.476 1885.58 343.476 1881.97 Q343.476 1878.36 341.138 1876.25 Q338.8 1874.15 334.795 1874.15 Q332.92 1874.15 331.045 1874.56 Q329.193 1874.98 327.249 1875.86 L327.249 1858.5 Z" fill="#000000" fill-rule="nonzero" fill-opacity="1" /><path clip-path="url(#clip270)" d="M230.652 1465.16 Q227.041 1465.16 225.212 1468.72 Q223.407 1472.26 223.407 1479.39 Q223.407 1486.5 225.212 1490.06 Q227.041 1493.6 230.652 1493.6 Q234.286 1493.6 236.092 1490.06 Q237.921 1486.5 237.921 1479.39 Q237.921 1472.26 236.092 1468.72 Q234.286 1465.16 230.652 1465.16 M230.652 1461.45 Q236.462 1461.45 239.518 1466.06 Q242.597 1470.64 242.597 1479.39 Q242.597 1488.12 239.518 1492.72 Q236.462 1497.31 230.652 1497.31 Q224.842 1497.31 221.763 1492.72 Q218.708 1488.12 218.708 1479.39 Q218.708 1470.64 221.763 1466.06 Q224.842 1461.45 230.652 1461.45 Z" fill="#000000" fill-rule="nonzero" fill-opacity="1" /><path clip-path="url(#clip270)" d="M250.814 1490.76 L255.698 1490.76 L255.698 1496.64 L250.814 1496.64 L250.814 1490.76 Z" fill="#000000" fill-rule="nonzero" fill-opacity="1" /><path clip-path="url(#clip270)" d="M275.883 1465.16 Q272.272 1465.16 270.444 1468.72 Q268.638 1472.26 268.638 1479.39 Q268.638 1486.5 270.444 1490.06 Q272.272 1493.6 275.883 1493.6 Q279.518 1493.6 281.323 1490.06 Q283.152 1486.5 283.152 1479.39 Q283.152 1472.26 281.323 1468.72 Q279.518 1465.16 275.883 1465.16 M275.883 1461.45 Q281.694 1461.45 284.749 1466.06 Q287.828 1470.64 287.828 1479.39 Q287.828 1488.12 284.749 1492.72 Q281.694 1497.31 275.883 1497.31 Q270.073 1497.31 266.995 1492.72 Q263.939 1488.12 263.939 1479.39 Q263.939 1470.64 266.995 1466.06 Q270.073 1461.45 275.883 1461.45 Z" fill="#000000" fill-rule="nonzero" fill-opacity="1" /><path clip-path="url(#clip270)" d="M296.856 1492.7 L304.494 1492.7 L304.494 1466.34 L296.184 1468 L296.184 1463.74 L304.448 1462.08 L309.124 1462.08 L309.124 1492.7 L316.763 1492.7 L316.763 1496.64 L296.856 1496.64 L296.856 1492.7 Z" fill="#000000" fill-rule="nonzero" fill-opacity="1" /><path clip-path="url(#clip270)" d="M336.207 1465.16 Q332.596 1465.16 330.767 1468.72 Q328.962 1472.26 328.962 1479.39 Q328.962 1486.5 330.767 1490.06 Q332.596 1493.6 336.207 1493.6 Q339.841 1493.6 341.647 1490.06 Q343.476 1486.5 343.476 1479.39 Q343.476 1472.26 341.647 1468.72 Q339.841 1465.16 336.207 1465.16 M336.207 1461.45 Q342.017 1461.45 345.073 1466.06 Q348.152 1470.64 348.152 1479.39 Q348.152 1488.12 345.073 1492.72 Q342.017 1497.31 336.207 1497.31 Q330.397 1497.31 327.318 1492.72 Q324.263 1488.12 324.263 1479.39 Q324.263 1470.64 327.318 1466.06 Q330.397 1461.45 336.207 1461.45 Z" fill="#000000" fill-rule="nonzero" fill-opacity="1" /><path clip-path="url(#clip270)" d="M231.648 1068.73 Q228.037 1068.73 226.208 1072.3 Q224.402 1075.84 224.402 1082.97 Q224.402 1090.07 226.208 1093.64 Q228.037 1097.18 231.648 1097.18 Q235.282 1097.18 237.087 1093.64 Q238.916 1090.07 238.916 1082.97 Q238.916 1075.84 237.087 1072.3 Q235.282 1068.73 231.648 1068.73 M231.648 1065.03 Q237.458 1065.03 240.513 1069.63 Q243.592 1074.22 243.592 1082.97 Q243.592 1091.69 240.513 1096.3 Q237.458 1100.88 231.648 1100.88 Q225.837 1100.88 222.759 1096.3 Q219.703 1091.69 219.703 1082.97 Q219.703 1074.22 222.759 1069.63 Q225.837 1065.03 231.648 1065.03 Z" fill="#000000" fill-rule="nonzero" fill-opacity="1" /><path clip-path="url(#clip270)" d="M251.81 1094.33 L256.694 1094.33 L256.694 1100.21 L251.81 1100.21 L251.81 1094.33 Z" fill="#000000" fill-rule="nonzero" fill-opacity="1" /><path clip-path="url(#clip270)" d="M276.879 1068.73 Q273.268 1068.73 271.439 1072.3 Q269.634 1075.84 269.634 1082.97 Q269.634 1090.07 271.439 1093.64 Q273.268 1097.18 276.879 1097.18 Q280.513 1097.18 282.319 1093.64 Q284.147 1090.07 284.147 1082.97 Q284.147 1075.84 282.319 1072.3 Q280.513 1068.73 276.879 1068.73 M276.879 1065.03 Q282.689 1065.03 285.745 1069.63 Q288.823 1074.22 288.823 1082.97 Q288.823 1091.69 285.745 1096.3 Q282.689 1100.88 276.879 1100.88 Q271.069 1100.88 267.99 1096.3 Q264.934 1091.69 264.934 1082.97 Q264.934 1074.22 267.99 1069.63 Q271.069 1065.03 276.879 1065.03 Z" fill="#000000" fill-rule="nonzero" fill-opacity="1" /><path clip-path="url(#clip270)" d="M297.851 1096.28 L305.49 1096.28 L305.49 1069.91 L297.18 1071.58 L297.18 1067.32 L305.444 1065.65 L310.119 1065.65 L310.119 1096.28 L317.758 1096.28 L317.758 1100.21 L297.851 1100.21 L297.851 1096.28 Z" fill="#000000" fill-rule="nonzero" fill-opacity="1" /><path clip-path="url(#clip270)" d="M327.249 1065.65 L345.605 1065.65 L345.605 1069.59 L331.531 1069.59 L331.531 1078.06 Q332.55 1077.71 333.568 1077.55 Q334.587 1077.37 335.605 1077.37 Q341.392 1077.37 344.772 1080.54 Q348.152 1083.71 348.152 1089.13 Q348.152 1094.7 344.679 1097.81 Q341.207 1100.88 334.888 1100.88 Q332.712 1100.88 330.443 1100.51 Q328.198 1100.14 325.791 1099.4 L325.791 1094.7 Q327.874 1095.84 330.096 1096.39 Q332.318 1096.95 334.795 1096.95 Q338.8 1096.95 341.138 1094.84 Q343.476 1092.74 343.476 1089.13 Q343.476 1085.51 341.138 1083.41 Q338.8 1081.3 334.795 1081.3 Q332.92 1081.3 331.045 1081.72 Q329.193 1082.13 327.249 1083.01 L327.249 1065.65 Z" fill="#000000" fill-rule="nonzero" fill-opacity="1" /><path clip-path="url(#clip270)" d="M230.652 672.308 Q227.041 672.308 225.212 675.873 Q223.407 679.415 223.407 686.544 Q223.407 693.651 225.212 697.216 Q227.041 700.757 230.652 700.757 Q234.286 700.757 236.092 697.216 Q237.921 693.651 237.921 686.544 Q237.921 679.415 236.092 675.873 Q234.286 672.308 230.652 672.308 M230.652 668.605 Q236.462 668.605 239.518 673.211 Q242.597 677.795 242.597 686.544 Q242.597 695.271 239.518 699.878 Q236.462 704.461 230.652 704.461 Q224.842 704.461 221.763 699.878 Q218.708 695.271 218.708 686.544 Q218.708 677.795 221.763 673.211 Q224.842 668.605 230.652 668.605 Z" fill="#000000" fill-rule="nonzero" fill-opacity="1" /><path clip-path="url(#clip270)" d="M250.814 697.91 L255.698 697.91 L255.698 703.79 L250.814 703.79 L250.814 697.91 Z" fill="#000000" fill-rule="nonzero" fill-opacity="1" /><path clip-path="url(#clip270)" d="M275.883 672.308 Q272.272 672.308 270.444 675.873 Q268.638 679.415 268.638 686.544 Q268.638 693.651 270.444 697.216 Q272.272 700.757 275.883 700.757 Q279.518 700.757 281.323 697.216 Q283.152 693.651 283.152 686.544 Q283.152 679.415 281.323 675.873 Q279.518 672.308 275.883 672.308 M275.883 668.605 Q281.694 668.605 284.749 673.211 Q287.828 677.795 287.828 686.544 Q287.828 695.271 284.749 699.878 Q281.694 704.461 275.883 704.461 Q270.073 704.461 266.995 699.878 Q263.939 695.271 263.939 686.544 Q263.939 677.795 266.995 673.211 Q270.073 668.605 275.883 668.605 Z" fill="#000000" fill-rule="nonzero" fill-opacity="1" /><path clip-path="url(#clip270)" d="M300.073 699.855 L316.393 699.855 L316.393 703.79 L294.448 703.79 L294.448 699.855 Q297.11 697.1 301.694 692.47 Q306.3 687.818 307.481 686.475 Q309.726 683.952 310.606 682.216 Q311.508 680.457 311.508 678.767 Q311.508 676.012 309.564 674.276 Q307.643 672.54 304.541 672.54 Q302.342 672.54 299.888 673.304 Q297.457 674.068 294.68 675.619 L294.68 670.896 Q297.504 669.762 299.957 669.183 Q302.411 668.605 304.448 668.605 Q309.818 668.605 313.013 671.29 Q316.207 673.975 316.207 678.466 Q316.207 680.595 315.397 682.517 Q314.61 684.415 312.504 687.007 Q311.925 687.679 308.823 690.896 Q305.721 694.091 300.073 699.855 Z" fill="#000000" fill-rule="nonzero" fill-opacity="1" /><path clip-path="url(#clip270)" d="M336.207 672.308 Q332.596 672.308 330.767 675.873 Q328.962 679.415 328.962 686.544 Q328.962 693.651 330.767 697.216 Q332.596 700.757 336.207 700.757 Q339.841 700.757 341.647 697.216 Q343.476 693.651 343.476 686.544 Q343.476 679.415 341.647 675.873 Q339.841 672.308 336.207 672.308 M336.207 668.605 Q342.017 668.605 345.073 673.211 Q348.152 677.795 348.152 686.544 Q348.152 695.271 345.073 699.878 Q342.017 704.461 336.207 704.461 Q330.397 704.461 327.318 699.878 Q324.263 695.271 324.263 686.544 Q324.263 677.795 327.318 673.211 Q330.397 668.605 336.207 668.605 Z" fill="#000000" fill-rule="nonzero" fill-opacity="1" /><path clip-path="url(#clip270)" d="M231.648 275.885 Q228.037 275.885 226.208 279.45 Q224.402 282.991 224.402 290.121 Q224.402 297.228 226.208 300.792 Q228.037 304.334 231.648 304.334 Q235.282 304.334 237.087 300.792 Q238.916 297.228 238.916 290.121 Q238.916 282.991 237.087 279.45 Q235.282 275.885 231.648 275.885 M231.648 272.181 Q237.458 272.181 240.513 276.788 Q243.592 281.371 243.592 290.121 Q243.592 298.848 240.513 303.454 Q237.458 308.038 231.648 308.038 Q225.837 308.038 222.759 303.454 Q219.703 298.848 219.703 290.121 Q219.703 281.371 222.759 276.788 Q225.837 272.181 231.648 272.181 Z" fill="#000000" fill-rule="nonzero" fill-opacity="1" /><path clip-path="url(#clip270)" d="M251.81 301.487 L256.694 301.487 L256.694 307.366 L251.81 307.366 L251.81 301.487 Z" fill="#000000" fill-rule="nonzero" fill-opacity="1" /><path clip-path="url(#clip270)" d="M276.879 275.885 Q273.268 275.885 271.439 279.45 Q269.634 282.991 269.634 290.121 Q269.634 297.228 271.439 300.792 Q273.268 304.334 276.879 304.334 Q280.513 304.334 282.319 300.792 Q284.147 297.228 284.147 290.121 Q284.147 282.991 282.319 279.45 Q280.513 275.885 276.879 275.885 M276.879 272.181 Q282.689 272.181 285.745 276.788 Q288.823 281.371 288.823 290.121 Q288.823 298.848 285.745 303.454 Q282.689 308.038 276.879 308.038 Q271.069 308.038 267.99 303.454 Q264.934 298.848 264.934 290.121 Q264.934 281.371 267.99 276.788 Q271.069 272.181 276.879 272.181 Z" fill="#000000" fill-rule="nonzero" fill-opacity="1" /><path clip-path="url(#clip270)" d="M301.069 303.431 L317.388 303.431 L317.388 307.366 L295.444 307.366 L295.444 303.431 Q298.106 300.677 302.689 296.047 Q307.295 291.394 308.476 290.052 Q310.721 287.528 311.601 285.792 Q312.504 284.033 312.504 282.343 Q312.504 279.589 310.559 277.853 Q308.638 276.117 305.536 276.117 Q303.337 276.117 300.883 276.88 Q298.453 277.644 295.675 279.195 L295.675 274.473 Q298.499 273.339 300.953 272.76 Q303.406 272.181 305.444 272.181 Q310.814 272.181 314.008 274.867 Q317.203 277.552 317.203 282.042 Q317.203 284.172 316.393 286.093 Q315.606 287.991 313.499 290.584 Q312.92 291.255 309.818 294.473 Q306.717 297.667 301.069 303.431 Z" fill="#000000" fill-rule="nonzero" fill-opacity="1" /><path clip-path="url(#clip270)" d="M327.249 272.806 L345.605 272.806 L345.605 276.742 L331.531 276.742 L331.531 285.214 Q332.55 284.866 333.568 284.704 Q334.587 284.519 335.605 284.519 Q341.392 284.519 344.772 287.691 Q348.152 290.862 348.152 296.278 Q348.152 301.857 344.679 304.959 Q341.207 308.038 334.888 308.038 Q332.712 308.038 330.443 307.667 Q328.198 307.297 325.791 306.556 L325.791 301.857 Q327.874 302.991 330.096 303.547 Q332.318 304.102 334.795 304.102 Q338.8 304.102 341.138 301.996 Q343.476 299.89 343.476 296.278 Q343.476 292.667 341.138 290.561 Q338.8 288.454 334.795 288.454 Q332.92 288.454 331.045 288.871 Q329.193 289.288 327.249 290.167 L327.249 272.806 Z" fill="#000000" fill-rule="nonzero" fill-opacity="1" /><path clip-path="url(#clip270)" d="M105.374 1517.3 Q113.923 1517.3 122.18 1521.63 Q130.436 1525.91 135.53 1532.64 Q140.566 1539.38 140.566 1546.23 Q140.566 1550.33 138.341 1553.08 Q136.058 1555.77 132.837 1557.24 Q136.819 1558.35 146.363 1560.75 Q155.908 1563.15 156.845 1563.15 Q157.372 1563.15 157.606 1563.03 Q157.84 1562.92 158.133 1562.39 Q158.484 1561.86 158.602 1560.57 Q158.777 1559.29 158.777 1557.12 Q158.777 1556.01 158.777 1555.6 Q158.836 1555.13 159.129 1554.72 Q159.421 1554.25 160.066 1554.25 Q162.466 1554.25 162.466 1556.42 Q162.466 1558.35 162.291 1562.33 Q162.115 1566.31 162.115 1568.3 Q162.115 1570 162.291 1573.4 Q162.466 1576.79 162.466 1578.37 Q162.466 1579.96 161.061 1579.96 Q160.241 1579.96 159.714 1579.72 Q159.246 1579.55 159.011 1579.08 Q158.836 1578.61 158.777 1578.2 Q158.777 1577.85 158.777 1577.14 Q158.777 1574.45 158.309 1573.28 Q157.899 1572.11 157.021 1571.7 Q156.201 1571.23 153.859 1570.7 L100.455 1557.24 Q96.8835 1556.42 94.3656 1556.42 Q91.2035 1556.42 90.0324 1557.41 Q88.8613 1558.41 88.8613 1560.16 Q88.8613 1563.21 92.4918 1565.2 Q96.1222 1567.19 103.149 1568.89 Q105.081 1569.42 105.491 1569.77 Q105.901 1570.06 105.901 1570.94 Q105.843 1572.4 104.671 1572.4 Q104.379 1572.4 102.505 1571.93 Q100.572 1571.46 97.7618 1570.59 Q94.8926 1569.65 93.0773 1568.65 Q91.8476 1568.07 91.0279 1567.54 Q90.2081 1567.01 88.9198 1565.96 Q87.6316 1564.85 86.9289 1563.27 Q86.2263 1561.69 86.2263 1559.75 Q86.2263 1556.01 88.4514 1552.9 Q90.6765 1549.8 95.1853 1548.98 Q91.2621 1545.64 88.7442 1541.54 Q86.2263 1537.44 86.2263 1533.29 Q86.2263 1526.38 91.6134 1521.87 Q96.942 1517.3 105.374 1517.3 M100.104 1525.97 Q94.7754 1525.97 91.8476 1528.02 Q88.8613 1530.01 88.8613 1533.64 Q88.8613 1538.15 93.4287 1543.36 Q97.7618 1548.51 101.802 1549.56 L125.283 1555.48 L127.216 1555.83 Q127.567 1555.83 128.621 1555.65 Q129.616 1555.42 131.256 1554.78 Q132.895 1554.07 134.359 1553.14 Q135.765 1552.14 136.819 1550.38 Q137.873 1548.57 137.873 1546.34 Q137.873 1542.77 134.711 1538.91 Q131.549 1534.98 125.576 1532.06 Q121.711 1530.24 113.396 1528.13 Q105.023 1525.97 100.104 1525.97 Z" fill="#000000" fill-rule="nonzero" fill-opacity="1" /><path clip-path="url(#clip270)" d="M140.42 1448.01 Q141.199 1448.01 141.855 1448.17 L156.447 1450.47 Q157.554 1450.59 157.964 1450.84 Q158.374 1451.04 158.374 1451.7 Q158.374 1452.72 157.308 1452.72 Q156.693 1452.72 155.709 1452.48 Q151.078 1451.78 148.987 1451.78 Q147.594 1451.78 146.569 1452.07 Q145.503 1452.31 144.765 1452.72 Q144.028 1453.09 143.536 1453.95 Q143.044 1454.81 142.757 1455.63 Q142.47 1456.45 142.347 1457.93 Q142.183 1459.41 142.142 1460.68 Q142.101 1461.95 142.101 1464.04 Q142.101 1468.59 142.265 1469.32 Q142.47 1470.1 143.085 1470.51 Q143.659 1470.88 145.38 1471.29 L189.936 1482.44 L191.698 1482.77 Q192.682 1482.77 193.01 1482.15 Q193.338 1481.54 193.543 1479.65 Q193.748 1476.95 193.748 1474.28 Q193.748 1474.2 193.748 1474.04 Q193.748 1473.14 193.789 1472.77 Q193.789 1472.4 193.87 1472.03 Q193.952 1471.66 194.157 1471.58 Q194.321 1471.46 194.649 1471.46 Q195.428 1471.46 195.838 1471.78 Q196.207 1472.11 196.289 1472.44 Q196.33 1472.73 196.33 1473.3 Q196.33 1474.45 196.248 1476.91 Q196.166 1479.37 196.166 1480.6 L196.084 1487.57 L196.166 1494.7 Q196.166 1495.8 196.248 1498.14 Q196.33 1500.48 196.33 1501.58 Q196.33 1503.02 195.305 1503.02 Q194.157 1503.02 193.952 1502.49 Q193.748 1501.91 193.748 1499.49 Q193.748 1496.09 193.584 1494.25 Q193.42 1492.4 192.846 1491.42 Q192.272 1490.39 191.698 1490.11 Q191.083 1489.82 189.69 1489.49 L144.888 1478.22 Q143.905 1477.89 143.126 1477.89 Q142.716 1477.89 142.552 1478.01 Q142.388 1478.1 142.265 1478.63 Q142.101 1479.16 142.101 1480.27 L142.101 1483.55 Q142.101 1486.91 142.265 1489 Q142.388 1491.05 143.003 1493.02 Q143.618 1494.94 144.478 1496.09 Q145.339 1497.2 147.102 1498.43 Q148.864 1499.66 150.996 1500.56 Q153.127 1501.42 156.611 1502.65 Q157.759 1503.06 158.087 1503.3 Q158.374 1503.51 158.374 1504.08 Q158.374 1504.49 158.128 1504.82 Q157.841 1505.11 157.472 1505.11 Q156.119 1504.7 155.955 1504.62 L141.158 1499.57 Q139.97 1499.17 139.765 1498.8 Q139.519 1498.39 139.519 1496.87 L139.519 1450.31 Q139.519 1449.57 139.519 1449.32 Q139.519 1449.08 139.601 1448.67 Q139.683 1448.26 139.888 1448.13 Q140.093 1448.01 140.42 1448.01 Z" fill="#000000" fill-rule="nonzero" fill-opacity="1" /><path clip-path="url(#clip270)" d="M160.218 1378.29 Q166.982 1378.29 173.622 1381.2 Q180.221 1384.07 185.222 1388.74 Q190.181 1393.38 193.256 1399.65 Q196.33 1405.92 196.33 1412.31 L196.33 1440.1 Q196.33 1441.09 196.289 1441.5 Q196.248 1441.87 196.043 1442.15 Q195.797 1442.44 195.305 1442.44 Q194.526 1442.44 194.198 1442.11 Q193.829 1441.78 193.789 1441.42 Q193.748 1441.05 193.748 1440.1 Q193.748 1438.05 193.625 1436.82 Q193.502 1435.59 193.338 1434.82 Q193.133 1434 192.559 1433.59 Q191.985 1433.14 191.493 1432.93 Q190.96 1432.73 189.772 1432.44 L144.683 1421.21 Q143.331 1420.88 143.126 1420.88 Q142.429 1420.88 142.183 1421.29 Q141.896 1421.66 141.773 1422.72 Q141.609 1424.77 141.609 1426.33 Q141.609 1427.36 141.568 1427.77 Q141.527 1428.13 141.322 1428.46 Q141.076 1428.75 140.584 1428.75 Q139.806 1428.75 139.478 1428.42 Q139.109 1428.05 139.068 1427.64 Q138.986 1427.23 138.986 1426.25 L138.986 1398.05 Q138.986 1391.94 141.855 1387.39 Q144.683 1382.84 149.479 1380.59 Q154.234 1378.29 160.218 1378.29 M157.144 1385.63 Q149.315 1385.63 145.462 1389.89 Q141.609 1394.11 141.609 1400.79 L141.609 1409.77 Q141.609 1412.44 142.101 1413.09 Q142.552 1413.75 144.806 1414.32 L190.878 1425.84 Q192.395 1426.25 192.805 1426.25 Q193.256 1426.25 193.42 1426.04 Q193.543 1425.8 193.625 1425.14 Q193.748 1424.4 193.748 1423.3 L193.748 1413.83 Q193.748 1410.18 192.764 1406.86 Q191.739 1403.5 190.14 1401.08 Q188.501 1398.66 187.107 1397.11 Q185.673 1395.55 184.238 1394.44 Q181 1391.94 176.778 1390.1 Q172.556 1388.21 168.703 1387.35 Q164.809 1386.45 161.94 1386.04 Q159.03 1385.63 157.144 1385.63 Z" fill="#000000" fill-rule="nonzero" fill-opacity="1" /><path clip-path="url(#clip270)" d="M141.527 1312.01 L156.037 1313.69 Q157.349 1313.81 157.759 1314.02 Q158.128 1314.22 158.128 1314.88 Q158.128 1315.86 157.144 1315.86 Q156.734 1315.86 155.627 1315.7 Q153.373 1315.45 151.078 1315.45 Q148.495 1315.45 146.897 1315.95 Q145.257 1316.4 144.069 1317.71 Q142.88 1319.02 142.388 1321.44 Q141.855 1323.86 141.855 1327.71 L141.855 1338.78 Q141.855 1341.48 142.347 1342.14 Q142.839 1342.75 145.134 1343.33 L166.449 1348.7 L166.449 1341.07 Q166.449 1335.74 164.891 1333.65 Q163.333 1331.56 158.374 1330.25 Q157.595 1330.05 157.308 1329.96 Q156.98 1329.84 156.816 1329.64 Q156.611 1329.39 156.611 1328.98 Q156.611 1328.61 156.857 1328.36 Q157.062 1328.12 157.308 1328.04 L157.554 1327.95 Q157.964 1327.95 158.907 1328.2 L177.106 1332.83 Q178.336 1333.16 178.622 1333.37 Q178.868 1333.53 178.868 1334.1 Q178.868 1334.51 178.581 1334.8 Q178.295 1335.09 177.844 1335.09 Q177.352 1335.01 176.942 1334.84 Q174.442 1334.27 172.843 1334.27 Q171.818 1334.27 171.203 1334.47 Q170.589 1334.68 170.056 1335.37 Q169.523 1336.07 169.277 1337.51 Q169.031 1338.94 169.031 1341.24 L169.031 1349.35 L189.936 1354.56 L191.862 1354.93 Q192.723 1354.93 193.051 1354.48 Q193.379 1353.98 193.543 1352.22 Q193.748 1349.6 193.748 1347.88 Q193.748 1345.74 193.829 1345.5 Q194.075 1345.01 194.731 1345.01 Q195.469 1345.01 195.879 1345.33 Q196.248 1345.66 196.289 1345.95 Q196.33 1346.24 196.33 1346.77 L196.084 1359.27 L196.33 1370.34 Q196.33 1371.61 195.305 1371.61 Q194.526 1371.61 194.198 1371.28 Q193.829 1370.95 193.789 1370.58 Q193.748 1370.21 193.748 1369.27 Q193.748 1367.22 193.625 1365.99 Q193.502 1364.76 193.338 1363.98 Q193.133 1363.16 192.559 1362.75 Q191.985 1362.3 191.493 1362.1 Q190.96 1361.89 189.772 1361.61 L145.38 1350.54 Q143.864 1350.13 143.372 1350.13 Q142.839 1350.13 142.511 1350.5 Q142.183 1350.83 142.06 1351.73 Q141.896 1352.63 141.896 1353.37 Q141.855 1354.07 141.855 1355.58 Q141.855 1356.57 141.814 1356.98 Q141.773 1357.34 141.568 1357.63 Q141.363 1357.92 140.912 1357.92 Q139.765 1357.92 139.519 1357.43 Q139.232 1356.89 139.232 1355.42 L139.232 1314.26 Q139.232 1312.62 139.601 1312.26 Q139.929 1311.85 141.527 1312.01 Z" fill="#000000" fill-rule="nonzero" fill-opacity="1" /><path clip-path="url(#clip270)" d="M151.652 1247.17 Q156.242 1247.17 160.464 1250.57 Q164.686 1253.93 167.268 1259.42 Q169.81 1264.87 169.81 1270.73 L169.81 1285 L190.796 1290.2 Q190.919 1290.25 191.452 1290.37 Q191.944 1290.49 192.231 1290.49 Q193.256 1290.49 193.502 1289.22 Q193.748 1287.91 193.748 1285 Q193.748 1283.11 194.075 1282.83 Q194.28 1282.66 194.649 1282.66 Q195.223 1282.66 195.633 1282.83 Q196.002 1282.99 196.125 1283.32 Q196.248 1283.61 196.289 1283.81 Q196.33 1284.02 196.33 1284.34 Q196.33 1285.2 196.248 1287.05 Q196.166 1288.85 196.166 1289.79 L196.084 1295.16 L196.33 1305.82 Q196.33 1307.09 195.305 1307.09 Q194.526 1307.09 194.198 1306.76 Q193.829 1306.44 193.789 1306.07 Q193.748 1305.7 193.748 1304.76 Q193.748 1302.71 193.625 1301.48 Q193.502 1300.25 193.338 1299.47 Q193.133 1298.65 192.559 1298.24 Q191.985 1297.79 191.493 1297.58 Q190.96 1297.38 189.772 1297.09 L144.683 1285.86 Q143.331 1285.53 143.126 1285.53 Q142.429 1285.53 142.183 1285.94 Q141.896 1286.31 141.773 1287.38 Q141.609 1289.43 141.609 1290.98 Q141.609 1292.01 141.568 1292.42 Q141.527 1292.79 141.322 1293.11 Q141.076 1293.4 140.584 1293.4 Q139.806 1293.4 139.478 1293.07 Q139.109 1292.7 139.068 1292.3 Q138.986 1291.89 138.986 1290.9 L138.986 1263.68 Q138.986 1255.86 142.716 1251.51 Q146.446 1247.17 151.652 1247.17 M149.643 1254.95 Q141.609 1254.95 141.609 1266.39 L141.609 1274.42 Q141.609 1277.09 142.101 1277.74 Q142.552 1278.4 144.806 1278.97 L167.637 1284.67 L167.637 1272.83 Q167.637 1264.87 163.17 1259.91 Q161.12 1257.66 156.857 1256.31 Q152.594 1254.95 149.643 1254.95 Z" fill="#000000" fill-rule="nonzero" fill-opacity="1" /><path clip-path="url(#clip270)" d="M107.541 1128.51 Q108.243 1127.8 109.239 1127.8 Q110.234 1127.8 110.937 1128.51 Q111.64 1129.21 111.64 1130.2 L111.64 1205.27 Q111.64 1206.27 110.937 1206.97 Q110.234 1207.67 109.239 1207.67 Q108.243 1207.67 107.541 1206.97 Q106.838 1206.27 106.838 1205.27 L106.838 1130.2 Q106.838 1129.21 107.541 1128.51 Z" fill="#000000" fill-rule="nonzero" fill-opacity="1" /><path clip-path="url(#clip270)" d="M70.7674 1082.01 L67.0198 1082.01 Q67.0198 1067.61 59.349 1060.17 Q59.349 1058.12 59.8174 1057.77 Q60.2859 1057.42 62.4525 1057.42 L129.733 1057.42 Q133.305 1057.42 134.418 1055.66 Q135.53 1053.9 135.53 1046.23 L135.53 1042.43 L139.22 1042.43 Q138.868 1046.64 138.868 1061.87 Q138.868 1077.09 139.22 1081.25 L135.53 1081.25 L135.53 1077.44 Q135.53 1069.89 134.476 1068.08 Q133.364 1066.26 129.733 1066.26 L67.6054 1066.26 Q70.7674 1072.53 70.7674 1082.01 Z" fill="#000000" fill-rule="nonzero" fill-opacity="1" /><path clip-path="url(#clip270)" d="M141.503 989.35 Q140.801 989.35 140.391 988.823 Q140.039 988.237 139.22 986.481 L112.342 927.925 Q110.176 923.357 109.239 921.015 Q108.302 923.416 106.135 927.925 L79.2581 986.481 Q79.141 986.715 78.9067 987.242 Q78.6725 987.769 78.4968 988.12 Q78.3212 988.413 78.087 988.706 Q77.7942 988.999 77.5599 989.174 Q77.3257 989.35 76.9744 989.35 Q75.8033 989.35 75.8033 988.003 Q75.8033 987.418 76.9744 985.017 L107.306 918.497 Q107.306 918.38 107.482 918.087 Q107.658 917.736 107.892 917.502 Q108.068 917.267 108.243 917.033 Q108.419 916.799 108.653 916.682 Q108.887 916.565 109.239 916.565 Q110.293 916.682 111.874 920.02 L141.503 985.017 Q142.674 987.418 142.674 988.003 Q142.674 989.35 141.503 989.35 Z" fill="#000000" fill-rule="nonzero" fill-opacity="1" /><path clip-path="url(#clip270)" d="M100.865 863.687 Q83.2399 863.687 73.6367 859.237 Q59.349 853.03 59.349 838.391 Q59.349 835.288 60.2273 832.067 Q61.0471 828.788 64.2677 824.689 Q67.4883 820.531 72.7583 818.014 Q82.9471 813.212 100.865 813.212 Q118.374 813.212 127.918 817.662 Q141.855 824.162 141.855 838.508 Q141.855 843.895 139.102 849.4 Q136.35 854.845 129.733 858.3 Q119.837 863.687 100.865 863.687 M99.4014 853.733 Q117.495 853.733 124.698 852.444 Q132.486 850.981 135.882 846.999 Q139.22 842.958 139.22 838.508 Q139.22 833.707 135.648 829.725 Q132.017 825.684 124.229 824.455 Q116.558 823.108 99.4014 823.166 Q82.7129 823.166 76.0375 824.338 Q68.2495 825.919 65.1461 830.135 Q61.984 834.292 61.984 838.508 Q61.984 840.089 62.4525 841.787 Q62.9209 843.427 64.2677 845.828 Q65.6145 848.228 68.9522 850.102 Q72.2899 851.917 77.3257 852.796 Q83.8255 853.733 99.4014 853.733 Z" fill="#000000" fill-rule="nonzero" fill-opacity="1" /><polyline clip-path="url(#clip272)" style="stroke:#ff0000; stroke-linecap:round; stroke-linejoin:round; stroke-width:32; stroke-opacity:1; fill:none" points="390.714,2272.2 397.276,2272.2 403.838,2272.2 410.4,2272.2 416.962,2272.2 423.524,2272.2 430.086,2272.2 436.648,2272.2 443.21,2272.2 449.772,2272.2 456.334,2272.2 462.896,2272.2 469.458,2272.2 476.02,2272.2 482.582,2272.2 489.144,2272.2 495.706,2272.2 502.268,2272.2 508.83,2272.2 515.392,2272.2 521.954,2272.2 528.516,2272.2 535.078,2272.2 541.64,2272.2 548.202,2272.2 554.764,2272.2 561.326,2272.2 567.888,2272.2 574.45,2272.2 581.012,2272.2 587.574,2272.2 594.136,2272.2 600.698,2272.2 607.26,2272.2 613.822,2272.2 620.384,2272.2 626.946,2272.2 633.508,2272.2 640.07,2272.2 646.632,2272.2 653.194,2272.2 659.756,2272.2 666.318,2272.2 672.88,2272.2 679.442,2272.2 686.004,2272.2 692.566,2272.2 699.128,2272.2 705.69,2272.2 712.252,2272.2 718.814,2272.2 725.376,2272.2 731.938,2272.2 738.5,2272.2 745.062,2272.2 751.624,2272.2 758.186,2272.2 764.748,2272.2 771.31,2272.2 777.872,2272.2 784.434,2272.2 790.997,2272.2 797.559,2272.2 804.121,2272.2 810.683,2272.2 817.245,2272.2 823.807,2272.2 830.369,2272.2 836.931,2272.2 843.493,2128.19 850.055,1897.12 856.617,1691.96 863.179,1511.84 869.741,1355.67 876.303,1222.22 882.865,1110.12 889.427,1017.86 895.989,943.89 902.551,886.56 909.113,844.204 915.675,815.14 922.237,797.698 928.799,790.235 935.361,791.154 941.923,798.921 948.485,812.073 955.047,829.231 961.609,849.106 968.171,870.509 974.733,892.348 981.295,913.64 987.857,933.502 994.419,951.162 1000.98,965.947 1007.54,977.292 1014.1,984.73 1020.67,987.894 1027.23,986.51 1033.79,980.397 1040.35,969.463 1046.92,953.697 1053.48,933.171 1060.04,908.03 1066.6,878.494 1073.16,844.846 1079.73,807.433 1086.29,766.662 1092.85,722.988 1099.41,676.916 1105.97,628.992 1112.54,579.798 1119.1,529.946 1125.66,480.069 1132.22,430.821 1138.78,382.861 1145.35,336.855 1151.91,293.46 1158.47,253.325 1165.03,217.076 1171.59,185.315 1178.16,158.606 1184.72,137.475 1191.28,122.4 1197.84,113.803 1204.4,112.049 1210.97,117.437 1217.53,130.2 1224.09,150.5 1230.65,178.425 1237.21,213.991 1243.78,257.14 1250.34,307.743 1256.9,365.598 1263.46,430.44 1270.02,501.939 1276.59,579.709 1283.15,663.309 1289.71,752.255 1296.27,846.022 1302.83,944.053 1309.4,1045.76 1315.96,1150.56 1322.52,1257.81 1329.08,1366.92 1335.64,1477.25 1342.21,1588.21 1348.77,1699.2 1355.33,1809.64 1361.89,1918.98 1368.45,2026.69 1375.02,2132.27 1381.58,2235.27 1388.14,2272.2 1394.7,2272.2 1401.26,2272.2 1407.83,2272.2 1414.39,2272.2 1420.95,2272.2 1427.51,2272.2 1434.07,2272.2 1440.64,2272.2 1447.2,2272.2 1453.76,2272.2 1460.32,2272.2 1466.88,2272.2 1473.45,2272.2 1480.01,2272.2 1486.57,2272.2 1493.13,2272.2 1499.69,2272.2 1506.26,2272.2 1512.82,2272.2 1519.38,2272.2 1525.94,2272.2 1532.5,2272.2 1539.07,2272.2 1545.63,2272.2 1552.19,2272.2 1558.75,2272.2 1565.31,2272.2 1571.88,2272.2 1578.44,2272.2 1585,2272.2 1591.56,2272.2 1598.12,2272.2 1604.69,2272.2 1611.25,2272.2 1617.81,2272.2 1624.37,2272.2 1630.93,2272.2 1637.5,2272.2 1644.06,2272.2 1650.62,2272.2 1657.18,2272.2 1663.74,2272.2 1670.31,2272.2 1676.87,2272.2 1683.43,2272.2 1689.99,2272.2 1696.55,2272.2 1703.12,2272.2 1709.68,2272.2 1716.24,2272.2 1722.8,2272.2 1729.36,2272.2 1735.93,2272.2 1742.49,2272.2 1749.05,2272.2 1755.61,2272.2 1762.17,2272.2 1768.74,2272.2 1775.3,2272.2 1781.86,2272.2 1788.42,2272.2 1794.98,2272.2 1801.55,2272.2 1808.11,2272.2 1814.67,2272.2 1821.23,2272.2 1827.79,2272.2 1834.36,2272.2 1840.92,2272.2 1847.48,2272.2 1854.04,2272.2 1860.6,2272.2 1867.17,2272.2 1873.73,2272.2 1880.29,2272.2 1886.85,2272.2 1893.41,2272.2 1899.98,2272.2 1906.54,2272.2 1913.1,2272.2 1919.66,2272.2 1926.22,2272.2 1932.79,2272.2 1939.35,2272.2 1945.91,2272.2 1952.47,2272.2 1959.04,2272.2 1965.6,2272.2 1972.16,2272.2 1978.72,2272.2 1985.28,2272.2 1991.85,2272.2 1998.41,2272.2 2004.97,2272.2 2011.53,2272.2 2018.09,2272.2 2024.66,2272.2 2031.22,2272.2 2037.78,2272.2 2044.34,2272.2 2050.9,2272.2 2057.47,2272.2 2064.03,2272.2 2070.59,2272.2 2077.15,2272.2 2083.71,2272.2 2090.28,2272.2 2096.84,2272.2 2103.4,2272.2 2109.96,2272.2 2116.52,2272.2 2123.09,2272.2 2129.65,2272.2 2136.21,2272.2 2142.77,2272.2 2149.33,2272.2 2155.9,2272.2 2162.46,2272.2 2169.02,2272.2 2175.58,2272.2 2182.14,2272.2 2188.71,2272.2 2195.27,2272.2 2201.83,2272.2 2208.39,2272.2 2214.95,2272.2 2221.52,2272.2 2228.08,2272.2 2234.64,2272.2 2241.2,2272.2 2247.76,2272.2 2254.33,2272.2 2260.89,2272.2 2267.45,2272.2 2274.01,2272.2 2280.57,2272.2 2287.14,2272.2 2293.7,2272.2 2300.26,2272.2 2306.82,2272.2 2313.38,2272.2 2319.95,2272.2 2326.51,2272.2 2333.07,2272.2 2339.63,2272.2 2346.19,2272.2 "/>
</svg>
