<?xml version="1.0" encoding="utf-8"?>
<svg xmlns="http://www.w3.org/2000/svg" xmlns:xlink="http://www.w3.org/1999/xlink" width="1400" height="600" viewBox="0 0 5600 2400">
<defs>
  <clipPath id="clip070">
    <rect x="0" y="0" width="5600" height="2400"/>
  </clipPath>
</defs>
<path clip-path="url(#clip070)" d="M0 2400 L5600 2400 L5600 0 L0 0  Z" fill="#ffffff" fill-rule="evenodd" fill-opacity="1"/>
<defs>
  <clipPath id="clip071">
    <rect x="1120" y="0" width="3921" height="2400"/>
  </clipPath>
</defs>
<path clip-path="url(#clip070)" d="M511.279 2077.77 L5552.76 2077.77 L5552.76 47.2441 L511.279 47.2441  Z" fill="#ffffff" fill-rule="evenodd" fill-opacity="1"/>
<defs>
  <clipPath id="clip072">
    <rect x="511" y="47" width="5042" height="2032"/>
  </clipPath>
</defs>
<polyline clip-path="url(#clip072)" style="stroke:#000000; stroke-linecap:round; stroke-linejoin:round; stroke-width:2; stroke-opacity:0.1; fill:none" points="511.279,2077.77 511.279,47.2441 "/>
<polyline clip-path="url(#clip072)" style="stroke:#000000; stroke-linecap:round; stroke-linejoin:round; stroke-width:2; stroke-opacity:0.1; fill:none" points="2191.77,2077.77 2191.77,47.2441 "/>
<polyline clip-path="url(#clip072)" style="stroke:#000000; stroke-linecap:round; stroke-linejoin:round; stroke-width:2; stroke-opacity:0.1; fill:none" points="3872.26,2077.77 3872.26,47.2441 "/>
<polyline clip-path="url(#clip072)" style="stroke:#000000; stroke-linecap:round; stroke-linejoin:round; stroke-width:2; stroke-opacity:0.1; fill:none" points="5552.76,2077.77 5552.76,47.2441 "/>
<polyline clip-path="url(#clip072)" style="stroke:#000000; stroke-linecap:round; stroke-linejoin:round; stroke-width:2; stroke-opacity:0.1; fill:none" points="511.279,2007.29 5552.76,2007.29 "/>
<polyline clip-path="url(#clip072)" style="stroke:#000000; stroke-linecap:round; stroke-linejoin:round; stroke-width:2; stroke-opacity:0.1; fill:none" points="511.279,1447.28 5552.76,1447.28 "/>
<polyline clip-path="url(#clip072)" style="stroke:#000000; stroke-linecap:round; stroke-linejoin:round; stroke-width:2; stroke-opacity:0.1; fill:none" points="511.279,887.263 5552.76,887.263 "/>
<polyline clip-path="url(#clip072)" style="stroke:#000000; stroke-linecap:round; stroke-linejoin:round; stroke-width:2; stroke-opacity:0.1; fill:none" points="511.279,327.25 5552.76,327.25 "/>
<polyline clip-path="url(#clip070)" style="stroke:#000000; stroke-linecap:round; stroke-linejoin:round; stroke-width:4; stroke-opacity:1; fill:none" points="511.279,2077.77 5552.76,2077.77 "/>
<polyline clip-path="url(#clip070)" style="stroke:#000000; stroke-linecap:round; stroke-linejoin:round; stroke-width:4; stroke-opacity:1; fill:none" points="511.279,2077.77 511.279,2058.87 "/>
<polyline clip-path="url(#clip070)" style="stroke:#000000; stroke-linecap:round; stroke-linejoin:round; stroke-width:4; stroke-opacity:1; fill:none" points="2191.77,2077.77 2191.77,2058.87 "/>
<polyline clip-path="url(#clip070)" style="stroke:#000000; stroke-linecap:round; stroke-linejoin:round; stroke-width:4; stroke-opacity:1; fill:none" points="3872.26,2077.77 3872.26,2058.87 "/>
<polyline clip-path="url(#clip070)" style="stroke:#000000; stroke-linecap:round; stroke-linejoin:round; stroke-width:4; stroke-opacity:1; fill:none" points="5552.76,2077.77 5552.76,2058.87 "/>
<path clip-path="url(#clip070)" d="M511.279 2134.29 Q507.668 2134.29 505.839 2137.85 Q504.034 2141.39 504.034 2148.52 Q504.034 2155.63 505.839 2159.19 Q507.668 2162.74 511.279 2162.74 Q514.913 2162.74 516.719 2159.19 Q518.547 2155.63 518.547 2148.52 Q518.547 2141.39 516.719 2137.85 Q514.913 2134.29 511.279 2134.29 M511.279 2130.58 Q517.089 2130.58 520.145 2135.19 Q523.223 2139.77 523.223 2148.52 Q523.223 2157.25 520.145 2161.86 Q517.089 2166.44 511.279 2166.44 Q505.469 2166.44 502.39 2161.86 Q499.335 2157.25 499.335 2148.52 Q499.335 2139.77 502.39 2135.19 Q505.469 2130.58 511.279 2130.58 Z" fill="#000000" fill-rule="nonzero" fill-opacity="1" /><path clip-path="url(#clip070)" d="M2166.46 2161.83 L2174.1 2161.83 L2174.1 2135.47 L2165.79 2137.13 L2165.79 2132.87 L2174.05 2131.21 L2178.73 2131.21 L2178.73 2161.83 L2186.37 2161.83 L2186.37 2165.77 L2166.46 2165.77 L2166.46 2161.83 Z" fill="#000000" fill-rule="nonzero" fill-opacity="1" /><path clip-path="url(#clip070)" d="M2205.81 2134.29 Q2202.2 2134.29 2200.37 2137.85 Q2198.57 2141.39 2198.57 2148.52 Q2198.57 2155.63 2200.37 2159.19 Q2202.2 2162.74 2205.81 2162.74 Q2209.44 2162.74 2211.25 2159.19 Q2213.08 2155.63 2213.08 2148.52 Q2213.08 2141.39 2211.25 2137.85 Q2209.44 2134.29 2205.81 2134.29 M2205.81 2130.58 Q2211.62 2130.58 2214.68 2135.19 Q2217.75 2139.77 2217.75 2148.52 Q2217.75 2157.25 2214.68 2161.86 Q2211.62 2166.44 2205.81 2166.44 Q2200 2166.44 2196.92 2161.86 Q2193.87 2157.25 2193.87 2148.52 Q2193.87 2139.77 2196.92 2135.19 Q2200 2130.58 2205.81 2130.58 Z" fill="#000000" fill-rule="nonzero" fill-opacity="1" /><path clip-path="url(#clip070)" d="M3851.04 2161.83 L3867.36 2161.83 L3867.36 2165.77 L3845.41 2165.77 L3845.41 2161.83 Q3848.07 2159.08 3852.66 2154.45 Q3857.26 2149.8 3858.44 2148.45 Q3860.69 2145.93 3861.57 2144.19 Q3862.47 2142.43 3862.47 2140.74 Q3862.47 2137.99 3860.53 2136.25 Q3858.61 2134.52 3855.5 2134.52 Q3853.31 2134.52 3850.85 2135.28 Q3848.42 2136.05 3845.64 2137.6 L3845.64 2132.87 Q3848.47 2131.74 3850.92 2131.16 Q3853.37 2130.58 3855.41 2130.58 Q3860.78 2130.58 3863.98 2133.27 Q3867.17 2135.95 3867.17 2140.44 Q3867.17 2142.57 3866.36 2144.49 Q3865.57 2146.39 3863.47 2148.99 Q3862.89 2149.66 3859.79 2152.87 Q3856.68 2156.07 3851.04 2161.83 Z" fill="#000000" fill-rule="nonzero" fill-opacity="1" /><path clip-path="url(#clip070)" d="M3887.17 2134.29 Q3883.56 2134.29 3881.73 2137.85 Q3879.93 2141.39 3879.93 2148.52 Q3879.93 2155.63 3881.73 2159.19 Q3883.56 2162.74 3887.17 2162.74 Q3890.81 2162.74 3892.61 2159.19 Q3894.44 2155.63 3894.44 2148.52 Q3894.44 2141.39 3892.61 2137.85 Q3890.81 2134.29 3887.17 2134.29 M3887.17 2130.58 Q3892.98 2130.58 3896.04 2135.19 Q3899.12 2139.77 3899.12 2148.52 Q3899.12 2157.25 3896.04 2161.86 Q3892.98 2166.44 3887.17 2166.44 Q3881.36 2166.44 3878.28 2161.86 Q3875.23 2157.25 3875.23 2148.52 Q3875.23 2139.77 3878.28 2135.19 Q3881.36 2130.58 3887.17 2130.58 Z" fill="#000000" fill-rule="nonzero" fill-opacity="1" /><path clip-path="url(#clip070)" d="M5541.6 2147.13 Q5544.96 2147.85 5546.83 2150.12 Q5548.73 2152.39 5548.73 2155.72 Q5548.73 2160.84 5545.21 2163.64 Q5541.69 2166.44 5535.21 2166.44 Q5533.03 2166.44 5530.72 2166 Q5528.43 2165.58 5525.97 2164.73 L5525.97 2160.21 Q5527.92 2161.35 5530.23 2161.92 Q5532.55 2162.5 5535.07 2162.5 Q5539.47 2162.5 5541.76 2160.77 Q5544.08 2159.03 5544.08 2155.72 Q5544.08 2152.67 5541.92 2150.95 Q5539.79 2149.22 5535.97 2149.22 L5531.95 2149.22 L5531.95 2145.37 L5536.16 2145.37 Q5539.61 2145.37 5541.44 2144.01 Q5543.27 2142.62 5543.27 2140.03 Q5543.27 2137.36 5541.37 2135.95 Q5539.49 2134.52 5535.97 2134.52 Q5534.05 2134.52 5531.85 2134.93 Q5529.65 2135.35 5527.02 2136.23 L5527.02 2132.06 Q5529.68 2131.32 5531.99 2130.95 Q5534.33 2130.58 5536.39 2130.58 Q5541.71 2130.58 5544.82 2133.01 Q5547.92 2135.42 5547.92 2139.54 Q5547.92 2142.41 5546.27 2144.4 Q5544.63 2146.37 5541.6 2147.13 Z" fill="#000000" fill-rule="nonzero" fill-opacity="1" /><path clip-path="url(#clip070)" d="M5567.59 2134.29 Q5563.98 2134.29 5562.15 2137.85 Q5560.35 2141.39 5560.35 2148.52 Q5560.35 2155.63 5562.15 2159.19 Q5563.98 2162.74 5567.59 2162.74 Q5571.23 2162.74 5573.03 2159.19 Q5574.86 2155.63 5574.86 2148.52 Q5574.86 2141.39 5573.03 2137.85 Q5571.23 2134.29 5567.59 2134.29 M5567.59 2130.58 Q5573.4 2130.58 5576.46 2135.19 Q5579.54 2139.77 5579.54 2148.52 Q5579.54 2157.25 5576.46 2161.86 Q5573.4 2166.44 5567.59 2166.44 Q5561.78 2166.44 5558.7 2161.86 Q5555.65 2157.25 5555.65 2148.52 Q5555.65 2139.77 5558.7 2135.19 Q5561.78 2130.58 5567.59 2130.58 Z" fill="#000000" fill-rule="nonzero" fill-opacity="1" /><path clip-path="url(#clip070)" d="M2803.38 2208.74 L2876.47 2208.74 L2876.47 2218.58 L2845.8 2218.58 L2845.8 2295.14 L2834.05 2295.14 L2834.05 2218.58 L2803.38 2218.58 L2803.38 2208.74 Z" fill="#000000" fill-rule="nonzero" fill-opacity="1" /><path clip-path="url(#clip070)" d="M2883.65 2230.33 L2894.3 2230.33 L2894.3 2295.14 L2883.65 2295.14 L2883.65 2230.33 M2883.65 2205.1 L2894.3 2205.1 L2894.3 2218.58 L2883.65 2218.58 L2883.65 2205.1 Z" fill="#000000" fill-rule="nonzero" fill-opacity="1" /><path clip-path="url(#clip070)" d="M2967.04 2242.77 Q2971.03 2235.59 2976.59 2232.18 Q2982.14 2228.77 2989.67 2228.77 Q2999.79 2228.77 3005.29 2235.88 Q3010.79 2242.94 3010.79 2256.02 L3010.79 2295.14 L3000.08 2295.14 L3000.08 2256.37 Q3000.08 2247.05 2996.79 2242.54 Q2993.49 2238.03 2986.72 2238.03 Q2978.44 2238.03 2973.64 2243.52 Q2968.83 2249.02 2968.83 2258.51 L2968.83 2295.14 L2958.13 2295.14 L2958.13 2256.37 Q2958.13 2246.99 2954.83 2242.54 Q2951.53 2238.03 2944.64 2238.03 Q2936.48 2238.03 2931.68 2243.58 Q2926.88 2249.08 2926.88 2258.51 L2926.88 2295.14 L2916.17 2295.14 L2916.17 2230.33 L2926.88 2230.33 L2926.88 2240.4 Q2930.52 2234.44 2935.62 2231.6 Q2940.71 2228.77 2947.71 2228.77 Q2954.77 2228.77 2959.69 2232.35 Q2964.67 2235.94 2967.04 2242.77 Z" fill="#000000" fill-rule="nonzero" fill-opacity="1" /><path clip-path="url(#clip070)" d="M3087.47 2260.07 L3087.47 2265.28 L3038.51 2265.28 Q3039.2 2276.28 3045.11 2282.06 Q3051.07 2287.79 3061.66 2287.79 Q3067.79 2287.79 3073.52 2286.29 Q3079.31 2284.78 3084.98 2281.77 L3084.98 2291.84 Q3079.25 2294.27 3073.23 2295.55 Q3067.21 2296.82 3061.02 2296.82 Q3045.51 2296.82 3036.43 2287.79 Q3027.4 2278.77 3027.4 2263.37 Q3027.4 2247.46 3035.96 2238.14 Q3044.59 2228.77 3059.17 2228.77 Q3072.25 2228.77 3079.83 2237.21 Q3087.47 2245.61 3087.47 2260.07 M3076.82 2256.95 Q3076.7 2248.21 3071.9 2243 Q3067.16 2237.79 3059.28 2237.79 Q3050.37 2237.79 3044.99 2242.83 Q3039.67 2247.86 3038.86 2257.01 L3076.82 2256.95 Z" fill="#000000" fill-rule="nonzero" fill-opacity="1" /><path clip-path="url(#clip070)" d="M3131.45 2265.16 Q3131.45 2244.9 3139 2228.56 Q3142.22 2221.71 3146.73 2215.98 Q3151.24 2210.24 3154.23 2207.72 Q3157.21 2205.2 3158.03 2205.2 Q3159.2 2205.2 3159.26 2206.37 Q3159.26 2206.96 3157.68 2208.42 Q3138.36 2228.1 3138.42 2265.16 Q3138.42 2302.35 3157.21 2321.26 Q3159.26 2323.31 3159.26 2323.95 Q3159.26 2325.12 3158.03 2325.12 Q3157.21 2325.12 3154.34 2322.72 Q3151.47 2320.32 3147.02 2314.82 Q3142.57 2309.31 3139.35 2302.58 Q3131.45 2286.24 3131.45 2265.16 Z" fill="#000000" fill-rule="nonzero" fill-opacity="1" /><path clip-path="url(#clip070)" d="M3205.21 2244.78 Q3205.21 2246.42 3204.45 2246.83 Q3203.69 2247.19 3201.58 2247.19 L3190.34 2247.19 L3181.44 2282.55 Q3180.73 2285.66 3180.73 2288.29 Q3180.73 2291.22 3181.61 2292.51 Q3182.55 2293.8 3184.48 2293.8 Q3188.29 2293.8 3192.39 2290.34 Q3196.55 2286.89 3200.06 2278.45 Q3200.53 2277.34 3200.76 2277.11 Q3201.05 2276.81 3201.82 2276.81 Q3203.28 2276.81 3203.28 2277.99 Q3203.28 2278.4 3202.46 2280.27 Q3201.7 2282.14 3200 2284.9 Q3198.36 2287.65 3196.19 2290.22 Q3194.09 2292.8 3190.87 2294.67 Q3187.64 2296.49 3184.19 2296.49 Q3179.33 2296.49 3176.23 2293.39 Q3173.18 2290.28 3173.18 2285.42 Q3173.18 2283.84 3174.41 2278.81 Q3175.64 2273.71 3182.32 2247.19 L3171.72 2247.19 Q3170.25 2247.19 3169.67 2247.13 Q3169.14 2247.07 3168.73 2246.78 Q3168.38 2246.42 3168.38 2245.72 Q3168.38 2244.61 3168.85 2244.14 Q3169.32 2243.61 3169.9 2243.55 Q3170.55 2243.44 3172.01 2243.44 L3183.25 2243.44 L3187.94 2224.41 Q3188.41 2222.53 3189.58 2221.48 Q3190.81 2220.37 3191.51 2220.25 Q3192.21 2220.07 3192.74 2220.07 Q3194.32 2220.07 3195.26 2220.95 Q3196.19 2221.77 3196.19 2223.29 Q3196.19 2224.11 3191.28 2243.44 L3201.82 2243.44 Q3203.16 2243.44 3203.69 2243.5 Q3204.27 2243.55 3204.74 2243.85 Q3205.21 2244.14 3205.21 2244.78 Z" fill="#000000" fill-rule="nonzero" fill-opacity="1" /><path clip-path="url(#clip070)" d="M3214.6 2323.95 Q3214.6 2323.37 3216.12 2321.9 Q3235.45 2302.23 3235.45 2265.16 Q3235.45 2227.98 3216.88 2209.18 Q3214.6 2207.02 3214.6 2206.37 Q3214.6 2205.2 3215.77 2205.2 Q3216.59 2205.2 3219.46 2207.6 Q3222.39 2210 3226.78 2215.51 Q3231.23 2221.01 3234.51 2227.74 Q3242.41 2244.08 3242.41 2265.16 Q3242.41 2285.42 3234.86 2301.76 Q3231.64 2308.61 3227.13 2314.35 Q3222.62 2320.09 3219.64 2322.61 Q3216.65 2325.12 3215.77 2325.12 Q3214.6 2325.12 3214.6 2323.95 Z" fill="#000000" fill-rule="nonzero" fill-opacity="1" /><polyline clip-path="url(#clip070)" style="stroke:#000000; stroke-linecap:round; stroke-linejoin:round; stroke-width:4; stroke-opacity:1; fill:none" points="511.279,2077.77 511.279,47.2441 "/>
<polyline clip-path="url(#clip070)" style="stroke:#000000; stroke-linecap:round; stroke-linejoin:round; stroke-width:4; stroke-opacity:1; fill:none" points="511.279,2007.29 530.177,2007.29 "/>
<polyline clip-path="url(#clip070)" style="stroke:#000000; stroke-linecap:round; stroke-linejoin:round; stroke-width:4; stroke-opacity:1; fill:none" points="511.279,1447.28 530.177,1447.28 "/>
<polyline clip-path="url(#clip070)" style="stroke:#000000; stroke-linecap:round; stroke-linejoin:round; stroke-width:4; stroke-opacity:1; fill:none" points="511.279,887.263 530.177,887.263 "/>
<polyline clip-path="url(#clip070)" style="stroke:#000000; stroke-linecap:round; stroke-linejoin:round; stroke-width:4; stroke-opacity:1; fill:none" points="511.279,327.25 530.177,327.25 "/>
<path clip-path="url(#clip070)" d="M371.006 1993.09 Q367.395 1993.09 365.566 1996.65 Q363.761 2000.19 363.761 2007.32 Q363.761 2014.43 365.566 2017.99 Q367.395 2021.54 371.006 2021.54 Q374.64 2021.54 376.446 2017.99 Q378.275 2014.43 378.275 2007.32 Q378.275 2000.19 376.446 1996.65 Q374.64 1993.09 371.006 1993.09 M371.006 1989.38 Q376.816 1989.38 379.872 1993.99 Q382.95 1998.57 382.95 2007.32 Q382.95 2016.05 379.872 2020.66 Q376.816 2025.24 371.006 2025.24 Q365.196 2025.24 362.117 2020.66 Q359.062 2016.05 359.062 2007.32 Q359.062 1998.57 362.117 1993.99 Q365.196 1989.38 371.006 1989.38 Z" fill="#000000" fill-rule="nonzero" fill-opacity="1" /><path clip-path="url(#clip070)" d="M391.168 2018.69 L396.052 2018.69 L396.052 2024.57 L391.168 2024.57 L391.168 2018.69 Z" fill="#000000" fill-rule="nonzero" fill-opacity="1" /><path clip-path="url(#clip070)" d="M405.057 1990.01 L427.279 1990.01 L427.279 1992 L414.733 2024.57 L409.848 2024.57 L421.654 1993.94 L405.057 1993.94 L405.057 1990.01 Z" fill="#000000" fill-rule="nonzero" fill-opacity="1" /><path clip-path="url(#clip070)" d="M370.196 1433.07 Q366.585 1433.07 364.756 1436.64 Q362.951 1440.18 362.951 1447.31 Q362.951 1454.42 364.756 1457.98 Q366.585 1461.52 370.196 1461.52 Q373.83 1461.52 375.636 1457.98 Q377.464 1454.42 377.464 1447.31 Q377.464 1440.18 375.636 1436.64 Q373.83 1433.07 370.196 1433.07 M370.196 1429.37 Q376.006 1429.37 379.062 1433.98 Q382.14 1438.56 382.14 1447.31 Q382.14 1456.04 379.062 1460.64 Q376.006 1465.23 370.196 1465.23 Q364.386 1465.23 361.307 1460.64 Q358.252 1456.04 358.252 1447.31 Q358.252 1438.56 361.307 1433.98 Q364.386 1429.37 370.196 1429.37 Z" fill="#000000" fill-rule="nonzero" fill-opacity="1" /><path clip-path="url(#clip070)" d="M390.358 1458.68 L395.242 1458.68 L395.242 1464.56 L390.358 1464.56 L390.358 1458.68 Z" fill="#000000" fill-rule="nonzero" fill-opacity="1" /><path clip-path="url(#clip070)" d="M415.427 1448.14 Q412.094 1448.14 410.173 1449.93 Q408.274 1451.71 408.274 1454.83 Q408.274 1457.96 410.173 1459.74 Q412.094 1461.52 415.427 1461.52 Q418.76 1461.52 420.682 1459.74 Q422.603 1457.94 422.603 1454.83 Q422.603 1451.71 420.682 1449.93 Q418.784 1448.14 415.427 1448.14 M410.751 1446.15 Q407.742 1445.41 406.052 1443.35 Q404.386 1441.29 404.386 1438.33 Q404.386 1434.19 407.325 1431.78 Q410.288 1429.37 415.427 1429.37 Q420.589 1429.37 423.529 1431.78 Q426.469 1434.19 426.469 1438.33 Q426.469 1441.29 424.779 1443.35 Q423.112 1445.41 420.126 1446.15 Q423.506 1446.94 425.381 1449.23 Q427.279 1451.52 427.279 1454.83 Q427.279 1459.86 424.2 1462.54 Q421.145 1465.23 415.427 1465.23 Q409.71 1465.23 406.631 1462.54 Q403.575 1459.86 403.575 1454.83 Q403.575 1451.52 405.473 1449.23 Q407.372 1446.94 410.751 1446.15 M409.038 1438.77 Q409.038 1441.45 410.705 1442.96 Q412.395 1444.46 415.427 1444.46 Q418.436 1444.46 420.126 1442.96 Q421.839 1441.45 421.839 1438.77 Q421.839 1436.08 420.126 1434.58 Q418.436 1433.07 415.427 1433.07 Q412.395 1433.07 410.705 1434.58 Q409.038 1436.08 409.038 1438.77 Z" fill="#000000" fill-rule="nonzero" fill-opacity="1" /><path clip-path="url(#clip070)" d="M370.288 873.062 Q366.677 873.062 364.849 876.627 Q363.043 880.168 363.043 887.298 Q363.043 894.404 364.849 897.969 Q366.677 901.511 370.288 901.511 Q373.923 901.511 375.728 897.969 Q377.557 894.404 377.557 887.298 Q377.557 880.168 375.728 876.627 Q373.923 873.062 370.288 873.062 M370.288 869.358 Q376.099 869.358 379.154 873.965 Q382.233 878.548 382.233 887.298 Q382.233 896.025 379.154 900.631 Q376.099 905.215 370.288 905.215 Q364.478 905.215 361.4 900.631 Q358.344 896.025 358.344 887.298 Q358.344 878.548 361.4 873.965 Q364.478 869.358 370.288 869.358 Z" fill="#000000" fill-rule="nonzero" fill-opacity="1" /><path clip-path="url(#clip070)" d="M390.45 898.664 L395.335 898.664 L395.335 904.543 L390.45 904.543 L390.45 898.664 Z" fill="#000000" fill-rule="nonzero" fill-opacity="1" /><path clip-path="url(#clip070)" d="M405.659 903.826 L405.659 899.566 Q407.418 900.4 409.223 900.84 Q411.029 901.279 412.765 901.279 Q417.395 901.279 419.825 898.178 Q422.279 895.053 422.626 888.71 Q421.284 890.701 419.223 891.766 Q417.163 892.83 414.663 892.83 Q409.478 892.83 406.446 889.705 Q403.436 886.557 403.436 881.117 Q403.436 875.793 406.585 872.576 Q409.733 869.358 414.964 869.358 Q420.96 869.358 424.108 873.965 Q427.279 878.548 427.279 887.298 Q427.279 895.469 423.39 900.353 Q419.524 905.215 412.973 905.215 Q411.214 905.215 409.409 904.867 Q407.603 904.52 405.659 903.826 M414.964 889.173 Q418.112 889.173 419.941 887.02 Q421.793 884.867 421.793 881.117 Q421.793 877.391 419.941 875.238 Q418.112 873.062 414.964 873.062 Q411.816 873.062 409.964 875.238 Q408.136 877.391 408.136 881.117 Q408.136 884.867 409.964 887.02 Q411.816 889.173 414.964 889.173 Z" fill="#000000" fill-rule="nonzero" fill-opacity="1" /><path clip-path="url(#clip070)" d="M360.914 340.595 L368.552 340.595 L368.552 314.23 L360.242 315.896 L360.242 311.637 L368.506 309.97 L373.182 309.97 L373.182 340.595 L380.821 340.595 L380.821 344.53 L360.914 344.53 L360.914 340.595 Z" fill="#000000" fill-rule="nonzero" fill-opacity="1" /><path clip-path="url(#clip070)" d="M390.265 338.651 L395.149 338.651 L395.149 344.53 L390.265 344.53 L390.265 338.651 Z" fill="#000000" fill-rule="nonzero" fill-opacity="1" /><path clip-path="url(#clip070)" d="M415.335 313.049 Q411.723 313.049 409.895 316.614 Q408.089 320.156 408.089 327.285 Q408.089 334.392 409.895 337.956 Q411.723 341.498 415.335 341.498 Q418.969 341.498 420.774 337.956 Q422.603 334.392 422.603 327.285 Q422.603 320.156 420.774 316.614 Q418.969 313.049 415.335 313.049 M415.335 309.345 Q421.145 309.345 424.2 313.952 Q427.279 318.535 427.279 327.285 Q427.279 336.012 424.2 340.618 Q421.145 345.202 415.335 345.202 Q409.524 345.202 406.446 340.618 Q403.39 336.012 403.39 327.285 Q403.39 318.535 406.446 313.952 Q409.524 309.345 415.335 309.345 Z" fill="#000000" fill-rule="nonzero" fill-opacity="1" /><path clip-path="url(#clip070)" d="M165.707 1749.6 L165.707 1676.51 L175.545 1676.51 L175.545 1707.18 L252.107 1707.18 L252.107 1718.93 L175.545 1718.93 L175.545 1749.6 L165.707 1749.6 Z" fill="#000000" fill-rule="nonzero" fill-opacity="1" /><path clip-path="url(#clip070)" d="M175.313 1653.54 L242.5 1653.54 L242.5 1639.42 Q242.5 1621.53 234.399 1613.26 Q226.297 1604.93 208.82 1604.93 Q191.459 1604.93 183.415 1613.26 Q175.313 1621.53 175.313 1639.42 L175.313 1653.54 M165.707 1665.23 L165.707 1641.21 Q165.707 1616.09 176.181 1604.35 Q186.598 1592.6 208.82 1592.6 Q231.158 1592.6 241.632 1604.41 Q252.107 1616.21 252.107 1641.21 L252.107 1665.23 L165.707 1665.23 Z" fill="#000000" fill-rule="nonzero" fill-opacity="1" /><path clip-path="url(#clip070)" d="M165.707 1573.97 L165.707 1524.31 L175.545 1524.31 L175.545 1562.28 L201.008 1562.28 L201.008 1528.02 L210.845 1528.02 L210.845 1562.28 L252.107 1562.28 L252.107 1573.97 L165.707 1573.97 Z" fill="#000000" fill-rule="nonzero" fill-opacity="1" /><path clip-path="url(#clip070)" d="M175.313 1494.1 L207.778 1494.1 L207.778 1479.41 Q207.778 1471.25 203.554 1466.79 Q199.329 1462.33 191.517 1462.33 Q183.762 1462.33 179.538 1466.79 Q175.313 1471.25 175.313 1479.41 L175.313 1494.1 M165.707 1505.79 L165.707 1479.41 Q165.707 1464.88 172.304 1457.47 Q178.843 1450.01 191.517 1450.01 Q204.306 1450.01 210.845 1457.47 Q217.385 1464.88 217.385 1479.41 L217.385 1494.1 L252.107 1494.1 L252.107 1505.79 L165.707 1505.79 Z" fill="#000000" fill-rule="nonzero" fill-opacity="1" /><path clip-path="url(#clip070)" d="M175.313 1384.96 L207.778 1384.96 L207.778 1370.26 Q207.778 1362.1 203.554 1357.65 Q199.329 1353.19 191.517 1353.19 Q183.762 1353.19 179.538 1357.65 Q175.313 1362.1 175.313 1370.26 L175.313 1384.96 M165.707 1396.65 L165.707 1370.26 Q165.707 1355.74 172.304 1348.33 Q178.843 1340.86 191.517 1340.86 Q204.306 1340.86 210.845 1348.33 Q217.385 1355.74 217.385 1370.26 L217.385 1384.96 L252.107 1384.96 L252.107 1396.65 L165.707 1396.65 Z" fill="#000000" fill-rule="nonzero" fill-opacity="1" /><path clip-path="url(#clip070)" d="M194.758 1304.75 Q194.758 1313.32 201.471 1318.3 Q208.126 1323.27 219.757 1323.27 Q231.389 1323.27 238.102 1318.35 Q244.757 1313.38 244.757 1304.75 Q244.757 1296.25 238.044 1291.27 Q231.331 1286.29 219.757 1286.29 Q208.241 1286.29 201.528 1291.27 Q194.758 1296.25 194.758 1304.75 M185.73 1304.75 Q185.73 1290.87 194.758 1282.94 Q203.785 1275.01 219.757 1275.01 Q235.672 1275.01 244.757 1282.94 Q253.785 1290.87 253.785 1304.75 Q253.785 1318.7 244.757 1326.63 Q235.672 1334.5 219.757 1334.5 Q203.785 1334.5 194.758 1326.63 Q185.73 1318.7 185.73 1304.75 Z" fill="#000000" fill-rule="nonzero" fill-opacity="1" /><path clip-path="url(#clip070)" d="M242.385 1247.06 L276.759 1247.06 L276.759 1257.76 L187.292 1257.76 L187.292 1247.06 L197.13 1247.06 Q191.343 1243.7 188.566 1238.61 Q185.73 1233.46 185.73 1226.34 Q185.73 1214.53 195.105 1207.19 Q204.48 1199.78 219.757 1199.78 Q235.035 1199.78 244.41 1207.19 Q253.785 1214.53 253.785 1226.34 Q253.785 1233.46 251.007 1238.61 Q248.172 1243.7 242.385 1247.06 M219.757 1210.83 Q208.01 1210.83 201.355 1215.69 Q194.642 1220.5 194.642 1228.94 Q194.642 1237.39 201.355 1242.25 Q208.01 1247.06 219.757 1247.06 Q231.505 1247.06 238.218 1242.25 Q244.873 1237.39 244.873 1228.94 Q244.873 1220.5 238.218 1215.69 Q231.505 1210.83 219.757 1210.83 Z" fill="#000000" fill-rule="nonzero" fill-opacity="1" /><path clip-path="url(#clip070)" d="M226.528 1183.23 L187.292 1183.23 L187.292 1172.58 L226.123 1172.58 Q235.325 1172.58 239.954 1168.99 Q244.526 1165.4 244.526 1158.23 Q244.526 1149.6 239.028 1144.63 Q233.531 1139.59 224.04 1139.59 L187.292 1139.59 L187.292 1128.94 L252.107 1128.94 L252.107 1139.59 L242.153 1139.59 Q248.056 1143.47 250.949 1148.62 Q253.785 1153.71 253.785 1160.48 Q253.785 1171.65 246.841 1177.44 Q239.896 1183.23 226.528 1183.23 M185.73 1156.43 L185.73 1156.43 Z" fill="#000000" fill-rule="nonzero" fill-opacity="1" /><path clip-path="url(#clip070)" d="M162.061 1107.01 L162.061 1096.36 L252.107 1096.36 L252.107 1107.01 L162.061 1107.01 Z" fill="#000000" fill-rule="nonzero" fill-opacity="1" /><path clip-path="url(#clip070)" d="M219.526 1044.63 Q219.526 1057.53 222.477 1062.51 Q225.429 1067.49 232.547 1067.49 Q238.218 1067.49 241.574 1063.78 Q244.873 1060.02 244.873 1053.6 Q244.873 1044.74 238.623 1039.42 Q232.315 1034.04 221.899 1034.04 L219.526 1034.04 L219.526 1044.63 M215.128 1023.39 L252.107 1023.39 L252.107 1034.04 L242.269 1034.04 Q248.172 1037.68 251.007 1043.12 Q253.785 1048.56 253.785 1056.43 Q253.785 1066.39 248.23 1072.29 Q242.616 1078.13 233.241 1078.13 Q222.304 1078.13 216.748 1070.84 Q211.193 1063.49 211.193 1048.97 L211.193 1034.04 L210.151 1034.04 Q202.802 1034.04 198.809 1038.9 Q194.758 1043.7 194.758 1052.44 Q194.758 1058 196.089 1063.26 Q197.42 1068.53 200.082 1073.39 L190.244 1073.39 Q187.987 1067.54 186.887 1062.05 Q185.73 1056.55 185.73 1051.34 Q185.73 1037.28 193.021 1030.33 Q200.313 1023.39 215.128 1023.39 Z" fill="#000000" fill-rule="nonzero" fill-opacity="1" /><path clip-path="url(#clip070)" d="M168.89 990.925 L187.292 990.925 L187.292 968.992 L195.568 968.992 L195.568 990.925 L230.753 990.925 Q238.681 990.925 240.938 988.783 Q243.195 986.584 243.195 979.929 L243.195 968.992 L252.107 968.992 L252.107 979.929 Q252.107 992.256 247.535 996.943 Q242.905 1001.63 230.753 1001.63 L195.568 1001.63 L195.568 1009.44 L187.292 1009.44 L187.292 1001.63 L168.89 1001.63 L168.89 990.925 Z" fill="#000000" fill-rule="nonzero" fill-opacity="1" /><path clip-path="url(#clip070)" d="M187.292 954.987 L187.292 944.339 L252.107 944.339 L252.107 954.987 L187.292 954.987 M162.061 954.987 L162.061 944.339 L175.545 944.339 L175.545 954.987 L162.061 954.987 Z" fill="#000000" fill-rule="nonzero" fill-opacity="1" /><path clip-path="url(#clip070)" d="M194.758 896.944 Q194.758 905.508 201.471 910.485 Q208.126 915.462 219.757 915.462 Q231.389 915.462 238.102 910.543 Q244.757 905.566 244.757 896.944 Q244.757 888.437 238.044 883.46 Q231.331 878.483 219.757 878.483 Q208.241 878.483 201.528 883.46 Q194.758 888.437 194.758 896.944 M185.73 896.944 Q185.73 883.055 194.758 875.127 Q203.785 867.198 219.757 867.198 Q235.672 867.198 244.757 875.127 Q253.785 883.055 253.785 896.944 Q253.785 910.89 244.757 918.819 Q235.672 926.689 219.757 926.689 Q203.785 926.689 194.758 918.819 Q185.73 910.89 185.73 896.944 Z" fill="#000000" fill-rule="nonzero" fill-opacity="1" /><path clip-path="url(#clip070)" d="M212.987 795.671 L252.107 795.671 L252.107 806.319 L213.334 806.319 Q204.133 806.319 199.561 809.907 Q194.989 813.495 194.989 820.671 Q194.989 829.294 200.487 834.27 Q205.984 839.247 215.475 839.247 L252.107 839.247 L252.107 849.953 L187.292 849.953 L187.292 839.247 L197.362 839.247 Q191.517 835.428 188.623 830.277 Q185.73 825.069 185.73 818.298 Q185.73 807.129 192.674 801.4 Q199.561 795.671 212.987 795.671 Z" fill="#000000" fill-rule="nonzero" fill-opacity="1" /><path clip-path="url(#clip070)" d="M194.758 711.644 Q194.758 720.208 201.471 725.185 Q208.126 730.162 219.757 730.162 Q231.389 730.162 238.102 725.243 Q244.757 720.266 244.757 711.644 Q244.757 703.137 238.044 698.16 Q231.331 693.183 219.757 693.183 Q208.241 693.183 201.528 698.16 Q194.758 703.137 194.758 711.644 M185.73 711.644 Q185.73 697.755 194.758 689.827 Q203.785 681.898 219.757 681.898 Q235.672 681.898 244.757 689.827 Q253.785 697.755 253.785 711.644 Q253.785 725.59 244.757 733.519 Q235.672 741.389 219.757 741.389 Q203.785 741.389 194.758 733.519 Q185.73 725.59 185.73 711.644 Z" fill="#000000" fill-rule="nonzero" fill-opacity="1" /><path clip-path="url(#clip070)" d="M162.061 631.436 L170.915 631.436 L170.915 641.621 Q170.915 647.35 173.23 649.607 Q175.545 651.806 181.563 651.806 L187.292 651.806 L187.292 634.271 L195.568 634.271 L195.568 651.806 L252.107 651.806 L252.107 662.512 L195.568 662.512 L195.568 672.697 L187.292 672.697 L187.292 662.512 L182.778 662.512 Q171.957 662.512 167.038 657.477 Q162.061 652.443 162.061 641.505 L162.061 631.436 Z" fill="#000000" fill-rule="nonzero" fill-opacity="1" /><path clip-path="url(#clip070)" d="M179.322 513.514 Q181.312 514.041 182.835 514.978 Q184.357 515.915 185.06 516.91 Q185.704 517.847 186.114 518.784 Q186.524 519.662 186.583 520.248 L186.641 520.833 Q186.641 523.058 185.177 524.171 Q184.592 524.639 181.371 523.82 Q178.736 523.293 175.984 524.932 Q174.052 526.338 174.052 529.558 Q174.052 533.481 177.155 537.288 Q178.853 539.454 180.083 540.625 Q181.312 541.738 183.245 542.792 Q189.452 546.13 200.753 550.697 Q208.424 553.625 215.743 558.134 Q220.721 560.769 225.112 565.57 Q229.563 570.43 231.027 573.592 L231.729 573.358 Q231.729 569.084 232.842 565.453 Q233.896 561.823 235.008 560.3 L236.062 558.836 Q237.526 557.138 239.459 553.039 Q241.391 548.882 242.152 546.13 Q243.499 541.738 243.499 538.693 Q243.499 533.247 238.815 528.738 Q236.355 526.338 233.954 525.108 Q231.554 523.82 228.099 523 Q224.527 522.18 221.541 521.77 L220.955 518.784 Q221.892 518.784 223.239 519.018 Q224.527 519.194 226.108 519.545 Q227.63 519.838 227.865 519.896 Q233.896 521.419 238.463 523.644 Q243.031 525.869 246.368 529.851 Q248.593 532.544 249.765 534.184 Q250.936 535.824 251.931 538.283 Q252.927 540.742 252.927 543.143 Q252.927 545.72 252.517 548.94 Q252.107 552.102 251.404 553.683 Q249.999 557.08 248.945 558.836 Q247.891 560.593 246.017 562.467 Q242.269 567.268 240.278 571.367 Q238.288 575.408 238.288 577.808 Q238.288 579.916 239.576 582.727 Q240.806 585.479 242.504 586.885 Q247.188 590.925 252.81 594.087 L250.76 596.019 Q244.846 594.028 238.17 588.348 Q236.297 586.826 233.018 581.497 Q231.261 578.394 228.216 574.529 Q225.698 571.25 218.613 567.502 Q211.469 563.696 203.798 560.769 Q199.992 559.305 198.001 558.485 Q195.952 557.665 192.907 556.143 Q189.803 554.562 187.344 552.863 Q180.903 548.355 176.101 542.031 Q169.953 534.067 169.953 523.351 Q169.953 516.91 173.056 514.568 Q175.398 512.577 179.322 513.514 Z" fill="#000000" fill-rule="nonzero" fill-opacity="1" /><path clip-path="url(#clip070)" d="M222.126 504.613 Q201.866 504.613 185.529 497.06 Q178.677 493.839 172.939 489.33 Q167.2 484.821 164.683 481.835 Q162.165 478.849 162.165 478.029 Q162.165 476.858 163.336 476.799 Q163.921 476.799 165.385 478.38 Q185.06 497.704 222.126 497.645 Q259.309 497.645 278.223 478.849 Q280.272 476.799 280.916 476.799 Q282.088 476.799 282.088 478.029 Q282.088 478.849 279.687 481.718 Q277.286 484.587 271.782 489.038 Q266.277 493.488 259.543 496.708 Q243.206 504.613 222.126 504.613 Z" fill="#000000" fill-rule="nonzero" fill-opacity="1" /><path clip-path="url(#clip070)" d="M201.749 430.851 Q203.388 430.851 203.798 431.612 Q204.149 432.373 204.149 434.481 L204.149 445.724 L239.517 454.624 Q242.621 455.327 245.256 455.327 Q248.184 455.327 249.472 454.449 Q250.76 453.512 250.76 451.58 Q250.76 447.773 247.305 443.674 Q243.85 439.517 235.418 436.004 Q234.306 435.535 234.072 435.301 Q233.779 435.008 233.779 434.247 Q233.779 432.783 234.95 432.783 Q235.36 432.783 237.234 433.603 Q239.107 434.364 241.86 436.062 Q244.612 437.702 247.188 439.868 Q249.765 441.976 251.638 445.197 Q253.454 448.418 253.454 451.872 Q253.454 456.733 250.35 459.836 Q247.247 462.881 242.387 462.881 Q240.806 462.881 235.77 461.651 Q230.675 460.422 204.149 453.746 L204.149 464.345 Q204.149 465.809 204.091 466.394 Q204.032 466.921 203.739 467.331 Q203.388 467.682 202.685 467.682 Q201.573 467.682 201.104 467.214 Q200.577 466.746 200.519 466.16 Q200.402 465.516 200.402 464.052 L200.402 452.809 L181.371 448.125 Q179.497 447.656 178.443 446.485 Q177.331 445.256 177.214 444.553 Q177.038 443.85 177.038 443.323 Q177.038 441.742 177.916 440.805 Q178.736 439.868 180.258 439.868 Q181.078 439.868 200.402 444.787 L200.402 434.247 Q200.402 432.9 200.46 432.373 Q200.519 431.788 200.812 431.319 Q201.104 430.851 201.749 430.851 Z" fill="#000000" fill-rule="nonzero" fill-opacity="1" /><path clip-path="url(#clip070)" d="M280.916 421.461 Q280.331 421.461 278.867 419.939 Q259.192 400.616 222.126 400.616 Q184.943 400.616 166.146 419.178 Q163.98 421.461 163.336 421.461 Q162.165 421.461 162.165 420.29 Q162.165 419.471 164.565 416.601 Q166.966 413.674 172.471 409.282 Q177.975 404.832 184.709 401.552 Q201.046 393.647 222.126 393.647 Q242.387 393.647 258.724 401.201 Q265.575 404.422 271.313 408.93 Q277.052 413.439 279.57 416.426 Q282.088 419.412 282.088 420.29 Q282.088 421.461 280.916 421.461 Z" fill="#000000" fill-rule="nonzero" fill-opacity="1" /><polyline clip-path="url(#clip072)" style="stroke:#ff0000; stroke-linecap:round; stroke-linejoin:round; stroke-width:32; stroke-opacity:1; fill:none" points="528.084,2077.77 544.889,2076.28 561.694,2074.04 578.499,2071.06 595.304,2067.32 612.108,2062.82 628.913,2057.56 645.718,2051.53 662.523,2044.72 679.328,2037.13 696.133,2028.73 712.938,2019.54 729.743,2009.53 746.548,1998.69 763.353,1987.01 780.158,1974.47 796.963,1961.07 813.768,1946.79 830.572,1931.62 847.377,1915.53 864.182,1898.51 880.987,1880.56 897.792,1861.65 914.597,1841.76 931.402,1820.89 948.207,1799.02 965.012,1776.13 981.817,1752.21 998.622,1727.26 1015.43,1701.26 1032.23,1674.2 1049.04,1646.09 1065.84,1616.91 1082.65,1586.67 1099.45,1555.39 1116.26,1523.05 1133.06,1489.69 1149.87,1455.33 1166.67,1419.98 1183.48,1383.68 1200.28,1346.48 1217.09,1308.42 1233.89,1269.55 1250.7,1229.96 1267.5,1189.69 1284.31,1148.86 1301.11,1107.53 1317.92,1065.83 1334.72,1023.85 1351.53,981.728 1368.33,939.581 1385.13,897.548 1401.94,855.771 1418.74,814.396 1435.55,773.573 1452.35,733.454 1469.16,694.191 1485.96,655.931 1502.77,618.819 1519.57,582.993 1536.38,548.581 1553.18,515.701 1569.99,484.458 1586.79,454.942 1603.6,427.229 1620.4,401.375 1637.21,377.421 1654.01,355.387 1670.82,335.278 1687.62,317.078 1704.43,300.757 1721.23,286.266 1738.04,273.543 1754.84,262.513 1771.65,253.087 1788.45,245.169 1805.26,238.652 1822.06,233.427 1838.87,229.378 1855.67,226.386 1872.48,224.334 1889.28,223.102 1906.09,222.574 1922.89,222.639 1939.7,223.188 1956.5,224.117 1973.31,225.329 1990.11,226.733 2006.92,228.244 2023.72,229.787 2040.53,231.291 2057.33,232.694 2074.14,233.941 2090.94,234.985 2107.75,235.787 2124.55,236.312 2141.36,236.536 2158.16,236.438 2174.97,236.006 2191.77,235.234 2208.58,234.12 2225.38,232.67 2242.19,230.895 2258.99,228.808 2275.8,226.432 2292.6,223.789 2309.41,220.909 2326.21,217.824 2343.02,214.57 2359.82,211.185 2376.63,207.711 2393.43,204.189 2410.24,200.666 2427.04,197.188 2443.85,193.8 2460.65,190.551 2477.45,187.486 2494.26,184.651 2511.06,182.09 2527.87,179.847 2544.67,177.96 2561.48,176.468 2578.28,175.403 2595.09,174.796 2611.89,174.672 2628.7,175.053 2645.5,175.954 2662.31,177.388 2679.11,179.36 2695.92,181.872 2712.72,184.92 2729.53,188.494 2746.33,192.581 2763.14,197.161 2779.94,202.211 2796.75,207.704 2813.55,213.609 2830.36,219.892 2847.16,226.515 2863.97,233.439 2880.77,240.623 2897.58,248.025 2914.38,255.601 2931.19,263.307 2947.99,271.101 2964.8,278.938 2981.6,286.778 2998.41,294.578 3015.21,302.301 3032.02,309.909 3048.82,317.367 3065.63,324.642 3082.43,331.704 3099.24,338.526 3116.04,345.084 3132.85,351.356 3149.65,357.322 3166.46,362.968 3183.26,368.281 3200.07,373.249 3216.87,377.868 3233.68,382.132 3250.48,386.04 3267.29,389.593 3284.09,392.795 3300.9,395.652 3317.7,398.173 3334.51,400.368 3351.31,402.25 3368.12,403.835 3384.92,405.138 3401.73,406.177 3418.53,406.972 3435.34,407.543 3452.14,407.913 3468.95,408.103 3485.75,408.138 3502.56,408.04 3519.36,407.833 3536.17,407.542 3552.97,407.19 3569.77,406.799 3586.58,406.394 3603.38,405.994 3620.19,405.622 3636.99,405.296 3653.8,405.034 3670.6,404.852 3687.41,404.766 3704.21,404.788 3721.02,404.928 3737.82,405.195 3754.63,405.595 3771.43,406.134 3788.24,406.813 3805.04,407.632 3821.85,408.589 3838.65,409.68 3855.46,410.898 3872.26,412.237 3889.07,413.686 3905.87,415.234 3922.68,416.87 3939.48,418.578 3956.29,420.346 3973.09,422.157 3989.9,423.995 4006.7,425.843 4023.51,427.687 4040.31,429.508 4057.12,431.29 4073.92,433.017 4090.73,434.674 4107.53,436.246 4124.34,437.717 4141.14,439.076 4157.95,440.31 4174.75,441.407 4191.56,442.358 4208.36,443.154 4225.17,443.787 4241.97,444.253 4258.78,444.546 4275.58,444.663 4292.39,444.602 4309.19,444.364 4326,443.949 4342.8,443.361 4359.61,442.602 4376.41,441.679 4393.22,440.598 4410.02,439.366 4426.83,437.993 4443.63,436.489 4460.44,434.864 4477.24,433.131 4494.05,431.301 4510.85,429.389 4527.66,427.409 4544.46,425.374 4561.27,423.299 4578.07,421.199 4594.88,419.089 4611.68,416.983 4628.49,414.897 4645.29,412.844 4662.09,410.839 4678.9,408.894 4695.7,407.022 4712.51,405.233 4729.31,403.54 4746.12,401.952 4762.92,400.476 4779.73,399.12 4796.53,397.89 4813.34,396.79 4830.14,395.824 4846.95,394.994 4863.75,394.299 4880.56,393.74 4897.36,393.313 4914.17,393.016 4930.97,392.844 4947.78,392.79 4964.58,392.848 4981.39,393.01 4998.19,393.267 5015,393.61 5031.8,394.029 5048.61,394.513 5065.41,395.052 5082.22,395.633 5099.02,396.246 5115.83,396.879 5132.63,397.521 5149.44,398.161 5166.24,398.789 5183.05,399.393 5199.85,399.965 5216.66,400.495 5233.46,400.975 5250.27,401.396 5267.07,401.752 5283.88,402.037 5300.68,402.246 5317.49,402.375 5334.29,402.419 5351.1,402.378 5367.9,402.248 5384.71,402.031 5401.51,401.727 5418.32,401.336 5435.12,400.862 5451.93,400.308 5468.73,399.678 5485.54,398.976 5502.34,398.209 5519.15,397.383 5535.95,396.504 "/>
<polyline clip-path="url(#clip072)" style="stroke:#000000; stroke-linecap:round; stroke-linejoin:round; stroke-width:8; stroke-opacity:1; fill:none" stroke-dasharray="32, 20" points="-4530.2,327.25 10594.2,327.25 "/>
<polyline clip-path="url(#clip072)" style="stroke:#000000; stroke-linecap:round; stroke-linejoin:round; stroke-width:16; stroke-opacity:1; fill:none" points="511.279,4108.29 511.279,-1983.28 "/>
<polyline clip-path="url(#clip072)" style="stroke:#000000; stroke-linecap:round; stroke-linejoin:round; stroke-width:16; stroke-opacity:1; fill:none" points="-4530.2,2077.77 10594.2,2077.77 "/>
</svg>
