<?xml version="1.0" encoding="utf-8"?>
<svg xmlns="http://www.w3.org/2000/svg" xmlns:xlink="http://www.w3.org/1999/xlink" width="800" height="600" viewBox="0 0 3200 2400">
<defs>
  <clipPath id="clip310">
    <rect x="0" y="0" width="3200" height="2400"/>
  </clipPath>
</defs>
<path clip-path="url(#clip310)" d="M0 2400 L3200 2400 L3200 0 L0 0  Z" fill="#ffffff" fill-rule="evenodd" fill-opacity="1"/>
<defs>
  <clipPath id="clip311">
    <rect x="640" y="0" width="2241" height="2241"/>
  </clipPath>
</defs>
<path clip-path="url(#clip310)" d="M31.4961 2078.26 L3152.76 2078.26 L3152.76 47.2441 L31.4961 47.2441  Z" fill="#ffffff" fill-rule="evenodd" fill-opacity="1"/>
<defs>
  <clipPath id="clip312">
    <rect x="31" y="47" width="3122" height="2032"/>
  </clipPath>
</defs>
<polyline clip-path="url(#clip310)" style="stroke:#000000; stroke-linecap:round; stroke-linejoin:round; stroke-width:4; stroke-opacity:1; fill:none" points="31.4961,2078.26 3152.76,2078.26 "/>
<path clip-path="url(#clip310)" d="M1676.97 2208.26 Q1676.97 2221.87 1670.09 2248.22 Q1667.3 2259.64 1663.5 2270.04 Q1659.84 2280.28 1654.42 2290.24 Q1649.01 2300.19 1642.71 2307.36 Q1636.42 2314.39 1628.22 2318.78 Q1620.02 2323.17 1610.94 2323.17 Q1596.6 2323.17 1588.11 2314.68 Q1579.76 2306.05 1577.13 2291.26 Q1557.51 2323.17 1531.31 2323.17 Q1515.06 2323.17 1507.45 2311.61 Q1499.83 2299.9 1499.83 2280.28 Q1499.83 2263.74 1504.23 2246.61 Q1512.57 2214.11 1528.82 2191.42 Q1531.02 2188.79 1534.24 2188.79 Q1536.14 2188.79 1537.02 2189.37 Q1539.65 2190.98 1539.65 2193.62 Q1539.65 2195.52 1538.19 2197.43 Q1527.94 2211.63 1521.21 2223.78 Q1514.47 2235.93 1511.4 2248.22 Q1509.06 2258.76 1509.06 2267.69 Q1509.06 2282.77 1515.5 2292.14 Q1522.09 2301.51 1535.11 2301.51 Q1547.12 2301.51 1557.66 2294.04 Q1568.2 2286.43 1575.96 2273.69 Q1576.4 2259.79 1579.76 2246.61 Q1582.84 2232.56 1590.01 2232.56 Q1595.72 2232.56 1595.72 2240.32 Q1595.72 2242.95 1594.55 2248.22 Q1591.33 2262.13 1585.47 2274.57 Q1587.52 2286.72 1595.13 2294.19 Q1602.75 2301.51 1614.9 2301.51 Q1626.17 2301.51 1636.12 2293.31 Q1646.22 2285.11 1652.67 2273.11 Q1659.25 2260.96 1662.91 2246.61 Q1664.08 2241.78 1664.08 2235.63 Q1664.08 2219.24 1652.67 2209.14 Q1649.44 2205.92 1649.44 2201.67 Q1649.44 2196.69 1653.54 2192.16 Q1658.37 2187.32 1664.08 2187.32 Q1668.33 2187.32 1670.96 2189.96 Q1676.97 2195.23 1676.97 2208.26 Z" fill="#000000" fill-rule="nonzero" fill-opacity="1" /><polyline clip-path="url(#clip312)" style="stroke:#009af9; stroke-linecap:round; stroke-linejoin:round; stroke-width:32; stroke-opacity:1; fill:none" points="31.4961,2078.26 45.6836,2078.26 59.8712,2078.26 74.0587,2078.26 88.2462,2078.26 102.434,2078.26 116.621,2078.26 130.809,2078.26 144.996,2078.26 159.184,2078.26 173.372,2078.26 187.559,1846.03 201.747,1750.66 215.934,1678.05 230.122,1617.31 244.309,1564.22 258.497,1516.61 272.684,1473.17 286.872,1433.08 301.059,1395.73 315.247,1360.7 329.435,1327.66 343.622,1296.36 357.81,1266.61 371.997,1238.23 386.185,1211.09 400.372,1185.08 414.56,1160.11 428.747,1136.08 442.935,1112.94 457.122,1090.61 471.31,1069.05 485.497,1048.21 499.685,1028.04 513.873,1008.5 528.06,989.57 542.248,971.21 556.435,953.394 570.623,936.098 584.81,919.299 598.998,902.975 613.185,887.109 627.373,871.682 641.56,856.679 655.748,842.085 669.936,827.887 684.123,814.073 698.311,800.63 712.498,787.55 726.686,774.821 740.873,762.436 755.061,750.387 769.248,738.666 783.436,727.266 797.623,716.182 811.811,705.41 825.999,694.943 840.186,684.778 854.374,674.912 868.561,665.341 882.749,656.065 896.936,647.082 911.124,638.39 925.311,629.99 939.499,621.883 953.686,614.069 967.874,606.552 982.062,599.333 996.249,592.418 1010.44,585.811 1024.62,579.518 1038.81,573.546 1053,567.904 1067.19,562.599 1081.37,557.645 1095.56,553.052 1109.75,548.834 1123.94,545.008 1138.12,541.589 1152.31,538.598 1166.5,536.056 1180.69,533.986 1194.87,532.413 1209.06,531.367 1223.25,530.879 1237.44,530.98 1251.62,531.71 1265.81,533.106 1280,535.213 1294.19,538.074 1308.38,541.741 1322.56,546.264 1336.75,551.7 1350.94,558.106 1365.13,565.544 1379.31,574.077 1393.5,583.771 1407.69,594.692 1421.88,606.907 1436.06,620.485 1450.25,635.49 1464.44,651.987 1478.63,670.035 1492.81,689.688 1507,710.993 1521.19,733.987 1535.38,758.698 1549.56,785.138 1563.75,813.306 1577.94,843.184 1592.13,874.733 1606.31,907.897 1620.5,942.596 1634.69,978.731 1648.88,1016.18 1663.06,1054.8 1677.25,1094.43 1691.44,1134.89 1705.63,1175.98 1719.81,1217.5 1734,1259.25 1748.19,1300.99 1762.38,1342.52 1776.56,1383.62 1790.75,1424.09 1804.94,1463.75 1819.13,1502.43 1833.31,1539.96 1847.5,1576.21 1861.69,1611.07 1875.88,1644.45 1890.06,1676.29 1904.25,1706.52 1918.44,1735.14 1932.63,1762.12 1946.81,1787.47 1961,1811.23 1975.19,1833.41 1989.38,1854.07 2003.56,1873.27 2017.75,1891.06 2031.94,1907.5 2046.13,1922.68 2060.31,1936.65 2074.5,1949.49 2088.69,1961.28 2102.88,1972.07 2117.07,1981.95 2131.25,1990.97 2145.44,1999.2 2159.63,2006.7 2173.82,2013.53 2188,2019.74 2202.19,2025.39 2216.38,2030.52 2230.57,2035.17 2244.75,2039.38 2258.94,2043.2 2273.13,2046.66 2287.32,2049.79 2301.5,2052.62 2315.69,2055.17 2329.88,2057.48 2344.07,2059.57 2358.25,2061.45 2372.44,2063.15 2386.63,2064.69 2400.82,2066.07 2415,2067.31 2429.19,2068.43 2443.38,2069.45 2457.57,2070.35 2471.75,2071.17 2485.94,2071.91 2500.13,2072.57 2514.32,2073.17 2528.5,2073.7 2542.69,2074.18 2556.88,2074.62 2571.07,2075 2585.25,2075.35 2599.44,2075.67 2613.63,2075.95 2627.82,2076.2 2642,2076.42 2656.19,2076.63 2670.38,2076.81 2684.57,2076.97 2698.75,2077.11 2712.94,2077.24 2727.13,2077.36 2741.32,2077.46 2755.5,2077.56 2769.69,2077.64 2783.88,2077.71 2798.07,2077.78 2812.25,2077.84 2826.44,2077.89 2840.63,2077.94 2854.82,2077.98 2869.01,2078.02 2883.19,2078.05 2897.38,2078.08 2911.57,2078.11 2925.76,2078.13 2939.94,2078.16 2954.13,2078.17 2968.32,2078.19 2982.51,2078.21 2996.69,2078.23 3010.88,2078.26 3025.07,2078.26 3039.26,2078.26 3053.44,2078.26 3067.63,2078.26 3081.82,2078.26 3096.01,2078.26 3110.19,2078.26 3124.38,2078.26 3138.57,2078.26 3152.76,2078.26 "/>
<polyline clip-path="url(#clip312)" style="stroke:#e26f46; stroke-linecap:round; stroke-linejoin:round; stroke-width:32; stroke-opacity:1; fill:none" points="31.4961,2078.26 45.6836,2078.26 59.8712,2078.26 74.0587,2078.26 88.2462,2078.26 102.434,2078.26 116.621,2078.26 130.809,2078.26 144.996,2078.26 159.184,2078.26 173.372,2078.26 187.559,2078.26 201.747,2078.25 215.934,2078.25 230.122,2078.25 244.309,2078.25 258.497,2078.24 272.684,2078.24 286.872,2078.24 301.059,2078.23 315.247,2078.23 329.435,2078.22 343.622,2078.22 357.81,2078.21 371.997,2078.2 386.185,2078.19 400.372,2078.19 414.56,2078.18 428.747,2078.16 442.935,2078.15 457.122,2078.14 471.31,2078.12 485.497,2078.1 499.685,2078.08 513.873,2078.06 528.06,2078.04 542.248,2078.01 556.435,2077.98 570.623,2077.95 584.81,2077.91 598.998,2077.87 613.185,2077.82 627.373,2077.77 641.56,2077.71 655.748,2077.64 669.936,2077.57 684.123,2077.49 698.311,2077.4 712.498,2077.3 726.686,2077.18 740.873,2077.06 755.061,2076.92 769.248,2076.77 783.436,2076.6 797.623,2076.41 811.811,2076.2 825.999,2075.96 840.186,2075.7 854.374,2075.41 868.561,2075.09 882.749,2074.73 896.936,2074.34 911.124,2073.9 925.311,2073.41 939.499,2072.87 953.686,2072.28 967.874,2071.61 982.062,2070.88 996.249,2070.06 1010.44,2069.16 1024.62,2068.16 1038.81,2067.05 1053,2065.83 1067.19,2064.47 1081.37,2062.97 1095.56,2061.32 1109.75,2059.48 1123.94,2057.46 1138.12,2055.22 1152.31,2052.74 1166.5,2050.01 1180.69,2047 1194.87,2043.68 1209.06,2040.02 1223.25,2035.98 1237.44,2031.54 1251.62,2026.65 1265.81,2021.27 1280,2015.36 1294.19,2008.88 1308.38,2001.76 1322.56,1993.96 1336.75,1985.43 1350.94,1976.1 1365.13,1965.91 1379.31,1954.79 1393.5,1942.68 1407.69,1929.52 1421.88,1915.23 1436.06,1899.75 1450.25,1883 1464.44,1864.93 1478.63,1845.48 1492.81,1824.59 1507,1802.21 1521.19,1778.31 1535.38,1752.86 1549.56,1725.84 1563.75,1697.26 1577.94,1667.14 1592.13,1635.51 1606.31,1602.43 1620.5,1567.97 1634.69,1532.25 1648.88,1495.38 1663.06,1457.5 1677.25,1418.78 1691.44,1379.39 1705.63,1339.54 1719.81,1299.42 1734,1259.25 1748.19,1219.24 1762.38,1179.62 1776.56,1140.59 1790.75,1102.36 1804.94,1065.11 1819.13,1029.02 1833.31,994.248 1847.5,960.922 1861.69,929.159 1875.88,899.049 1890.06,870.664 1904.25,844.051 1918.44,819.239 1932.63,796.239 1946.81,775.044 1961,755.632 1975.19,737.971 1989.38,722.017 2003.56,707.717 2017.75,695.012 2031.94,683.838 2046.13,674.128 2060.31,665.814 2074.5,658.825 2088.69,653.093 2102.88,648.549 2117.07,645.128 2131.25,642.766 2145.44,641.402 2159.63,640.978 2173.82,641.44 2188,642.737 2202.19,644.821 2216.38,647.649 2230.57,651.179 2244.75,655.376 2258.94,660.204 2273.13,665.632 2287.32,671.634 2301.5,678.183 2315.69,685.258 2329.88,692.839 2344.07,700.908 2358.25,709.449 2372.44,718.452 2386.63,727.903 2400.82,737.795 2415,748.12 2429.19,758.873 2443.38,770.051 2457.57,781.651 2471.75,793.673 2485.94,806.117 2500.13,818.988 2514.32,832.288 2528.5,846.023 2542.69,860.202 2556.88,874.831 2571.07,889.923 2585.25,905.488 2599.44,921.542 2613.63,938.099 2627.82,955.177 2642,972.798 2656.19,990.983 2670.38,1009.76 2684.57,1029.15 2698.75,1049.2 2712.94,1069.93 2727.13,1091.39 2741.32,1113.63 2755.5,1136.69 2769.69,1160.65 2783.88,1185.56 2798.07,1211.51 2812.25,1238.59 2826.44,1266.93 2840.63,1296.64 2854.82,1327.9 2869.01,1360.9 2883.19,1395.91 2897.38,1433.23 2911.57,1473.3 2925.76,1516.72 2939.94,1564.31 2954.13,1617.39 2968.32,1678.11 2982.51,1750.7 2996.69,1846.06 3010.88,2078.26 3025.07,2078.26 3039.26,2078.26 3053.44,2078.26 3067.63,2078.26 3081.82,2078.26 3096.01,2078.26 3110.19,2078.26 3124.38,2078.26 3138.57,2078.26 3152.76,2078.26 "/>
<polyline clip-path="url(#clip312)" style="stroke:#ffffff; stroke-linecap:round; stroke-linejoin:round; stroke-width:16; stroke-opacity:1; fill:none" points="31.4961,4109.28 31.4961,-1983.77 "/>
<polyline clip-path="url(#clip312)" style="stroke:#000000; stroke-linecap:round; stroke-linejoin:round; stroke-width:16; stroke-opacity:1; fill:none" points="-3089.76,2078.26 6274.02,2078.26 "/>
<path clip-path="url(#clip310)" d="M2376 726.845 L3048.71 726.845 L3048.71 114.945 L2376 114.945  Z" fill="#ffffff" fill-rule="evenodd" fill-opacity="1"/>
<polyline clip-path="url(#clip310)" style="stroke:#000000; stroke-linecap:round; stroke-linejoin:round; stroke-width:4; stroke-opacity:1; fill:none" points="2376,726.845 3048.71,726.845 3048.71,114.945 2376,114.945 2376,726.845 "/>
<polyline clip-path="url(#clip310)" style="stroke:#009af9; stroke-linecap:round; stroke-linejoin:round; stroke-width:75; stroke-opacity:1; fill:none" points="2410.68,318.911 2618.77,318.911 "/>
<path clip-path="url(#clip310)" d="M2754.54 217.952 Q2754.54 219.621 2753.84 220.411 Q2753.14 221.114 2752.35 221.29 Q2751.56 221.378 2749.71 221.378 Q2745.94 221.378 2743.92 221.641 Q2741.9 221.905 2740.67 223.047 Q2739.44 224.101 2739 225.155 Q2738.65 226.209 2738.03 228.931 L2716.95 312.901 Q2713.7 325.812 2701.93 334.245 Q2690.16 342.589 2677.25 342.589 Q2666.71 342.589 2660.03 337.055 Q2653.45 331.434 2653.45 323.002 Q2653.45 318.698 2654.85 315.624 Q2656.26 312.55 2658.37 311.144 Q2660.47 309.739 2662.23 309.212 Q2664.08 308.597 2665.57 308.597 Q2668.47 308.597 2670.93 310.442 Q2673.47 312.286 2673.47 316.151 Q2673.47 320.455 2670.14 324.056 Q2666.8 327.657 2661.79 327.657 Q2660.12 327.657 2659.6 327.481 Q2660.91 331.785 2664.34 334.508 Q2667.76 337.143 2670.75 337.934 Q2673.82 338.636 2676.72 338.636 Q2684.28 338.636 2691.92 331.346 Q2699.56 324.056 2702.63 311.671 L2723.28 229.107 Q2723.98 226.296 2723.98 225.33 Q2723.98 223.486 2722.84 222.871 Q2721.78 222.168 2718.44 221.729 Q2713.96 221.378 2707.99 221.378 Q2705.88 221.378 2705.01 221.378 Q2704.13 221.29 2703.25 221.114 Q2702.37 220.939 2702.11 220.587 Q2701.84 220.148 2701.84 219.357 Q2701.84 217.689 2702.55 216.898 Q2703.25 216.02 2703.86 215.932 Q2704.48 215.756 2705.62 215.756 L2732.06 216.283 Q2734.34 216.283 2742.07 216.02 Q2749.8 215.756 2752.08 215.756 Q2754.54 215.756 2754.54 217.952 Z" fill="#000000" fill-rule="nonzero" fill-opacity="1" /><path clip-path="url(#clip310)" d="M2835.55 315.202 Q2835.55 318.584 2833.4 320.674 Q2831.3 322.764 2828.66 322.764 Q2826.76 322.764 2825.34 321.596 Q2823.99 320.428 2823.99 318.399 Q2823.99 316.309 2825.59 314.095 Q2827.19 311.882 2830.81 311.574 Q2828.42 309.299 2824.6 309.299 Q2822.7 309.299 2821.1 310.529 Q2819.56 311.697 2818.7 313.603 Q2817.78 315.571 2815.69 326.699 Q2815.01 330.327 2814.4 333.832 Q2813.78 337.336 2813.04 341.025 L2823.5 341.025 Q2824.85 341.025 2825.4 341.087 Q2825.96 341.148 2826.39 341.456 Q2826.88 341.763 2826.88 342.439 Q2826.88 344.161 2826.08 344.591 Q2825.34 344.96 2823.13 344.96 L2812.31 344.96 L2804.74 384.863 Q2804.56 386.031 2803.76 389.72 Q2803.02 393.348 2801.24 399.312 Q2799.46 405.337 2797.67 408.903 Q2796.69 410.932 2795.4 412.838 Q2794.17 414.806 2792.39 416.773 Q2790.6 418.741 2788.27 419.909 Q2785.93 421.139 2783.47 421.139 Q2779.29 421.139 2776.03 418.802 Q2772.77 416.466 2772.77 412.469 Q2772.77 409.088 2774.86 406.997 Q2777.01 404.907 2779.66 404.907 Q2781.56 404.907 2782.92 406.075 Q2784.33 407.243 2784.33 409.272 Q2784.33 410.133 2784.02 411.117 Q2783.72 412.101 2783.04 413.207 Q2782.36 414.375 2780.89 415.175 Q2779.41 415.974 2777.38 416.097 Q2779.78 418.372 2783.47 418.372 Q2784.64 418.372 2785.68 417.88 Q2786.73 417.45 2787.59 416.343 Q2788.51 415.236 2789.19 414.13 Q2789.86 413.084 2790.54 411.055 Q2791.22 409.088 2791.65 407.612 Q2792.08 406.137 2792.63 403.493 Q2793.25 400.849 2793.55 399.25 Q2793.86 397.713 2794.41 394.701 L2803.82 344.96 L2795.52 344.96 Q2794.05 344.96 2793.43 344.899 Q2792.88 344.837 2792.45 344.53 Q2792.02 344.161 2792.02 343.423 Q2792.02 342.255 2792.51 341.763 Q2793.06 341.21 2793.68 341.148 Q2794.29 341.025 2795.77 341.025 L2804.5 341.025 Q2807.45 325.47 2808.62 321.289 Q2809.97 316.862 2812.06 313.788 Q2814.15 310.652 2816.49 309.176 Q2818.82 307.701 2820.73 307.148 Q2822.7 306.533 2824.6 306.533 Q2828.91 306.533 2832.23 308.869 Q2835.55 311.144 2835.55 315.202 Z" fill="#000000" fill-rule="nonzero" fill-opacity="1" /><path clip-path="url(#clip310)" d="M2910.19 377.301 Q2908.59 385.232 2906.44 389.782 Q2902.93 396.73 2897.09 396.73 Q2893.03 396.73 2889.96 394.455 Q2886.95 392.118 2885.9 388.245 Q2884.73 389.782 2883.69 390.827 Q2882.7 391.872 2880.8 393.471 Q2878.89 395.008 2876.31 395.869 Q2873.79 396.73 2870.9 396.73 Q2868.68 396.73 2866.66 396.299 Q2864.63 395.93 2862.47 394.885 Q2860.38 393.778 2858.85 392.118 Q2857.37 390.458 2856.39 387.753 Q2855.4 385.048 2855.4 381.605 Q2855.4 377.301 2857.06 371.46 Q2858.79 365.619 2862.72 355.166 Q2864.87 349.633 2864.87 346.559 Q2864.87 345.145 2864.57 344.222 Q2864.26 343.3 2863.64 342.993 Q2863.09 342.624 2862.72 342.562 Q2862.35 342.439 2861.74 342.439 Q2857.92 342.439 2854.6 346.313 Q2851.28 350.186 2849.01 358.056 Q2848.52 359.593 2848.21 359.962 Q2847.9 360.331 2846.98 360.331 Q2845.44 360.27 2845.44 359.04 Q2845.44 358.548 2846 356.642 Q2846.55 354.675 2847.84 351.785 Q2849.19 348.834 2851.04 346.19 Q2852.88 343.485 2855.77 341.579 Q2858.72 339.673 2862.11 339.673 Q2866.72 339.673 2869.55 342.685 Q2872.44 345.636 2872.44 350.002 Q2872.44 352.707 2870.28 357.933 Q2863.46 376.071 2863.46 383.634 Q2863.46 393.901 2871.27 393.901 Q2873.85 393.901 2876.25 392.856 Q2878.71 391.811 2880.31 390.335 Q2881.9 388.86 2883.13 387.261 Q2884.42 385.662 2884.98 384.617 Q2885.59 383.572 2885.65 383.326 L2895.06 345.452 Q2895.43 343.976 2896.11 342.993 Q2896.84 341.947 2897.71 341.579 Q2898.57 341.21 2899.06 341.148 Q2899.55 341.025 2899.98 341.025 Q2901.52 341.025 2902.56 341.947 Q2903.67 342.87 2903.67 344.468 Q2903.67 344.776 2903.3 346.251 Q2902.99 347.665 2902.5 349.756 Q2902.01 351.785 2901.76 352.892 Q2899.8 360.639 2899.61 361.438 L2896.11 375.026 Q2895.92 375.825 2895.31 378.407 Q2894.75 380.99 2894.45 382.342 Q2894.14 383.634 2893.83 385.417 Q2893.59 387.138 2893.59 388.122 Q2893.59 391.196 2894.51 392.549 Q2895.43 393.901 2897.46 393.901 Q2899.37 393.901 2900.84 392.61 Q2902.38 391.258 2903.55 388.675 Q2904.71 386.031 2905.39 383.879 Q2906.07 381.728 2906.93 378.346 Q2907.24 376.87 2907.48 376.501 Q2907.79 376.071 2908.65 376.071 Q2910.19 376.071 2910.19 377.301 Z" fill="#000000" fill-rule="nonzero" fill-opacity="1" /><path clip-path="url(#clip310)" d="M2944.69 309.299 L2926.55 382.096 Q2925.82 384.986 2925.82 388.122 Q2925.82 393.901 2929.63 393.901 Q2931.41 393.901 2932.89 392.733 Q2934.36 391.503 2935.47 389.106 Q2936.64 386.646 2937.38 384.31 Q2938.17 381.973 2939.16 378.346 Q2939.47 376.932 2939.77 376.501 Q2940.08 376.071 2940.94 376.071 Q2942.48 376.071 2942.48 377.301 Q2940.94 384.863 2938.67 389.659 Q2935.35 396.73 2929.2 396.73 Q2924.59 396.73 2921.14 393.532 Q2917.76 390.274 2917.76 385.109 Q2917.76 383.142 2918.38 380.805 L2934.24 317.846 L2934.67 315.386 Q2934.67 314.71 2934.42 314.341 Q2934.18 313.972 2932.7 313.603 Q2931.29 313.234 2928.46 313.234 Q2927.29 313.234 2926.74 313.173 Q2926.25 313.111 2925.75 312.804 Q2925.32 312.497 2925.32 311.82 Q2925.32 310.714 2925.75 310.099 Q2926.25 309.484 2926.62 309.361 Q2926.98 309.238 2927.72 309.176 Q2928.77 309.115 2932.27 308.808 Q2935.78 308.439 2938.79 308.193 Q2941.8 307.947 2943.09 307.947 Q2943.83 307.947 2944.2 308.316 Q2944.63 308.623 2944.69 308.992 L2944.69 309.299 Z" fill="#000000" fill-rule="nonzero" fill-opacity="1" /><path clip-path="url(#clip310)" d="M2983.35 309.299 L2965.21 382.096 Q2964.48 384.986 2964.48 388.122 Q2964.48 393.901 2968.29 393.901 Q2970.07 393.901 2971.55 392.733 Q2973.02 391.503 2974.13 389.106 Q2975.3 386.646 2976.03 384.31 Q2976.83 381.973 2977.82 378.346 Q2978.12 376.932 2978.43 376.501 Q2978.74 376.071 2979.6 376.071 Q2981.14 376.071 2981.14 377.301 Q2979.6 384.863 2977.33 389.659 Q2974.01 396.73 2967.86 396.73 Q2963.25 396.73 2959.8 393.532 Q2956.42 390.274 2956.42 385.109 Q2956.42 383.142 2957.04 380.805 L2972.9 317.846 L2973.33 315.386 Q2973.33 314.71 2973.08 314.341 Q2972.84 313.972 2971.36 313.603 Q2969.95 313.234 2967.12 313.234 Q2965.95 313.234 2965.4 313.173 Q2964.91 313.111 2964.41 312.804 Q2963.98 312.497 2963.98 311.82 Q2963.98 310.714 2964.41 310.099 Q2964.91 309.484 2965.27 309.361 Q2965.64 309.238 2966.38 309.176 Q2967.43 309.115 2970.93 308.808 Q2974.44 308.439 2977.45 308.193 Q2980.46 307.947 2981.75 307.947 Q2982.49 307.947 2982.86 308.316 Q2983.29 308.623 2983.35 308.992 L2983.35 309.299 Z" fill="#000000" fill-rule="nonzero" fill-opacity="1" /><polyline clip-path="url(#clip310)" style="stroke:#e26f46; stroke-linecap:round; stroke-linejoin:round; stroke-width:75; stroke-opacity:1; fill:none" points="2410.68,522.878 2618.77,522.878 "/>
<path clip-path="url(#clip310)" d="M2754.54 432.467 Q2754.54 434.136 2753.84 434.926 Q2753.14 435.629 2752.35 435.805 Q2751.56 435.892 2749.71 435.892 Q2745.94 435.892 2743.92 436.156 Q2741.9 436.419 2740.67 437.561 Q2739.44 438.615 2739 439.669 Q2738.65 440.723 2738.03 443.446 L2716.95 527.416 Q2713.7 540.327 2701.93 548.759 Q2690.16 557.104 2677.25 557.104 Q2666.71 557.104 2660.03 551.57 Q2653.45 545.949 2653.45 537.517 Q2653.45 533.213 2654.85 530.139 Q2656.26 527.064 2658.37 525.659 Q2660.47 524.254 2662.23 523.727 Q2664.08 523.112 2665.57 523.112 Q2668.47 523.112 2670.93 524.956 Q2673.47 526.801 2673.47 530.666 Q2673.47 534.969 2670.14 538.571 Q2666.8 542.172 2661.79 542.172 Q2660.12 542.172 2659.6 541.996 Q2660.91 546.3 2664.34 549.023 Q2667.76 551.658 2670.75 552.448 Q2673.82 553.151 2676.72 553.151 Q2684.28 553.151 2691.92 545.861 Q2699.56 538.571 2702.63 526.186 L2723.28 443.622 Q2723.98 440.811 2723.98 439.845 Q2723.98 438 2722.84 437.386 Q2721.78 436.683 2718.44 436.244 Q2713.96 435.892 2707.99 435.892 Q2705.88 435.892 2705.01 435.892 Q2704.13 435.805 2703.25 435.629 Q2702.37 435.453 2702.11 435.102 Q2701.84 434.663 2701.84 433.872 Q2701.84 432.203 2702.55 431.413 Q2703.25 430.535 2703.86 430.447 Q2704.48 430.271 2705.62 430.271 L2732.06 430.798 Q2734.34 430.798 2742.07 430.535 Q2749.8 430.271 2752.08 430.271 Q2754.54 430.271 2754.54 432.467 Z" fill="#000000" fill-rule="nonzero" fill-opacity="1" /><path clip-path="url(#clip310)" d="M2820.67 575.562 Q2821.16 576.116 2821.16 576.669 Q2821.16 577.222 2819.93 578.821 Q2818.76 580.42 2816.24 582.571 Q2813.72 584.723 2810.46 586.752 Q2807.2 588.781 2802.41 590.134 Q2797.61 591.548 2792.57 591.548 Q2783.53 591.548 2778.12 585.092 Q2772.77 578.637 2772.77 568.738 Q2772.77 562.405 2774.86 556.81 Q2776.95 551.153 2780.33 547.157 Q2783.78 543.16 2788.08 540.271 Q2792.45 537.319 2797 535.905 Q2801.55 534.491 2805.79 534.491 Q2812 534.491 2815.63 537.627 Q2819.25 540.762 2819.25 545.189 Q2819.25 546.234 2818.95 547.526 Q2818.7 548.817 2817.84 550.846 Q2817.04 552.875 2814.95 554.904 Q2812.86 556.871 2809.79 558.162 Q2802.96 561.052 2790.54 561.052 L2783.84 561.052 Q2781.87 568.984 2781.87 574.148 Q2781.87 576.177 2782.24 578.268 Q2782.61 580.297 2783.59 582.879 Q2784.64 585.461 2786.97 587.121 Q2789.37 588.72 2792.82 588.72 Q2793.92 588.72 2795.09 588.658 Q2796.32 588.597 2799.39 587.921 Q2802.53 587.244 2805.3 586.076 Q2808.06 584.908 2811.57 582.387 Q2815.13 579.805 2817.96 576.3 Q2818.95 575.009 2819.62 575.009 Q2820.18 575.009 2820.67 575.562 M2815.07 545.189 Q2815.07 541.808 2812.55 539.533 Q2810.09 537.258 2805.79 537.258 Q2804.44 537.258 2802.78 537.565 Q2801.12 537.873 2798.35 539.164 Q2795.64 540.455 2793.25 542.607 Q2790.85 544.697 2788.45 548.817 Q2786.05 552.875 2784.64 558.285 L2789.8 558.285 Q2791.59 558.285 2792.88 558.285 Q2794.17 558.224 2797 557.978 Q2799.89 557.732 2801.98 557.302 Q2804.07 556.81 2806.71 555.826 Q2809.36 554.842 2811.02 553.551 Q2812.74 552.198 2813.9 550.046 Q2815.07 547.895 2815.07 545.189 Z" fill="#000000" fill-rule="nonzero" fill-opacity="1" /><path clip-path="url(#clip310)" d="M2931.52 572.119 Q2931.52 572.611 2930.96 574.517 Q2930.41 576.423 2929.06 579.374 Q2927.77 582.326 2925.92 585.031 Q2924.14 587.675 2921.19 589.642 Q2918.3 591.548 2914.98 591.548 Q2910.55 591.548 2907.6 588.597 Q2904.65 585.646 2904.65 581.219 Q2904.65 578.821 2906.31 574.271 Q2914.12 553.49 2914.12 546.05 Q2914.12 537.258 2907.29 537.258 Q2903.42 537.258 2899.92 538.856 Q2896.41 540.455 2894.14 542.668 Q2891.86 544.882 2890.08 547.403 Q2888.29 549.924 2887.5 551.584 Q2886.76 553.244 2886.57 553.981 L2879.01 584.355 Q2878.4 586.937 2877.97 588.167 Q2877.53 589.396 2876.37 590.441 Q2875.2 591.548 2873.35 591.548 Q2871.82 591.548 2870.71 590.626 Q2869.66 589.704 2869.66 588.105 Q2869.66 587.859 2869.97 586.568 Q2870.28 585.277 2870.71 583.494 Q2871.14 581.711 2871.32 580.665 Q2873.54 572.304 2873.85 571.135 L2877.35 556.502 Q2879.26 549.247 2879.26 546.05 Q2879.26 537.258 2872.43 537.258 Q2869.05 537.258 2865.85 538.549 Q2862.72 539.779 2860.57 541.5 Q2858.41 543.222 2856.45 545.62 Q2854.54 547.956 2853.56 549.555 Q2852.63 551.092 2851.9 552.629 L2850.3 558.9 Q2849.93 560.622 2848.15 567.323 L2845.38 578.698 Q2843.41 587.183 2842.98 587.982 Q2842.37 589.704 2841.01 590.626 Q2839.66 591.548 2838.31 591.548 Q2836.77 591.548 2835.73 590.626 Q2834.68 589.704 2834.68 588.105 Q2834.68 587.859 2834.87 586.937 Q2835.05 586.015 2835.36 584.723 Q2835.66 583.432 2835.79 582.694 L2843.1 553.613 Q2844.46 548.325 2844.76 546.665 Q2845.13 544.943 2845.13 543.037 Q2845.13 537.258 2841.2 537.258 Q2838 537.258 2835.91 541.07 Q2833.82 544.882 2832.04 552.26 Q2831.48 554.289 2831.11 554.719 Q2830.81 555.15 2829.88 555.15 Q2828.35 555.088 2828.35 553.858 Q2828.35 553.551 2828.84 551.584 Q2829.33 549.616 2830.25 546.665 Q2831.24 543.652 2832.28 541.685 Q2832.9 540.394 2833.45 539.533 Q2834 538.672 2835.11 537.319 Q2836.22 535.967 2837.88 535.229 Q2839.54 534.491 2841.57 534.491 Q2846.06 534.491 2849.38 537.381 Q2852.76 540.271 2853.19 545.435 Q2861.36 534.491 2872.8 534.491 Q2879.26 534.491 2883.13 537.75 Q2886.76 540.885 2887.19 546.665 Q2895.67 534.491 2907.72 534.491 Q2914.67 534.491 2918.42 538.119 Q2922.17 541.685 2922.17 547.956 Q2922.17 551.215 2920.51 557.425 Q2918.85 563.573 2917.75 566.647 Q2916.64 569.721 2914.49 575.624 Q2912.21 581.28 2912.21 584.6 Q2912.21 586.752 2912.95 587.736 Q2913.69 588.72 2915.29 588.72 Q2917.75 588.72 2919.9 587.306 Q2922.05 585.83 2923.59 583.432 Q2925.18 580.973 2926.23 578.514 Q2927.28 575.993 2928.07 573.164 Q2928.57 571.627 2928.81 571.258 Q2929.12 570.89 2929.98 570.89 Q2931.52 570.89 2931.52 572.119 Z" fill="#000000" fill-rule="nonzero" fill-opacity="1" /><path clip-path="url(#clip310)" d="M2997.9 554.596 Q2997.9 563.573 2993.35 572.242 Q2988.86 580.911 2981.79 586.261 Q2974.72 591.548 2967.52 591.548 Q2963.22 591.548 2960.33 589.212 Q2957.5 586.814 2955.97 583.432 Q2954.8 587.613 2952.28 597.635 Q2949.76 607.657 2949.76 608.641 Q2949.76 609.194 2949.88 609.44 Q2950 609.686 2950.55 609.993 Q2951.11 610.362 2952.46 610.485 Q2953.81 610.67 2956.09 610.67 Q2957.26 610.67 2957.69 610.67 Q2958.18 610.731 2958.61 611.039 Q2959.1 611.346 2959.1 612.022 Q2959.1 614.543 2956.83 614.543 Q2954.8 614.543 2950.62 614.359 Q2946.44 614.174 2944.34 614.174 Q2942.56 614.174 2939 614.359 Q2935.43 614.543 2933.77 614.543 Q2932.11 614.543 2932.11 613.067 Q2932.11 612.207 2932.36 611.653 Q2932.54 611.161 2933.03 610.916 Q2933.52 610.731 2933.95 610.67 Q2934.32 610.67 2935.06 610.67 Q2937.89 610.67 2939.12 610.178 Q2940.35 609.747 2940.78 608.825 Q2941.27 607.964 2941.82 605.505 L2955.97 549.432 Q2956.83 545.681 2956.83 543.037 Q2956.83 539.717 2955.78 538.488 Q2954.74 537.258 2952.89 537.258 Q2949.69 537.258 2947.6 541.07 Q2945.51 544.882 2943.73 552.26 Q2943.18 554.289 2942.81 554.719 Q2942.5 555.15 2941.58 555.15 Q2940.04 555.088 2940.04 553.858 Q2940.04 553.551 2940.53 551.584 Q2941.02 549.555 2941.95 546.603 Q2942.93 543.591 2943.98 541.685 Q2944.59 540.394 2945.14 539.533 Q2945.7 538.672 2946.8 537.319 Q2947.97 535.967 2949.63 535.229 Q2951.29 534.491 2953.32 534.491 Q2957.26 534.491 2960.52 536.827 Q2963.77 539.164 2964.63 543.898 Q2968.14 539.779 2972.44 537.135 Q2976.75 534.491 2981.11 534.491 Q2988.37 534.491 2993.1 540.148 Q2997.9 545.743 2997.9 554.596 M2988.8 549.063 Q2988.8 543.468 2986.65 540.394 Q2984.56 537.258 2980.74 537.258 Q2976.01 537.258 2970.54 542.054 Q2965.13 546.603 2964.02 550.846 L2957.81 575.501 L2957.44 577.53 Q2957.44 577.899 2957.63 579.005 Q2957.87 580.051 2958.55 581.772 Q2959.29 583.494 2960.27 585.031 Q2961.31 586.506 2963.16 587.613 Q2965.06 588.72 2967.4 588.72 Q2971.15 588.72 2975.21 585.4 Q2979.33 582.08 2982.4 575.808 Q2984.31 571.75 2986.52 563.02 Q2988.8 554.227 2988.8 549.063 Z" fill="#000000" fill-rule="nonzero" fill-opacity="1" /></svg>
